<svg width="408" height="274" fill="none" xmlns="http://www.w3.org/2000/svg"><path d="M218.69 118.41a26.32 26.32 0 0 0-32.93 2.76 26.83 26.83 0 0 0-4.61 32.96M228.1 129.72a27.47 27.47 0 0 0-1.79-3.38M225.84 155.42a26.87 26.87 0 0 0 3.96-20.36M177.62 114.05a38.1 38.1 0 0 0-4.81 5.96" stroke="#263238" stroke-width=".97" stroke-linecap="round" stroke-linejoin="round"/><path d="M233.28 163.43a37.62 37.62 0 0 0-1.77-47.95 36.94 36.94 0 0 0-47.15-6.81M174.45 163.43a37.66 37.66 0 0 1-6.05-34.23M162.8 172.9a52.53 52.53 0 0 0 7.82 8.1" stroke="#263238" stroke-width=".97" stroke-linecap="round" stroke-linejoin="round"/><path d="M233.4 97.18a51.9 51.9 0 0 0-62.54 2.7 52.63 52.63 0 0 0-17.61 28.1 52.93 52.93 0 0 0 2.64 33.13M252.56 121.53a52.63 52.63 0 0 0-5.37-10.35M239.96 178.49a52.72 52.72 0 0 0 16.1-37.97M131 140.52a74.13 74.13 0 0 0 17.3 47.63 73.14 73.14 0 0 0 43.73 25.14" stroke="#263238" stroke-width=".97" stroke-linecap="round" stroke-linejoin="round"/><path d="M262.75 184.43a74.22 74.22 0 0 0 2.23-84.54 73.4 73.4 0 0 0-34.15-27.96 72.78 72.78 0 0 0-43.9-3.21M131 140.52c0-16.55 5.51-32.6 15.66-45.61a73.23 73.23 0 0 1 40.3-26.11M247.19 200.02a73.07 73.07 0 0 0 5.37-4.38M216.08 213.29a72.43 72.43 0 0 0 23.72-8.44" stroke="#263238" stroke-width=".97" stroke-linecap="round" stroke-linejoin="round"/><path d="M203.9 206.68a27.91 27.91 0 0 1-19.78-8.27 28.33 28.33 0 0 1-8.2-19.92v-9.5a1.54 1.54 0 0 1 1.52-1.53h3.8a1.54 1.54 0 0 1 0 3.07h-2.26v7.96c0 6.66 2.62 13.05 7.3 17.76a24.84 24.84 0 0 0 35.27 0 25.22 25.22 0 0 0 7.3-17.76v-7.96h-2.28a1.52 1.52 0 0 1-1.53-1.53 1.54 1.54 0 0 1 1.53-1.54h3.8a1.52 1.52 0 0 1 1.53 1.54v9.49c-.01 7.47-2.97 14.64-8.22 19.93a27.91 27.91 0 0 1-19.78 8.26ZM233.4 230.26v-3.06a3.08 3.08 0 0 0-3.04-3.07h-52.92a3.02 3.02 0 0 0-2.82 1.89c-.15.37-.23.77-.23 1.17v3.07h59.01Z" fill="#263238"/><path d="M206.87 227.86c.05-.22.07-.44.07-.67v-22.05h-6.09v22.06c0 .22.03.45.08.66h5.94Z" fill="#263238"/><path d="M222.74 140.52a19.12 19.12 0 0 0-5.4-13.64 18.83 18.83 0 0 0-13.45-5.67 18.72 18.72 0 0 0-13.44 5.67 19 19 0 0 0-5.4 13.64v37.97c.08 4.98 2.1 9.72 5.63 13.22a18.78 18.78 0 0 0 26.43 0 19.06 19.06 0 0 0 5.63-13.22v-37.97Z" stroke="#263238" stroke-width=".97" stroke-linecap="round" stroke-linejoin="round"/><path d="M222.74 140.52a19.12 19.12 0 0 0-5.4-13.64 18.83 18.83 0 0 0-13.45-5.67 18.72 18.72 0 0 0-13.44 5.67 19 19 0 0 0-5.4 13.64v37.97c.08 4.98 2.1 9.72 5.63 13.22a18.78 18.78 0 0 0 26.43 0 19.06 19.06 0 0 0 5.63-13.22v-37.97Z" fill="#E8E8E8"/><path d="M196.09 142.52h-11.04v4.6h11.04a2.28 2.28 0 0 0 2.28-2.3 2.28 2.28 0 0 0-2.28-2.3ZM222.74 142.52H211.7a2.28 2.28 0 0 0-2.28 2.3 2.3 2.3 0 0 0 2.28 2.3h11.04v-4.6ZM203.9 142.52a2.27 2.27 0 0 0-2.11 1.42 2.32 2.32 0 0 0 1.66 3.14 2.26 2.26 0 0 0 2.35-.98 2.32 2.32 0 0 0-.29-2.9c-.43-.44-1-.68-1.61-.68ZM203.9 151.82a2.27 2.27 0 0 0-2.11 1.42 2.32 2.32 0 0 0 .5 2.51 2.28 2.28 0 0 0 3.9-1.63 2.31 2.31 0 0 0-2.3-2.3ZM203.9 161.11a2.27 2.27 0 0 0-2.11 1.42 2.32 2.32 0 0 0 1.66 3.14 2.27 2.27 0 0 0 2.35-.98 2.31 2.31 0 0 0-1.9-3.58ZM196.09 151.82h-11.04v4.6h11.04a2.28 2.28 0 0 0 2.28-2.3 2.28 2.28 0 0 0-2.28-2.3ZM222.74 151.82H211.7a2.28 2.28 0 0 0-2.28 2.3 2.3 2.3 0 0 0 2.28 2.3h11.04v-4.6ZM196.09 161.11h-11.04v4.6h11.04a2.28 2.28 0 0 0 2.28-2.3 2.28 2.28 0 0 0-2.28-2.3ZM222.74 161.11H211.7a2.31 2.31 0 0 0 0 4.6h11.04v-4.6Z" fill="white"/><path d="M222.74 140.52a19.12 19.12 0 0 0-5.4-13.64 18.83 18.83 0 0 0-13.45-5.67 18.72 18.72 0 0 0-13.44 5.67 19 19 0 0 0-5.4 13.64v37.97c.08 4.98 2.1 9.72 5.63 13.22a18.78 18.78 0 0 0 26.43 0 19.06 19.06 0 0 0 5.63-13.22v-37.97Z" stroke="#263238" stroke-width=".97" stroke-miterlimit="10"/><path d="M185.05 178.49c.08 4.98 2.1 9.72 5.63 13.22a18.78 18.78 0 0 0 26.43 0 19.06 19.06 0 0 0 5.63-13.22h-37.7Z" fill="#263238" stroke="#263238" stroke-width=".97" stroke-miterlimit="10"/><path d="M363.76 168.93a61.02 61.02 0 0 0 0-85.86 59.95 59.95 0 0 0-85.22 0 61.02 61.02 0 0 0 0 85.86 59.95 59.95 0 0 0 85.22 0Z" fill="#E8E8E8"/><path d="M312.5 100.88h-42.1a3.86 3.86 0 0 0-3.83 3.87v42.41a3.86 3.86 0 0 0 3.84 3.87h42.1a3.86 3.86 0 0 0 3.84-3.87v-42.41a3.86 3.86 0 0 0-3.84-3.87Z" fill="white"/><g opacity=".1" fill="black"><path opacity=".1" d="M271.26 151.03h16.61l10.59-50.15h-17.29l-10.57 50.1c.22.03.44.05.66.05ZM305.5 100.88h-4.16l-10.58 50.15h4.16l10.58-50.15Z"/></g><path d="M311.65 152.28h-40.39a6 6 0 0 1-5.94-5.97v-40.7c0-1.58.63-3.1 1.75-4.22a5.93 5.93 0 0 1 4.19-1.76h40.4a5.93 5.93 0 0 1 5.93 5.98v40.7a6 6 0 0 1-5.94 5.97Zm-40.39-50.14a3.44 3.44 0 0 0-3.45 3.47v40.7a3.5 3.5 0 0 0 3.45 3.5h40.4a3.43 3.43 0 0 0 3.19-2.16c.17-.42.26-.88.26-1.33v-40.7a3.49 3.49 0 0 0-3.46-3.48h-40.39Z" fill="white" stroke="#263238" stroke-width=".93" stroke-miterlimit="10"/><path d="M371.06 100.88h-42.1a3.86 3.86 0 0 0-3.84 3.87v42.41a3.86 3.86 0 0 0 3.84 3.87h42.1a3.86 3.86 0 0 0 3.84-3.87v-42.41a3.86 3.86 0 0 0-3.84-3.87Z" fill="white"/><g opacity=".1" fill="black"><path opacity=".1" d="M334.16 151.03h16.61l10.58-50.15h-17.28l-10.6 50.1c.23.03.46.05.69.05ZM368.4 100.88h-4.16l-10.59 50.15h4.17l10.58-50.15Z"/></g><path d="M370.2 152.28h-40.39a5.92 5.92 0 0 1-4.19-1.75 6.01 6.01 0 0 1-1.74-4.21v-40.7a5.93 5.93 0 0 1 5.94-5.98h40.38c1.58 0 3.09.62 4.2 1.74a6.01 6.01 0 0 1 1.74 4.23v40.7a6 6 0 0 1-5.94 5.97Zm-40.39-50.14a3.44 3.44 0 0 0-3.45 3.47v40.7a3.5 3.5 0 0 0 3.45 3.5h40.4a3.43 3.43 0 0 0 3.19-2.16c.17-.42.26-.88.26-1.33v-40.7a3.49 3.49 0 0 0-3.46-3.48h-40.39Z" fill="white" stroke="#263238" stroke-width=".93" stroke-miterlimit="10"/><path d="M322.78 243.02c14.97 0 27.1-1.8 27.1-4.02 0-2.21-12.13-4.01-27.1-4.01s-27.11 1.8-27.11 4.01c0 2.22 12.14 4.02 27.1 4.02Z" fill="#E8E8E8"/><path d="M334.76 215.6s-.07 11.26-1.25 13.1c-1.41 2.2-2.41 5.26 1.32 6.1 3.73.83 5.95 4.98 10.4 5.25 4.44.27 4.89-1.64 2.95-3.18-1.94-1.54-6.85-5.81-7.5-7.89-.65-2.07.6-13.38.6-13.38h-6.52Z" fill="white"/><path opacity=".1" d="M340.7 222.14c.24-3.32.59-6.53.59-6.53h-6.53s0 2.87-.19 5.96c2.02.36 4.07.55 6.13.57Z" fill="black"/><path d="M334.76 215.6s-.07 11.26-1.25 13.1c-1.41 2.2-2.41 5.26 1.32 6.1 3.73.83 5.95 4.98 10.4 5.25 4.44.27 4.89-1.64 2.95-3.18-1.94-1.54-6.85-5.81-7.5-7.89-.65-2.07.6-13.38.6-13.38h-6.52Z" stroke="#263238" stroke-width=".93" stroke-linecap="round" stroke-linejoin="round"/><path d="M348.16 236.87c-1.81-1.45-3.54-3.01-5.16-4.68-1.55 1.19-6.09.07-7.43-1-1.63-1.29-1.29-1.95-2.06-2.53l-.03.05c-1.4 2.19-2.4 5.25 1.32 6.09 3.74.83 5.96 4.98 10.4 5.25 4.44.27 4.9-1.67 2.96-3.18Z" fill="#BFBFBF" stroke="#263238" stroke-width=".93" stroke-miterlimit="10"/><path d="M309.66 211.53s-4.9 10.29-6.74 11.54c-2.24 1.5-4.46 3.92-1.4 6.08 3.07 2.15 3.34 6.79 7.3 8.7 3.95 1.91 5.18.3 4.07-1.81-1.12-2.11-3.81-7.9-3.51-10.04.3-2.15 6.32-12.28 6.32-12.28l-6.04-2.2Z" fill="white"/><path opacity=".1" d="M309.66 211.53s-1.75 3.7-3.55 6.92a19.2 19.2 0 0 0 4.96 3.58c1.88-3.66 4.63-8.3 4.63-8.3l-6.04-2.2Z" fill="black"/><path d="M309.66 211.53s-4.9 10.29-6.74 11.54c-2.24 1.5-4.46 3.92-1.4 6.08 3.07 2.15 3.34 6.79 7.3 8.7 3.95 1.91 5.18.3 4.07-1.81-1.12-2.11-3.81-7.9-3.51-10.04.3-2.15 6.32-12.28 6.32-12.28l-6.04-2.2Z" stroke="#263238" stroke-width=".93" stroke-linecap="round" stroke-linejoin="round"/><path d="M312.89 236a51.2 51.2 0 0 1-2.72-6.2c-1.93.5-5.95-2.1-6.39-3.69-.85-3.06-.35-2.27-.81-3.1l-.04.04c-2.24 1.5-4.46 3.91-1.4 6.07 3.07 2.15 3.34 6.79 7.3 8.7 3.95 1.91 5.17.3 4.06-1.81Z" fill="#BFBFBF" stroke="#263238" stroke-width=".93" stroke-miterlimit="10"/><path d="M335.55 138.7s7.49 36.17 7.99 47.97c.5 11.8-1.45 32.84-1.45 32.84l-8.32-.55s-.05-6.22-.88-14.87c-.5-5.15-2.06-11.16-1.88-17.23 0 0-7.9-23.61-7.62-33.97.29-10.37 0-13.35 0-13.35l12.16-.84Z" fill="#263238" stroke="#263238" stroke-width=".93" stroke-linecap="round" stroke-linejoin="round"/><path d="M315.52 138.7s-7.77 6.47-3.26 19.5c1.77 5.18 8.61 28.84 8.61 28.84a33.05 33.05 0 0 0-4.73 7.16c-3.12 6.2-5.4 15.89-9.25 21.44l5.7 3.87s18.41-23.24 19.59-30.63c1.17-7.38-4.36-36.9-4.36-36.9L326.06 140l-10.54-1.29Z" fill="#263238" stroke="#263238" stroke-width=".93" stroke-linecap="round" stroke-linejoin="round"/><path d="M349.97 114.2a7.3 7.3 0 0 0-1.19-3.43c.57-.76 1.06-1.57 1.47-2.42.42-1-.13-2.43-1.28-.73-1.15 1.7-2.4 2.94-1.95 5.06.24 1.37 0 2.78-.7 3.98l2.65 2.1 5.28-4.23-4.28-.34Z" fill="white" stroke="#263238" stroke-width=".93" stroke-linecap="round" stroke-linejoin="round"/><path d="m352.46 103.35-4.44 1.22a.77.77 0 0 0-.54.95l2.53 9.37c.11.41.53.66.94.55l4.44-1.22c.41-.11.65-.54.54-.95l-2.53-9.38a.77.77 0 0 0-.94-.54Z" fill="#263238" stroke="#263238" stroke-width=".93" stroke-linecap="round" stroke-linejoin="round"/><path d="m353.43 104.01-5.92 1.62 2.47 9.15 5.92-1.62-2.47-9.15Z" fill="#E8E8E8" stroke="#263238" stroke-width=".93" stroke-linecap="round" stroke-linejoin="round"/><path d="M352.25 107.18a1.1 1.1 0 0 0-1.33-.8 1.09 1.09 0 0 0-.79 1.35l.55 2.01 2.1-.57-.53-2ZM352.05 110.65a1.09 1.09 0 0 0 .79-1.24l-2.1.55c.1.26.28.47.52.6s.53.16.79.1Z" fill="#263238"/><path d="m354.02 111.8-1.37.37-.28-1.04a1.7 1.7 0 0 0 1.02-2.04l-.15-.55-.02-.03a.08.08 0 0 0-.03-.02.1.1 0 0 0-.03-.02h-.03l-.23.07-.03.01a.09.09 0 0 0-.03.1l.01.03.03.03.03.01h.04l.13-.04.13.46a1.54 1.54 0 0 1-.54 1.61 1.5 1.5 0 0 1-2.38-.8l-.13-.47.13-.03a.1.1 0 0 0 .06-.05.1.1 0 0 0 0-.07v-.03a.1.1 0 0 0-.04-.02.08.08 0 0 0-.03-.02h-.04l-.22.07a.1.1 0 0 0-.06.04.1.1 0 0 0 0 .03v.04l.15.55a1.71 1.71 0 0 0 1.9 1.24l.28 1.04-1.37.37a.19.19 0 0 0-.14.16.2.2 0 0 0 0 .07l.06.18 3.46-.95-.05-.18a.18.18 0 0 0-.04-.06.17.17 0 0 0-.05-.05.17.17 0 0 0-.07-.02h-.07Z" fill="#263238"/><path d="M354.58 106.15c-.54.06-1 .92-.83 2.13.17 1.21 1.27-.1 1.34-.49.07-.38.53-1.75-.51-1.64ZM355.78 107.96a.95.95 0 0 0-.76.35.98.98 0 0 0-.2.82c.1 1.18.32.9.32.9.01.49.1.97.3 1.42.26.52.98-.27.98-.74s-.07-2.95-.64-2.75Z" fill="white" stroke="#263238" stroke-width=".93" stroke-linecap="round" stroke-linejoin="round"/><path d="M355.15 110.01s.94-.28 1.17-.97Z" fill="white"/><path d="M355.15 110.01s.94-.28 1.17-.97" stroke="#263238" stroke-width=".93" stroke-linecap="round" stroke-linejoin="round"/><path d="M346.97 115c.19-.77.2-1.56.05-2.32-.46-2.12.8-3.37 1.95-5.06 1.15-1.7 1.7-.28 1.28.72-.4.86-.9 1.67-1.47 2.43.74.99 1.15 2.19 1.2 3.42v1.6" fill="white"/><path d="M346.97 115c.19-.77.2-1.56.05-2.32-.46-2.12.8-3.37 1.95-5.06 1.15-1.7 1.7-.28 1.28.72-.4.86-.9 1.67-1.47 2.43.74.99 1.15 2.19 1.2 3.42v1.6" stroke="#263238" stroke-width=".93" stroke-linecap="round" stroke-linejoin="round"/><path d="M332.38 101.75c1.9-.4 2.48-.9 2.48-.9-1.42-5.75 3.67-25.12-12.38-26.02-16.04-.89-7.07 26.56-7.07 26.56l1.75.23-.9-5.52 2.09 5.65c6.18.68 10.14.55 12.63.23a31.07 31.07 0 0 1-.1-7.5c.31 2.45.81 4.89 1.5 7.27Z" fill="#263238"/><path d="M322.48 75.18a3.89 3.89 0 0 0-4.81-.55" stroke="#263238" stroke-width=".93" stroke-linecap="round" stroke-linejoin="round"/><path d="M334.7 105.26v-.18c-.03.08-.06.14 0 .18Z" fill="white" stroke="#263238" stroke-width=".93" stroke-linecap="round" stroke-linejoin="round"/><path d="m346.32 116.66-7.62 7.13.15-10.68a9.63 9.63 0 0 0-4.29-8.15l.29 28.1c7.48.48 14.14-14.3 14.14-14.3a4.1 4.1 0 0 0-2.67-2.1Z" fill="white"/><path opacity=".1" d="M337.54 129.61c-1.14.1-1.4-2.07-1.38-4.2a9.8 9.8 0 0 0-.62 2.5c-.1 2.41-.1 4.8-.06 6.85 8.52-3.89 8.62-7.35 10.8-10.9-1.38 1.79-6.56 5.55-8.74 5.75Z" fill="black"/><path d="m346.32 116.66-7.62 7.13.15-10.68a9.63 9.63 0 0 0-4.29-8.15l.29 28.1c7.48.48 14.14-14.3 14.14-14.3a4.1 4.1 0 0 0-2.67-2.1v0Z" stroke="#263238" stroke-width=".93" stroke-linecap="round" stroke-linejoin="round"/><path d="m344.7 117.58 1.68-1.59 3.66 2.53-1.07 1.79-4.26-2.73Z" fill="#E8E8E8" stroke="#263238" stroke-width=".93" stroke-linecap="round" stroke-linejoin="round"/><path d="M337.57 118.37c-3.07 13.7-1.55 22.7-1.55 22.7s-7.4 5.29-22.96.8c0 0 2.82-7.08 2.06-12.48-.46-3.33-3.56-15.28-3.56-15.28s-1.47-5.23-.8-9.45c1.3-.85 4.1-1.88 9.01-2.24.09-.28.14-.56.17-.85.16-1.4.2-2.8.1-4.2-.06-1.64-.2-2.95-.2-2.95h5.94a64.94 64.94 0 0 0 .7 6.47c.1.5.21.98.35 1.46 5.94.9 8.17 2.46 8.6 3.8 2.01 6.11 2.8 9.3 2.14 12.22Z" fill="white" stroke="#263238" stroke-width=".93" stroke-linecap="round" stroke-linejoin="round"/><path d="M326.06 98.67c-.48 1.1-1.08 1.97-3.18 1.95-1.56 0-2.96-1.38-3.12-1.91.17-1.2 0-1.65-.07-3 2-.06 4 .05 5.99.34.08.88.21 1.76.38 2.62Z" fill="#263238"/><path d="M330.01 86.94v-1.3c-.44-2.14-3.05-2.25-4.25-2.24a9.19 9.19 0 0 1-3.71-.65 5.34 5.34 0 0 0 1.84 2.31c-4.47-1-4.82-3.38-4.65-4.66-1.59 5.6-3.65 5.83-3.65 5.83s0 .5.1 1.3a2.27 2.27 0 0 0-1.76 2.43 2.28 2.28 0 0 0 2.17 2.29c.12 0 .24-.02.35-.05.95 3.7 2.89 7.73 6.87 7.57 3.97-.15 5.6-4.33 6.24-8.1h.35a2.24 2.24 0 0 0 2-2.46 2.3 2.3 0 0 0-1.9-2.27v0Z" fill="white" stroke="#263238" stroke-width=".93" stroke-linecap="round" stroke-linejoin="round"/><path d="m322.05 93.21.68.5a.5.5 0 0 0 .6 0l.63-.48M324.66 90.1s.85-1.13 2.54-.34M320.96 90.1s-.84-1.13-2.54-.34M324.7 95.2a2.83 2.83 0 0 1-3.35.14" stroke="#263238" stroke-width=".93" stroke-linecap="round" stroke-linejoin="round"/><path d="M331.88 190.09c-.2.6-.42 1.19-.68 1.76M323.94 150.15l1.77 1.6a9.24 9.24 0 0 1 2.94 5.48c1.52 9.73 3.96 19.73 3.66 30.3" stroke="white" stroke-width=".93" stroke-linecap="round" stroke-linejoin="round"/><path d="m330.65 150.44-2.81 4.05.35-.5" stroke="white" stroke-width=".93" stroke-linecap="round" stroke-linejoin="round"/><path d="m319.54 134.19.8.83M313.7 122.7c.86 3.5 2.36 6.8 4.45 9.72" stroke="#263238" stroke-width=".93" stroke-linecap="round" stroke-linejoin="round"/><path d="m313.87 85.65-.6.02.08 2.17.6-.03-.08-2.16ZM332.28 84.87l-.6.02.08 2.17.6-.03-.08-2.16Z" fill="white" stroke="#263238" stroke-width=".93" stroke-linecap="round" stroke-linejoin="round"/><path d="M322.4 75.83a9.88 9.88 0 0 0-6.77 3.07 10.03 10.03 0 0 0-2.75 6.94.36.36 0 0 0 .11.26.35.35 0 0 0 .27.1h.63a.36.36 0 0 0 .35-.37 8.65 8.65 0 0 1 2.4-5.94 8.53 8.53 0 0 1 14.68 5.25.35.35 0 0 0 .37.33h.63a.35.35 0 0 0 .26-.12.37.37 0 0 0 .09-.26 10 10 0 0 0-3.28-6.73 9.86 9.86 0 0 0-7-2.53v0ZM314.98 86.97h-.15a3.1 3.1 0 0 0-2.17 1.02 3.16 3.16 0 0 0 .19 4.44c.6.57 1.41.87 2.24.83h.14l-.25-6.29Z" fill="#E8E8E8" stroke="#263238" stroke-width=".93" stroke-linecap="round" stroke-linejoin="round"/><path d="M315.82 90.08c.1 2.33.25 3.84-.55 3.89-.8.04-1.13-1.48-1.22-3.84-.1-2.36.12-3.84.91-3.9.8-.05.77 1.52.86 3.85Z" fill="white" stroke="#263238" stroke-width=".93" stroke-linecap="round" stroke-linejoin="round"/><path d="M330.7 86.34h.14a3.1 3.1 0 0 1 2.96 1.82 3.16 3.16 0 0 1-2.71 4.47h-.14l-.25-6.3Z" fill="#E8E8E8" stroke="#263238" stroke-width=".93" stroke-linecap="round" stroke-linejoin="round"/><path d="M330.08 89.5c.09 2.34.05 3.84.85 3.84.8 0 1.01-1.56.92-3.9-.1-2.33-.43-3.83-1.22-3.8-.8.02-.64 1.53-.55 3.86Z" fill="white" stroke="#263238" stroke-width=".93" stroke-linecap="round" stroke-linejoin="round"/><path d="M317.24 88.03s2.08-1.73 4.04-.17M328.62 87.68s-2.18-1.55-4.04.16" stroke="#263238" stroke-width=".93" stroke-linecap="round" stroke-linejoin="round"/><path d="M319 101.66s1.23 3.13 5.83 3.84c0 0-1.83 3.83-4.35 2.33-3-1.8-3.58-5.53-3.58-5.53l2.1-.64Z" fill="#E8E8E8" stroke="#263238" stroke-width=".93" stroke-linecap="round" stroke-linejoin="round"/><path d="M327.42 102.05a3.57 3.57 0 0 1-2.84 3.56s2.24 3.69 4.07 1.64c1.84-2.05.41-4.84.41-4.84l-1.64-.36ZM326.4 112.93a.55.55 0 0 1-.65.53.54.54 0 0 1-.43-.43.55.55 0 0 1 .54-.65.54.54 0 0 1 .54.55ZM327.14 123.72a.55.55 0 0 1-.65.53.54.54 0 0 1-.43-.43.55.55 0 0 1 .54-.65.54.54 0 0 1 .54.55ZM327.84 134.76a.55.55 0 0 1-.65.54.55.55 0 0 1-.4-.75.55.55 0 0 1 .5-.33.54.54 0 0 1 .55.54Z" fill="#E8E8E8" stroke="#263238" stroke-width=".93" stroke-linecap="round" stroke-linejoin="round"/><path d="M375.77 61.3H265.55a.93.93 0 0 0-.93.93v2c0 .51.42.93.93.93h110.22c.51 0 .93-.42.93-.93v-2a.93.93 0 0 0-.93-.94Z" fill="white"/><path d="M375.59 65.16H265.73M265.73 61.3H375.6" stroke="#263238" stroke-width=".93" stroke-linecap="round" stroke-linejoin="round"/><path d="M299.93 87.3s-4.54-.65-4.79.58c-.24 1.22-.1 3.2.68 3.83 1.48 1.22 1.2 3.5 1.2 3.5l3.81-.38.1-1.92c.2-.62.55-1.19 1.02-1.64 1.37-1.3.82-2.74.59-4.48-.23-1.73-1.37-.96-1.46-.06-.03.8.04 1.6.2 2.39l-1.35-1.83Z" fill="white" stroke="#263238" stroke-width=".93" stroke-linecap="round" stroke-linejoin="round"/><path d="M301 88.98s-1.1.22-1.95 1.77Z" fill="white"/><path d="M301 88.98s-1.1.22-1.95 1.77" stroke="#263238" stroke-width=".93" stroke-linecap="round" stroke-linejoin="round"/><path d="M301 89.38h-5.51a2.38 2.38 0 0 1-1.98-.95 1.65 1.65 0 0 1 0-1.9l2.75-4.08a2.54 2.54 0 0 1 3.1-.71c.34.17.65.41.88.71l2.76 4.07a1.65 1.65 0 0 1 0 1.91 2.39 2.39 0 0 1-2 .95Zm-6.53-2.4a.86.86 0 0 0 0 .99 1.25 1.25 0 0 0 1.03.5h5.5a1.23 1.23 0 0 0 1.02-.5.86.86 0 0 0 0-1l-2.75-4.06a1.25 1.25 0 0 0-1.04-.5 1.22 1.22 0 0 0-1.03.5l-2.76 4.07h.03Z" fill="#263238"/><path d="M296.6 87.35c.28 1.44.1 1.96-.55 1.88-.65-.08-1.31-1.85-.4-2.26l1.62-.71a2.1 2.1 0 0 1 1.9-.07c1.3-.45 1.52.5 1.52.5s.94 2.74.16 2.83c-.78.1-1.42-2.28-1.42-2.28s.97 2.6.08 2.65c-.9.04-1.4-2.53-1.4-2.53s.57 2.26-.27 2.34c-.84.07-1.25-2.35-1.25-2.35ZM298.65 64.12h-.9v18h.9v-18Z" fill="white" stroke="#263238" stroke-width=".93" stroke-linecap="round" stroke-linejoin="round"/><path d="m299.14 81.83-.58.86a.41.41 0 0 1-.32.16.4.4 0 0 1-.32-.16l-.57-.86c-.15-.2.03-.45.31-.45h1.16c.29 0 .46.27.32.45ZM298.72 75.8h-.95a.48.48 0 0 0-.47.47v3.99c0 .26.2.48.47.48h.95c.26 0 .47-.22.47-.48v-3.99a.47.47 0 0 0-.47-.48ZM298.72 60.67h-.95a.47.47 0 0 0-.47.48v4c0 .25.2.47.47.47h.95c.26 0 .47-.22.47-.48v-3.99a.47.47 0 0 0-.47-.48Z" fill="white" stroke="#263238" stroke-width=".93" stroke-linecap="round" stroke-linejoin="round"/><path d="M288.05 89.38h-5.5a2.38 2.38 0 0 1-1.98-.95 1.65 1.65 0 0 1 0-1.9l2.75-4.08a2.56 2.56 0 0 1 3.1-.71c.35.17.65.41.89.71l2.75 4.07a1.65 1.65 0 0 1 0 1.91 2.38 2.38 0 0 1-2 .95Zm-6.53-2.4a.86.86 0 0 0 0 .99 1.25 1.25 0 0 0 1.03.5h5.5a1.25 1.25 0 0 0 1.04-.5.86.86 0 0 0 0-1l-2.75-4.06a1.25 1.25 0 0 0-1.04-.5 1.22 1.22 0 0 0-1.03.5l-2.76 4.07h.01Z" fill="#263238"/><path d="M285.7 64.12h-.88v18h.89v-18Z" fill="white" stroke="#263238" stroke-width=".93" stroke-linecap="round" stroke-linejoin="round"/><path d="m286.2 81.83-.6.86a.4.4 0 0 1-.5.12.4.4 0 0 1-.14-.12l-.58-.86c-.14-.2.04-.45.32-.45h1.16c.28 0 .48.27.34.45ZM285.78 75.8h-.95a.48.48 0 0 0-.48.47v3.99c0 .26.22.48.48.48h.95c.26 0 .47-.22.47-.48v-3.99a.48.48 0 0 0-.47-.48ZM285.78 60.67h-.95a.48.48 0 0 0-.48.48v4c0 .25.22.47.48.47h.95c.26 0 .47-.22.47-.48v-3.99a.47.47 0 0 0-.47-.48Z" fill="white" stroke="#263238" stroke-width=".93" stroke-linecap="round" stroke-linejoin="round"/><path d="M344.14 89.38h-5.5a2.37 2.37 0 0 1-1.99-.95 1.65 1.65 0 0 1 0-1.9l2.76-4.08a2.54 2.54 0 0 1 3.1-.71c.34.17.64.41.88.71l2.75 4.07a1.65 1.65 0 0 1 0 1.91 2.38 2.38 0 0 1-2 .95Zm-6.53-2.4a.85.85 0 0 0 0 .99 1.23 1.23 0 0 0 1.03.5h5.5a1.23 1.23 0 0 0 1.03-.5.85.85 0 0 0 0-1l-2.75-4.06a1.34 1.34 0 0 0-1.04-.5 1.32 1.32 0 0 0-1.04.5l-2.75 4.07h.02Z" fill="#263238"/><path d="M341.79 64.12h-.9v18h.9v-18Z" fill="white" stroke="#263238" stroke-width=".93" stroke-linecap="round" stroke-linejoin="round"/><path d="m342.29 81.83-.58.86a.4.4 0 0 1-.32.16.4.4 0 0 1-.32-.16l-.58-.86c-.14-.2.04-.45.31-.45h1.17c.28 0 .46.27.31.45ZM341.87 75.8h-.96a.48.48 0 0 0-.47.47v3.99c0 .26.21.48.47.48h.96c.26 0 .47-.22.47-.48v-3.99a.47.47 0 0 0-.47-.48ZM341.87 60.67h-.96a.47.47 0 0 0-.47.48v4c0 .25.21.47.47.47h.96c.26 0 .47-.22.47-.48v-3.99a.47.47 0 0 0-.47-.48Z" fill="white" stroke="#263238" stroke-width=".93" stroke-linecap="round" stroke-linejoin="round"/><path d="M356.47 89.38h-5.5a2.38 2.38 0 0 1-1.98-.95 1.65 1.65 0 0 1 0-1.9l2.75-4.08a2.54 2.54 0 0 1 3.99 0l2.75 4.07a1.65 1.65 0 0 1 0 1.91 2.39 2.39 0 0 1-2 .95Zm-6.53-2.4a.86.86 0 0 0 0 .99 1.25 1.25 0 0 0 1.03.5h5.5a1.25 1.25 0 0 0 1.04-.5.86.86 0 0 0 0-1l-2.75-4.06a1.25 1.25 0 0 0-1.04-.5 1.22 1.22 0 0 0-1.03.5l-2.76 4.07h.01Z" fill="#263238"/><path d="M354.13 64.12h-.9v18h.9v-18Z" fill="white" stroke="#263238" stroke-width=".93" stroke-linecap="round" stroke-linejoin="round"/><path d="m354.62 81.83-.58.86a.4.4 0 0 1-.32.16.4.4 0 0 1-.32-.16l-.58-.86c-.14-.2.04-.45.32-.45h1.16c.28 0 .46.27.32.45ZM354.2 75.8h-.95a.48.48 0 0 0-.48.47v3.99c0 .26.22.48.48.48h.95c.26 0 .47-.22.47-.48v-3.99a.47.47 0 0 0-.47-.48ZM354.2 60.67h-.95a.47.47 0 0 0-.48.48v4c0 .25.22.47.48.47h.95c.26 0 .47-.22.47-.48v-3.99a.47.47 0 0 0-.47-.48Z" fill="white" stroke="#263238" stroke-width=".93" stroke-linecap="round" stroke-linejoin="round"/><path d="m301.42 93.97.29 2.34-5.92.27.5-2.34 5.13-.27Z" fill="#E8E8E8" stroke="#263238" stroke-width=".93" stroke-linecap="round" stroke-linejoin="round"/><path d="M311.46 113.63s-10.28 9.52-12.65 9.67c-.58.04-1.09.4-1.58.07-1.09-.74-2.66-2.32-2.43-8.73.12-3.51 2.22-18.13 2.22-18.13l3.81-.17.93 16.44c3.26-3.4 8.93-8.13 8.94-8.13 1.77 5.71.76 8.98.76 8.98Z" fill="white" stroke="#263238" stroke-width=".93" stroke-linecap="round" stroke-linejoin="round"/><path d="M337.37 126.87c.26-1.14.75-2.21 1.43-3.15Z" fill="white"/><path d="M337.37 126.87c.26-1.14.75-2.21 1.43-3.15M300.6 116.65c.39-.18 1.34-1.96 1.14-5" stroke="#263238" stroke-width=".93" stroke-linecap="round" stroke-linejoin="round"/><path d="M304.24 77.61v-6.55c0-.31.13-.61.35-.84.22-.22.53-.35.84-.35h10.2a1.2 1.2 0 0 1 1.19 1.2v6.54c0 .32-.13.62-.35.85-.22.22-.52.35-.84.35h-3.55l.29 2.5h-1.84v2.35l-2.17-3.84h1.77l-.18-1h-4.53a1.18 1.18 0 0 1-1.18-1.2Z" fill="white" stroke="#263238" stroke-width=".93" stroke-linecap="round" stroke-linejoin="round"/><path d="M313.09 72.11h-6.9M314.87 73.97h-8.68M313.53 75.82h-7.34" stroke="#263238" stroke-width=".93" stroke-linecap="round" stroke-linejoin="round"/><path d="M77.27 239.7c14.03 0 25.4-1.69 25.4-3.77s-11.37-3.76-25.4-3.76-25.4 1.68-25.4 3.76 11.37 3.76 25.4 3.76ZM75.04 175.94c24.43 0 44.24-19.95 44.24-44.56 0-24.61-19.8-44.56-44.24-44.56-24.42 0-44.23 19.95-44.23 44.56 0 24.6 19.8 44.56 44.23 44.56Z" fill="#E8E8E8"/><path d="M54.64 160.51s1.13 6.58-2.67 13.97h47.55s-2.18-3.44-4.46-13.97H54.64Z" fill="white" stroke="#263238" stroke-width=".87" stroke-linecap="round" stroke-linejoin="round"/><path d="M65.49 162.03a14.12 14.12 0 0 0-11.97 8.77c-.51 1.25-1.05 2.52-1.55 3.7-2.9 6.75-.16 16.56 7.24 16.56h33.92c6.71 0 8.54-8.55 6.94-15-1.03-4.14-3.12-8.3-6.68-11.22-4.75-3.91-18.64-3.55-27.9-2.8Z" fill="#263238" stroke="#263238" stroke-width=".87" stroke-linecap="round" stroke-linejoin="round"/><path d="M33.1 154.8s-6.08 3.7-6.29 5.71h7.46l2.97-2.14-1 2.16h2.26s2.41-1.89 2.55-3.98l-.25-1.76-4.35-1.95-3.35 1.95Z" fill="white" stroke="#263238" stroke-width=".87" stroke-linecap="round" stroke-linejoin="round"/><path d="M104.34 141.19s-.98-6.45-3.11-15.74c-2.14-9.29-6.32-10.02-6.32-10.02h-.04c-5.44-2.36-19.58-3.63-19.58-3.63h-.65s-14.18 1.27-19.59 3.63h-.04s-4.21.75-6.35 10.02c-2.14 9.27-3.12 15.74-3.12 15.74s-3.86 1.05-10.81 9.86a23.31 23.31 0 0 0-2.77 4.53s5.34-1.77 9.08.94c0 0 12.27-5.24 12.88-10.76 0-.2.05-.42.08-.66l.64 15.4h40.6l.65-15.4c0 .24.05.46.07.66.62 5.52 14.2 11.71 14.2 11.71 3.72-5.76 9.12-2.58 9.12-2.58l-14.94-13.7Z" fill="white"/><path opacity=".3" d="M53.92 145.77c0-.17.04-.35.07-.55l-.89-19.4s-2.45.5-1.75 6.46c.7 5.95 2.18 4.93 1.36 7.22-.82 2.3-4.01-.33-5.07 1.65-1.05 1.98 5.9 1.56 3.03 6.65-2.87 5.1-9.63 8.77-9.63 8.77s12.27-5.27 12.88-10.8ZM96.15 145.77c0-.17 1.6.12 0 0l.49-16.61s-.12 8.03.73 10.34c.85 2.32 4.01-.33 5.06 1.65 1.05 1.98-5.9 1.56-3.02 6.65 2.88 5.1 9.62 8.77 9.62 8.77s-12.26-5.27-12.88-10.8ZM95.53 149.55l-.47 10.96h-36.5c24.49 0 37-10.96 37-10.96h-.03Z" fill="black"/><path d="M104.34 141.19s-.98-6.45-3.11-15.74c-2.14-9.29-6.32-10.02-6.32-10.02h-.04c-5.44-2.36-19.58-3.63-19.58-3.63h-.65s-14.18 1.27-19.59 3.63h-.04s-4.21.75-6.35 10.02c-2.14 9.27-3.12 15.74-3.12 15.74s-3.86 1.05-10.81 9.86a23.31 23.31 0 0 0-2.77 4.53v0s5.34-1.77 9.08.94c0 0 12.27-5.24 12.88-10.76 0-.2.05-.42.08-.66l.64 15.4h40.6l.65-15.4c0 .24.05.46.07.66.62 5.52 14.2 11.71 14.2 11.71 3.72-5.76 9.12-2.58 9.12-2.58l-14.94-13.7Z" stroke="#263238" stroke-width=".87" stroke-linecap="round" stroke-linejoin="round"/><path d="M46.84 141.15a7.5 7.5 0 0 1 5.35 1.88M50.67 126.4s2.51.54 3.09 12.85L53 123.1M53.8 140.96l.1 2.5M103.05 141.15A7.48 7.48 0 0 0 97.7 143M96.73 126.4l.16-3.3" stroke="#263238" stroke-width=".87" stroke-linecap="round" stroke-linejoin="round"/><path d="M82.56 112.7c-.66 3.31-3.84 4.51-7.68 4.51s-7.02-1.2-7.69-4.5h.15a1.97 1.97 0 0 0 1.67-1.53c.05-.15.08-.32.08-.48v-3.9h11.75v3.9a2 2 0 0 0 1.72 2Z" fill="white"/><path d="M80.74 109.72c-1.95 1.92-4.12 3.12-6.21 3.22-2.18.1-4.7-1.7-5.73-3.47.04-.15.06-.3.06-.47v-1.2l11.75.13V109c0 .25.3.55.13.72Z" fill="#263238"/><path d="M82.56 112.7c-.66 3.31-3.84 4.51-7.68 4.51s-7.02-1.2-7.69-4.5h.15a1.97 1.97 0 0 0 1.67-1.53c.05-.15.08-.32.08-.48v-3.9h11.75v3.9a2 2 0 0 0 1.72 2v0Z" stroke="#263238" stroke-width=".87" stroke-linecap="round" stroke-linejoin="round"/><path d="M66.3 98.43s-4.08-4.64-3.55-11.03c.53-6.4 5.74-6.4 5.74-6.4s6.29-5.58 13.3-2.09c7.01 3.5 6.53 15.62 1.34 18.63l-16.84.9Z" fill="#263238"/><path d="M84.25 95.3c.06-1.05.05-1.71.05-1.71-.46-2.83-3.9-3.12-5.47-3.16-6.61-.23-8.35-4.31-8.35-4.31-4.01-1.21-5.15 7.47-5.15 7.47s0 .66.05 1.72a3 3 0 0 0-2.43 3.1c0 1.73 1.24 3.13 2.77 3.13.16 0 .31-.02.46-.05l.72 4.08c.14.92 1 3.08 1.76 3.6 1.63 1.1 4.21 2.66 6.16 2.66 1.67 0 4.02-1.4 5.76-2.34.97-.55 2.03-2.65 2.12-3.75l.46-4.12c.25-.02.5-.04.76-.08 1.53 0 2.77-1.4 2.77-3.13a3.04 3.04 0 0 0-2.44-3.1v0Z" fill="white" stroke="#263238" stroke-width=".87" stroke-linecap="round" stroke-linejoin="round"/><path d="M64.01 92.68h-.72v2.57h.72v-2.57ZM85.95 92.68h-.72v2.57h.72v-2.57Z" fill="white" stroke="#263238" stroke-width=".87" stroke-linecap="round" stroke-linejoin="round"/><path d="M74.62 81.43c-3.05 0-5.99 1.19-8.19 3.32a11.92 11.92 0 0 0-3.6 8.13.42.42 0 0 0 .43.43h.76a.42.42 0 0 0 .42-.41 10.3 10.3 0 0 1 3.14-6.95 10.15 10.15 0 0 1 14.08 0 10.3 10.3 0 0 1 3.14 6.95.43.43 0 0 0 .43.41h.75a.42.42 0 0 0 .4-.27.43.43 0 0 0 .03-.16 11.93 11.93 0 0 0-3.6-8.13 11.75 11.75 0 0 0-8.19-3.32Z" fill="white" stroke="#263238" stroke-width=".87" stroke-linecap="round" stroke-linejoin="round"/><path d="M65.24 94.33h-.17a3.71 3.71 0 0 0-3.58 3.75 3.77 3.77 0 0 0 3.58 3.75h.17v-7.5Z" fill="#263238" stroke="#263238" stroke-width=".87" stroke-miterlimit="10"/><path d="M66.12 98.1c0 2.77.12 4.58-.83 4.58s-1.28-1.81-1.28-4.59.33-4.59 1.28-4.59.83 1.79.83 4.6Z" fill="white" stroke="#263238" stroke-width=".87" stroke-linecap="round" stroke-linejoin="round"/><path d="M84.01 94.33h.16a3.71 3.71 0 0 1 3.59 3.75 3.77 3.77 0 0 1-3.59 3.75h-.16v-7.5Z" fill="#263238" stroke="#263238" stroke-width=".87" stroke-miterlimit="10"/><path d="M83.12 98.1c0 2.77-.12 4.58.84 4.58.95 0 1.27-1.81 1.27-4.59s-.32-4.59-1.27-4.59c-.96 0-.84 1.79-.84 4.6Z" fill="white" stroke="#263238" stroke-width=".87" stroke-linecap="round" stroke-linejoin="round"/><path d="M68.26 98.77s1.55 1.92 4.45.4" stroke="#263238" stroke-width=".87" stroke-linecap="round" stroke-linejoin="round"/><path d="M72.71 106.25a3.73 3.73 0 0 0 4.41 0" stroke="#263238" stroke-width=".75" stroke-linecap="round" stroke-linejoin="round"/><path d="M67.83 96.19s2.8-2.16 5.31 0M81.64 96.26s-2.81-2.2-5.32 0" stroke="#263238" stroke-width=".87" stroke-linecap="round" stroke-linejoin="round"/><path d="M76.96 103.22s.25 1.4-2.3 1.37c-.63 0-1.76-.45-1.8-1.37" stroke="#263238" stroke-width=".75" stroke-linecap="round" stroke-linejoin="round"/><path d="M68.87 99.28c.23.46.76 1 1.94 1.03 1.18.02 1.38-.45 1.4-.9a3.55 3.55 0 0 1-3.34-.13Z" fill="#263238"/><path d="M81.23 98.77s-1.55 1.92-4.46.4" stroke="#263238" stroke-width=".87" stroke-linecap="round" stroke-linejoin="round"/><path d="M80.62 99.28c-.23.46-.76 1-1.94 1.03-1.18.02-1.39-.45-1.41-.9a3.54 3.54 0 0 0 3.35-.13Z" fill="#263238"/><path d="M69.83 78.33s-1.43.8-1.27 3.1c0 0-.5-1.55-2.34-.87" stroke="#263238" stroke-width=".87" stroke-linecap="round" stroke-linejoin="round"/><path d="M74.94 118.92a9.05 9.05 0 0 0 8.56-6.08l-1.45-.21a8.36 8.36 0 0 1-7.1 4 8.28 8.28 0 0 1-7.1-4l-1.47.2a9.16 9.16 0 0 0 8.56 6.09Z" fill="#263238" stroke="#263238" stroke-width=".87" stroke-linecap="round" stroke-linejoin="round"/><path d="m95.9 145.13.71-16.03" stroke="#263238" stroke-width=".87" stroke-linecap="round" stroke-linejoin="round"/><path d="M96.07 90.54v-5.9a1.1 1.1 0 0 0-1.09-1.1h-9.17a1.08 1.08 0 0 0-1.09 1.1v5.9a1.1 1.1 0 0 0 1.09 1.1h3.2l-.26 2.24h1.64V96l1.95-3.46h-1.6l.16-.9h4.08a1.08 1.08 0 0 0 1-.68c.06-.14.09-.28.09-.42v0Z" fill="white" stroke="#263238" stroke-width=".87" stroke-linecap="round" stroke-linejoin="round"/><path d="M86.5 85.58h6.21M86.5 87.25h7.81M86.5 88.92h6.61" stroke="#263238" stroke-width=".87" stroke-linecap="round" stroke-linejoin="round"/><path d="M124.25 157.66c0 1.74-2.72 2.83-6.06 2.83-3.34 0-6.06-1.1-6.06-2.83 0-1.74 2.72-3.16 6.06-3.16 3.34 0 6.06 1.41 6.06 3.16Z" fill="white" stroke="#263238" stroke-width=".87" stroke-linecap="round" stroke-linejoin="round"/><path d="M114.27 159.86c.16-.04.3-.96-1.18-1.64-1.03-.47-1.05-.97-.47-1.59.6-.6 1.6-1.12 2.36-.9 1.26.36 2.1 3 2.65 2.43.85-.22-.17-2.64-1.68-3.43 2.72.68 2.85 3.83 4.1 3.58.96-.19-.7-3.32-2.12-4.25a6.36 6.36 0 0 1 2.34 1.88c.9 1.34 1 1.78 1.63 1.6.8-.26-1.12-3.19-1.36-3.5 1.21.47 1.44 1.5 1.81 1.9.37.41.55 1.1 1.06.83.5-.27.03-1.22-.3-1.78-1.64-2.66-4.36-3.1-6.95-2.77-2.05.26-4.4 1.13-5.64 2.77a2.58 2.58 0 0 0-.17 2.9c.43.93 1.99 2.41 3.92 1.97Z" fill="white" stroke="#263238" stroke-width=".87" stroke-linecap="round" stroke-linejoin="round"/><path d="M125.84 160.51H25.73c-.3 0-.54.25-.54.55v.87c0 .3.24.54.54.54h100.1c.3 0 .55-.24.55-.54v-.87c0-.3-.24-.55-.54-.55Z" fill="#BFBFBF" stroke="#263238" stroke-width=".87" stroke-miterlimit="10"/><path d="m28.66 160.51-7.36-22.54a.6.6 0 0 1 .54-.78h23.27l8.28 23.32H28.66Z" fill="#263238"/><path d="m45.74 137.19 7.62 22.02h20.4v.77a.55.55 0 0 1-.54.55H52.06l-7.33-22.43a.68.68 0 0 1 .63-.89l.38-.02Z" fill="white" stroke="#263238" stroke-width=".87" stroke-linecap="round" stroke-linejoin="round"/><path d="M34.94 148.85a2.1 2.1 0 0 0-.51-1.02 1.17 1.17 0 0 1 .93-.42 1.88 1.88 0 0 1 1.76 1.47 1.15 1.15 0 0 1-.62 1.36c-.17.07-.35.1-.53.1-.41-.01-.81-.17-1.13-.45.16-.32.2-.69.1-1.04Z" fill="white"/><path d="M82.08 160.51h7.44a7.75 7.75 0 0 0 3.14-6.36v-3.52a1.02 1.02 0 0 0-1-1.02h-11.7a1 1 0 0 0-1 1.02v3.52a7.8 7.8 0 0 0 3.12 6.36v0Z" fill="white" stroke="#263238" stroke-width=".87" stroke-linecap="round" stroke-linejoin="round"/><path d="M94.78 151.11a2.13 2.13 0 0 0-2.12-.1v1.27c.33-.05.66.02.93.19 1.05.61.83 1.87.1 3.15a3.4 3.4 0 0 1-1.63 1.64 7.76 7.76 0 0 1-.82 1.5c1.4.3 2.68-.9 3.68-2.63 1.18-2.05 1.53-4.04-.14-5.02Z" fill="white" stroke="#263238" stroke-width=".87" stroke-linecap="round" stroke-linejoin="round"/><path d="M85.95 144.06c.27-.89.4-1.81.4-2.74 0-5.15-4.81-5.76-4.81-11.61M82.54 148.6a7.66 7.66 0 0 0 2.22-2.1M85.53 134.62a2.85 2.85 0 0 1-.32-1.65M89.28 141.85c-.24-1.61-1.16-3.12-2.07-4.5M86.5 148.66s1.58-.67 2.45-3.71" stroke="#263238" stroke-width=".87" stroke-linecap="round" stroke-linejoin="round"/><path d="M96.21 191.04H55.48a5.4 5.4 0 0 0-5.39 5.43v27.13c0 3 2.41 5.42 5.39 5.42H96.2a5.4 5.4 0 0 0 5.39-5.43v-27.12c0-3-2.41-5.43-5.39-5.43Z" fill="white" stroke="#263238" stroke-width=".87" stroke-miterlimit="10"/><path d="m62.97 217.17.61 10.84.07.09a5.18 5.18 0 0 0 6.54 1.5 5.19 5.19 0 0 0 1.82-1.6v0l.23-10.83h-9.27Z" fill="white" stroke="#263238" stroke-width=".87" stroke-linecap="round" stroke-linejoin="round"/><path d="M74.27 238.6c-4.12.72-8.34.72-12.47 0a5.47 5.47 0 0 1-1.19-6.22l2.49-4.48 9.85.11 2.22 4.08a5.51 5.51 0 0 1-.9 6.5Z" fill="#BFBFBF" stroke="#263238" stroke-width=".87" stroke-miterlimit="10"/><path d="M71.85 232.97c.61.27 1.2.6 1.74.99Z" fill="#BFBFBF"/><path d="M71.85 232.97c.61.27 1.2.6 1.74.99" stroke="#263238" stroke-width=".87" stroke-miterlimit="10"/><path d="M62.56 233.96a9.86 9.86 0 0 1 7.47-1.56" fill="#BFBFBF"/><path d="M62.56 233.96a9.86 9.86 0 0 1 7.47-1.56" stroke="#263238" stroke-width=".87" stroke-miterlimit="10"/><path d="m57.66 172.46 4.36 50.24h11.25s1.12-30.69 1.82-50.61a8.83 8.83 0 0 0-5.3-8.42 8.65 8.65 0 0 0-11.68 5.22 8.83 8.83 0 0 0-.45 3.57Z" fill="#263238"/><path d="M68.86 163.33a8.66 8.66 0 0 0-2.52-.36v0a8.65 8.65 0 0 0-6.4 2.83 8.78 8.78 0 0 0-2.28 6.66l1.55 18.58M73.56 166.76a9.15 9.15 0 0 0-1.56-1.72s-.68-.55-.98-.73M74.35 191.04c.22-6.22.57-13.5.76-18.95.05-1.36-.2-2.7-.76-3.94" stroke="white" stroke-width=".87" stroke-linecap="round" stroke-linejoin="round"/><path d="m81.28 217.17.61 10.84.07.09a5.18 5.18 0 0 0 6.54 1.5 5.19 5.19 0 0 0 1.82-1.6v0l.23-10.83h-9.27Z" fill="white" stroke="#263238" stroke-width=".87" stroke-linecap="round" stroke-linejoin="round"/><path d="M92.58 238.6c-4.12.72-8.34.72-12.47 0a5.46 5.46 0 0 1-1.19-6.22l2.5-4.48 9.84.11 2.22 4.08a5.51 5.51 0 0 1-.9 6.5Z" fill="#BFBFBF" stroke="#263238" stroke-width=".87" stroke-miterlimit="10"/><path d="M90.16 232.97c.61.27 1.2.6 1.74.99Z" fill="#BFBFBF"/><path d="M90.16 232.97c.61.27 1.2.6 1.74.99" stroke="#263238" stroke-width=".87" stroke-miterlimit="10"/><path d="M80.88 233.96a9.86 9.86 0 0 1 7.48-1.56" fill="#BFBFBF"/><path d="M80.88 233.96a9.86 9.86 0 0 1 7.48-1.56" stroke="#263238" stroke-width=".87" stroke-miterlimit="10"/><path d="m76 172.46 4.34 50.24H91.6l1.83-50.61a8.86 8.86 0 0 0-5.35-8.43 8.67 8.67 0 0 0-9.82 2.15 8.78 8.78 0 0 0-2.27 6.65Z" fill="#263238"/><path d="M88.25 163.73a8.65 8.65 0 0 0-7.09-.01 8.7 8.7 0 0 0-4.73 5.17 8.83 8.83 0 0 0-.44 3.57l1.63 18.58M91.88 166.76a8.85 8.85 0 0 0-1.57-1.72M93.13 191.04c.23-6.22.1-13.5.3-18.95.04-1.2-.16-2.4-.6-3.51" stroke="white" stroke-width=".87" stroke-linecap="round" stroke-linejoin="round"/><path d="M226.44 86.95V63.57a4.28 4.28 0 0 0-4.23-4.27h-36.42a4.21 4.21 0 0 0-4.23 4.27v23.38a4.28 4.28 0 0 0 4.23 4.26h12.68l-1 8.9H204v8.4l7.75-13.7h-6.36l.67-3.6h16.15a4.22 4.22 0 0 0 4.23-4.26v0Z" fill="white" stroke="#263238" stroke-width="1.03" stroke-linecap="round" stroke-linejoin="round"/><path d="M188.51 67.3h24.62M188.51 73.93h30.98M188.51 80.56h26.21" stroke="#263238" stroke-width="1.03" stroke-linecap="round" stroke-linejoin="round"/><path d="m254.25 187.08 22 7.38-5.45 5.5 10.18 10.26-22-7.38 5.46-5.5-10.19-10.26ZM153.75 187.08l-22 7.38 5.45 5.5-10.18 10.26 22-7.38-5.46-5.5 10.19-10.26ZM203.38 17.61l-10.37 20.9h7.73v14.51l10.36-20.9h-7.72v-14.5Z" fill="#E8E8E8" stroke="#263238" stroke-width="1.03" stroke-linecap="round" stroke-linejoin="round"/></svg>