<svg width="390" height="264" fill="none" xmlns="http://www.w3.org/2000/svg"><path d="M289.74 146.99s-5.9-3.28-6.34 4.14c-.44 7.42-1.53 55.65-1.53 55.65" stroke="#263238" stroke-width="2" stroke-linecap="round" stroke-linejoin="round"/><path d="M280.32 151.79s4.8 10.7 2.63 54.34" stroke="#263238" stroke-width="2" stroke-linecap="round" stroke-linejoin="round"/><path d="M285.07 148.48s-2.26 1.44-3.55-.2c-1.28-1.65.87-4.69-1.02-5.98-1.9-1.3-5.18.68-5.18.68s2.52.74 2.44 2.11c-.08 1.38-1.3 1.92-1.44 1.3-.14-.63-1.37-3.63-3.42-2.37a5.08 5.08 0 0 0-2.35 3.2s4.76-.5 5.05 1.3c.29 1.79-1.95-.32-3.92-.43-1.97-.12-3.76.17-3.63 1.36.04 1.05-.02 2.1-.2 3.14a5.85 5.85 0 0 1 3.85-1.35c2.16.13 2.08 1.5.12 1.39-1.97-.12-3.66 1.75-3.66 1.75s1.8 3.06 4.07 4.58c2.28 1.51 3.1.96 3.36-.2.26-1.15-.34-4.16 1.03-4.08 1.38.08-2.28 5.2-.52 5.5 1.76.3 3.17-.22 3.63-1.37l.48-1.16s-.61-2.99-.34-4.16c.27-1.17.59.04.9 1.44.31 1.4.51 4.77 1.11 4.6.6-.16 2.52-2.6 2.98-3.57.45-.96-2.54-3.9-2.5-4.48.03-.6 2.33.53 2.7 1.14.25.47.49.95.7 1.44 0 0 1.44-.9 1.4-3.66-.04-2.76-2.1-1.92-2.1-1.92Z" fill="white"/><path opacity=".3" d="M285.07 148.48s-2.26 1.44-3.55-.2c-1.28-1.65.87-4.69-1.02-5.98-1.9-1.3-5.18.68-5.18.68s2.52.74 2.44 2.11c-.08 1.38-1.3 1.92-1.44 1.3-.14-.63-1.37-3.63-3.42-2.37a5.08 5.08 0 0 0-2.35 3.2s4.76-.5 5.05 1.3c.29 1.79-1.95-.32-3.92-.43-1.97-.12-3.76.17-3.63 1.36.04 1.05-.02 2.1-.2 3.14a5.85 5.85 0 0 1 3.85-1.35c2.16.13 2.08 1.5.12 1.39-1.97-.12-3.66 1.75-3.66 1.75s1.8 3.06 4.07 4.58c2.28 1.51 3.1.96 3.36-.2.26-1.15-.34-4.16 1.03-4.08 1.38.08-2.28 5.2-.52 5.5 1.76.3 3.17-.22 3.63-1.37l.48-1.16s-.61-2.99-.34-4.16c.27-1.17.59.04.9 1.44.31 1.4.51 4.77 1.11 4.6.6-.16 2.52-2.6 2.98-3.57.45-.96-2.54-3.9-2.5-4.48.03-.6 2.33.53 2.7 1.14.25.47.49.95.7 1.44 0 0 1.44-.9 1.4-3.66-.04-2.76-2.1-1.92-2.1-1.92Z" fill="#263238"/><path d="M273.62 154.96c1.48-1.82 3.64-4.28 5.46-5.46M271.92 157.17s.37-.53.99-1.31M280.04 149.96s2.19 3.08 2.6 6.26M277.56 151.78s.62-.35.39 3.57M279.16 148.12s1.25-1.11.6-3.32M277.47 150l-.89-1.63M275.6 151.67s-2.84-2.14-4.6-2.25" stroke="#263238" stroke-linecap="round" stroke-linejoin="round"/><path d="M293.11 142.66s-.09 3.24-2.62 3.4c-2.54.15-4.1-4.06-6.7-3.05-2.59 1.01-2.84 5.64-2.84 5.64s2.46-2.02 3.79-1c1.32 1.02 1.01 2.59.3 2.34-.72-.25-4.57-1.1-4.7 1.8a6.11 6.11 0 0 0 1.6 4.55s2.75-5.11 4.75-4.18c2 .93-1.65 1.74-3.11 3.63-1.46 1.88-2.4 3.87-1.11 4.56 1.08.67 2.1 1.45 3.02 2.33 0 0-.34-2.68 1.26-4.75 1.6-2.08 2.93-1.06 1.47.83-1.45 1.89-.73 4.85-.73 4.85s4.29.3 7.36-.96c3.07-1.26 3.1-2.44 2.1-3.5-.99-1.07-4.4-2.5-3.39-3.82 1.02-1.32 3.65 5.82 5.15 4.27 1.5-1.55 1.95-3.31 1.11-4.56l-.84-1.25s-3.42-1.44-4.4-2.5c-1-1.04.43-.56 2.05.08 1.61.64 5.11 2.74 5.36 2.03.25-.71-.9-4.32-1.55-5.4-.65-1.1-5.63-.13-6.2-.57-.57-.44 2.13-1.97 2.99-1.92.85.06 1.91.27 1.91.27s.08-2.05-2.71-3.9c-2.8-1.85-3.32.78-3.32.78Z" fill="white"/><path opacity=".2" d="M293.11 142.66s-.09 3.24-2.62 3.4c-2.54.15-4.1-4.06-6.7-3.05-2.59 1.01-2.84 5.64-2.84 5.64s2.46-2.02 3.79-1c1.32 1.02 1.01 2.59.3 2.34-.72-.25-4.57-1.1-4.7 1.8a6.11 6.11 0 0 0 1.6 4.55s2.75-5.11 4.75-4.18c2 .93-1.65 1.74-3.11 3.63-1.46 1.88-2.4 3.87-1.11 4.56 1.08.67 2.1 1.45 3.02 2.33 0 0-.34-2.68 1.26-4.75 1.6-2.08 2.93-1.06 1.47.83-1.45 1.89-.73 4.85-.73 4.85s4.29.3 7.36-.96c3.07-1.26 3.1-2.44 2.1-3.5-.99-1.07-4.4-2.5-3.39-3.82 1.02-1.32 3.65 5.82 5.15 4.27 1.5-1.55 1.95-3.31 1.11-4.56l-.84-1.25s-3.42-1.44-4.4-2.5c-1-1.04.43-.56 2.05.08 1.61.64 5.11 2.74 5.36 2.03.25-.71-.9-4.32-1.55-5.4-.65-1.1-5.63-.13-6.2-.57-.57-.44 2.13-1.97 2.99-1.92.85.06 1.91.27 1.91.27s.08-2.05-2.71-3.9c-2.8-1.85-3.32.78-3.32.78Z" fill="#263238"/><path d="M291.8 158.51c-.81-2.71-1.8-6.55-1.74-9.17M292.86 161.72s-.27-.73-.64-1.88M291.17 148.69s4.58-.09 8.04 1.67M291.31 152.4s.06-.85 3.84 2.06M288.74 148.32s-.26-2-2.92-2.85M289.46 151.29l-2.24-.22M289.85 154.3s-4.07 1.38-5.38 3.07" stroke="#263238" stroke-linecap="round" stroke-linejoin="round"/><path d="M265.92 164.23s12.9 8.51 12.67 41.46" stroke="#263238" stroke-width="2" stroke-linecap="round" stroke-linejoin="round"/><path d="M281.82 161.98s-.42 3.73-3.36 3.68c-2.95-.06-4.35-5.08-7.43-4.15-3.08.92-3.82 6.23-3.82 6.23s3.03-2.1 4.47-.8c1.43 1.3.92 3.09.12 2.73-.8-.35-5.17-1.7-5.6 1.64a7.08 7.08 0 0 0 1.45 5.4s3.65-5.64 5.86-4.38c2.21 1.26-2.06 1.85-3.93 3.9-1.86 2.04-3.12 4.25-1.71 5.16 1.19.87 2.29 1.87 3.27 2.97 0 0-.15-3.12 1.92-5.37 2.07-2.24 3.48-.95 1.62 1.1-1.86 2.05-1.3 5.53-1.3 5.53s4.92.75 8.59-.4c3.66-1.15 3.79-2.52 2.75-3.84-1.05-1.31-4.85-3.29-3.55-4.72 1.3-1.42 3.66 7.06 5.54 5.41 1.88-1.65 2.56-3.64 1.7-5.16l-.89-1.52s-3.8-1.97-4.85-3.3c-1.04-1.31.56-.6 2.36.28 1.8.9 5.65 3.65 6 2.85.35-.8-.63-5.05-1.26-6.39-.63-1.34-6.49-.67-7.1-1.22-.62-.56 2.64-2.09 3.63-1.92.73.12 1.45.28 2.17.48 0 0 .28-2.36-2.77-4.76s-3.88.57-3.88.57Z" fill="white"/><path opacity=".3" d="M281.82 161.98s-.42 3.73-3.36 3.68c-2.95-.06-4.35-5.08-7.43-4.15-3.08.92-3.82 6.23-3.82 6.23s3.03-2.1 4.47-.8c1.43 1.3.92 3.09.12 2.73-.8-.35-5.17-1.7-5.6 1.64a7.08 7.08 0 0 0 1.45 5.4s3.65-5.64 5.86-4.38c2.21 1.26-2.06 1.85-3.93 3.9-1.86 2.04-3.12 4.25-1.71 5.16 1.19.87 2.29 1.87 3.27 2.97 0 0-.15-3.12 1.92-5.37 2.07-2.24 3.48-.95 1.62 1.1-1.86 2.05-1.3 5.53-1.3 5.53s4.92.75 8.59-.4c3.66-1.15 3.79-2.52 2.75-3.84-1.05-1.31-4.85-3.29-3.55-4.72 1.3-1.42 3.66 7.06 5.54 5.41 1.88-1.65 2.56-3.64 1.7-5.16l-.89-1.52s-3.8-1.97-4.85-3.3c-1.04-1.31.56-.6 2.36.28 1.8.9 5.65 3.65 6 2.85.35-.8-.63-5.05-1.26-6.39-.63-1.34-6.49-.67-7.1-1.22-.62-.56 2.64-2.09 3.63-1.92.73.12 1.45.28 2.17.48 0 0 .28-2.36-2.77-4.76s-3.88.57-3.88.57Z" fill="#263238"/><path d="M278.81 180.15c-.69-3.2-1.46-7.73-1.14-10.75M279.73 183.96s-.25-.88-.57-2.24M279 168.73s5.29.34 9.13 2.7M278.82 173.05s.15-.96 4.24 2.73M276.24 168.1s-.12-2.34-3.1-3.56M276.8 171.6l-2.57-.47M276.96 175.1s-4.83 1.2-6.5 3.04" stroke="#263238" stroke-linecap="round" stroke-linejoin="round"/><path d="M270.95 190.2s8.3 6.33 9.17 15.71l-1.72-31.43M291.05 185.62c-10.93-1.97-10.93 20.3-10.93 20.3" stroke="#263238" stroke-width="2" stroke-linecap="round" stroke-linejoin="round"/><path d="M281.43 205.69s-6.33-46.05 12-46.05" stroke="#263238" stroke-width="2" stroke-linecap="round" stroke-linejoin="round"/><path d="M286.89 184.29c-1.5-1.68-4.67-1.68-6.53 2.61-1.86 4.28-.19 3.54-.19 3.54s3.54-1.12 5.76-1.87c2.22-.75 5.22-2.6 5.41-1.48.19 1.12-1.5 2.23-3.55 2.6-2.05.38-7.46 1.86-6.9 2.99a93.64 93.64 0 0 1 1.87 4.46 47.7 47.7 0 0 1 5.03-3.72c2.43-1.5 3.93-.93 2.62.74-1.3 1.68-5.04 3.54-4.3 5.78.76 2.23 5.25 5.03 5.25 5.03s.56-4.66 1.87-6.15c1.3-1.49 1.3.19.93 2.8a29.99 29.99 0 0 0-.38 3.35l5.23 1.86c.85-1.3 1.79-2.54 2.8-3.72l.95-.93s-4.1-3.55-4.29-5.76c-.18-2.2 2.8 0 3.73.38.94.37 2.43 2.97 2.43 2.97s.93-4.28 1.12-5.75l.19-1.49s-3.92-1.49-5.42-1.49c-1.49 0-2.23 1.12-2.23-.37 0-1.5 1.49-2.42 3.17-2.24 1.52.25 3.02.63 4.48 1.12 0 0 1.12-.93.74-3.73-.37-2.8-1.3-2.8-3.54-2.05s-3.74 2.4-5.41 2.4c-1.69 0-.75-2.05.37-2.6a59.59 59.59 0 0 1 4.48-1.87c.56-.19-2.99-2.8-4.85-3.16-1.87-.37-4.29.95-4.1 2.79.35 3.9-5.25 4.66-6.74 2.96Z" fill="white"/><path d="M298.9 203.47c.05.56.1 1.13.11 1.69M295.15 190.1a49.3 49.3 0 0 1 3.51 11.55M294.48 188.6c-.93-1.98-1.62-3.2-1.62-3.2 1-.48 1.84-1.26 2.4-2.23a6.24 6.24 0 0 1 1.87-2.23M286.32 191.74s6.73-2.8 6.73-2.23M296.77 188.2s2.99-1.49 5.6-1.49M295.68 192.7a25.89 25.89 0 0 0-3.55 3.54 16.1 16.1 0 0 0-2.6 4.28M297.7 193.42s3.93-1.12 5.98.74" stroke="#263238" stroke-linecap="round" stroke-linejoin="round"/><path d="M304.8 168.25c-2.03-1.2-4.28-1.22-5.38-2.49-1.1-1.26 1.06-1.92 2.22-1.44 1.15.48 3.84 1.86 4.34 2.16.5.3.16-4.08-.78-5.75-.94-1.67-3.52-2.61-4.8-1.27-2.71 2.85-6.95-.89-6.66-3.11.29-2.22-1.79-4.62-6.24-3.21-4.45 1.4-2.8 2.18-2.8 2.18s3.17 1.94 5.2 3.14c2.04 1.2 5.4 2.23 4.68 3.1-.73.87-2.67.34-4.3-.96s-6.3-4.4-6.78-3.25a84.67 84.67 0 0 1-2.16 4.32c2.07.31 4.12.77 6.12 1.35 2.72.85 3.28 2.34 1.16 2.46-2.13.11-5.99-1.48-7.2.55-1.23 2.03-.38 7.24-.38 7.24s3.88-2.64 5.87-2.63c1.98.01.71 1.11-1.5 2.54-.97.59-1.9 1.23-2.79 1.92l2.02 5.16c1.54-.2 3.1-.32 4.65-.33l1.32.1s0-5.43 1.55-7.03c1.56-1.6 1.83 2.1 2.17 3.06.33.95-.67 3.78-.67 3.78s3.84-2.1 5.1-2.94l1.25-.84s-1.44-3.93-2.4-5.06c-.96-1.12-2.3-.95-1.18-1.91 1.12-.96 2.81-.48 3.77.92.8 1.31 1.5 2.69 2.09 4.11 0 0 1.44.23 3.3-1.88 1.87-2.11 1.25-2.8-.79-3.99Zm-17.65 5.97c-1.5-.75 2.05-2.24 2.05-2.24 1.3-.2-.56 2.98-2.05 2.23Zm2.5-6.96c-.63-.32 1.28-.96 1.28-.96 2.76.51-.63 1.27-1.27.95v.01Z" fill="white"/><path d="M287.1 178c-.38.41-.78.81-1.19 1.2M294.76 166.4a49.18 49.18 0 0 1-6.42 10.23M295.45 164.92c.9-2 1.36-3.32 1.36-3.32a5.5 5.5 0 0 0 3.28.37 6.24 6.24 0 0 1 2.92-.06M293.83 164.42c.42-.37-6.09-3.6-6.09-3.6M297.26 166.4s3.1 1.27 4.8 3.24M293.15 168.48c-1.65-.28-3.33-.4-5-.35-1.68.02-3.35.3-4.95.84M293.93 170.51s3.42 2.23 3.36 5" stroke="#263238" stroke-linecap="round" stroke-linejoin="round"/><path d="M275.81 194.06c-1.63-.96-3.44-.99-4.32-2-.88-1.03.85-1.54 1.78-1.15.94.38 3.09 1.49 3.5 1.73.42.24.13-3.29-.63-4.61-.76-1.33-2.83-2.1-3.84-1.02-2.19 2.29-5.6-.71-5.36-2.5.24-1.8-1.44-3.72-5.03-2.6-3.6 1.14-2.25 1.76-2.25 1.76s2.54 1.57 4.18 2.53c1.64.96 4.32 1.8 3.76 2.5-.56.7-2.15.27-3.46-.78-1.3-1.05-5.06-3.55-5.45-2.62-.4.93-1.74 3.5-1.74 3.5 1.67.25 3.31.61 4.93 1.09 2.18.68 2.63 1.89.92 1.98-1.7.09-4.8-1.2-5.76.44-.96 1.63-.3 5.82-.3 5.82s3.13-2.11 4.72-2.1c1.6 0 .58.88-1.2 2.03-.78.47-1.53.99-2.25 1.54l1.63 4.16a29.5 29.5 0 0 1 3.74-.27l1.06.08s0-4.36 1.25-5.66c1.26-1.28 1.48 1.7 1.74 2.46.27.77-.53 3.05-.53 3.05s3.1-1.7 4.1-2.37l1.01-.67s-1.16-3.16-1.95-4.07c-.79-.9-1.86-.77-.96-1.56.9-.78 2.26-.37 3.04.75a23.49 23.49 0 0 1 1.68 3.3s1.16.2 2.66-1.5c1.5-1.71.96-2.28-.67-3.24Zm-14.2 4.8c-1.2-.6 1.65-1.8 1.65-1.8 1.05-.15-.45 2.4-1.66 1.8Zm2.02-5.6c-.51-.26 1.02-.77 1.02-.77 2.23.43-.51 1.03-1.02.77Z" fill="white"/><path d="M261.6 201.91c-.31.33-.63.66-.96.96M267.73 192.59a39.78 39.78 0 0 1-5.17 8.22M268.3 191.39c.71-1.6 1.08-2.67 1.08-2.67.83.36 1.75.46 2.64.29.77-.2 1.57-.22 2.34-.05M262.08 188.1s5.25 2.6 4.9 2.87M269.76 192.57s2.48 1.03 3.84 2.6M266.43 194.25a20.85 20.85 0 0 0-4.02-.28c-1.35.01-2.7.24-3.98.67M267.06 195.89s2.75 1.79 2.7 4.02" stroke="#263238" stroke-linecap="round" stroke-linejoin="round"/><path d="M269.15 163.3s-2.05 1.49-3.36 0c-1.3-1.5.56-4.48-1.31-5.6-1.87-1.11-4.85.94-4.85.94s2.43.56 2.43 1.86-1.12 1.86-1.31 1.3c-.19-.55-1.5-3.35-3.36-2.05a4.81 4.81 0 0 0-2.05 3.17s4.47-.74 4.85.93c.37 1.68-1.87-.19-3.73-.19-1.86 0-3.55.38-3.36 1.5.1.99.1 1.99 0 2.98a5.55 5.55 0 0 1 3.55-1.5c2.05 0 2.05 1.31.18 1.31-1.86 0-3.36 1.87-3.36 1.87s1.87 2.79 4.1 4.1c2.24 1.3 3 .74 3.18-.38.19-1.12-.56-3.91.74-3.91 1.31 0-1.86 5.03-.18 5.21 1.67.19 2.98-.37 3.36-1.49l.37-1.11s-.75-2.8-.56-3.92c.19-1.11.56 0 .93 1.3.37 1.31.75 4.48 1.3 4.3.56-.2 2.25-2.61 2.62-3.54.38-.93-2.61-3.55-2.61-4.1 0-.56 2.24.37 2.61.93.27.42.52.85.75 1.3 0 0 1.3-.93 1.12-3.54-.2-2.61-2.05-1.67-2.05-1.67Z" fill="white"/><path d="M258.72 170.05c1.3-1.8 3.2-4.24 4.86-5.45M257.2 172.24l.87-1.3M264.48 164.97s2.24 2.8 2.8 5.78M262.25 166.81s.56-.37.56 3.36M263.55 163.3s1.12-1.13.37-3.17M262.06 165.16l-.94-1.5M260.38 166.81s-2.8-1.86-4.48-1.86" stroke="#263238" stroke-linecap="round" stroke-linejoin="round"/><path d="M287.99 205.03h-14.42v20.74h14.42v-20.74Z" fill="#263238" stroke="#263238" stroke-width="2" stroke-linecap="round" stroke-linejoin="round"/><path d="M158.07 45.72s.18-6.13-.04-11.4c-.22-5.26.22-16.56.22-16.56M158.15 24.4l-2.4-1.88M158.12 25.7l.86-1.37M157.93 31.15l2.13-1.76M158.25 20.08l-1.12-1.02M157.91 32.1l-1.4-1.5M158.03 38.02l-2.92-2.66" stroke="#263238" stroke-miterlimit="10"/><path d="M158.1 41.3c.75-.28 1.48-.62 2.18-1" stroke="#263238" stroke-miterlimit="10"/><path d="M156.48 25.35c-1.18-.9-5.12-.74-5.88 1.14-.76 1.88 1.66 4.96 3.96 4.74.9-.09 1.3-.15 1.66-.66l-3.24-3.16 3.5 2.82a3.16 3.16 0 0 0 .35-1.03c.24-1.12.76-3-.35-3.85ZM164.12 23.17v.06c-.32 1.4-1.92 2.2-3.28 2.08a3 3 0 0 1-.56-.1 3.82 3.82 0 0 0-.12 3.86l4.66-3.96-4.42 4.26c1.33 1.43 4.46 1.23 5.55-1.41 1.09-2.65-.3-4.41-1.83-4.8Z" fill="white"/><path d="M161.95 18.25c-2.3-.48-4.35.54-4.32 2.93a3.87 3.87 0 0 0 1.28 2.79l2.37-3.22-1.99 3.51c.45.3.96.49 1.5.54 1.35.11 2.96-.68 3.28-2.09.33-1.57.17-3.95-2.12-4.46ZM159.27 9.94s-.24.07-1.7.78a3.71 3.71 0 0 0 .49 6.74l.59-5.7-.25 5.78h.34c.96-.1 2.46-1.24 2.6-3.57.15-2.34-2.07-4.03-2.07-4.03Z" fill="white"/><path d="m152.56 15.12 4.43 3.54c.05-.16.06-.32.05-.48-.2-2.03-2.23-3.2-3.56-3.62-1.34-.42-2.26.33-1.4 2.27.85 1.93 3.1 2.87 4.1 2.58.25-.06.46-.19.62-.37l-4.24-3.92Z" fill="white"/><path d="M155.61 19.65a4.5 4.5 0 0 1-3.4-1.96 1.81 1.81 0 0 0-1.97 1.58c-.45 2.11 1.07 4.32 3.28 4.05.69-.04 1.35-.32 1.85-.79l-3.94-3.6 4.22 3.22a3.5 3.5 0 0 0-.04-2.5ZM155.59 31.38c-.36.16-.74.25-1.13.27-1.44.14-2.9-1-3.64-2.31a1.92 1.92 0 0 0-1.76 1.58c-.44 2.47 1.85 5.72 4.17 5.2a3.3 3.3 0 0 0 1.6-.81l-5.05-4.85 5.35 4.53c.3-.39.5-.85.57-1.34.25-.74.21-1.55-.11-2.27ZM165.75 36.43c-1.7-1.96-3.72-.2-3.72-.2s-1.24.4-1.71 2.16a2.7 2.7 0 0 0 .06 1.61l5.11-2.97-4.98 3.25c.48.88 1.48 1.44 2.88 1.03 2.23-.61 4.05-2.9 2.36-4.88Z" fill="white"/><path d="M161.51 43.87h-7.06v10.46h7.06V43.87Z" fill="#263238"/><path d="M239.55 54.24H146.3v172.2h93.25V54.24Z" fill="white" stroke="#263238" stroke-miterlimit="10"/><path d="M226.4 56.42h-78.16v167.4h78.16V56.41Z" fill="#263238" stroke="#263238" stroke-linecap="round" stroke-linejoin="round"/><path d="M226.4 82.38h-78.16v2.47h78.16v-2.47ZM226.4 110.92h-78.16v2.47h78.16v-2.47ZM201.21 56.45h-1.66v25.93h1.66V56.45ZM174.64 56.45h-1.66v25.93h1.66V56.45ZM201.21 113.42h-1.66v25.93h1.66v-25.93ZM174.64 113.42h-1.66v25.93h1.66v-25.93ZM187.8 84.99h-1.67v25.93h1.66V84.99ZM226.4 139.35h-78.16v2.47h78.16v-2.47ZM226.4 167.8h-78.16v56.89h78.16v-56.9ZM187.8 141.87h-1.67v25.92h1.66v-25.92Z" fill="white" stroke="#263238" stroke-miterlimit="10"/><path d="M228.32 54.22V226.4l11.24.04V54.22h-11.24Z" fill="#263238" stroke="#263238" stroke-linecap="round" stroke-linejoin="round"/><path d="M206.38 58.46h-4.02v23.86h4.02V58.46Z" fill="white" stroke="#263238" stroke-miterlimit="10"/><path d="M206.38 77.2h-4.02v1.95h4.02V77.2ZM206.38 60.88h-4.02v1.96h4.02v-1.96ZM210.48 58.46h-4.01v23.86h4.01V58.46Z" fill="white" stroke="#263238" stroke-miterlimit="10"/><path d="M210.48 77.2h-4.01v1.95h4.01V77.2ZM210.48 60.88h-4.01v1.96h4.01v-1.96ZM214.59 58.46h-4.01v23.86h4V58.46Z" fill="white" stroke="#263238" stroke-miterlimit="10"/><path d="M214.59 77.2h-4.01v1.95h4V77.2ZM214.59 60.88h-4.01v1.96h4v-1.96ZM218.7 58.46h-4.02v23.86h4.01V58.46Z" fill="white" stroke="#263238" stroke-miterlimit="10"/><path d="M225.38 58.46h-6.72v23.86h6.72V58.46Z" fill="white" stroke="#263238" stroke-miterlimit="10"/><path d="M218.7 77.2h-4.02v1.95h4.01V77.2ZM218.7 60.88h-4.02v1.96h4.01v-1.96ZM179.53 58.46h-4.01v23.86h4.01V58.46Z" fill="white" stroke="#263238" stroke-miterlimit="10"/><path d="M179.53 77.2h-4.01v1.95h4.01V77.2ZM179.53 60.88h-4.01v1.96h4.01v-1.96ZM183.63 58.46h-4v23.86h4V58.46Z" fill="white" stroke="#263238" stroke-miterlimit="10"/><path d="M183.63 77.2h-4v1.95h4V77.2ZM183.63 60.88h-4v1.96h4v-1.96ZM187.74 58.46h-4.01v23.86h4.01V58.46Z" fill="white" stroke="#263238" stroke-miterlimit="10"/><path d="M187.74 77.2h-4.01v1.95h4.01V77.2ZM187.74 60.88h-4.01v1.96h4.01v-1.96ZM191.85 58.46h-4.02v23.86h4.02V58.46Z" fill="white" stroke="#263238" stroke-miterlimit="10"/><path d="M198.53 58.46h-6.72v23.86h6.72V58.46Z" fill="white" stroke="#263238" stroke-miterlimit="10"/><path d="M191.85 77.2h-4.02v1.95h4.02V77.2ZM191.85 60.88h-4.02v1.96h4.02v-1.96ZM179.53 115.52h-4.01v23.86h4.01v-23.86Z" fill="white" stroke="#263238" stroke-miterlimit="10"/><path d="M179.53 134.25h-4.01v1.96h4.01v-1.96ZM179.53 117.94h-4.01v1.96h4.01v-1.96ZM183.63 115.52h-4v23.86h4v-23.86Z" fill="white" stroke="#263238" stroke-miterlimit="10"/><path d="M183.63 134.25h-4v1.96h4v-1.96ZM183.63 117.94h-4v1.96h4v-1.96ZM187.74 115.52h-4.01v23.86h4.01v-23.86Z" fill="white" stroke="#263238" stroke-miterlimit="10"/><path d="M187.74 134.25h-4.01v1.96h4.01v-1.96ZM187.74 117.94h-4.01v1.96h4.01v-1.96ZM191.85 115.52h-4.02v23.86h4.02v-23.86Z" fill="white" stroke="#263238" stroke-miterlimit="10"/><path d="M198.53 115.52h-6.72v23.86h6.72v-23.86Z" fill="white" stroke="#263238" stroke-miterlimit="10"/><path d="M191.85 134.25h-4.02v1.96h4.02v-1.96ZM191.85 117.94h-4.02v1.96h4.02v-1.96ZM206.03 115.52h-4.01v23.86h4.01v-23.86Z" fill="white" stroke="#263238" stroke-miterlimit="10"/><path d="M206.03 134.25h-4.01v1.96h4.01v-1.96ZM206.03 117.94h-4.01v1.96h4.01v-1.96ZM210.14 115.52h-4.01v23.86h4v-23.86Z" fill="white" stroke="#263238" stroke-miterlimit="10"/><path d="M210.14 134.25h-4.01v1.96h4v-1.96ZM210.14 117.94h-4.01v1.96h4v-1.96ZM214.24 115.52h-4.01v23.86h4.01v-23.86Z" fill="white" stroke="#263238" stroke-miterlimit="10"/><path d="M214.24 134.25h-4.01v1.96h4.01v-1.96ZM214.24 117.94h-4.01v1.96h4.01v-1.96ZM218.35 115.52h-4.01v23.86h4.01v-23.86Z" fill="white" stroke="#263238" stroke-miterlimit="10"/><path d="M225.03 115.52h-6.72v23.86h6.72v-23.86Z" fill="white" stroke="#263238" stroke-miterlimit="10"/><path d="M218.35 134.25h-4.01v1.96h4.01v-1.96ZM218.35 117.94h-4.01v1.96h4.01v-1.96ZM153.2 115.52h-4.02v23.86h4.02v-23.86Z" fill="white" stroke="#263238" stroke-miterlimit="10"/><path d="M153.2 134.25h-4.02v1.96h4.02v-1.96ZM153.2 117.94h-4.02v1.96h4.02v-1.96ZM157.3 115.52h-4v23.86h4v-23.86Z" fill="white" stroke="#263238" stroke-miterlimit="10"/><path d="M157.3 134.25h-4v1.96h4v-1.96ZM157.3 117.94h-4v1.96h4v-1.96ZM161.41 115.52h-4.01v23.86h4.01v-23.86Z" fill="white" stroke="#263238" stroke-miterlimit="10"/><path d="M161.41 134.25h-4.01v1.96h4.01v-1.96ZM161.41 117.94h-4.01v1.96h4.01v-1.96ZM165.52 115.52h-4.01v23.86h4v-23.86Z" fill="white" stroke="#263238" stroke-miterlimit="10"/><path d="M172.2 115.52h-6.72v23.86h6.72v-23.86Z" fill="white" stroke="#263238" stroke-miterlimit="10"/><path d="M165.52 134.25h-4.01v1.96h4v-1.96ZM165.52 117.94h-4.01v1.96h4v-1.96ZM152.68 58.46h-4.01v23.86h4.01V58.46Z" fill="white" stroke="#263238" stroke-miterlimit="10"/><path d="M152.68 77.2h-4.01v1.95h4.01V77.2ZM152.68 60.88h-4.01v1.96h4.01v-1.96ZM156.79 58.46h-4.02v23.86h4.02V58.46Z" fill="white" stroke="#263238" stroke-miterlimit="10"/><path d="M156.79 77.2h-4.02v1.95h4.02V77.2ZM156.79 60.88h-4.02v1.96h4.02v-1.96ZM160.9 58.46h-4.02v23.86h4.02V58.46Z" fill="white" stroke="#263238" stroke-miterlimit="10"/><path d="M160.9 77.2h-4.02v1.95h4.02V77.2ZM160.9 60.88h-4.02v1.96h4.02v-1.96ZM165 58.46h-4.01v23.86H165V58.46Z" fill="white" stroke="#263238" stroke-miterlimit="10"/><path d="M171.69 58.46h-6.72v23.86h6.72V58.46Z" fill="white" stroke="#263238" stroke-miterlimit="10"/><path d="M165 77.2h-4.01v1.95H165V77.2ZM165 60.88h-4.01v1.96H165v-1.96ZM164.56 86.9h-4.01v23.85h4V86.89Z" fill="white" stroke="#263238" stroke-miterlimit="10"/><path d="M164.56 105.63h-4.01v1.95h4v-1.95ZM164.56 89.32h-4.01v1.95h4v-1.95Z" fill="white" stroke="#263238" stroke-miterlimit="10"/><path d="M160.6 86.9h-4.01v23.85h4V86.89Z" fill="white" stroke="#263238" stroke-miterlimit="10"/><path d="M160.6 105.63h-4.01v1.95h4v-1.95ZM160.6 89.32h-4.01v1.95h4v-1.95Z" fill="white" stroke="#263238" stroke-miterlimit="10"/><path d="M156.64 86.9h-4.01v23.85h4V86.89Z" fill="white" stroke="#263238" stroke-miterlimit="10"/><path d="M156.64 105.63h-4.01v1.95h4v-1.95ZM156.64 89.32h-4.01v1.95h4v-1.95Z" fill="white" stroke="#263238" stroke-miterlimit="10"/><path d="M152.68 86.9h-4.01v23.85h4.01V86.89Z" fill="white" stroke="#263238" stroke-miterlimit="10"/><path d="M152.68 105.63h-4.01v1.95h4.01v-1.95ZM152.68 89.32h-4.01v1.95h4.01v-1.95ZM168.66 86.9h-4.01v23.85h4.01V86.89Z" fill="white" stroke="#263238" stroke-miterlimit="10"/><path d="M168.66 105.63h-4.01v1.95h4.01v-1.95ZM168.66 89.32h-4.01v1.95h4.01v-1.95ZM172.77 86.9h-4.02v23.85h4.02V86.89Z" fill="white" stroke="#263238" stroke-miterlimit="10"/><path d="M172.77 105.63h-4.02v1.95h4.02v-1.95ZM172.77 89.32h-4.02v1.95h4.02v-1.95ZM176.88 86.9h-4.02v23.85h4.01V86.89Z" fill="white" stroke="#263238" stroke-miterlimit="10"/><path d="M183.56 86.9h-6.72v23.85h6.72V86.89Z" fill="white" stroke="#263238" stroke-miterlimit="10"/><path d="M176.88 105.63h-4.02v1.95h4.01v-1.95ZM176.88 89.32h-4.02v1.95h4.01v-1.95ZM193.09 86.9h-4.01v23.85h4V86.89Z" fill="white" stroke="#263238" stroke-miterlimit="10"/><path d="M193.09 105.63h-4.01v1.95h4v-1.95ZM193.09 89.32h-4.01v1.95h4v-1.95ZM197.2 86.9h-4.01v23.85h4V86.89Z" fill="white" stroke="#263238" stroke-miterlimit="10"/><path d="M197.2 105.63h-4.01v1.95h4v-1.95ZM197.2 89.32h-4.01v1.95h4v-1.95ZM205.41 86.89l-3.74 1.57 9.41 22.26 3.74-1.58-9.4-22.25Z" fill="white" stroke="#263238" stroke-miterlimit="10"/><path d="m212.8 104.36-3.74 1.58.77 1.82 3.74-1.58-.77-1.82ZM206.37 89.15l-3.74 1.58.77 1.82 3.74-1.58-.77-1.82ZM211.09 110.7h8.37l3.77-1.56-8.4-.01-3.75 1.58Z" fill="white" stroke="#263238" stroke-miterlimit="10"/><path d="M205.42 86.88h7.86l9.95 22.26-8.4-.01-9.41-22.25ZM201.16 86.9h-4.01v23.85h4V86.89Z" fill="white" stroke="#263238" stroke-miterlimit="10"/><path d="M201.16 105.63h-4.01v1.95h4v-1.95ZM201.16 89.32h-4.01v1.95h4v-1.95Z" fill="white" stroke="#263238" stroke-miterlimit="10"/><path d="M201.16 86.9h4.26l-3.75 1.55 9.42 22.26h-9.93V86.89ZM164.56 143.85h-4.01v23.86h4v-23.86Z" fill="white" stroke="#263238" stroke-miterlimit="10"/><path d="M164.56 162.58h-4.01v1.96h4v-1.96ZM164.56 146.27h-4.01v1.96h4v-1.96Z" fill="white" stroke="#263238" stroke-miterlimit="10"/><path d="M160.6 143.85h-4.01v23.86h4v-23.86Z" fill="white" stroke="#263238" stroke-miterlimit="10"/><path d="M160.6 162.58h-4.01v1.96h4v-1.96ZM160.6 146.27h-4.01v1.96h4v-1.96Z" fill="white" stroke="#263238" stroke-miterlimit="10"/><path d="M156.64 143.85h-4.01v23.86h4v-23.86Z" fill="white" stroke="#263238" stroke-miterlimit="10"/><path d="M156.64 162.58h-4.01v1.96h4v-1.96ZM156.64 146.27h-4.01v1.96h4v-1.96Z" fill="white" stroke="#263238" stroke-miterlimit="10"/><path d="M152.68 143.85h-4.01v23.86h4.01v-23.86Z" fill="white" stroke="#263238" stroke-miterlimit="10"/><path d="M152.68 162.58h-4.01v1.96h4.01v-1.96ZM152.68 146.27h-4.01v1.96h4.01v-1.96ZM168.66 143.85h-4.01v23.86h4.01v-23.86Z" fill="white" stroke="#263238" stroke-miterlimit="10"/><path d="M168.66 162.58h-4.01v1.96h4.01v-1.96ZM168.66 146.27h-4.01v1.96h4.01v-1.96ZM172.77 143.85h-4.02v23.86h4.02v-23.86Z" fill="white" stroke="#263238" stroke-miterlimit="10"/><path d="M172.77 162.58h-4.02v1.96h4.02v-1.96ZM172.77 146.27h-4.02v1.96h4.02v-1.96ZM176.88 143.85h-4.02v23.86h4.01v-23.86Z" fill="white" stroke="#263238" stroke-miterlimit="10"/><path d="M183.56 143.85h-6.72v23.86h6.72v-23.86Z" fill="white" stroke="#263238" stroke-miterlimit="10"/><path d="M176.88 162.58h-4.02v1.96h4.01v-1.96ZM176.88 146.27h-4.02v1.96h4.01v-1.96ZM193.09 143.85h-4.01v23.86h4v-23.86Z" fill="white" stroke="#263238" stroke-miterlimit="10"/><path d="M193.09 162.58h-4.01v1.96h4v-1.96ZM193.09 146.27h-4.01v1.96h4v-1.96ZM197.2 143.85h-4.01v23.86h4v-23.86Z" fill="white" stroke="#263238" stroke-miterlimit="10"/><path d="M197.2 162.58h-4.01v1.96h4v-1.96ZM197.2 146.27h-4.01v1.96h4v-1.96ZM205.41 143.84l-3.74 1.58 9.4 22.25 3.75-1.58-9.4-22.25Z" fill="white" stroke="#263238" stroke-miterlimit="10"/><path d="m212.7 160.89-3.73 1.58.77 1.82 3.74-1.58-.78-1.82ZM206.37 146.1l-3.74 1.58.77 1.82 3.74-1.57-.77-1.83ZM211.09 167.66h8.37l3.77-1.56-8.4-.02-3.75 1.58Z" fill="white" stroke="#263238" stroke-miterlimit="10"/><path d="M205.42 143.83h7.86l9.95 22.27-8.4-.02-9.41-22.25ZM201.16 143.85h-4.01v23.86h4v-23.86Z" fill="white" stroke="#263238" stroke-miterlimit="10"/><path d="M201.16 162.58h-4.01v1.96h4v-1.96ZM201.16 146.27h-4.01v1.96h4v-1.96Z" fill="white" stroke="#263238" stroke-miterlimit="10"/><path d="M201.16 143.85h4.26l-3.75 1.56 9.42 22.25h-9.93v-23.81Z" fill="white" stroke="#263238" stroke-miterlimit="10"/><path d="M186.13 167.8v55.93M148.87 174.72h77.51" stroke="#263238" stroke-miterlimit="10"/><path d="M164.78 179.45v10.14M168.16 179.45v10.14M203.7 179.45v10.14M207.1 179.45v10.14" stroke="#263238" stroke-width="2" stroke-miterlimit="10"/><path d="M247.99 55.13v-17.2h25.04M274.88 37.93h10.55V80.6h-37.44V57.74" stroke="#263238" stroke-miterlimit="10"/><path d="M271.8 74.84h-18.77V43.68h27.35v31.16h-6.43" stroke="#263238" stroke-miterlimit="10"/><path d="M271.96 53.27h-10.51v11.98h10.51V53.27ZM288.75 75.01V64.3h15.63M305.52 64.29h6.59v26.6h-23.36V76.64" stroke="#263238" stroke-miterlimit="10"/><path d="M303.61 87.3h-11.7V67.88h17.05v19.44h-4.01" stroke="#263238" stroke-miterlimit="10"/><path d="M303.71 73.85h-6.56v7.48h6.56v-7.48Z" stroke="#263238" stroke-miterlimit="10"/><path d="M41.18 226.44H311.9" stroke="#263238" stroke-linecap="round" stroke-linejoin="round"/><path d="M60.38 159.33s-2.88-38.35-1.44-42.67c1.44-4.3 10.32-4.07 12-4.07 1.68 0 36.72 0 41.76 2.4 5.04 2.4 5.76 61.36 5.76 61.36H62.78l-2.4-17.02Z" fill="#263238" stroke="#263238" stroke-miterlimit="10"/><path d="M120.38 156.21s-5.76 0-6.91 5.75c-1.16 5.76 3.38 29.48 3.72 36.2a263.9 263.9 0 0 0 1.51 16.05h20.4l4.56-58h-23.28Z" fill="#263238" stroke="#263238" stroke-miterlimit="10"/><path d="M143.66 156.21s-5.76 0-7.2 5.75c-1.44 5.76 1.92 29.48 1.92 36.2 0 6.7.72 16.05.72 16.05h7.2s.72-17.25.72-19.65c0-2.4 2.88-27.32 1.44-32.36-1.44-5.03-2.64-5.5-4.8-5.99Z" fill="#636363" stroke="#263238" stroke-miterlimit="10"/><path d="M82.82 115.1s-19.08 7.8-19.08 8.64c0 .83 6.48 23.36 8.88 26.84 2.4 3.47 4.08 7.3 4.8 8.75.72 1.43 3.84 5.03 6.36 5.03 2.52 0 5.52-3 13.56-4.2 8.04-1.2 15.24-1.07 16.68-2.15 1.44-1.08-.36-3.96-.6-4.55-.24-.6-1.2-2.76-1.2-2.76s7.8 6.47 10.92 6.71c3.12.24 5.4-1.32 5.88-3.36.48-2.03-1.32-6.95-2.52-9.58-1.2-2.64-6.84-6.83-9.36-10.07a268.14 268.14 0 0 0-8.04-9.7 21.81 21.81 0 0 0-7.2-5.52c-2.16-.96-7.68-3.35-11.16-3.71-3.48-.36-7.92-.36-7.92-.36Z" fill="white" stroke="#263238" stroke-miterlimit="10"/><path d="M120.22 143.19s-2.72 7.5-1.76 9.43c.96 1.91 3.52 2.55 3.52 2.55M79.94 117.62l15.84 15.34 2.4-11.5" stroke="#263238" stroke-miterlimit="10"/><path d="M120.98 144.1s3.84 2.76 5.16 1.8c1.32-.95.96-2.75.12-4.67s-3.6-3-4.68-2.16c-1.08.84-1.44 4.2-.6 5.04ZM81.62 110.07l.6 7.2 12.72 12.46 1.92-8.87.84-3.72s-8.28-1.43-10.92-3.23c-2.64-1.8-5.16-3.84-5.16-3.84Z" fill="white" stroke="#263238" stroke-miterlimit="10"/><path d="M97.7 117.14s-8.28-1.43-10.92-3.23c-2.64-1.8-5.16-3.84-5.16-3.84l.6 7.2 3.22 3.14c2.5.7 5 1.05 6.69.4a26.63 26.63 0 0 0 5.35-2.66l.22-1ZM77.82 104.52s-2.24-10.23-2.24-11.98c0-1.76 6.08-10.71 14.4-9.27 8.32 1.44 12.96 6.23 13.28 7.67.32 1.44-.96 4.31-.96 4.31.26.84.42 1.7.48 2.56 0 .96-1.44 5.11-1.44 5.11l-.48-4.31s-4 1.12-6.24 1.12-6.08-1.44-6.08-1.44.8 2.56 0 3.84c-.8 1.28-3.2 2.4-3.2 2.4s-.32 2.55-1.28 2.55a20.96 20.96 0 0 1-3.52-.48c-.64-.16-2.72-2.08-2.72-2.08Z" fill="#263238" stroke="#263238" stroke-miterlimit="10"/><path d="M81.5 105.64s-.32-3.83-3.52-2.88c-3.2.96-1.12 4.48.64 6.23 1.77 1.77 2.24.48 2.24.48s.48 3.68 2.88 5.76c2.4 2.07 6.08 5.9 9.92 5.43 3.84-.48 6.56-5.27 7.04-8.79.48-3.51.8-11.82.8-12.78a17.99 17.99 0 0 0-.64-3.2s-3.36 2.4-6.4 1.76c-3.03-.64-6.24-1.92-7.68-1.92-1.44 0-1.12 2.08-.64 2.72.48.64 1.76 1.92.32 2.72a39.2 39.2 0 0 1-3.36 1.6v3.35l-1.6-.48Z" fill="white" stroke="#263238" stroke-miterlimit="10"/><path d="m96.81 103.9-.79 8.66-3.94-1.14" stroke="#263238" stroke-miterlimit="10"/><path d="M93.48 112.12s-1.92 0-2.97.09c-.64.1-1.28.13-1.92.08-.44-.08-.96-.43-.09.44.88.87 3.5 1.92 4.9 2.1 1.4.18 2.37-.27 3.42-.96 1.05-.7 1.92-1.4 1.4-1.57-.72-.13-1.45-.19-2.19-.18v.44l-2.55-.44Z" fill="#263238" stroke="#263238" stroke-miterlimit="10"/><path d="M90.72 106.87c.32 0 .58-.53.58-1.18 0-.65-.26-1.18-.58-1.18-.31 0-.57.53-.57 1.18 0 .65.26 1.18.57 1.18ZM99.26 105.52c0 .65-.25 1.17-.56 1.17-.31 0-.57-.52-.57-1.17 0-.66.25-1.19.57-1.19.31 0 .56.53.56 1.19Z" fill="#263238"/><path d="M88.58 103.9s2.37-1.67 4.29-.96M97.25 103.02s2.46-1.14 3.5-.09M92.26 107.85s-.53.62-2.28 1.14M97.08 107.48c.51.36 1.07.65 1.66.88" stroke="#263238" stroke-miterlimit="10"/><path d="m104.54 130.2.84-2.15s1.08 1.08 3.96 1.08 7.56 2.03 7.56 2.03l.36.6s.84-2.51 2.4-3a14.3 14.3 0 0 0 4.44-2.63l.36-.48 1.68 1.44-7.44 9.83-13.92-5.4-.24-1.31Z" fill="white" stroke="#263238" stroke-miterlimit="10"/><path d="m104.66 129.37-3.6 19.05 12.48 2.88 4.56-18.46-13.44-3.47Z" fill="white" stroke="#263238" stroke-miterlimit="10"/><path d="m118.1 132.84 8.04-5.75-4.8 18.46-7.8 5.75 4.56-18.46ZM89.18 144.95l5.44-2.24s4.8-5.11 5.28-5.6c.48-.47 5.28-.95 5.28-.95l5.28 3.51s.96.8 0 1.12c-.96.32-3.04-.64-3.04-.64l-2.08-1.28-1.28.65 2.72 2.23s.8 2.08.8 3.2a5.17 5.17 0 0 1-.48 2.07l-1.6 2.24-4.8-2.4s-2.88 2.08-3.52 2.4c-.64.32-6.72-.16-6.72-.16l-1.28-4.15Z" fill="white" stroke="#263238" stroke-miterlimit="10"/><path d="m100.66 139.35 1.7-.32 1.46.4M99.04 142.5s3.8-1.05 4.05-1.05c.24 0 3.08 2.9 3.08 2.9l.32 3.16" stroke="#263238" stroke-miterlimit="10"/><path d="m99.2 144.52 3.08.08 2.83 1.86c.29.9.42 1.85.4 2.8" stroke="#263238" stroke-miterlimit="10"/><path d="M67.1 121.46s-3.52.48-4 3.51c-.48 3.04-3.68 28.6-2.72 31.48.96 2.88 18.72-2.07 19.36-2.4.64-.32 10.72-3.35 10.88-3.99.17-.64.48-5.91-.96-6.23-1.44-.32-15.2.16-15.2.16l-1.92-16.62" fill="white"/><path d="M67.1 121.46s-3.52.48-4 3.51c-.48 3.04-3.68 28.6-2.72 31.48.96 2.88 18.72-2.07 19.36-2.4.64-.32 10.72-3.35 10.88-3.99.17-.64.48-5.91-.96-6.23-1.44-.32-15.2.16-15.2.16l-1.92-16.62M74.46 143.99l-8.48 1.44M64.38 143.5l7.36.97" stroke="#263238" stroke-miterlimit="10"/><path d="M123.98 135s-3.24 3.36-3.12 4.2c.12.83 1.8-.48 2.16-.84.36-.36 2.04-1.32 2.04-2.28 0-.96-.36-2.04-1.08-1.08Z" fill="white" stroke="#263238" stroke-miterlimit="10"/><path d="M124.34 137.04s.96.96.96 1.8c0 .83-2.04 3.59-3 3.59s-.24-1.92.24-2.76c.48-.83 1.8-2.63 1.8-2.63Z" fill="white" stroke="#263238" stroke-miterlimit="10"/><path d="M125.3 138.84s1.2.35 1.2 1.43-2.28 2.88-2.88 3c-.6.12-.48-.96 0-1.8.48-.84 1.68-2.63 1.68-2.63Z" fill="white" stroke="#263238" stroke-miterlimit="10"/><path d="M126.5 140.27c.25.61.33 1.27.24 1.92-.12 1.2-1.92 1.92-2.52 1.92-.6 0-.6-.84-.6-.84a36.86 36.86 0 0 0 2.88-3ZM88.76 226.44h-2.28l-1.14-15.1h4.56l-1.14 15.1ZM67.88 226.44H65.6l-1.14-15.1h4.56l-1.14 15.1ZM143.24 226.44h-2.28l-1.14-15.1h4.56l-1.14 15.1ZM122.36 226.44h-2.28l-1.14-15.1h4.56l-1.14 15.1Z" fill="white" stroke="#263238" stroke-miterlimit="10"/><path d="M140.06 182.45H85.58v31.63h54.48v-31.63Z" fill="#263238" stroke="#263238" stroke-miterlimit="10"/><path d="M179.58 177.38s5.76-2.4 7.04-3.35c1.28-.96 3.04 1.12 2.24 3.35-.8 2.24-2.88 6.24-6.08 8.15-3.2 1.92-5.76 3.52-6.4 4.16-.64.63-.48 3.03-3.2 4-2.71.95-6.08-.97-8-4-1.92-3.04-3.2-5.12-3.2-5.12s.16-2.23 3.36-3.35c3.2-1.12 8.64-1.6 8.64-1.6l5.6-2.24Z" fill="white" stroke="#263238" stroke-miterlimit="10"/><path d="M114.02 158s3.8-.91 4.76-.43c.96.48 4.16 3.52 4.16 3.52s19.36.31 20.8.95c1.44.65 16.32 11.99 19.52 13.59 3.2 1.6 5.92 3.03 5.92 3.03l-2.4 10.55v.95l.16 1.6s-8.32-2.55-10.4-3.03-10.72-4.96-11.52-4.96c-.8 0-7.36-1.91-7.36-1.91s-.96-.64-11.36-1.6c-10.4-.96-22.08-2.08-26.24-2.24-4.16-.16-9.6-.48-11.68-1.28s-5.76-6.39-6.4-9.74c-.63-3.36 6.08-6.24 8.96-7.51 2.88-1.28 13.6-2.88 15.52-2.88s7.56 1.4 7.56 1.4Z" fill="white" stroke="#263238" stroke-miterlimit="10"/><path d="m117.66 162.68-3.2 4.64 4.32-2.88" fill="white"/><path d="m117.66 162.68-3.2 4.64 4.32-2.88" stroke="#263238" stroke-miterlimit="10"/><path d="M166.78 176.58s4.64-3.67 5.6-4.79 4.16-7.19 4.8-9.1c.64-1.93 2.24-2.88 3.36-1.44 1.12 1.43 1.92 4.3 2.56 5.59.64 1.28-.32 7.5-2.24 9.59-1.92 2.08-4.57 7.11-5.12 8.14-1.44 2.72-3.68 3.04-5.12 3.2-1.44.16-4.96-3.67-4.96-3.67l1.12-7.52Z" fill="white" stroke="#263238" stroke-miterlimit="10"/><path d="M95.58 165.88s4.8-.96 9.12-.48c4.32.48 13.12 3.2 16.8 4.15 3.68.96 10.24 1.44 13.28 2.56 3.05 1.12 11.04 2.56 17.12 2.56 6.08 0 15.36.8 15.36.8s-1.28 9.26-.96 11.02c.32 1.42.74 2.8 1.28 4.15 0 0-12.32.96-15.84 1.44-3.52.48-17.76-1.75-20.16-2.4-2.4-.64-5.92-1.6-8.16-1.6s-6.56.97-12.8 1.6c-6.24.64-15.04-2.07-16.16-2.23a27.8 27.8 0 0 1-6.08-2.24c-.96-.64-6.56-10.54-4.64-14.7s4.32-4.8 4.32-4.8" fill="white"/><path d="M95.58 165.88s4.8-.96 9.12-.48c4.32.48 13.12 3.2 16.8 4.15 3.68.96 10.24 1.44 13.28 2.56 3.05 1.12 11.04 2.56 17.12 2.56 6.08 0 15.36.8 15.36.8s-1.28 9.26-.96 11.02c.32 1.42.74 2.8 1.28 4.15 0 0-12.32.96-15.84 1.44-3.52.48-17.76-1.75-20.16-2.4-2.4-.64-5.92-1.6-8.16-1.6s-6.56.97-12.8 1.6c-6.24.64-15.04-2.07-16.16-2.23a27.8 27.8 0 0 1-6.08-2.24c-.96-.64-6.56-10.54-4.64-14.7s4.32-4.8 4.32-4.8" stroke="#263238" stroke-miterlimit="10"/><path d="M125.02 182c3.08.61 6.35 2.48 10.77 4.21 5.9 2.31 17.7 2.1 19.23 2.31 1.52.21 5.39 0 5.39 0" fill="white"/><path d="M125.02 182c3.08.61 6.35 2.48 10.77 4.21 5.9 2.31 17.7 2.1 19.23 2.31 1.52.21 5.39 0 5.39 0" stroke="#263238" stroke-miterlimit="10"/><path d="m101.22 184.17 1.76.25c5.13.77 14.88-2.04 18.97-2.56" fill="white"/><path d="m101.22 184.17 1.76.25c5.13.77 14.88-2.04 18.97-2.56" stroke="#263238" stroke-miterlimit="10"/><path d="M96.06 183.66s.92 0 3.32.28Z" fill="white"/><path d="M96.06 183.66s.92 0 3.32.28" stroke="#263238" stroke-miterlimit="10"/><path d="M64.94 156.21s-5.76 0-6.91 5.75c-1.15 5.76 3.36 29.48 3.72 36.2.36 6.7 1.51 16.05 1.51 16.05h20.4l4.56-58H64.94Z" fill="#263238" stroke="#263238" stroke-miterlimit="10"/><path d="M88.22 156.21s-5.76 0-7.2 5.75c-1.44 5.76 1.92 29.48 1.92 36.2 0 6.7.72 16.05.72 16.05h7.2s.72-17.25.72-19.65c0-2.4 2.88-27.32 1.44-32.36-1.44-5.03-2.64-5.5-4.8-5.99Z" fill="#636363" stroke="#263238" stroke-miterlimit="10"/><path d="M135.08 226.44h-2.28l-1.14-15.1h4.56l-1.14 15.1ZM154.52 226.44h-2.28l-1.14-15.1h4.56l-1.14 15.1ZM163.64 226.44h-2.28l-1.14-15.1h4.56l-1.14 15.1ZM182.84 226.44h-2.28l-1.14-15.1h4.56l-1.14 15.1Z" fill="white" stroke="#263238" stroke-miterlimit="10"/><path d="M132.26 191.68h50.14a3.48 3.48 0 0 1 3.48 3.48v24.57h-57.12v-24.57a3.49 3.49 0 0 1 3.5-3.48Z" fill="#263238" stroke="#263238" stroke-miterlimit="10"/><path d="M182.42 191.68h-18.24a3.48 3.48 0 0 0-3.48 3.48v24.57h25.2v-24.57a3.47 3.47 0 0 0-3.48-3.48Z" fill="#636363" stroke="#263238" stroke-miterlimit="10"/></svg>