<svg width="120" height="120" fill="none" xmlns="http://www.w3.org/2000/svg"><g clip-path="url(#a)" fill="black"><path d="M70.1 75.06a21.68 21.68 0 0 0 11.68-7.59 21.72 21.72 0 0 0 4.58-16.25 21.72 21.72 0 0 0-8.37-14.68 21.73 21.73 0 0 0-15.9-4.37 21.74 21.74 0 0 0-14.45 7.94 21.67 21.67 0 0 0-4.87 13.3 36.21 36.21 0 0 1-7.7 21.7l-5.26 6.63a6.81 6.81 0 0 0 1.1 9.56l4.96 3.93a6.81 6.81 0 0 0 9.56-1.1l5.26-6.62a35.88 35.88 0 0 1 19.4-12.45ZM45.57 53.47a18.89 18.89 0 0 1 4.24-11.6 19.18 19.18 0 0 1 26.46-3.1 18.95 18.95 0 0 1 7.3 12.79c.62 5.1-.8 10.14-4 14.17a18.9 18.9 0 0 1-10.18 6.6 38.72 38.72 0 0 0-20.6 13l-11.2-8.9a39.07 39.07 0 0 0 7.98-22.96ZM32.6 82.74l.7-.9 10.21 10.2-.28.35a4 4 0 0 1-.47.5L32.6 82.74Zm2.46-3.1.8-1 11.22 8.9-1.81 2.3-10.2-10.2Zm-2.4 9.46a4 4 0 0 1-1.46-3.8l8.6 8.59a3.98 3.98 0 0 1-2.19-.85l-4.95-3.94Z"/><path d="M52.47 46.9c.37-.64.8-1.26 1.27-1.85a1.4 1.4 0 0 0-2.18-1.76c-.56.7-1.07 1.44-1.52 2.21a1.4 1.4 0 1 0 2.43 1.4ZM45.7 68.72a1.4 1.4 0 0 0 2.18-.62 44.49 44.49 0 0 0 2.74-14.53c.02-.82.1-1.64.26-2.44a1.4 1.4 0 1 0-2.75-.54 17 17 0 0 0-.3 2.93 41.7 41.7 0 0 1-2.58 13.61 1.4 1.4 0 0 0 .44 1.59ZM73.2 66.8a1.4 1.4 0 0 0-1.9-.58c-.99.53-2.05.95-3.16 1.23a1.4 1.4 0 1 0 .7 2.72c1.32-.34 2.6-.84 3.79-1.48a1.4 1.4 0 0 0 .57-1.9ZM73.36 42.89a14.04 14.04 0 0 1 1.4 20.7 1.4 1.4 0 0 0 2.03 1.93 16.85 16.85 0 0 0-1.68-24.83 1.4 1.4 0 1 0-1.75 2.2Z"/><g><path d="M79.75 34.84c.6.48 1.49.38 1.97-.22l4.88-6.15a1.4 1.4 0 0 0-2.2-1.75l-4.88 6.15a1.4 1.4 0 0 0 .23 1.97ZM66.91 28.2a1.4 1.4 0 1 0 2.78.4l1.15-7.76a1.4 1.4 0 1 0-2.77-.41l-1.16 7.76ZM78.21 84.98l-2.88-7.3a1.4 1.4 0 1 0-2.61 1.03l2.89 7.3a1.4 1.4 0 0 0 1.81.79 1.4 1.4 0 0 0 .8-1.82ZM50.77 23.15l2.88 7.3a1.4 1.4 0 0 0 1.82.79 1.4 1.4 0 0 0 .8-1.82l-2.9-7.3a1.4 1.4 0 1 0-2.6 1.03ZM91.83 73.97l-6.15-4.88a1.4 1.4 0 1 0-1.74 2.2l6.15 4.88a1.4 1.4 0 0 0 1.74-2.2ZM45.27 38.8a1.4 1.4 0 0 0-.22-1.96l-6.15-4.89a1.4 1.4 0 0 0-1.75 2.2l6.15 4.88c.6.48 1.5.38 1.97-.22ZM89.28 58.97c.19.15.42.25.67.29l7.76 1.15a1.4 1.4 0 1 0 .41-2.77l-7.76-1.16a1.4 1.4 0 0 0-1.08 2.49ZM39.03 48.87l-7.76-1.16a1.4 1.4 0 0 0-.41 2.78l7.76 1.15a1.4 1.4 0 0 0 .41-2.77ZM87.32 45.04a1.4 1.4 0 0 0 1.82.8l7.3-2.9a1.4 1.4 0 0 0-1.03-2.6l-7.3 2.89a1.4 1.4 0 0 0-.8 1.81Z"/></g></g><defs><clipPath id="a"><path fill="white" transform="rotate(38.44 26.5 76)" d="M0 0h85.24v85.24H0z"/></clipPath></defs></svg>