<svg width="540" height="540" fill="none" xmlns="http://www.w3.org/2000/svg"><path fill="#E5E5E5" d="M0 0h540v540H0z"/><path fill="white" d="M-930-2167H670v4422H-930z"/><g stroke="#263238" stroke-linecap="round" stroke-linejoin="round"><path d="M347.87 105.13a9.76 9.76 0 0 1-3.82 1.88c-3.84.85-14.05.42-15.77 5.1a10.16 10.16 0 0 1-6.39 5.97s-8.08.43-8.52 2.16c-.43 1.72-3.4 4.68-3.4 4.68h139.31s4.69-7.23-2.98-14.04c-6.7-5.96-18.97 3.07-20.52-4.32m-1.26-10.84c-1.56-5.6-4.83-13.16-11.47-15.97-11.09-4.69-20.45 1.7-23 8.09-2.57 6.38-4.26 10.65-14.05 5.1-9.78-5.54-18.36-5.1-21.3 2.16-.84 2.1-1.9 4.12-3.16 6.01M111.3 179.39h48.37s2.83-4.32-1.8-8.5c-4.64-4.18-13.67 3.6-12.37-5.15 0 0-1.08-10.8-7.74-13.65a10.79 10.79 0 0 0-10.69.97m-3.22 3.92c-1.54 3.86-2.58 6.48-8.5 3.09-5.91-3.4-11.08-3.1-12.88 1.3-1.8 4.38-4.13 6.69-6.48 7.2-2.35.5-8.5.26-9.54 3.1a6.17 6.17 0 0 1-3.86 3.6s-4.9.25-5.15 1.29a9.96 9.96 0 0 1-2.07 2.83h28.31M353.43 179.39h22.84s2.83-4.32-1.8-8.5c-4.64-4.18-13.65 3.6-12.37-5.15 0 0-1.02-10.8-7.73-13.65-6.7-2.86-12.36 1.08-13.91 4.89-1.56 3.81-2.57 6.48-8.5 3.09-5.93-3.4-11.08-3.1-12.87 1.3-1.8 4.38-4.13 6.69-6.48 7.2-2.36.5-8.5.26-9.53 3.1a6.18 6.18 0 0 1-3.87 3.6s-4.89.25-5.15 1.29a9.96 9.96 0 0 1-2.06 2.83h53.8"/></g><g fill="black"><g opacity=".1"><path opacity=".1" d="M25.09 250.74c4.25.85 13.7-1.43 13.7-1.43s-3.39-5.78-3.65-6.12c-3.03-3.9-11.2-9.72-16.4-7.77a6.57 6.57 0 0 0-3.38 9.15c1.7 3.52 6.11 5.45 9.73 6.17Z"/><path opacity=".1" d="M34.37 277.56c4.14-.3 12.08-4.59 12.72-4.94 2.45 4.55 5.2 8.93 8.24 13.1 1.75 2.45 3.6 4.85 5.47 7.24a90.68 90.68 0 0 0-2.08-1.92c-3.95-2.96-13.35-6.36-17.86-3.17a6.57 6.57 0 0 0-.86 9.72c2.57 2.94 7.34 3.64 11.02 3.38 3.68-.26 10.58-3.8 12.38-4.75l2.16 2.73c3.52 4.32 7.05 8.65 10.39 13.03 1.17 1.53 2.26 3.09 3.38 4.63l-1.8-1.66c-3.97-2.97-13.36-6.37-17.87-3.16a6.56 6.56 0 0 0-.85 9.71c2.57 2.95 7.33 3.64 11.01 3.39 3.69-.26 9.92-3.46 12.06-4.58 1.08 1.62 2.16 3.24 3.15 4.86.65 1.08 1.34 2.16 1.92 3.31l1.8 3.38a243.47 243.47 0 0 1 5.1 11 149.79 149.79 0 0 0-3.7-4.73c-3.45-3.52-12.22-8.3-17.17-5.84a6.57 6.57 0 0 0-2.32 9.48c2.1 3.3 6.7 4.7 10.38 5 4.05.34 12.24-2.55 13.25-2.92 1.08 2.4 2.06 4.75 2.96 6.99a188.2 188.2 0 0 1 1.92 4.76l3.36-.73-2.25-5.32a374.67 374.67 0 0 0-3.48-7.68 69.39 69.39 0 0 0 6.64-5.1c3.43 2.4 11.29 4.33 12.3 4.62a313.56 313.56 0 0 1-2.12 11.06l3.56-.78.4-2.23c.48-2.62.92-5.4 1.35-8.32 1.08 0 9.72-.14 13.45-1.86 3.34-1.57 7.17-4.48 7.99-8.3a6.57 6.57 0 0 0-5.47-8.08c-5.5-.6-12.06 6.92-14.04 11.43-.12.27-1.08 3.3-1.66 5.23.16-1.19.34-2.33.5-3.55.33-2.41.6-4.82.88-7.42l.3-3.81c.1-1.29.1-2.63.15-3.96 0-3.09 0-6.2-.2-9.35 2.16.28 9.62 1.19 13.18.15 3.55-1.04 7.77-3.35 9.16-7a6.54 6.54 0 0 0-4.17-8.81c-5.4-1.44-12.96 5.01-15.66 9.17-.17.26-1.75 3.46-2.6 5.23-.1-1.9-.21-3.77-.38-5.68-.51-5.51-1.2-11.07-1.84-16.63l-.57-5.1c.74.12 9.65 1.39 13.64.22 3.54-1.08 7.76-3.35 9.16-7a6.57 6.57 0 0 0-4.18-8.8c-5.4-1.44-12.96 5.01-15.65 9.16-.2.31-2.49 4.93-3 6.13-.42-3.75-.8-7.48-1.01-11.17-.32-4.99-.32-9.99 0-14.97.35.05 9.63 1.42 13.72.23 3.54-1.08 7.77-3.34 9.16-7a6.57 6.57 0 0 0-4.17-8.82c-5.4-1.42-12.96 5.03-15.66 9.18-.2.33-2.66 5.28-3.04 6.21v-.88a84.17 84.17 0 0 1 2.71-14.75c.7-2.68 1.54-5.2 2.39-7.63 1.7.43 9.51 2.32 13.3 1.65 3.8-.67 8.1-2.47 9.88-5.95a6.56 6.56 0 0 0-3.2-9.21c-5.15-2.02-13.44 3.56-16.56 7.4-.16.2-1.65 2.51-2.72 4.21.41-1.08.8-2.22 1.21-3.24 1.52-3.9 3.15-7.38 4.62-10.45.86-1.74 1.66-3.24 2.42-4.75 1.9-.44 9.5-2.34 12.5-4.64 3.01-2.3 6.04-5.92 6.02-9.83a6.57 6.57 0 0 0-7.07-6.72c-5.5.6-10.3 9.36-11.29 14.2-.08.42-.69 7.12-.59 7.1h.1a153.87 153.87 0 0 0-7.28 14.88c-1.76 4.14-3.28 8.37-4.56 12.68a84.97 84.97 0 0 0-3.07 15.07c-.32-1.59-1.36-6-1.48-6.34-1.66-4.65-7.61-12.67-13.15-12.5a6.55 6.55 0 0 0-6.06 7.63c.52 3.87 4.1 7.07 7.32 8.9 3.63 2.04 12.63 2.83 13.34 2.9-.46 5.14-.58 10.3-.36 15.47.12 3 .33 6.03.58 9.06-.32-1.37-.62-2.6-.67-2.75-1.67-4.66-7.63-12.67-13.16-12.5a6.54 6.54 0 0 0-6.07 7.63c.52 3.87 4.1 7.08 7.33 8.9 3.21 1.81 10.91 2.67 12.96 2.87l.3 3.48c.54 5.57 1.09 11.12 1.48 16.6.14 1.92.2 3.82.27 5.72-.3-1.21-.54-2.23-.6-2.38-1.66-4.66-7.56-12.68-13.15-12.5a6.58 6.58 0 0 0-6.07 7.63c.52 3.88 4.11 7.09 7.32 8.9 3.2 1.82 10.17 2.6 12.58 2.83v5.79c-.08 1.3-.07 2.54-.22 3.83-.15 1.3-.25 2.55-.37 3.8-.33 2.43-.65 4.9-1.08 7.25-.25 1.63-.52 3.19-.79 4.75-.1-1.92-.4-5.68-.46-5.98-1-4.24-3.08-8.15-6.02-11.36a7.09 7.09 0 0 0-.4-1.4 6.55 6.55 0 0 0-9-3.72c-4.93 2.53-6.25 12.43-5.4 17.28 0 .28.91 3.35 1.48 5.27-.5-1.08-.99-2.16-1.53-3.24-1.08-2.16-2.16-4.32-3.36-6.67l-1.86-3.34c-.6-1.08-1.37-2.25-2.06-3.38-1.65-2.6-3.45-5.16-5.32-7.69 1.92-.93 8.64-4.32 11.08-7.15 2.44-2.83 4.63-7.07 3.78-10.89a6.57 6.57 0 0 0-8.35-5.02c-5.25 1.76-8.05 11.35-8 16.29 0 .31.45 3.85.72 5.8a107.16 107.16 0 0 0-3.45-4.54c-3.46-4.32-7.1-8.57-10.7-12.84-1.09-1.3-2.17-2.62-3.25-3.93.68-.32 8.81-4.18 11.5-7.36 2.38-2.81 4.63-7.07 3.77-10.88a6.55 6.55 0 0 0-8.34-5.05c-5.25 1.75-8.05 11.34-8 16.3 0 .36.65 5.46.87 6.74-2.4-2.88-4.78-5.79-7-8.75a116.38 116.38 0 0 1-8.24-12.48c.31-.15 8.81-4.14 11.55-7.39 2.4-2.82 4.65-7.07 3.78-10.89a6.54 6.54 0 0 0-8.33-5.04c-5.26 1.75-8.06 11.34-8 16.29 0 .39.7 5.87.89 6.86-.14-.26-.32-.5-.46-.76a85.6 85.6 0 0 1-5.88-13.8 77.93 77.93 0 0 1-2.16-7.68c1.66-.57 9.21-3.3 12.01-5.96 2.8-2.66 5.4-6.48 4.95-10.4a6.55 6.55 0 0 0-7.74-5.94c-5.4 1.16-9.24 10.39-9.72 15.31 0 .27 0 3.01.07 5.02-.27-1.13-.56-2.3-.8-3.39a147.6 147.6 0 0 1-2.5-16.56c1.32-1.41 6.61-7.2 7.86-10.8 1.24-3.6 1.77-8.27-.4-11.5a6.56 6.56 0 0 0-9.62-1.71c-4.25 3.53-3.4 13.48-1.57 18.07.15.4 3.35 6.32 3.41 6.25l.09-.09A153.28 153.28 0 0 0 38 244.6c.82 4.46 1.9 8.86 3.24 13.2a85.1 85.1 0 0 0 5.73 14.25 98.08 98.08 0 0 0-4.72-4.47c-3.96-2.97-13.35-6.37-17.86-3.16a6.56 6.56 0 0 0-.86 9.72c2.38 2.96 7.14 3.65 10.83 3.42Z"/><path opacity=".1" d="M121.59 231.89c.1 0 .35-6.69.32-7.11-.38-4.94-4-14.23-9.38-15.53a6.57 6.57 0 0 0-7.88 5.76c-.52 3.87 2.1 7.91 4.71 10.52 3.08 3.05 12.23 6.36 12.23 6.36Z"/></g><g opacity=".1"><path opacity=".1" d="M506.58 343.75c-3.65.13-11.2-3.02-11.2-3.02s3.59-4.32 3.86-4.6c3.03-2.83 10.58-6.52 14.66-4.31a5.55 5.55 0 0 1 1.6 8.06c-1.9 2.74-5.82 3.75-8.92 3.87Z"/><path opacity=".1" d="M495.3 364.77c-3.41-.79-9.43-5.4-9.92-5.8a96.47 96.47 0 0 1-8.64 9.78 170.5 170.5 0 0 1-5.5 5.3c.97-.67 1.84-1.26 1.98-1.32 3.69-1.94 11.94-3.51 15.26-.25a5.52 5.52 0 0 1-.58 8.19c-2.53 2.1-6.58 2.04-9.6 1.34-3.03-.7-8.3-4.57-9.66-5.6-.73.65-1.44 1.32-2.16 1.97-3.5 3.15-7 6.27-10.36 9.45-1.18 1.08-2.3 2.25-3.43 3.39l1.72-1.15c3.68-1.93 11.94-3.5 15.27-.23a5.5 5.5 0 0 1-.58 8.17c-2.53 2.16-6.58 2.05-9.61 1.35-3.04-.7-7.78-4.2-9.41-5.4-1.08 1.2-2.24 2.41-3.24 3.62-.7.84-1.4 1.61-2.04 2.5l-1.95 2.58c-1.16 1.67-2.38 3.4-3.49 5.06-.77 1.16-1.49 2.27-2.22 3.4 1.17-1.14 3.49-3.25 3.7-3.45 3.35-2.48 11.27-5.27 15.06-2.56a5.52 5.52 0 0 1 .66 8.18c-2.16 2.47-6.2 3.03-9.3 2.78-3.4-.26-9.82-3.76-10.62-4.2a228.68 228.68 0 0 0-5.61 9.1l-2.7-1.08a275.92 275.92 0 0 1 6.5-10.03 57.92 57.92 0 0 1-4.84-5.12c-3.16 1.53-9.96 2.16-10.8 2.16 0 2.16.08 4.32.16 6.37 0 1.08.09 2.1.13 3.1l-2.85-1.08v-9c-.88-.16-8.1-1.42-10.93-3.34-2.57-1.75-5.4-4.69-5.53-7.97a5.5 5.5 0 0 1 5.62-5.99c4.64.24 9.1 7.37 10.17 11.39.07.24.47 2.88.7 4.57 0-1.02 0-2 .05-3.03 0-2.04.15-4.08.25-6.27l.27-3.24c.08-1.08.26-2.16.4-3.3.36-2.58.86-5.16 1.41-7.75-1.8 0-8.15-.3-10.97-1.63-2.82-1.34-6-3.81-6.68-7.04a5.53 5.53 0 0 1 4.65-6.76c4.63-.48 10.1 5.9 11.78 9.72.1.23 1 3.1 1.46 4.68.34-1.55.68-3.1 1.08-4.66 1.15-4.52 2.46-9.04 3.75-13.57.4-1.4.76-2.77 1.15-4.16-.64 0-8.2-.14-11.36-1.64-2.8-1.34-6.02-3.82-6.68-7.04a5.5 5.5 0 0 1 4.65-6.76c4.63-.48 10.1 5.9 11.78 9.72.12.28 1.4 4.42 1.68 5.48.84-3.05 1.65-6.1 2.32-9.14.93-4.1 1.6-8.25 2-12.43-.3 0-8.2-.11-11.43-1.65-2.8-1.33-6.02-3.82-6.69-7.04a5.5 5.5 0 0 1 4.65-6.77c4.64-.47 10.1 5.91 11.78 9.72.14.3 1.51 4.76 1.7 5.58 0-.25.07-.5.1-.74.27-4.2.18-8.43-.3-12.62a81.4 81.4 0 0 0-.96-6.66c-1.47.13-8.2.66-11.27-.4-3.07-1.05-6.4-3.13-7.41-6.26a5.52 5.52 0 0 1 3.87-7.24c4.55-.98 10.7 4.76 12.78 8.36.1.2 1.08 2.31 1.7 3.87-.19-.96-.37-1.95-.57-2.87-.74-3.45-1.64-6.56-2.45-9.3-.47-1.56-.94-2.96-1.38-4.32-1.51-.63-7.56-3.24-9.72-5.53-2.16-2.3-4.23-5.72-3.7-8.96a5.51 5.51 0 0 1 6.78-4.65c4.5 1.23 7.3 9.15 7.5 13.3 0 .37-.38 6.01-.46 5.98h-.1a125.96 125.96 0 0 1 4.07 13.34c.94 3.7 1.66 7.45 2.16 11.23a72.56 72.56 0 0 1 .58 12.93c.47-1.29 1.93-4.82 2.07-5.08 2-3.64 8.01-9.51 12.6-8.64a5.53 5.53 0 0 1 4.02 7.15c-.95 3.15-4.32 5.4-7.27 6.48-3.3 1.22-10.87.67-11.47.63a98.66 98.66 0 0 1-1.96 12.87c-.5 2.48-1.08 4.97-1.69 7.45.45-1.08.86-2.06.93-2.16 2.01-3.65 8.03-9.51 12.6-8.64a5.5 5.5 0 0 1 4.02 7.15c-.95 3.14-4.32 5.34-7.27 6.42-2.94 1.08-9.42.76-11.14.64l-.72 2.86c-1.2 4.55-2.4 9.1-3.44 13.6-.37 1.58-.68 3.15-.98 4.72.4-.97.73-1.78.8-1.9 2-3.65 8.02-9.51 12.6-8.64a5.51 5.51 0 0 1 4.03 7.15c-.95 3.14-4.32 5.34-7.28 6.42s-8.8.79-10.8.67c-.27 1.62-.54 3.24-.73 4.82-.1 1.09-.27 2.17-.33 3.25l-.2 3.24c-.05 2.05-.11 4.15-.11 6.15v4.05a99.74 99.74 0 0 1 1.19-4.9 21.4 21.4 0 0 1 6.48-8.64c.13-.38.3-.74.52-1.08a5.52 5.52 0 0 1 7.98-1.9c3.75 2.77 3.53 11.18 2.16 15.13-.08.22-1.2 2.67-1.94 4.19.57-.83 1.08-1.64 1.7-2.5 1.18-1.67 2.38-3.32 3.7-5.1l1.98-2.52c.65-.85 1.44-1.69 2.16-2.54 1.73-1.93 3.56-3.82 5.45-5.68-1.48-1.03-6.64-4.74-8.25-7.4-1.6-2.68-2.91-6.49-1.68-9.57a5.5 5.5 0 0 1 7.56-3.07c4.12 2.16 5.17 10.5 4.47 14.6 0 .25-.89 3.14-1.37 4.7 1.14-1.07 2.28-2.2 3.47-3.29 3.46-3.13 7.05-6.19 10.61-9.24l3.24-2.84c-.53-.36-6.77-4.65-8.57-7.64-1.61-2.66-2.91-6.48-1.69-9.55a5.52 5.52 0 0 1 7.56-3.09c4.13 2.16 5.17 10.5 4.47 14.6 0 .32-1.26 4.47-1.62 5.5 2.39-2.07 4.74-4.18 6.98-6.34a96.03 96.03 0 0 0 8.66-9.36c-.25-.17-6.77-4.61-8.64-7.68-1.61-2.67-2.92-6.48-1.7-9.56a5.52 5.52 0 0 1 7.62-3.07c4.12 2.15 5.17 10.5 4.47 14.6-.06.32-1.36 4.78-1.65 5.57l.47-.56a71.26 71.26 0 0 0 6.73-10.68c1.08-2.07 2-4.1 2.86-6.08-1.3-.7-7.21-3.99-9.18-6.56-1.96-2.57-3.6-6.14-2.73-9.3a5.52 5.52 0 0 1 7.23-3.9c4.31 1.69 6.3 9.85 6.04 14.03 0 .23-.4 2.5-.71 4.16.37-.9.77-1.82 1.08-2.7a122.99 122.99 0 0 0 4.29-13.44c-.92-1.36-4.55-6.86-5.1-10-.55-3.13-.37-7.11 1.87-9.51a5.52 5.52 0 0 1 8.2-.14c3.09 3.5 1.09 11.66-1.07 15.23a99.7 99.7 0 0 1-3.67 4.74l-.07-.09c-.3 1.3-.66 2.67-1.08 4.17a96.64 96.64 0 0 1-2.84 9.17 97.8 97.8 0 0 1-4.43 10.54 71.3 71.3 0 0 1-6.67 11.08c1.08-.8 4.26-2.95 4.52-3.09 3.68-1.93 11.95-3.5 15.27-.25a5.52 5.52 0 0 1-.58 8.2c-2.53 2.1-6.59 2.04-9.61 1.33Z"/><path opacity=".1" d="M428.91 315.22c-.09 0 .6-5.6.68-5.96.97-4.04 5.23-11.29 9.87-11.64a5.52 5.52 0 0 1 5.77 5.83c-.08 3.24-2.79 6.3-5.31 8.1-2.97 2.14-11 3.66-11 3.67Z"/></g></g><path d="m225.34 36.03 13.5 128.3" stroke="#263238" stroke-linecap="round" stroke-linejoin="round"/><path d="m265.83 63.29-10.06 2.3-9.22 18.23-14.59-4.17-.4 3.97 18.14 7.53 6.49-9v15.7l19.48.85 3.98-17.8 7.12 6.28v16.54h4.2l2.5-20.73-11.1-18.02-16.54-1.68Z" fill="white" stroke="#263238" stroke-linecap="round" stroke-linejoin="round"/><path d="m256.19 82.14-.15-8.86" stroke="#263238" stroke-linecap="round" stroke-linejoin="round"/><path d="m265.68 69.12 2.73 5.13s7.56 2.4 8.9 2.73c1.34.34 5.48-1.02 8.89-1.7 3.41-.68 14.38 4.78 14.38 4.78l9.57.35-5.13-6.16-18.47-2.74-9.58 3.09-6.48-1.72 1.38-2.68-3.08-4.8-3.11 3.72Z" fill="black" stroke="#263238" stroke-linecap="round" stroke-linejoin="round"/><path d="M266.66 61.82a2.16 2.16 0 0 0-2.51 1.68c-.41 2.1-.83 7.34-.83 7.34l5.02-1.47 5.87 2.51s1.88-5.45.83-7.33c-1.04-1.88-5.86-4.4-8.38-2.73Z" fill="white" stroke="#263238" stroke-linecap="round" stroke-linejoin="round"/><path d="m265.62 58.9.84 7.95c.21 2.1 1.47 5.24 2.3 4.61.83-.62 3.77-6.48 3.77-6.48l1.47-3.97-8.38-2.12ZM265.68 50.33s-1.84-.16-1.84 2.84 1.33 3.16 1.33 3.16l.51-6ZM277.96 52.83a1.63 1.63 0 0 1 1.5 2c-.33 1.84-3.5 4.32-3.5 4.32l2-6.32Z" fill="white" stroke="#263238" stroke-linecap="round" stroke-linejoin="round"/><path d="M271.9 44.28s-3.35-.84-5.24 3.14c-1.89 3.99-1.47 8.8-1.08 11.53.4 2.72 2.94 3.97 5.46 3.97 2.51 0 6.27-5.23 7.11-9.21.85-3.99.24-9.43-6.25-9.43ZM227.91 77.33l.83 6.28 3.77.42-.62-7.12-3.98.42ZM231.96 77.23l1.53-.2.3 3.34-1.53.2-.3-3.34ZM286.77 103.72l-2.29 3.59.6 3.6 2-.2 3.4-1.2.48-5.79h-4.19Z" fill="white" stroke="#263238" stroke-linecap="round" stroke-linejoin="round"/><path d="m256.19 97.86-1.48 6.46-16.4 21.58 11 30.98 2.8-.6-2.4-29.59 13.39-14.19 1.6 1 .04 15.84 15.35 25.94 3.2-.8-7.2-24.99.4-26.58-.82-4.2-19.48-.85Z" fill="#263238" stroke="#263238" stroke-linecap="round" stroke-linejoin="round"/><path d="m249.3 156.88-2.39 3.4s-3.8 1.8-4.4 2.79c-.59 1 3.24.8 3.24.8l4.4-.4 4.6-3-2.6-4.2-2.84.61Z" fill="white" stroke="#263238" stroke-linecap="round" stroke-linejoin="round"/><path d="M225.91 40.6s-2 4.58-10.3 7.72c-8.3 3.14-20.3 4.86-23.45 11.44-3.14 6.57-3.14 6.01-3.71 9.72a10.04 10.04 0 0 1-2.86 5.71s2.86.3 4.32-1.7c1.46-2 2-7.73 4.32-8.6 2.3-.86 6.5-2.25 6.5-2.25s-3.99 3.43-4.31 5.15c-.32 1.72-.57 5.73-1.14 8.3a6.83 6.83 0 0 1-1.96 3.69s3.72 0 4.86-2.57c1.14-2.57 0-6 3.72-8.59 3.71-2.58 7.72-1.42 14.03-1.14 6.32.28 12.3-3.43 12.3-3.43l-2.32-23.45Z" fill="black" stroke="#263238" stroke-linecap="round" stroke-linejoin="round"/><path d="m280.09 155.28-2.76 9.15 6.84-.27-.89-9.69-3.2.81Z" fill="white" stroke="#263238" stroke-linecap="round" stroke-linejoin="round"/><path d="M269.61 52.3c-.12.54-.5.92-.86.85-.37-.08-.56-.59-.45-1.08.12-.5.5-.92.87-.85.37.08.55.54.44 1.08ZM274.61 53.47c-.12.54-.5.92-.86.84-.37-.07-.56-.58-.44-1.08.11-.5.5-.91.86-.84.37.08.55.53.44 1.08Z" fill="#263238"/><path d="m271.29 53-1.33 4h2.17M268.3 58.17s1.16 2 4.16.83M268.12 49.5a2.16 2.16 0 0 1 2.67.5M273.3 50.66a2.37 2.37 0 0 1 3.32 1.18" stroke="#263238" stroke-linecap="round" stroke-linejoin="round"/><path d="m264.96 49 12-1.48s-.5 2 .17 2.5.83 2.84.83 2.84l-.5 2.66 2.67-4.66s.83-3.67.16-4.84a2.94 2.94 0 0 0-2-1.34 6.83 6.83 0 0 0-6.67-3c-4.67.5-6.66 2.84-6.66 4.67V49Z" fill="#263238" stroke="#263238" stroke-linecap="round" stroke-linejoin="round"/><g stroke="#39515E"><path d="m256.1 502.42 21.17-121.47-79.9-73.32 29-98.8-31.04.69-13.11 11.73-27.4-.67-3.7 13.36-7.52-.94-2.6 4.69-12.81 25.6-6.67 25.56-24.84 31.05-2.72 73.26-40.05 57.8-12.59 51.46H256.1Z" fill="#808080" stroke-linecap="round" stroke-linejoin="round"/><path d="m436.38 502.42-26.51-58.14 43.2 28.78V427l-25.4-30.08 3.77-33.84-38.56-73.32-1.92-25.38-13.15-12.22-67.53 4.88-4.81-23.7-43.2-24.45-25.92 62.76-23.88 10.56 16.82 23.07-2.72 18.29 5.63 28.23-93.96 20.68s-.94 45.12-.94 48.88c0 3.76-18.8 25.38-18.8 25.38l-.88 55.68h318.76Z" fill="#ABABAB" stroke-linecap="round" stroke-linejoin="round"/><path d="m488.71 502.42-11.22-4.92-14.1-30.08-16.93-12.21-7.52-17.86-7.51-14.1-40.18-19.63 6.23 98.8h91.23ZM68.2 502.3h50.23l.9-29.24-4.69-16.91v-45.12l-11.27-1.88-9.41 10.33-15.03 8.47-32.59 74.47H68.2v-.12Z" fill="#CCCCCC" stroke-linecap="round" stroke-linejoin="round"/><path d="m85.58 453.35 1.1-4.69M68.2 502.42l6.7-26.45 6.32-4.02 3.69-15.75M57.36 502.7 68 472.52M103.52 421.63l-1.04 4.9M105.93 410.16l-1.97 9.37" stroke-miterlimit="10"/><path d="m118.43 502.3.91-29.24-4.7-16.91v-45.12l-9.4 60.15-8.46 2.82-2.82 16.93-1.75 11.37h26.22ZM279.3 468.96a61.49 61.49 0 0 0 15.54-4.24 25.3 25.3 0 0 0 10.15-7.56c.31-.42.6-.86.89-1.3l-7.42-33.48-14.64-12.77-2.44-10.95-14.04-10.95-4.86 17.04-7.91 10.95-.6 40.17 7.55 14.45c5.95-.05 11.9-.5 17.78-1.36v0Z" fill="white" stroke-linecap="round" stroke-linejoin="round"/><path d="m279.3 468.96-1.5-12.5 4.4-11.86v-7.02l-.88-10.97M288.2 430.94l2.34 13.22 4.39.88-.88 10.97 1.75 5.71M286.59 421.78l.78 4.41M272.1 393.7l3.51 35.98" stroke-miterlimit="10"/><path d="M229.23 468.06a199.74 199.74 0 0 0 36.55 2.14l-.22-11.3-3.65-4.86v-34.69l6.1-6.09-.62-25.54-7.3 13.4-9.72 8.5-6.1 17.65-9.72 11.57-2.44 12.17-11.55 9.72-4.62 4.91c4.36.93 8.79 1.74 13.29 2.42Z" fill="#CCCCCC" stroke-linecap="round" stroke-linejoin="round"/><path d="m405.1 502.42 51.04-.1-66.08-39.6-15.97-38.54-13.16-1.88-11.28-15.03-5.65 5.64 3.76 32.9-14.1 23.5v15.04l-6.57 16.91 31.8 1.16h46.22Z" fill="white" stroke-linecap="round" stroke-linejoin="round"/><path d="m379.51 502.35-2.4-13.45 3.78-7.93-1.03-15.52 3.1 3.1 21.05 33.8h-24.5Z" fill="#CCCCCC" stroke-linecap="round" stroke-linejoin="round"/><path d="m379.86 465.45 14.84 7.25 5.85 7.23 16.9 8.63 11.73 7.25 7.2 6.6-32.37-.06-24.15-36.9Z" fill="white" stroke-linecap="round" stroke-linejoin="round"/><path d="M333.67 469.3v15.05l-7.09 17.76 26.84.35-5.66-32.22 11.29-10.33-15.05-47 3.76 32.9-14.1 23.5Z" fill="#CCCCCC" stroke-linecap="round" stroke-linejoin="round"/><path d="m360.93 422.3 9.92 20.99 4.38.44 3.51 10.53M367.59 485.78l1.51 4.9M361.64 447.67l3.06 11.86 5.28 8.77-6.15 5.27 2.66 8.63" stroke-miterlimit="10"/><path d="m236.24 206.55-22.03 24.1-.76-44.18 21.94-26.63.85 46.71ZM220.95 303.02l22.53-19.89a23.72 23.72 0 0 1 5.34-3.5 40.21 40.21 0 0 1 7.56-2.7 69.45 69.45 0 0 1 10.15-1.68c4.31-.4 8.64-.56 12.96-.48a207.28 207.28 0 0 1 56.6 8.62c7.5 2.24 14.05 4.63 19.7 6.85 5.64 2.21 10.3 4.24 14.09 5.73l-29.24 18.96c-3.57-1.4-8.01-3.32-13.34-5.4a253.15 253.15 0 0 0-18.63-6.48 193.4 193.4 0 0 0-24.02-5.5 197.8 197.8 0 0 0-29.54-2.55c-4.1-.07-8.2.09-12.3.48-3.23.3-6.44.83-9.6 1.6-2.48.62-4.9 1.48-7.2 2.58a22.56 22.56 0 0 0-5.06 3.36v0ZM292.68 465.6l-25.42 9.72a33.82 33.82 0 0 0 6.35-3.15 21.21 21.21 0 0 0 4.73-4.12 16.1 16.1 0 0 0 2.94-5.13c.67-2 .98-4.1.92-6.2a18.26 18.26 0 0 0-3.24-10.3 30.64 30.64 0 0 0-10.04-8.59 98.93 98.93 0 0 0-17.78-7.56 330.07 330.07 0 0 0-26.62-7.45c-14.2-3.3-28.1-7.77-41.56-13.35a142.95 142.95 0 0 1-33.92-19.72 85.64 85.64 0 0 1-22.97-27.43 80.53 80.53 0 0 1-8.64-36.54 96 96 0 0 1 1.08-15.4c.74-4.9 1.9-9.73 3.45-14.43a82.73 82.73 0 0 1 5.8-13.33 83.64 83.64 0 0 1 8.1-12.13l17.5-21.96a86.41 86.41 0 0 0-14.67 26.93 90.85 90.85 0 0 0-3.69 15.27c-.8 5.4-1.16 10.85-1.08 16.3a85.55 85.55 0 0 0 9.23 38.72 91.04 91.04 0 0 0 24.35 29.1c10.24 8.24 22.4 15.12 35.94 20.87a282.4 282.4 0 0 0 43.98 14.2c11.07 2.7 20.39 5.3 28.15 7.92a103.9 103.9 0 0 1 18.8 8.1c4.84 2.8 8.31 5.79 10.6 9.07 2.23 3.2 3.44 7 3.47 10.9.07 2.23-.26 4.46-.98 6.58a17 17 0 0 1-3.08 5.4 22.34 22.34 0 0 1-5 4.32 35.68 35.68 0 0 1-6.7 3.39v0Z" fill="#CCCCCC" stroke-linecap="round" stroke-linejoin="round"/><path d="M167.5 374.85c10.24 8.24 22.4 15.12 35.94 20.87a282.4 282.4 0 0 0 43.98 14.2c11.07 2.7 20.39 5.3 28.15 7.92a103.9 103.9 0 0 1 18.8 8.1c4.84 2.8 8.31 5.79 10.6 9.07 2.23 3.2 3.44 7 3.47 10.9a17.52 17.52 0 0 1-3.48 11.28 25.31 25.31 0 0 1-10.15 7.56 61.5 61.5 0 0 1-15.51 4.23 133.2 133.2 0 0 1-19.56 1.37c-10.21.03-20.41-.73-30.51-2.27-9.7-1.47-19.3-3.53-28.74-6.16a292.25 292.25 0 0 1-26.06-8.64 314.81 314.81 0 0 1-22.52-9.72l-13.8 58.64h248.06a92.6 92.6 0 0 0 17.84-29.43 95.36 95.36 0 0 0 5.8-36.1c-.36-13.15-2.36-24.84-6.28-35.33a79.34 79.34 0 0 0-17.82-28c-8.07-8.27-18.36-15.56-31.17-22.06-12.8-6.5-28.23-12.26-46.44-17.45a544.06 544.06 0 0 1-30.75-9.83c-7.49-2.6-14.8-5.69-21.88-9.27-5.83-3.05-10.2-6.09-13.12-9.2-2.91-3.1-4.4-6.27-4.47-9.6-.08-2.72.5-5.42 1.7-7.86a17.8 17.8 0 0 1 6.49-6.9 37.5 37.5 0 0 1 12.8-4.8 96.84 96.84 0 0 1 20.7-1.6 207.26 207.26 0 0 1 56.6 8.62c7.5 2.23 14.05 4.63 19.7 6.84 5.65 2.21 10.31 4.24 14.1 5.73l16.06-72.36a219.92 219.92 0 0 0-35.99-12.09 272.25 272.25 0 0 0-23.44-4.54 307.06 307.06 0 0 0-28.18-2.84l-.93-42.79-62.05-1.5.85 46.71a163.17 163.17 0 0 0-43.74 12.43c-11.99 5.3-22.94 12.7-32.32 21.86a87.95 87.95 0 0 0-19.83 29.83 94.42 94.42 0 0 0-6.48 36.36 85.55 85.55 0 0 0 9.23 38.72 91.04 91.04 0 0 0 24.35 29.1v0Z" fill="white" stroke-linecap="round" stroke-linejoin="round"/><path d="m138.11 502.2 13.8-58.68-17.68 11.06-11.25 47.62h15.13Z" fill="#CCCCCC" stroke-linecap="round" stroke-linejoin="round"/></g><g fill="#263238"><path d="M436.48 488.04a4.32 4.32 0 0 0-3.14.62l4.84 2.9a2.7 2.7 0 0 0-1.7-3.52ZM437.84 449.8s.65-2.71.67-2.88c.22-2.05-.57-6.13-2.68-7.07a2.72 2.72 0 0 0-3.65 1.77c-.5 1.55.26 3.4 1.14 4.66 1.04 1.49 4.52 3.52 4.52 3.53ZM469.87 466.42c1.31-1.59 2.9-5.4 1.66-7.37a2.7 2.7 0 0 0-4.02-.54 5.66 5.66 0 0 0-1.62 4.52c0 1.8 1.83 5.4 1.84 5.4 0 0 2.07-1.87 2.13-2.01Z"/><path d="M425.37 481.43c1.52.98 3.2 1.7 4.95 2.16-.14.8-.28 1.6-.46 2.37 0 .2-.1.39-.14.6l1.02.6.2-.96c.25-1.26.46-2.54.62-3.84 1.73.64 3.55 1 5.4 1.08a5.7 5.7 0 0 0 4.32-2.16 2.75 2.75 0 0 0-1.08-3.93c-2.09-.98-5.7 1.08-7.1 2.58-.1.1-.98 1.28-1.46 1.95.1-.78.2-1.56.27-2.36.2-2.29.35-4.62.49-6.94 0-.7.1-1.42.15-2.16.3.1 3.85 1.3 5.57 1.07 1.53-.16 3.44-.78 4.32-2.16a2.73 2.73 0 0 0-1.08-3.91c-2.08-.99-5.69 1.07-7.1 2.58-.1.12-1.38 1.83-1.69 2.27.11-1.55.24-3.1.42-4.64.24-2.06.6-4.1 1.08-6.12.14 0 3.85 1.3 5.6 1.08 1.54-.16 3.44-.8 4.33-2.16a2.73 2.73 0 0 0-1.08-3.92c-2.09-1-5.7 1.08-7.1 2.58-.12.12-1.49 1.96-1.71 2.3 0-.1.05-.23.08-.35.57-2 1.3-3.95 2.22-5.83a33.99 33.99 0 0 1 1.54-2.95c.67.3 3.73 1.67 5.33 1.68 1.6 0 3.5-.4 4.49-1.7a2.74 2.74 0 0 0-.62-4.02c-1.95-1.2-5.76.46-7.33 1.8-.09.07-.88.9-1.44 1.52l.75-1.25a67.93 67.93 0 0 1 4.02-5.7 18.1 18.1 0 0 0 5.47-.96c1.36-.7 2.92-1.97 3.24-3.57a2.74 2.74 0 0 0-2.38-3.24c-2.3-.16-4.92 3.07-5.7 4.97-.06.17-.82 2.86-.77 2.86h.05c-.42.5-.86 1.08-1.33 1.66a60.9 60.9 0 0 0-2.77 3.89 50.85 50.85 0 0 0-2.84 4.88 35.41 35.41 0 0 0-2.38 5.87v.07c0-.68-.1-2.56-.12-2.7-.33-2.04-2.16-5.77-4.45-6.11a2.73 2.73 0 0 0-3.07 2.67c-.07 1.63 1.16 3.24 2.34 4.2 1.34 1.08 4.95 2.16 5.25 2.16a48.96 48.96 0 0 0-1.31 6.3c-.19 1.25-.32 2.5-.44 3.76 0-.58-.07-1.08-.08-1.17-.34-2.03-2.16-5.77-4.45-6.1a2.73 2.73 0 0 0-3.06 2.66c-.07 1.62 1.16 3.24 2.34 4.2 1.57.97 3.29 1.7 5.08 2.15 0 .48-.1.96-.13 1.45-.2 2.32-.38 4.63-.64 6.9-.09.8-.2 1.59-.33 2.37v-1.02c-.33-2.03-2.16-5.76-4.45-6.1a2.73 2.73 0 0 0-3.05 2.67c-.2 1.55 1.02 3.14 2.2 4.12ZM485.69 462.3c-1.83-1.42-5.8-.17-7.49 1-.15.1-2.26 1.93-2.22 1.95a53.73 53.73 0 0 0-6.48 2.37 45.64 45.64 0 0 0-5.07 2.5 35.65 35.65 0 0 0-5.21 3.58l-.06.05c.36-.57 1.33-2.16 1.38-2.32.85-1.88 1.38-6-.34-7.56a2.73 2.73 0 0 0-4.02.54c-.96 1.3-.8 3.3-.38 4.78.51 1.67 2.97 4.5 3.18 4.73a45.08 45.08 0 0 0-4.57 4.53c-.84.94-1.65 1.9-2.45 2.88l.6-1.01c.83-1.88 1.36-6-.35-7.56a2.72 2.72 0 0 0-4.02.54c-.96 1.3-.81 3.31-.37 4.78.78 1.68 1.81 3.23 3.06 4.6l-.9 1.07c-1.46 1.84-2.9 3.67-4.33 5.4-.5.62-1.08 1.21-1.56 1.8l.5-.89c.85-1.87 1.38-6-.34-7.56a2.71 2.71 0 0 0-4.02.54c-.96 1.3-.81 3.3-.37 4.78a17.1 17.1 0 0 0 2.94 4.66l-1.08 1.17.95.57c.66-.68 1.3-1.4 1.93-2.16a17.89 17.89 0 0 0 3.91 3.84 5.7 5.7 0 0 0 4.78.54 2.73 2.73 0 0 0 1.28-3.84c-1.2-1.98-5.4-2.24-7.34-1.76-.13 0-1.53.53-2.3.82.52-.6 1.03-1.2 1.53-1.83 1.44-1.79 2.84-3.66 4.25-5.51l1.3-1.69c.19.25 2.5 3.24 4.03 4a5.69 5.69 0 0 0 4.76.54 2.71 2.71 0 0 0 1.29-3.85c-1.19-1.97-5.34-2.25-7.34-1.77-.16 0-2.17.77-2.66.97a88.4 88.4 0 0 1 2.91-3.64c1.34-1.59 2.79-3.1 4.32-4.49.1.12 2.48 3.24 4.05 4.03 1.37.71 3.3 1.24 4.77.54a2.72 2.72 0 0 0 1.3-3.85c-1.2-1.97-5.35-2.23-7.35-1.77-.16 0-2.32.82-2.71 1l.27-.26a35.26 35.26 0 0 1 5.06-3.64c.99-.6 1.96-1.08 2.92-1.6.39.61 2.16 3.43 3.52 4.32 1.36.88 3.14 1.59 4.68 1.08a2.75 2.75 0 0 0 1.7-3.68c-.97-2.1-5.06-2.81-7.1-2.56-.12 0-1.24.28-2.05.48l1.31-.63a61.7 61.7 0 0 1 4.4-1.8l2.1-.73c1.58.99 3.3 1.74 5.1 2.21a5.7 5.7 0 0 0 4.63-1.22 2.73 2.73 0 0 0 .48-3.14 2.7 2.7 0 0 0-.71-.88ZM430.62 502.37l1.24.77.77-.56.29-.22-2.3.01ZM72.8 430.92a2.73 2.73 0 0 0-.63 4 4.7 4.7 0 0 0 3.02 1.6l2.32-5.3c-1.63-.73-3.5-1.08-4.7-.3ZM83.55 423.95a3.95 3.95 0 0 0-1.47 2.22l4.07-2.28a2.6 2.6 0 0 0-2.6.06ZM84.24 385.36c1.38 1.16 5.28 2.22 5.28 2.22s-.07-2.79-.1-2.96c-.33-2.03-2.17-5.77-4.42-6.12a2.7 2.7 0 0 0-3.07 2.65c-.04 1.62 1.23 3.21 2.31 4.2ZM55.8 397.6s-1.6-2.28-1.72-2.4c-1.39-1.52-4.97-3.63-7.07-2.67a2.72 2.72 0 0 0-1.08 3.9c.82 1.41 2.71 2.06 4.25 2.24 1.78.2 5.62-1.06 5.62-1.07Z"/><path d="m53.77 388.98.37 2.1a61.36 61.36 0 0 0 2.85 10.04 35.85 35.85 0 0 0 2.82 5.66v.07c-.5-.44-1.99-1.62-2.16-1.7-1.74-1.08-5.76-2.16-7.56-.71a2.74 2.74 0 0 0-.67 3.14c.16.35.38.66.67.92 1.17 1.13 3.16 1.26 4.69 1.08 1.71-.26 4.86-2.32 5.1-2.48a50.54 50.54 0 0 0 3.87 5.16c.81.95 1.65 1.89 2.52 2.82l-.93-.74c-1.74-1.08-5.76-2.16-7.56-.7a2.73 2.73 0 0 0 0 4.06 5.69 5.69 0 0 0 4.69 1.03 18.29 18.29 0 0 0 4.98-2.39l.99 1.08c1.6 1.69 3.24 3.36 4.75 5.05.54.6 1.08 1.2 1.57 1.8l-.81-.62c-1.74-1.08-5.76-2.16-7.56-.71a2.73 2.73 0 0 0 0 4.06c1.16 1.13 3.17 1.26 4.68 1.08 1.73-.52 3.37-1.3 4.85-2.31.51.63 1.02 1.26 1.48 1.91.3.44.63.84.91 1.3v.07l.41-.93.24-.14-.7-.95a53.86 53.86 0 0 0-2.48-3.01c1.6-.89 3.06-2.01 4.32-3.34a5.72 5.72 0 0 0 1.2-4.65 2.71 2.71 0 0 0-3.63-1.8c-2.16.9-2.96 4.97-2.76 7.01 0 .13.31 1.6.5 2.39l-1.6-1.77c-1.58-1.68-3.23-3.32-4.87-4.97l-1.5-1.51c.28-.16 3.52-2.03 4.52-3.45a5.7 5.7 0 0 0 1.48-4.77 2.75 2.75 0 0 0-3.63-1.81c-2.16.9-2.96 4.97-2.76 7.03 0 .15.44 2.24.58 2.77-1.08-1.08-2.16-2.24-3.24-3.39a47.26 47.26 0 0 1-3.85-4.9c.13-.08 3.53-2.02 4.55-3.46a5.7 5.7 0 0 0 1.2-4.64 2.74 2.74 0 0 0-3.65-1.86c-2.16.9-2.96 4.98-2.76 7.03 0 .16.48 2.4.59 2.8l-.22-.28a35.82 35.82 0 0 1-2.9-5.53c-.46-1.08-.83-2.1-1.18-3.11 1.74-.71 3.35-1.68 4.79-2.89a5.69 5.69 0 0 0 1.68-4.48 2.73 2.73 0 0 0-3.41-2.16c-2.16.67-3.48 4.62-3.52 6.69 0 .1.1 1.25.2 2.08l-.45-1.38a58.99 58.99 0 0 1-1.6-6.77 18.03 18.03 0 0 0 2.9-4.74 5.66 5.66 0 0 0-.56-4.77 2.72 2.72 0 0 0-4.04-.38c-1.65 1.61-.97 5.7 0 7.56.07.07 1.6 2.45 1.61 2.41ZM82.29 396.99c1.57.72 5.33.74 5.63.75-.02 2.17.1 4.33.37 6.48.15 1.24.35 2.5.55 3.74-.18-.55-.34-1.08-.38-1.08-.84-1.88-3.58-5-5.87-4.74a2.73 2.73 0 0 0-2.27 3.37c.35 1.59 1.94 2.8 3.35 3.44 1.77.54 3.61.79 5.46.76l.25 1.42c.41 2.3.83 4.58 1.18 6.84.12.8.2 1.59.3 2.38l-.32-.98c-.86-1.87-3.6-5-5.89-4.74a2.71 2.71 0 0 0-2.26 3.33c.35 1.59 1.95 2.8 3.34 3.44 1.19.42 2.44.65 3.7.69l2.51-1.42 1.99-1.08 5.43-5.95a2.48 2.48 0 0 0-.38-.1c-2.27-.42-5.21 2.5-6.19 4.31 0 .12-.6 1.5-.9 2.26-.1-.78-.2-1.56-.35-2.34-.39-2.27-.86-4.55-1.32-6.84-.15-.7-.28-1.4-.4-2.1.3 0 4.04.25 5.65-.36 1.44-.55 3.12-1.66 3.57-3.24a2.72 2.72 0 0 0-2.08-3.47c-2.27-.41-5.2 2.52-6.17 4.32-.08.14-.87 2.16-1.09 2.65-.29-1.55-.57-3.08-.78-4.6-.3-2.06-.48-4.14-.51-6.21.15 0 4.05.25 5.7-.37a5.72 5.72 0 0 0 3.57-3.24 2.72 2.72 0 0 0-2.04-3.51c-2.26-.42-5.21 2.51-6.18 4.32-.08.14-.92 2.28-1.08 2.68v-.37c.03-2.08.24-4.16.62-6.21.2-1.14.47-2.16.74-3.24.72.12 4.03.64 5.57.23 1.54-.41 3.24-1.3 3.9-2.8a2.74 2.74 0 0 0-1.63-3.72c-2.16-.65-5.4 1.94-6.62 3.63-.07.09-.6 1.08-1 1.84.13-.47.26-.95.4-1.4.5-1.66 1.07-3.16 1.56-4.49l.84-2.04c.78-.26 3.87-1.3 5.03-2.35 1.17-1.06 2.31-2.67 2.16-4.32A2.73 2.73 0 0 0 96.8 370c-2.27.43-3.95 4.23-4.21 6.27v2.97l-.86 1.96c-.52 1.31-1.08 2.8-1.66 4.47-.6 1.79-1.09 3.6-1.48 5.45-.4 2.08-.63 4.2-.67 6.31v.08c-.18-.65-.76-2.46-.82-2.59-.85-1.88-3.6-5-5.88-4.74a2.7 2.7 0 0 0-2.3 2.24c-.07.38-.06.76.04 1.13.34 1.57 1.94 2.8 3.34 3.43ZM238.92 420.94a2.72 2.72 0 0 0-2.26 3.37 5.66 5.66 0 0 0 3.34 3.44c1.06.39 2.18.6 3.3.65l.96-1.14.54-1.57c-.85-1.89-3.6-5-5.88-4.75ZM227.07 437.26a2.74 2.74 0 0 0-.64 4c.97 1.31 2.94 1.73 4.47 1.73 1-.07 2-.3 2.93-.67l.63-3.15-.07-.06c-1.55-1.35-5.35-3.04-7.32-1.85ZM237.82 430.35c-1.76 1.08-2.11 4.55-1.8 6.7l5.18-6.15a2.66 2.66 0 0 0-3.38-.55Z"/><path d="M221.87 422.63c.33.34.65.7.99 1.08 1.6 1.68 3.24 3.35 4.75 5.05.54.6 1.08 1.2 1.57 1.8l-.81-.62c-1.74-1.08-5.76-2.16-7.56-.72a2.74 2.74 0 0 0 0 4.06c1.16 1.14 3.17 1.27 4.68 1.09 1.73-.52 3.36-1.3 4.85-2.32.51.64 1.02 1.27 1.48 1.92.3.44.63.84.9 1.3l.86 1.34c.4.67.8 1.34 1.17 2l.83-.98c-.32-.54-.66-1.08-1.02-1.66l-.88-1.32c-.28-.45-.64-.89-.96-1.33a39.61 39.61 0 0 0-2.47-3.02c1.6-.88 3.05-2 4.31-3.33a5.71 5.71 0 0 0 1.2-4.66 2.73 2.73 0 0 0-3.56-1.87c-2.16.91-2.96 4.98-2.76 7.02 0 .13.3 1.6.5 2.4l-1.6-1.77c-1.58-1.67-3.24-3.33-4.88-4.98l-1.49-1.51c.27-.16 3.51-2.03 4.52-3.45a5.7 5.7 0 0 0 1.2-4.64 2.73 2.73 0 0 0-3.63-1.81c-2.16.9-2.96 4.98-2.77 7.03 0 .15.45 2.24.59 2.77-1.09-1.08-2.16-2.24-3.25-3.39a47.23 47.23 0 0 1-3.84-4.9c.13-.08 3.52-2.02 4.55-3.46a5.68 5.68 0 0 0 1.2-4.64 2.74 2.74 0 0 0-3.63-1.82c-2.16.91-2.96 4.98-2.77 7.03 0 .17.49 2.41.6 2.81l-.22-.29a35.8 35.8 0 0 1-2.9-5.53c-.46-1.08-.84-2.1-1.18-3.1 1.73-.72 3.34-1.69 4.78-2.88 1.03-1.16 2.01-2.9 1.7-4.5a2.72 2.72 0 0 0-3.41-2.15c-2.16.67-3.48 4.63-3.52 6.68 0 .1.1 1.25.19 2.08l-.44-1.38a59.16 59.16 0 0 1-1.6-6.77 18.04 18.04 0 0 0 2.9-4.74 5.65 5.65 0 0 0-.56-4.76 2.7 2.7 0 0 0-4.04-.38c-1.65 1.6-.97 5.71 0 7.56.09.16 1.61 2.5 1.63 2.47l.37 2.1a61.56 61.56 0 0 0 2.85 10.04 36.51 36.51 0 0 0 2.82 5.67.1.1 0 0 1 0 .06c-.5-.44-1.99-1.63-2.1-1.7-1.75-1.08-5.76-2.16-7.57-.7a2.72 2.72 0 0 0 0 4.05c1.17 1.14 3.17 1.26 4.7 1.08 1.7-.26 4.85-2.32 5.1-2.49a50.72 50.72 0 0 0 3.87 5.17c.8.95 1.65 1.89 2.51 2.81l-.93-.73c-1.73-1.08-5.75-2.16-7.56-.7a2.74 2.74 0 0 0-.67 3.14c.16.35.39.66.67.92 1.16 1.13 3.17 1.26 4.68 1.02a18.3 18.3 0 0 0 5.06-2.55ZM238.55 391.75c1.38 1.17 5.28 2.22 5.28 2.22s-.07-2.78-.1-2.96c-.33-2.03-2.17-5.76-4.42-6.12a2.74 2.74 0 0 0-2.82 1.55c-.16.35-.25.72-.25 1.1-.09 1.63 1.13 3.21 2.31 4.2Z"/><path d="M210.07 404s-1.6-2.28-1.73-2.41c-1.38-1.51-4.97-3.63-7.06-2.67a2.71 2.71 0 0 0-1.08 3.9c.82 1.41 2.71 2.06 4.24 2.25 1.84.2 5.63-1.06 5.63-1.06ZM236.52 403.38c1.58.72 5.33.76 5.64.76-.02 2.14.1 4.3.37 6.42.15 1.24.34 2.5.55 3.75-.19-.56-.35-1.08-.38-1.08-.84-1.88-3.59-5-5.88-4.74a2.74 2.74 0 0 0-2.26 3.37c.34 1.59 1.94 2.8 3.34 3.44 1.77.54 3.62.8 5.47.76l.25 1.43c.4 2.3.83 4.58 1.17 6.83 0 .34.08.67.12 1l.68-1.94c-.37-2-.78-4.03-1.18-6.05-.13-.69-.28-1.39-.4-2.08 1.47.09 2.95.06 4.41-.1l1.9-5.5 1.5-1.3c-.2-.1-.4-.17-.62-.2-2.27-.42-5.2 2.5-6.18 4.31-.08.14-.86 2.16-1.08 2.65-.3-1.55-.57-3.08-.79-4.6a47.3 47.3 0 0 1-.5-6.21c.14 0 4.04.26 5.7-.37a5.72 5.72 0 0 0 3.56-3.24 2.72 2.72 0 0 0-2.03-3.5c-2.27-.43-5.22 2.5-6.19 4.31-.07.14-.92 2.28-1.08 2.68v-.37c.03-2.08.24-4.16.63-6.2.2-1.09.46-2.17.73-3.25.73.12 4.03.64 5.57.23 1.55-.41 3.25-1.3 3.9-2.8a2.74 2.74 0 0 0-1.63-3.71c-2.16-.66-5.4 1.93-6.62 3.63-.06.08-.6 1.08-1 1.83l.4-1.4c.5-1.65 1.08-3.16 1.56-4.49l.85-2.04c.77-.25 3.86-1.3 5.03-2.35 1.16-1.06 2.31-2.67 2.16-4.32a2.73 2.73 0 0 0-3.16-2.55c-2.27.43-3.96 4.23-4.2 6.28 0 .18-.06 2.98 0 2.97a66.87 66.87 0 0 0-2.52 6.42c-.6 1.79-1.1 3.61-1.48 5.46-.44 2.06-.7 4.17-.77 6.28v.12c-.18-.65-.77-2.45-.82-2.58-.85-1.88-3.6-5-5.89-4.74a2.72 2.72 0 0 0-2.25 3.37c.46 1.55 2.06 2.76 3.42 3.41Z"/></g><g><path d="m400.3 309.05-4.32-5.34 3.88-3.06 2.6 3.25-.88 2.06.73 1.65-1.52 1.09" fill="white"/><path d="m400.3 309.05-4.32-5.34 3.88-3.06 2.6 3.25-.88 2.06.73 1.65-1.52 1.09" stroke="#263238" stroke-linecap="round" stroke-linejoin="round"/><path d="M435.24 318.33s-2.95-2.63-4.05-2.46c-1.1.17-15.55 2.59-15.55 2.59l-13.3-10.85-2.03 1.44 12.73 15.96 13.82-.86-2.97 15.12-12.58 9.57 20.52 12.26 4.13-13.05 16.34-16.1-6.35-7.95-10.71-5.67Z" fill="black" stroke="#263238" stroke-linecap="round" stroke-linejoin="round"/><path d="m439.45 314.84-2.32 4.88-.85-.77-1.63 11.87 11.31-6.86-1.13-1.8.26-3.7-5.64-3.62Z" fill="white" stroke="#263238" stroke-linecap="round" stroke-linejoin="round"/><path d="m434.65 330.81 6.62-4.01-5.53-3.9-1.1 7.92Z" fill="white" stroke="#263238" stroke-linecap="round" stroke-linejoin="round"/><path d="M452.52 303.21s5-5.85 10.09-2.16c5.08 3.7 3.68 7.3 7.3 5.32 3.64-1.97 10.45-7 14.56-.6 4.1 6.4.94 13.09-1.65 14.62-2.58 1.54-1.9-1.39-1.84-2.8.05-1.42-4.18-3.24-5.12-.33-.94 2.92-5.88 7.41-12.14 6.99-6.26-.42-7.47-8.12-7.33-12.65a7.83 7.83 0 0 0-3.88-6.7l.01-1.69Z" fill="#263238" stroke="#263238" stroke-linecap="round" stroke-linejoin="round"/><path d="M440.53 302s-3.13 6.98-2.48 11.1c.65 4.1.3 7.27 2.4 8.07 2.1.8 9.04-3.4 10.57-6.18 1.53-2.77 3.73-6.78 3.12-10.62-.6-3.85-7.97-9.44-13.6-2.37Z" fill="white" stroke="#263238" stroke-linecap="round" stroke-linejoin="round"/><path d="M441.72 309.32c-.16.54-.5.91-.78.82-.27-.08-.35-.58-.2-1.08.17-.5.52-.9.79-.82.27.09.3.54.19 1.08ZM446.71 311.4c-.16.54-.52.91-.79.83-.27-.09-.36-.59-.2-1.08.17-.5.53-.9.8-.83.27.07.35.54.19 1.08Z" fill="#263238"/><path d="M442.98 310.22s.33.24-.13 1.08c-.45.84-1.54.54-1.42 1.26.12.73 1.49 1.08 1.49 1.08M440.47 314.9s1.74 1.64 3.3 1.24M448.35 309.67l-3.23-.82M442.57 307.63l-1.54-1.38" stroke="#263238" stroke-linecap="round" stroke-linejoin="round"/><path d="M440.53 302s-.46 1.08-1 2.56c1.82-.95 4.97-2.02 7.84-.25s4.32 5.84 4.9 8.34c1.22-2.47 2.31-5.4 1.87-8.28-.6-3.85-7.97-9.44-13.6-2.37Z" fill="#263238" stroke="#263238" stroke-linecap="round" stroke-linejoin="round"/><path d="M451.53 312.54s2.24-2.06 2.16-.18c-.09 1.88-2.67 2.99-3.24 3.08-.58.08-.53-.64-.53-.64" fill="white"/><path d="M451.53 312.54s2.24-2.06 2.16-.18c-.09 1.88-2.67 2.99-3.24 3.08-.58.08-.53-.64-.53-.64" stroke="#263238" stroke-linecap="round" stroke-linejoin="round"/><path d="m452.3 331.97-3.46 24.63a2.25 2.25 0 0 1-2.16 1.94h-.75a2.25 2.25 0 0 1-2.32-2.04l-1.35-14.82 10.03-9.71Z" fill="black" stroke="#263238" stroke-linecap="round" stroke-linejoin="round"/><path d="m446.04 353.23-11.1-9.79-2.48 2.08 10.65 12.33a2.25 2.25 0 0 0 1.85.71h.88a2.25 2.25 0 0 0 2.09-2.8" fill="black"/><path d="m446.04 353.23-11.1-9.79-2.48 2.08 10.65 12.33a2.25 2.25 0 0 0 1.85.71h.88a2.25 2.25 0 0 0 2.09-2.8v0" stroke="#263238" stroke-linecap="round" stroke-linejoin="round"/><path d="m434.95 343.43-2.6-4.16-5.86-.65.03 3.5 2.81 2.33 1.79.25 1.34.81 2.49-2.08ZM403.6 356.4s-12.22 15.9-11.55 18.54c.67 2.64 18.53 30.54 18.53 30.54l2.49-1.65-9.82-30.65 19.73-7.85-19.37-8.93Z" fill="white" stroke="#263238" stroke-linecap="round" stroke-linejoin="round"/><path d="m413.46 362.3 1.44 6.36 6.54-2.5-7.98-3.86Z" fill="#263238" stroke="#263238" stroke-miterlimit="10"/><path d="m410.58 405.42-3.24 5.4s-2.58 3.87-1.82 4.1c1.65.53 5.93-2.27 7.15-3.14 1.22-.86 2.52-1.43 3.33-2 .81-.58 2.44-.91.22-2.97-.74-.68-3.1-3.03-3.1-3.03l-2.54 1.64Z" fill="white" stroke="#263238" stroke-linecap="round" stroke-linejoin="round"/><path d="M430.77 351.32c-5.5-2.2-11.13-4.06-16.86-5.58-9.9-2.69-17.23-4.77-17.09-2.3.14 2.47 18.16 42.31 18.16 42.31l3.09-.98-4.71-21.97s7.56 5.3 13.14 2.67c5.59-2.62 7.71-9.72 7.33-12.14" fill="#263238"/><path d="M430.77 351.32c-5.5-2.2-11.13-4.06-16.86-5.58-9.9-2.69-17.23-4.77-17.09-2.3.14 2.47 18.16 42.31 18.16 42.31l3.09-.98-4.71-21.97s7.56 5.3 13.14 2.67c5.59-2.62 7.71-9.72 7.33-12.14" stroke="#263238" stroke-linecap="round" stroke-linejoin="round"/><path d="M411.8 345.17c-8.8-2.39-15.12-4.03-14.98-1.73.14 2.47 18.16 42.31 18.16 42.31l3.09-.98-4.71-21.97c1.6-3.92-.1-12.16-1.56-17.63Z" fill="white" stroke="#263238" stroke-linecap="round" stroke-linejoin="round"/><path d="m413.36 362.8-7.77-11.26" stroke="#263238" stroke-linecap="round" stroke-linejoin="round"/><path d="m414.98 385.75-2.9 5.46s-5.84 5.66-4.54 5.95c1.3.3 12.28-4.43 13.1-5.55.82-1.13-2.57-6.84-2.57-6.84l-3.1.98Z" fill="white" stroke="#263238" stroke-linecap="round" stroke-linejoin="round"/><path d="m401.54 306.42 27.24 32.43M317.74 205.98l79.93 95.64M431.12 344.7v157.67" stroke="#263238" stroke-miterlimit="10"/></g><g><path d="M171 300.88s5.74 33.62-.5 44.28c-6.24 10.66-21.9 2.99-21.9 2.99v153.14" stroke="#263238" stroke-miterlimit="10"/><path d="M136.5 313.46s5.09-.58 5.48.6c.21.96.21 1.96 0 2.92 0 0 2.92 3.13 2.92 5.28 0 2.15-3.12 3.13-3.12 3.13l-.58 5.08-7.82.39-.98-6.06s-2.94-11.54 4.1-11.34Z" fill="white" stroke="#263238" stroke-linecap="round" stroke-linejoin="round"/><path d="m138.07 321.84-2.16-3.13a7.88 7.88 0 0 0 1.16-3.91c0-2.16-.2-6.06-4.68-6.06-4.5 0-7.43 3.52-8.4 11.14-.98 7.63 3.5 11.35 9.96 9.97 6.46-1.37 4.12-8.01 4.12-8.01Z" fill="#263238" stroke="#263238" stroke-linecap="round" stroke-linejoin="round"/><path d="M137.87 320.5s-3.32-.39-3.13 2.16a2.72 2.72 0 0 0 4.9 1.37" fill="white"/><path d="M137.87 320.5s-3.32-.39-3.13 2.16a2.72 2.72 0 0 0 4.9 1.37" stroke="#263238" stroke-linecap="round" stroke-linejoin="round"/><path d="m133.24 332.77-7.2 2.03s-.57 1.4-1.4 3.24c-1.14 2.5-4.26 7.56-4.26 7.56l-14.42 4.11-4.63 14.94-1.03 6.18 8.23-4.13.52-14.4 12.96-2 5.56-14.04 5.67-3.49Z" fill="#263238" stroke="#263238" stroke-linecap="round" stroke-linejoin="round"/><path d="M144.72 330.66s-5.67-2.53-9.97-1.95c-4.3.58-3.9 2.74-3.9 2.74l.19 2.93s7.2-2.15 13.68-3.72ZM125.36 344.94l4.05 18.73a1.43 1.43 0 0 0 1.4 1.23c.22 0 .44-.05.65-.15l9.15-4.57-15.25-15.24Z" fill="black" stroke="#263238" stroke-linecap="round" stroke-linejoin="round"/><path d="m135.53 354.91-2.15 4.3" stroke="#263238" stroke-linecap="round" stroke-linejoin="round"/><path d="m154.48 373.87 11.8 19.53-1.56 26.4 5.67-.19 5.67-31.49-8.28-22.06-13.3 7.81Z" fill="#263238" stroke="#263238" stroke-linecap="round" stroke-linejoin="round"/><path d="M131.03 334.38s-5.67 9.77-5.67 10.56c0 .79 22.1 22.09 22.1 22.09l16.8-11.15-10.55-18.36 15.2-14.92 1.17-20.15-2.73-.19-4.9 14.67-16.2 12.76-15.22 4.69Z" fill="black" stroke="#263238" stroke-linecap="round" stroke-linejoin="round"/><path d="m167.35 302.26.2-4.5 4.87-3.7.4.96v2.94l.2 2.35-2.94 2.14-2.73-.19Z" fill="white" stroke="#263238" stroke-linecap="round" stroke-linejoin="round"/><path d="M147.45 367.03s3.72 6.25 6.48 8.2c2.77 1.96 11.31-4.1 13.47-5.87 2.16-1.77 10.37-12.31 10.37-12.31l7.62 32.49 4.7-1.96s-2.75-43.2-4.11-44.41c-1.36-1.2-22.49 12.5-22.49 12.5l-16.04 11.36Z" fill="#263238" stroke="#263238" stroke-linecap="round" stroke-linejoin="round"/><path d="M190.08 387.59h6.64c1.18 0 4.1-1.76 4.32-.39.22 1.37-5.67 5.08-8.02 6.25a29.1 29.1 0 0 1-7.03 1.76l-.6-5.66 4.69-1.96ZM170.4 419.61l3.32 6.06s4.1 1.76 4.1 2.55c0 .79-6.64.39-7.23.39-.6 0-7.23-6.48-7.23-6.48l1.36-2.36 5.67-.16Z" fill="white" stroke="#263238" stroke-linecap="round" stroke-linejoin="round"/><path d="m172.42 294.05 63.82-87.5" stroke="#263238" stroke-miterlimit="10"/></g><g><path d="M12.96 502.42h511.92" stroke="#263238" stroke-linecap="round" stroke-linejoin="round"/></g></svg>