<svg width="425" height="430" fill="none" xmlns="http://www.w3.org/2000/svg"><path d="M199.53 222.15c-8.6.57-16.96-3.1-20.07-5h-1.43L176.6 225v8.58l3.58 9.3s2.87 3.57 3.58 3.57c.72 0-10.03 22.16-10.03 22.16v40.03l-2.15 19.3 2.87 7.87c-2.63-.72-3.87-.86 12.18 4.29 16.05 5.14 23.41-10.73 25.08-19.3.72-9.54 2.15-28.03 2.15-25.74 0 2.29 10.04 6.67 15.05 8.58 11.95 3.81 36.98 11.44 41.57 11.44 4.59 0 10.03-1.9 12.18-2.86 7.17-6.44 2.87-24.3 2.15-26.45-.57-1.72-4.06-4.53-5.73-5.72-2.31-1.32-4.04-2.1-8.6-3.58l-19.35-5-1.43 3.57c-.08-.65-.52-1.12-2.15-2.14l-2.87-5-2.87 3.57-2.86 1.43v-2.14l1.43-4.3-1.43-2.14a9.88 9.88 0 0 1-2.15-1.43 9.84 9.84 0 0 1-1.44-2.14l-.71-6.44c1.74-3.3 5.36-11.55 7.88-17.15 2.54-5.65 2.87-16.92 2.15-22.16l-5.73-7.87c-23.65 16.44-28.67 14.3-39.42 15.02Z" fill="#263238"/><path d="M182.63 247.77a.85.85 0 0 1-.67-.35c-2.25-3.14-6.37-12.32-6.8-16.55-.43-4.24 2-14.3 2.1-14.76a.83.83 0 0 1 .99-.6.83.83 0 0 1 .63.97c0 .12-2.46 10.27-2.07 14.3.39 4.03 4.4 12.87 6.5 15.73a.82.82 0 0 1 .14.62.83.83 0 0 1-.33.54.86.86 0 0 1-.49.1Z" fill="#263238"/><path d="m194.43 341.23-5.46-.39c5.91-1.59 9.59-11.1 11.88-17.63.43-1.23.84-2.4 1.26-3.47 2.03-5.3 2.22-21.82 2.1-28.17-.84-2.99-3.12-10.26-4.72-12.62a4.3 4.3 0 0 1-.7-3.32c.51-2.4 2.97-3.96 5.14-5.32.73-.43 1.44-.9 2.1-1.43.5-3.06 4.06-4.01 6.72-4.72.83-.22 1.61-.44 2.23-.67 2.57-2.34 13.8-23.76 16.27-35.27 2.1-9.7-1.44-13.14-1.44-13.17l3.25-3.77c.6.5 5.83 5.29 3.1 17.98-2.12 9.87-14.4 36.9-19.07 38.76-.99.37-2 .68-3.01.93-1.07.24-2.12.59-3.11 1.05-.32 2-2.27 3.23-4.3 4.53-1 .56-1.96 1.2-2.84 1.94 2.35 3.8 4.97 12.99 5.27 14.06l.09.61c0 2.35.37 23.08-2.44 30.37a195.7 195.7 0 0 0-1.2 3.32c-2.57 7.4-2.65 14.14-11.12 16.4ZM286.8 291.64c-3.9-1.91-14.1-3.91-20.2-5.2-2.62-.54-4.87-1.03-6.56-1.43-2.8-.66-5.76-.31-8.32 1-.77.33-1.55.61-2.35.83-3.1.77-5.2-2.26-6.73-4.47-.17-.25-.35-.53-.56-.8-1.93 1.14-4.6 2.68-7.16 1.95a4.53 4.53 0 0 1-2.75-2.33 19.22 19.22 0 0 1-1.44-4.4c-.47-1.99-.8-3.25-1.79-4.03-3.38-2.7-3.37-3.96-3.44-4.3l2.54-4.12a25.5 25.5 0 0 0 4.01 4.6 10.97 10.97 0 0 1 3.53 6.78c.21 1.05.53 2.08.94 3.07a13.9 13.9 0 0 0 3.01-1.43c.7-.46 1.47-.83 2.27-1.09 2.25-.55 3.62 1.43 4.94 3.34.54.83 1.16 1.62 1.84 2.34.36-.11.79-.29 1.26-.49a16.93 16.93 0 0 1 11.47-1.2c1.59.4 3.8.86 6.34 1.43 6.08 1.16 12 3 17.66 5.5l1.5 4.45Z" fill="white"/><path d="M315.04 318.55a.88.88 0 0 1-.46-.13c-9.26-6.02-30.1-7.72-30.33-7.73a.84.84 0 0 1-.62-.26.81.81 0 0 1-.23-.64.84.84 0 0 1 .32-.59.83.83 0 0 1 .66-.16c.88 0 21.5 1.75 31.1 8a.8.8 0 0 1 .37.84.83.83 0 0 1-.81.67ZM307.59 302.28a6.85 6.85 0 0 1-1.91-.31c-2.97-.85-18.63-9.24-19.26-9.6a.83.83 0 0 1-.35-1.11.85.85 0 0 1 1.13-.34c5.58 3 16.7 8.82 18.92 9.46.6.24 1.25.3 1.88.19.05-.2.17-.36.34-.47a.83.83 0 0 1 1.3.65 1.42 1.42 0 0 1-.6 1.12c-.43.29-.94.44-1.45.41Z" fill="#263238"/><path d="M316.34 291.23s-7.88 7.66-7.88 8.5c0 .82 5.6 5.78 6.02 7.44.42 1.66 4.16-.41 5.19 0 1.03.42.83 3.32-2.08 3.93-2.9.62-2.7 8.08-1.66 9.11 1.03 1.03 10.03 5.59 14.95 10.77 4.91 5.17 7.68 10.35 9.74 11.18 2.07.83 4.16 1.43 4.78-2.7.61-4.1 1.24-13.03-4.14-19.45-5.4-6.42-7.69-7.05-9.35-7.05-1.66 0-4.3.22-3.31-2.06.99-2.27 3.31-4.29 2.48-6.22-.83-1.93-7.33-14.06-14.74-13.45Z" fill="#263238"/><path d="M345.13 345.19a3.3 3.3 0 0 1-3.03-1.63.81.81 0 0 1 .37-1.1.83.83 0 0 1 1.1.36c.08.1.64 1.04 2.39.6 2.39-.6 4.3-1.28 4.78-4.1.68-6.19-.6-12.42-3.62-17.85a36.99 36.99 0 0 0-6.57-7.47c-2.25-2.1-4.01-3.75-4.14-5.53 0-.64 0-1.29-.07-1.96a16.2 16.2 0 0 0-1.43-7.46c-1.88-3.73-6.34-8.58-10.57-10.37-3.88-1.58-5.64-.88-7.16 2.86a.83.83 0 0 1-1.54 0 .83.83 0 0 1 0-.64c1.94-4.6 4.66-5.72 9.39-3.76s9.43 7.15 11.47 11.17a17.59 17.59 0 0 1 1.66 8.15c0 .64.03 1.27.09 1.88.07 1.12 1.72 2.66 3.6 4.44a38.23 38.23 0 0 1 6.86 7.82 31.4 31.4 0 0 1 3.84 19c-.72 3.79-3.37 4.76-6.02 5.42-.46.12-.93.18-1.4.17ZM197.38 215.48c-4.09 0-11.47-.53-15.32-4.1a23.99 23.99 0 0 1-4.02-4.8 16.26 16.26 0 0 0-2.68-3.34 6.13 6.13 0 0 1-1.82-6.57.83.83 0 0 1 1.08-.46.82.82 0 0 1 .53.75c0 .11-.02.22-.06.32a4.46 4.46 0 0 0 1.43 4.75c1.11 1.08 2.07 2.3 2.87 3.63a22.15 22.15 0 0 0 3.76 4.5c3.98 3.7 12.9 3.74 15.45 3.65a.83.83 0 1 1 0 1.66l-1.22.01Z" fill="#263238"/><path d="M203.49 222.86c-6.91.08-13.78-1-20.33-3.17-8.79-3.44-8.6-7.15-8.24-8.17.1-.37.24-.74.39-1.1.34-.86.47-1.17 0-1.94-1.18-1.78-.22-5.62-.1-6.05a.83.83 0 0 1 1.5-.22c.12.2.15.42.1.63-.39 1.43-.67 3.9-.11 4.72a3.2 3.2 0 0 1 .21 3.48c-.13.3-.25.6-.33.93-.39 1.43 1.28 3.84 7.17 6.17 7.16 2.86 25.45 5.24 36.28 0 17.55-8.43 18.8-11.55 18.76-12.3-.04-.77-.12-1.44-.2-2.3a15.4 15.4 0 0 1 .25-6.89c.98-2.51 1.95-5.02.95-8.15-.66-2.86-1-5.8-1.02-8.73-.1-1.95-.18-3.8-.38-5.2a17.29 17.29 0 0 0-2.34-7.14.8.8 0 0 1-.3-.56.8.8 0 0 1 .19-.6.84.84 0 0 1 1.17-.11c1.2 1.01 2.44 4.99 2.87 8.25.23 1.43.31 3.36.41 5.34 0 2.8.32 5.6.95 8.32 1.17 3.7 0 6.6-.95 9.16-.52 2.03-.59 4.15-.2 6.21.09.83.17 1.63.22 2.38.08 1.86-1.85 5.32-19.71 13.88-4.79 2.29-11.05 3.16-17.21 3.16Z" fill="#263238"/><path d="M278.18 224.29c-3.73-.1-7.43-.57-11.06-1.43-3.33-.77-4-5.13-4.48-8.32-.09-1.1-.35-2.2-.79-3.22-1.98-1.31-2.3-2.47-2.3-5.5a7 7 0 0 0-1.94-4.15c-.7-.9-1.32-1.85-1.84-2.86-1.16-2.31-5.19-13.64-4.21-16.9.69-2.27-2.1-7.42-6.68-9.19-4.99-1.94-14.95-8.1-15.37-8.35a.85.85 0 0 1-.37-.52.8.8 0 0 1 .1-.62.84.84 0 0 1 1.15-.27c.1 0 10.25 6.33 15.1 8.22 5.22 2.03 8.6 7.96 7.66 11.2-.7 2.38 2.65 12.79 4.1 15.73.5.91 1.1 1.78 1.76 2.59a8.57 8.57 0 0 1 2.28 5.15c0 2.86.27 3.27 1.56 4.13.92.61 1.16 2.17 1.44 4.29.44 2.86.98 6.43 3.2 6.95 7.69 1.75 16.38 2.21 17.3-.9.77-2.62.44-6.77.14-10.43a35.63 35.63 0 0 1-.18-6.85c.36-2.53-4.3-20.13-7.16-30.63-1.36-5.12-2.44-9.16-2.78-10.76-1-4.71-29.99-25.65-37.41-28.6-6.4-2.58-15.94-5.98-25.11-5.7a.75.75 0 0 1-.65-.27 31.65 31.65 0 0 0-4.56-4.37l-.5.54c-1.98 2.13-6.6 7.15-13.24 6.3a38.02 38.02 0 0 1-10.6-2.72 3 3 0 0 1-.75 2.07l-.13.1c-.15.1-3.54 2.22-12.9 1.43-9.03-.82-14-1.26-22.65-9.9-2.42-2.41-5.23-5.36-8.23-8.49-6.9-7.39-14.79-15.64-17.8-17.14-3.44-1.72-9.63-2.4-11.87-2.6-.24 2.61-1.52 10.25-8 12.87 0 1.02.46 4.06 4.43 9.25l2.2 2.86c6.7 8.83 22.39 29.52 27.36 31.65 1.6.69 4.3 1.64 7.37 2.74 8.38 3 18.83 6.74 21.94 9.86 2.64 2.61 4.9 12.6 6.9 21.44 1.18 5.15 2.4 10.48 3.12 11.34a17.03 17.03 0 0 0 5.05 3.3 9.15 9.15 0 0 1 3.3 2.16.83.83 0 0 1-.86 1.26.84.84 0 0 1-.53-.34 11.77 11.77 0 0 0-2.66-1.6 18.2 18.2 0 0 1-5.58-3.72c-.93-1.1-1.86-5.1-3.45-12.03-1.72-7.8-4.17-18.38-6.47-20.69-2.86-2.86-13.53-6.67-21.32-9.46a113.22 113.22 0 0 1-7.47-2.86c-5.38-2.3-20.68-22.48-28.02-32.17l-2.2-2.86c-5.47-7.15-4.8-10.68-4.7-11.05a.79.79 0 0 1 .53-.59c7.17-2.4 7.46-12.25 7.47-12.35a.84.84 0 0 1 .88-.8c.36 0 8.8.59 13.33 2.86 3.25 1.69 10.9 9.68 18.3 17.41 2.98 3.12 5.73 6.07 8.2 8.47 8.23 8.2 12.7 8.58 21.61 9.42 7.86.72 11.15-.77 11.71-1.07.17-.4.25-.82.22-1.25 0-.47 0-1.55 1.02-1.55.35.04.7.15 1.01.33a35.82 35.82 0 0 0 10.42 2.71c5.74.73 10.04-3.83 11.83-5.72.32-.4.7-.75 1.12-1.04.48-.23 1.43-.67 6.13 4.6 9.35-.17 18.96 3.25 25.41 5.86 7.47 3.05 37.17 24.02 38.4 29.86.33 1.56 1.44 5.57 2.77 10.66 4.17 15.56 7.58 28.6 7.17 31.3-.15 2.16-.08 4.34.18 6.49.3 3.8.65 8.1-.21 11-.75 2.64-4.26 3.44-8.14 3.44Z" fill="#263238"/><path d="M193.2 136.46c-2.55.01-5.1-.4-7.52-1.21-8.28-2.86-8.2-5.65-8.1-6.18a.83.83 0 0 1 .96-.7.83.83 0 0 1 .7.96c0 .14.32 2.06 6.99 4.29a23.31 23.31 0 0 0 25.37-7.74.83.83 0 0 1 .55-.3.82.82 0 0 1 .6.17.84.84 0 0 1 .14 1.18 25.2 25.2 0 0 1-19.68 9.53Z" fill="#263238"/><path d="M120.65 70.98 18 53.04l94.9 3.31 7.75 14.63Z" fill="#E8E8E8"/><path d="M103.75 56.03v-4.65L18 53.04l85.75 2.99Z" fill="#D9D9D9"/><path d="M109.32 51.28 91.6 42 18 53.04l91.32-1.76Z" fill="#E8E8E8"/><path d="M99.63 105.34a.78.78 0 0 1-.63-.29c-.13-.14-12.73-14.74-16.49-17.68-.77-.6-1.57-1.26-2.4-1.94-3.35-3-7.09-5.52-11.11-7.52-5.16-2.17-11.76-12.75-12.03-13.2a.83.83 0 1 1 1.44-.86c0 .1 6.59 10.56 11.28 12.55 4.1 1.73 8.02 4.93 11.46 7.75l2.38 1.91c3.9 3.05 16.2 17.3 16.73 17.92a.8.8 0 0 1 .11.9.83.83 0 0 1-.74.46Z" fill="#263238"/><path d="m74.47 62.79-54.26-9.75L76.45 69.9l-1.98-7.12ZM84.72 72.38l20.17 6.05 1.43-9.94-23.96-4.29s.53 3.1.83 4.3c.42 1.32.93 2.62 1.53 3.88Z" fill="#9E9E9E"/><path d="M185.91 127.91h-.23a.83.83 0 0 1-.6-.7c-.01-.11 0-.22.03-.33 0 0 1.56-5.5 0-9.29a.84.84 0 0 1-.05-.67.84.84 0 0 1 .81-.55.83.83 0 0 1 .77.6c1.77 4.3.1 10.13 0 10.37a.83.83 0 0 1-.73.57ZM204.43 125.02a.84.84 0 0 1-.67-.34c-2.27-3.12-6.05-8.58-5.9-10.1a.84.84 0 0 1 .9-.75.87.87 0 0 1 .75.9c0 .87 2.87 5.35 5.6 8.98a.82.82 0 0 1 .14.62.85.85 0 0 1-.33.54.86.86 0 0 1-.49.15ZM297.18 253.81c-.2 0-.4-.02-.59-.07-2.29-.5-11.26-9.66-12.9-11.9a13.26 13.26 0 0 0-4.71-3.74 9.08 9.08 0 0 0-1.67 4.29c-.17 2.12-.5 4.19-1.73 5.03a2.28 2.28 0 0 1-2.02.25c-2.55-.78-2.16-3.13-1.62-6.4l.19-1.15c.56-2.56 1.53-5 2.86-7.25.23-.43.48-.9.6-1.19-.65-1.1-3.35-5.53-5.2-8.58a.84.84 0 0 1 .28-1.14.83.83 0 0 1 1.14.27c.88 1.43 5.2 8.48 5.4 8.9.2.4 0 .98-.75 2.45a23.36 23.36 0 0 0-2.69 6.75l-.2 1.16c-.56 3.4-.58 4.22.46 4.53.4.13.55 0 .62 0 .75-.5.95-2.97 1.02-3.79a9.2 9.2 0 0 1 2.53-5.72 1.24 1.24 0 0 1 1.04-.17c2.25.98 4.22 2.5 5.73 4.43 2.2 2.86 10.58 10.98 11.97 11.28.16 0 .43.08.5-.07.07-.14 0-1.28-1.23-2.44-1.65-1.43-7.08-8.58-6.61-10.22a.99.99 0 0 1 .77-.72c.78-.16 1.55.4 5.98 4.29 2.28 2.02 5.73 5.05 6.6 5.22.32.06.66.11 1 .14a8.15 8.15 0 0 0-.6-.91c-.7-.96-2.06-2.45-3.37-3.9a38.34 38.34 0 0 1-4.38-5.25.83.83 0 0 1 .98-1.18c.21.06.4.2.5.39a39.42 39.42 0 0 0 4.11 4.93 51 51 0 0 1 3.5 4.03c.75 1.03 1.44 2.1.85 2.86-.59.76-1.75.69-2.87.45-1.12-.25-3.6-2.28-7.37-5.6-1-.88-2.2-1.95-3.18-2.75a38.94 38.94 0 0 0 5.25 6.93c1.59 1.43 2.23 3.2 1.6 4.42a1.9 1.9 0 0 1-1.79 1.14Z" fill="#263238"/><path d="M305.58 246.9a7.98 7.98 0 0 1-3.35-.95.83.83 0 0 1 .81-1.43c.87.5 1.87.74 2.87.7l.07-.09s0-.48-1.59-1.92a83.88 83.88 0 0 1-7.17-8.58.97.97 0 0 1 0-1.13c1-1.2 9.45 2.74 9.53 2.86h.18s0-.68-1.06-1.56c-1.32-1.07-8.7-3.78-19.77-7.24l-.2-.07c-2.35-.73-3.34-4.06-3.44-4.43a.83.83 0 0 1 1.6-.44c.22.77 1.07 2.86 2.33 3.3h.2c8.2 2.57 18.39 5.96 20.32 7.53 1.94 1.58 1.9 2.98 1.44 3.78a1.7 1.7 0 0 1-2.27.51 79.29 79.29 0 0 0-6.16-2.41 68.05 68.05 0 0 0 5.73 6.65c1.5 1.43 2.14 2.38 2.1 3.24a1.8 1.8 0 0 1-.74 1.33c-.41.29-.93.41-1.43.34ZM174.07 56.04s-10.26 2.63-11.63 8.23c-1.38 5.6 0 11.44 4.42 10.86 4.43-.59 10.24-4.42 14.1-4.15 3.88.27 3.06 1.73 1.67 4.18-1.39 2.44 1.1 6.59 8.03 4.66 6.92-1.93 7.16-5.52 12.17-4.15 5 1.37.44 12.7 1.6 14.3 1.16 1.6 1.44 3.86 4.04 0 2.61-3.86 6.54-9.11 10.68-7.72 4.14 1.38-3.87 9.38-8.01 11.03l-4.16 1.66s-1.66 11.58-4.15 13.24c0 0 16.6-2.2 22.93-8 6.32-5.8.83-5.72 1.93-8.83 1.1-3.1 7.47-3.26 7.47-7.02s-.83-3.2-6.63-5.96c-5.81-2.76-4.16-4.13-3.33-5.52.83-1.38 1.66-3.86-3.04-5.24-4.7-1.4-15.76-4.7-13.73-7.72 2.04-3.04 3.1-9.11-4.04-8.58-7.14.53-13.96 5.16-18.02 4.66-4.06-.5-7.8-1.57-12.3.07Z" fill="#263238"/><path d="M187.62 118.45h-.2l-1.87-.42c-4.83-1.06-14.87-3.24-20.23-7.03-6.55-4.63-5.36-16.16-4.19-19.83 1.18-3.68 3.83-16.1 3.86-16.29a.8.8 0 0 1 .37-.53.76.76 0 0 1 .63-.1c.17.02.33.02.5 0a.87.87 0 0 1 .27-.08c2.18-.42 4.3-1.1 6.31-2.03 2.87-1.17 5.65-2.29 7.96-2.12 1.27.1 2.86.33 3.38 1.43.51 1.1-.13 2.39-1.05 4a2.27 2.27 0 0 0 .27 2.5c1.15 1.44 3.7 1.85 6.8.98 2.1-.58 4.08-1.52 5.87-2.76 1.98-1.27 3.53-2.27 6.75-1.43 3.99 1.12 3.07 6.8 2.41 10.95-.29 1.23-.4 2.49-.34 3.75.21.3.4.63.59.94.14.31.34.6.57.85a8.2 8.2 0 0 0 1.43-1.8c2.34-3.4 6.68-9.7 11.64-8.04a2.3 2.3 0 0 1 1.72 2.17c.1 3.28-6.06 8.97-9.7 10.41l-3.76 1.5c-.5 2-2.65 10.38-4.13 13.04l-.28.54c-.92 1.8-2.87 5.58-6.55 7.52a.83.83 0 0 1-.78-1.47c3.24-1.7 5-5.14 5.85-6.8l.32-.59c1.52-2.77 4.04-12.87 4.07-13.04a.8.8 0 0 1 .48-.57l4.16-1.66c3.2-1.27 8.73-6.59 8.6-8.83 0-.22 0-.48-.59-.66-3.3-1.1-6.63 2.86-9.73 7.42-1.27 1.84-2.16 2.53-3.02 2.5-.86-.03-1.44-.9-1.88-1.67-.16-.27-.31-.56-.5-.83-.57-.8-.37-2.25 0-4.95.57-3.53 1.35-8.36-1.2-9.08-2.56-.71-3.53 0-5.4 1.17a20.85 20.85 0 0 1-6.14 3.1c-5.44 1.5-7.8-.58-8.6-1.55a3.87 3.87 0 0 1-.42-4.3c.5-.9 1.19-2.1 1.02-2.42 0 0-.26-.39-2.02-.52-1.77-.12-4.62.95-7.17 2a31.45 31.45 0 0 1-7.25 2.24c-.62 2.86-2.74 12.5-3.74 15.6-1 3.13-2.15 13.93 3.57 18 5.07 3.58 14.9 5.71 19.62 6.76l1.9.41a.83.83 0 0 1 .62 1 .82.82 0 0 1-.8.62Z" fill="#263238"/><path d="M163.22 87.3a.75.75 0 0 1-.38-.1 16.27 16.27 0 0 1-7.64-10.17 5.8 5.8 0 0 1 0-3.82 2.1 2.1 0 0 1 2.02-.89c1.43.13 3.3 1.43 4.61 4.5.75 1.94 1.71 3.77 2.87 5.48a.83.83 0 1 1-1.32 1.02 27.83 27.83 0 0 1-3.14-5.83c-1.12-2.65-2.56-3.46-3.25-3.52-.33 0-.45.11-.47.16-.48 1.04 1.2 8.57 7.05 11.62a.83.83 0 0 1 .12 1.38.83.83 0 0 1-.5.18h.03ZM197.06 85.02h-.43a1.76 1.76 0 0 1-1.43-1.43c-.23-.97-2.3-2.36-3.7-3.03a.82.82 0 0 1-.47-.8c0-.11.04-.22.09-.32a.81.81 0 0 1 .79-.47c.1.01.21.04.3.09.7.33 4.12 2.09 4.61 4.16 0 .13 0 .13.12.14a1.1 1.1 0 0 0 .93-.46.82.82 0 0 0 0-.91c-1.1-2.02-1.84-3.15-2.75-3.39a.83.83 0 0 1-.68-.68.84.84 0 0 1 .17-.65.83.83 0 0 1 .92-.27c1.66.43 2.67 2.09 3.8 4.22a2.41 2.41 0 0 1-.19 2.69 2.76 2.76 0 0 1-2.08 1.11ZM167.28 79.26a.91.91 0 0 1-.27 0 2.54 2.54 0 0 1-1.87-1.67 2.85 2.85 0 0 1 .7-2.35.85.85 0 0 1 1.17 0 .83.83 0 0 1 0 1.16c-.15.17-.39.59-.32.81.07.23.22.29.49.42 1.53-.7 3.17-1.1 4.84-1.2a1.2 1.2 0 0 0 1.1-.83c.2-.5.25-1.04.1-1.56a.83.83 0 0 1-.88-1.14c.08-.2.23-.35.43-.43a1.44 1.44 0 0 1 1.56.3 3.33 3.33 0 0 1 .36 3.36 2.86 2.86 0 0 1-2.6 1.96c-1.55.09-3.08.49-4.48 1.17a.75.75 0 0 1-.33 0Z" fill="#263238"/><path d="M169.36 84.2a18.13 18.13 0 0 0-3.74-1.1c-.45-.08-.92-.12-1.54-.3a2.87 2.87 0 0 1 3.14-1.23 2.7 2.7 0 0 1 2.14 2.62ZM184.48 86.48c.52-.7 1.25-1.2 2.1-1.43a5.3 5.3 0 0 1 4.88 1.07 4.6 4.6 0 0 1 1.43 2.07c-.81-.28-1.43-.61-2.15-.85-.63-.26-1.28-.45-1.95-.59-.65-.16-1.33-.26-2-.29-.78 0-1.5 0-2.31.02ZM174.2 96.33h-.16c-1.47-.3-2.9-.73-4.3-1.29a1.86 1.86 0 0 1-1.06-1.21c-.13-1.01.13-2.03.72-2.86l4.1-8.05.14-.2a2.67 2.67 0 0 1 2.23-.93 3.23 3.23 0 0 1 2.13 1.53.9.9 0 0 1 .1.54s-.93 6.1-1.03 8.58a3.91 3.91 0 0 1-2.62 3.89h-.25Zm.68-12.58-4.09 8.02a2.64 2.64 0 0 0-.54 1.6s0 .1.16.16c1.2.49 2.45.86 3.72 1.11a2.41 2.41 0 0 0 1.23-2.29c.1-2.28.8-7.14 1-8.44a1.43 1.43 0 0 0-.74-.52 1.03 1.03 0 0 0-.74.37v-.01ZM164.08 86.44a2.44 2.44 0 0 1 1.97.2 4.88 4.88 0 0 1 2.43 5.23c-.45 1.17-1.95-.16-4.1-1-.7-.27-.77 0-1.43-.23l1.13-4.2ZM181.07 94.43c-.25 1.43 2.4 1.08 5.52 1.58 3.1.5 5.47 1.72 5.73.23.26-1.48-1.75-5.14-4.84-5.64-3.1-.5-6.17 2.34-6.41 3.83ZM173.31 102.58c1.88-.57 3.47-.86 5-1.33.75-.22 1.5-.49 2.23-.8.76-.3 1.43-.73 2.38-1.18-.2.99-.7 1.89-1.44 2.56a6.47 6.47 0 0 1-2.58 1.43c-.93.27-1.9.35-2.86.25-.97-.08-1.91-.4-2.73-.93Z" fill="#263238"/><path d="M209.75 171.75c0 7.92-3.33 14.3-15.24 14.3-8.4 0-13.46-6.41-13.46-14.3 0-7.9 3.39-14.3 13.46-14.3 10.08 0 15.24 6.4 15.24 14.3Z" fill="#E8E8E8"/><path d="M193.08 173.53h-.27c-.46 0-1.34 0-1.6-.78-.25-.79.34-1.16.74-1.43.2-.16.39-.35.56-.54l-.13-.09c-1.08-.74-8.27-.51-14.6.14a.83.83 0 0 1-.62-.17.84.84 0 0 1-.3-.56.84.84 0 0 1 .74-.91c2.25-.23 13.6-1.33 15.77.14a1.74 1.74 0 0 1 .84 1.43 1.72 1.72 0 0 1-.47 1.23c.69 0 1.63-.16 2.72-.28 4.8-.58 12.9-1.53 19.92.34a.83.83 0 0 1-.42 1.6c-6.78-1.79-14.61-.86-19.3-.3-1.63.03-2.82.19-3.58.19ZM77.21 76.77a.82.82 0 0 1-.76-.5c-.6-2.02-.89-4.13-.83-6.25l-1.96-6.89a.84.84 0 0 1 .94-1.04l6.94 1.21c.34 0 2 .55 2.3 4.3a9.32 9.32 0 0 0 1.58 4.42.8.8 0 0 1-.28 1.13.82.82 0 0 1-1.14-.28 10.8 10.8 0 0 1-1.8-5.14c-.2-2.47-1-2.85-1.02-2.85l-5.56-.98 1.63 5.72v.25a18.9 18.9 0 0 0 .7 5.71.83.83 0 0 1-.44 1.1.9.9 0 0 1-.3.1ZM107.65 92.23a.75.75 0 0 1-.43-.12C105.33 91 88.68 81.01 86.44 76.9a.84.84 0 0 1 0-.84c.47-.84.74-1.77.82-2.72a.83.83 0 0 1 1.47-.46.83.83 0 0 1 .2.6 9.05 9.05 0 0 1-.83 3c2.44 3.38 15.1 11.33 19.94 14.29a.8.8 0 0 1 .29 1.13.84.84 0 0 1-.68.33ZM191.96 375.67s-.79-12.1-1.43-12.68c-.65-.59-8.89.53-10.58-.32-1.7-.84-2.62 3.78-3.71 4.3-1.1.5-3.39-1.7-1.82-4.57 1.56-2.87-4.86-8.03-6.47-7.9-1.6.12-11.84 4.28-19.75 4.77-7.9.49-14.2-1-16.38.14-2.18 1.15-4.2 2.43-1.16 5.92 3.04 3.49 10.03 10.4 19.32 10.48 9.29.09 11.47-1.43 12.61-2.77 1.15-1.35 2.87-3.8 4.12-1.29 1.24 2.5 1.27 5.9 3.44 6.54 2.16.64 16.98 4.07 21.81-2.62Z" fill="#263238"/><path d="M178.12 388a28 28 0 0 1-6.46-.7 19.68 19.68 0 0 1-8-4.44c-.55-.44-1.1-.89-1.64-1.29-1.03-.75-3.53-.48-6.4-.17-3.8.56-7.65.6-11.46.12a34.56 34.56 0 0 1-18.63-10.37c-2.65-3.27-1.56-6.15-.23-8.82a3.85 3.85 0 0 1 4.18-2.46.84.84 0 0 1 .52.97.83.83 0 0 1-.9.63c-.15 0-1.44-.23-2.33 1.6-1.21 2.45-1.99 4.52 0 7.04 4.72 5 10.9 8.42 17.65 9.78 3.66.45 7.36.4 11-.13 3.35-.37 6-.66 7.55.48.57.42 1.13.88 1.7 1.33a18.03 18.03 0 0 0 7.37 4.12c4.5 1.12 11.85.89 16.35-1.43 4.17-2.14 4.85-4.14 2.87-8.22a.82.82 0 0 1 .43-.92.84.84 0 0 1 1 .2c2.44 4.85 1.44 7.87-3.52 10.4a25.14 25.14 0 0 1-11.05 2.27ZM170.94 360.2a.8.8 0 0 1-.74-.46.8.8 0 0 1 .1-.89.8.8 0 0 1 .25-.2c.11-.08 3.85-2.63 7.94-19.38a.83.83 0 0 1 1.02-.7.82.82 0 0 1 .63.74c.01.12 0 .23-.05.34-4.3 17.79-8.34 20.25-8.78 20.46a.83.83 0 0 1-.38.09ZM187.78 365.98a.81.81 0 0 1-.82-.78c-.4-6.23 7.85-23.5 8.21-24.23a.83.83 0 0 1 1.44.71c-.09.18-8.42 17.62-8.06 23.4a.84.84 0 0 1-.2.61.84.84 0 0 1-.57.29Z" fill="#263238"/><path d="M194.25 342.24c-5.44 0-15.23-2.86-19.92-5.62-4.9-2.86-3.41-13.4-2.1-22.73l.45-3.34c.58-4.44.43-12.96.28-21.2-.18-9.74-.33-18.95.57-22.77 1.66-7.15 16.07-33.45 16.68-34.57a.78.78 0 0 1 .5-.4.8.8 0 0 1 .62.07c.1.05.18.12.25.2a.83.83 0 0 1 .18.61.8.8 0 0 1-.1.3c-.14.28-14.9 27.31-16.53 34.16-.84 3.62-.67 13.16-.51 22.36.14 8.31.3 16.9-.29 21.45-.14 1.09-.3 2.22-.47 3.36-1.16 8.36-2.62 18.79 1.3 21.07 4.89 2.86 16.37 6.05 20.6 5.28 2.08-.37 9.13-2.4 13.07-12.73 3.21-8.39 4.1-36.15 4.1-39.04a18.6 18.6 0 0 0-2.36-4.73c-2-3.35-2.87-5-2.07-5.92.8-.93 1.85-.23 2.28 0 1.8.9 3.48 2.02 5 3.34l.98.76v-.24c-.36-1.3-.76-2.46-1.1-3.4-.68-2-1.07-3.12-.42-3.87a1.65 1.65 0 0 1 1.65-.38c2.18.43 3.37.27 4.3-.6 1.12-1.2 20.8-32.89 22.18-39.75 1.58-7.6 1.44-16.07-.3-18.84-2.03-3.25-4.5-6.54-4.53-6.56a.83.83 0 0 1 .18-1.16.83.83 0 0 1 .61-.17.82.82 0 0 1 .55.32s2.53 3.38 4.6 6.68c2.28 3.65 1.98 13.06.53 20.02-1.45 6.96-21.54 39.42-22.78 40.65-1.6 1.6-3.68 1.42-5.73 1.05.17.71.38 1.4.65 2.09.32.96.74 2.14 1.11 3.5.29 1.07.5 2.16-.25 2.65-.76.48-1.71-.16-3.3-1.43a22.82 22.82 0 0 0-4.66-3.13h-.09a31.86 31.86 0 0 0 2 3.64c1.6 2.72 2.59 4.45 2.59 5.58 0 .28-.65 30.3-4.2 39.63-4.3 11.14-12.04 13.35-14.33 13.77a9.8 9.8 0 0 1-1.77.04Z" fill="#263238"/><path d="M269.65 316.15c-.73 0-1.44 0-2-.09-3.44-.25-15.39-4.17-25.94-7.62-6.34-2.07-12.31-4.03-15.3-4.81a27.64 27.64 0 0 1-13.3-8.58.84.84 0 0 1-.24-.64.84.84 0 0 1 .31-.6.84.84 0 0 1 .98-.04c.1.06.18.15.25.25 3.3 3.78 7.6 6.55 12.42 7.99 3.04.8 9.05 2.76 15.4 4.85 9.94 3.24 22.31 7.3 25.55 7.54 4.85.38 13.06-.65 15.77-5 2.7-4.34 3.14-14.94 2.4-17.54l-.1-.36c-.9-3.13-2.97-10.5-9.75-12.74-8.49-2.86-23.3-6.88-24.87-6.6-.33 0-.69.88-.9 1.35-.34.75-.68 1.5-1.44 1.52-.76.02-1.26-.87-1.43-1.24-.3-.6-.6-1.3-.9-2.03-.46-1.1-1.44-3.4-1.97-3.52a14 14 0 0 0-1.85 2.07c-1.32 1.69-2.2 2.86-3.2 2.45-1.01-.42-.9-1.43-.9-1.83.03-1 .16-2 .38-2.98.45-2.31.47-3.11-1.08-3.7-3.67-1.43-4.48-7.45-4.48-9.66a.83.83 0 1 1 1.66 0c0 1.42.59 7.06 3.4 8.12 2.83 1.05 2.53 3.47 2.13 5.56-.15.82-.24 1.65-.27 2.49.36-.4.79-.96 1.12-1.43.6-.86 1.31-1.65 2.1-2.35a1.7 1.7 0 0 1 1.44-.31c1.31.35 2.12 2.27 3.05 4.47.26.62.51 1.23.76 1.76.39-.86.92-2.02 2.03-2.3 2.13-.52 20.2 4.79 25.8 6.65 7.6 2.53 9.94 10.76 10.81 13.87l.1.34c.86 2.97.55 13.98-2.58 18.89-2.97 4.61-10.5 5.8-15.36 5.8ZM380.43 370.25c-.3.02-.58.02-.88 0a.83.83 0 0 1-.7-.94.83.83 0 0 1 .95-.7c.11 0 10.03 1.2 18.76-15.47 7.52-14.3 7.88-18.59 7.77-19.68-.27.2-.63.53-.96.83a10.1 10.1 0 0 1-2.95 2.09c-1.65.66-19.44 15.73-23.08 31.6a.83.83 0 0 1-.37.51.8.8 0 0 1-.62.1.81.81 0 0 1-.64-.66.82.82 0 0 1 0-.32c3.82-16.62 22.14-31.99 24.09-32.77a8.24 8.24 0 0 0 2.44-1.76 4.69 4.69 0 0 1 2.1-1.43 1.22 1.22 0 0 1 1.26.5c1.98 2.63-3.9 14.74-7.58 21.72-7.95 15.1-16.81 16.38-19.6 16.38Z" fill="#263238"/><path d="M381.69 368.3a.84.84 0 0 1-.83-.9.81.81 0 0 1 .3-.57c.11-.08 11.34-9.59 16.2-19.88a.83.83 0 0 1 1.5.7c-5.02 10.63-16.15 20.01-16.63 20.46a.85.85 0 0 1-.54.2ZM379.73 348.33h-.08a.8.8 0 0 1-.56-.28.82.82 0 0 1-.2-.6c1.14-13.6 7.79-27.63 19.77-41.67.5-.6.84-1 .99-1.2.29-.46.55-.94.79-1.43.97-1.83 1.76-3.26 2.86-2.94 1.1.31 1.44 1.43 1.14 7.15-.6 11.43-8.42 33.57-8.75 34.5a.82.82 0 0 1-.4.53.84.84 0 0 1-.97-.12.83.83 0 0 1-.19-.96c.09-.23 8.07-22.8 8.6-34.04a31 31 0 0 0 0-4.93c-.3.47-.66 1.14-.89 1.57-.23.43-.63 1.19-.89 1.56-.25.37-.54.67-1.1 1.33-11.75 13.78-18.26 27.48-19.37 40.72a.83.83 0 0 1-.75.81Z" fill="#263238"/><path d="M380.14 356.54h-.23a.83.83 0 0 1-.56-1.03c4.83-16.5 16.1-37.17 16.21-37.43a.82.82 0 0 1 1.52.16.81.81 0 0 1-.07.63c-.11.21-11.28 20.78-16.07 37.17a.82.82 0 0 1-.8.5Z" fill="#263238"/><path d="M375.11 368.58a.82.82 0 0 1-.57-.23c-.58-.55-14-13.66-12.43-30.03 1.36-14.3 4.84-27.75 7.6-29.5a1.44 1.44 0 0 1 1.29-.2c1.64.57 1.99 2.98 2.42 6.06.23 2.44.78 4.84 1.63 7.14 2.31 5.42 7.88 30.24 4.89 43.68a.83.83 0 0 1-.98.58.83.83 0 0 1-.64-.93c2.87-13.11-2.54-37.38-4.8-42.68a30.36 30.36 0 0 1-1.75-7.52c-.27-1.9-.6-4.3-1.22-4.68-1.55.98-5.27 12.36-6.8 28.25-1.43 15.53 11.8 28.5 11.93 28.6a.82.82 0 0 1 .23.92.82.82 0 0 1-.8.5v.04Z" fill="#263238"/><path d="M376.26 366.62a.85.85 0 0 1-.76-.49c-7.17-15.81-8.33-38.01-8.33-38.23a.8.8 0 0 1 .46-.8c.1-.04.2-.06.31-.07a.82.82 0 0 1 .83.79c0 .21 1.22 22.11 8.2 37.64a.83.83 0 0 1-.71 1.16ZM375.28 325.7a.83.83 0 0 1-.83-.77c-1.27-21.82 7.8-40.65 12.16-49.69.8-1.56 1.5-3.16 2.13-4.8.96-3.22 2.2-3.76 3.04-3.64 1.25.15 2.94 1.67 3.24 12.75.38 13.98-3.7 38.43-3.73 38.6a.83.83 0 0 1-1.26.57.83.83 0 0 1-.38-.84c0-.24 4.08-24.55 3.7-38.36-.27-10.3-1.8-11.15-1.81-11.17a5.72 5.72 0 0 0-1.2 2.5 45.6 45.6 0 0 1-2.24 5.04c-4.3 8.92-13.23 27.48-11.99 48.87a.82.82 0 0 1-.21.6.84.84 0 0 1-.57.27l-.05.07Z" fill="#263238"/><path d="M379.41 344.8a.85.85 0 0 1-.83-.74c-.27-2.48.62-6.25 2.25-13.11.82-3.46 1.82-7.77 2.97-13.08 2.4-12.3 4.16-24.7 5.28-37.18a.86.86 0 0 1 .9-.76.82.82 0 0 1 .75.9 369.66 369.66 0 0 1-5.3 37.38c-1.16 5.33-2.18 9.64-3 13.1-1.57 6.69-2.45 10.36-2.2 12.56a.83.83 0 0 1-.73.92l-.09.01ZM392.2 374.4a.84.84 0 0 1-.8-.59.83.83 0 0 1 .55-1.03l1.7-.53c-.09-.04-.17-.1-.24-.16a1.2 1.2 0 0 1-.34-1.2c.28-.85.7-1.65 1.25-2.37l.18-.27c-3.1 1.17-7.42 2.44-10.39 1.16a.84.84 0 0 1-.5-.77.8.8 0 0 1 .52-.76c.2-.08.44-.08.64.01 2.87 1.23 7.83-.69 9.48-1.31.58-.23 1.66-.65 2.23.08.57.73 0 1.59-.77 2.77-.28.4-.58.86-.8 1.26.48-.11 1.13-.31 1.64-.47a15.6 15.6 0 0 1 4.3-.91c.92 0 1.2.44 1.23.81.12.77.2 1.27-9.63 4.3l-.25-.02ZM372.39 368.1a.74.74 0 0 1-.4-.1 25.12 25.12 0 0 1-6.1-4.68c-1.36-1.43-2.36-1.82-2.86-1.7a.53.53 0 0 0-.33.47 1.19 1.19 0 0 1-.75.97c-.79.3-1.56-.33-2.46-1.06l-.23-.17v.29c.14 1.67.37 4.18-1.44 5.01a.83.83 0 0 1-.91-.15.84.84 0 0 1-.26-.58.83.83 0 0 1 .49-.78c.73-.33.56-2.23.46-3.36-.1-1.13-.18-2.05.51-2.43.69-.39 1.5.18 2.4.88l.68.55a2.12 2.12 0 0 1 1.35-1.22c.73-.21 2.28-.21 4.49 2.15a23.91 23.91 0 0 0 5.64 4.29.84.84 0 0 1 .45.81.82.82 0 0 1-.09.31.84.84 0 0 1-.64.5ZM84.9 367.08c-1.49 0-2.97-.1-4.44-.3-6.5-.88-16-4.3-24.19-15.22-13.6-18.2-14.13-33-14.33-39.34 0-.96 0-1.7-.13-2.25-.36-2.86 0-6.23 1.67-6.93.43-.2 1.3-.35 2.24.78.6.84.96 1.83 1.03 2.86.3 1.83.65 3.92 4.7 6.28 8.49 4.9 36.75 23 44.58 49.88a.82.82 0 0 1-.24.94.83.83 0 0 1-1.35-.48c-7.65-26.28-35.48-44.08-43.82-48.9-4.74-2.75-5.19-5.47-5.5-7.44a4.15 4.15 0 0 0-.67-2.03c-.1-.14-.23-.25-.38-.33-.27.17-1.02 2.03-.61 5.22 0 .57.1 1.43.14 2.38.21 6.18.73 20.63 14.02 38.42 7.82 10.5 16.82 13.7 23 14.55 3.9.58 7.89.34 11.7-.68a.83.83 0 0 1 1 1.16.81.81 0 0 1-.49.41 27.07 27.07 0 0 1-7.94 1.02Z" fill="#263238"/><path d="M92.75 364.16h-.15c-.53-.1-13.2-2.36-26.86-14.51a62.95 62.95 0 0 1-17.8-28.85.83.83 0 0 1 1.25-.9.82.82 0 0 1 .37.51 61.07 61.07 0 0 0 17.29 28.02c13.27 11.83 25.91 14.1 26.04 14.11a.85.85 0 0 1 .67.96.81.81 0 0 1-.81.66ZM100.86 363.87a.82.82 0 0 1-.89-.74.82.82 0 0 1 .75-.89c.15 0 15.76-3.27 16.35-32.14.72-31.84-5.73-47.1-9.73-51.08-.83-.84-1.56-1.24-1.92-1.1-1.54.6-1.67 7.62-1.74 11.8-.11 5.61-2.86 11-6.56 18.48-1.28 2.55-2.71 5.43-4.21 8.58-5.6 12.02-2.6 32.77-2.57 32.97a.83.83 0 0 1-.68 1.03.83.83 0 0 1-.95-.79c-.13-.86-3.13-21.44 2.69-33.91 1.43-3.22 2.97-6.1 4.3-8.67 3.64-7.27 6.28-12.52 6.38-17.75.13-7.44.4-12.38 2.78-13.33 1.62-.64 3.2.96 3.71 1.43 5.55 5.6 10.85 23.94 10.22 52.29-.69 30.3-17.03 33.6-17.72 33.72l-.21.1ZM81.5 371.25c-4.9-.17-5.06-1.03-5.15-1.43-.09-.4.26-1.08 1.1-1.43a7.3 7.3 0 0 1 3.79-.58c.96.1 1.94 0 2.86-.28 2.2-.67 2.54-1.5 2.54-1.5a.82.82 0 0 1 1.5-.21c.12.19.16.41.1.63 0 .27-.52 1.71-3.65 2.67a9.07 9.07 0 0 1-3.48.34 7.33 7.33 0 0 0-1.85 0c.67.09 1.43.15 2.25.18a.83.83 0 1 1 0 1.66l-.01-.05Z" fill="#263238"/><path d="M106.62 366.55a.84.84 0 0 1-.6-.26.83.83 0 0 1 0-1.17c.52-.48 1-1 1.43-1.57l-.08.08c-.6.7-1.44 1.75-2.63 1.16a4.12 4.12 0 0 1-1.87-2.55.83.83 0 0 1 1.24-.9c.19.12.32.3.38.52.15.59.52 1.1 1.03 1.43.17-.27.37-.53.59-.76.6-.7 1.61-1.89 2.86-1.06a1.42 1.42 0 0 1 .62 1.07c.08 1.33-1.64 3.08-2.38 3.76a.9.9 0 0 1-.59.25ZM100.76 360.26a.87.87 0 0 1-.33 0 .84.84 0 0 1-.44-.46.82.82 0 0 1 .03-.64 132.96 132.96 0 0 0 8.8-63.36.85.85 0 0 1 .73-.93.8.8 0 0 1 .61.18.8.8 0 0 1 .3.55c4.13 34.86-8.81 63.94-8.94 64.24a.83.83 0 0 1-.76.42ZM89 346.62a.83.83 0 0 1-.74-.45c-.1-.21-10.95-21.71-7.45-53.93 1.4-14 4.65-27.76 9.66-40.91 1.66-4.6 2.75-7.63 2.45-9.51-.16-.97-1.43-9.55.93-10.61.47-.22 1.25-.24 2.14.84 2.5 3.06 10.03 26.22 9.59 45.34a.82.82 0 0 1-.52.77.82.82 0 0 1-.63 0 .85.85 0 0 1-.45-.45.82.82 0 0 1-.07-.32c.45-19.27-7.3-41.9-9.21-44.32l-.23-.25c-.43.92-.59 4.4.1 8.71.36 2.3-.8 5.5-2.54 10.32a159.25 159.25 0 0 0-9.57 40.54c-3.44 31.7 7.16 52.78 7.28 53a.82.82 0 0 1-.36 1.11.83.83 0 0 1-.37.12Z" fill="#263238"/><path d="M89.28 328.03a.83.83 0 0 1-.83-.8c0-.3-.19-7.26 2.52-22.33 2.7-15.07 5.73-50.74 5.73-51.11a.86.86 0 0 1 .9-.76.8.8 0 0 1 .72.57c.03.11.04.22.03.33 0 .35-3.08 36.25-5.73 51.27-2.65 15-2.51 21.9-2.5 21.97a.86.86 0 0 1-.81.86h-.03ZM68.78 326.93a.86.86 0 0 1-.63-.29c-.11-.14-12-13.9-14.92-32.4-2.9-18.48-4.14-24.64-6.02-27.3-1.09-1.56-1.13-3.23-.1-4.2.56-.52 2.87-1.92 7.96 2.25 6.75 5.5 22.66 25.74 26.67 38.94a.83.83 0 0 1-1.18.93.83.83 0 0 1-.41-.46C76.29 291.7 60.47 271.5 54 266.28c-3.23-2.63-5.22-2.86-5.74-2.32-.31.3-.31 1.1.35 2.02 2.09 2.96 3.28 8.95 6.29 28 2.86 18.02 14.43 31.46 14.55 31.58a.82.82 0 0 1 .11.91.83.83 0 0 1-.79.46Z" fill="#263238"/><path d="M87.01 342.06a.84.84 0 0 1-.64-.3c0-.09-7-8.44-16.2-21.78-9.2-13.34-14.2-37.56-14.42-38.6a.83.83 0 0 1 1.28-.85c.18.12.31.3.36.52 0 .26 5.09 24.82 14.16 37.99a331.62 331.62 0 0 0 16.1 21.64.84.84 0 0 1-.64 1.38ZM62.82 275.26a.85.85 0 0 1-.79-.6c0-.17-5.27-17.7-6.9-29.11-.4-2.76-.77-5.02-1.07-6.88-.8-4.84-1.1-6.67-.14-7.59a2.04 2.04 0 0 1 1.88-.39c2.7.53 25.38 17.8 30.86 37.75a.83.83 0 0 1-1.47.73.83.83 0 0 1-.14-.3c-5.2-18.9-27.09-36.07-29.57-36.56-.14-.03-.3-.03-.44 0-.29.41.16 3.06.66 6.13.3 1.85.67 4.14 1.07 6.91 1.6 11.3 6.8 28.7 6.85 28.87a.83.83 0 0 1-.56 1.02.67.67 0 0 1-.24.02Z" fill="#263238"/><path d="M81.1 299.98a.82.82 0 0 1-.82-.67 51.66 51.66 0 0 0-8.04-17.76c-6.65-9.66-10.7-31.23-10.85-32.14a.83.83 0 0 1 .66-.97.86.86 0 0 1 .97.67c0 .21 4.13 22.13 10.58 31.45a52.34 52.34 0 0 1 8.31 18.4.82.82 0 0 1-.67.96l-.15.06ZM90.88 253.43a.84.84 0 0 1-.58-.27.83.83 0 0 1-.22-.59c.3-7.9-.67-13.13-3.48-18.59l-.33-.61c-5.53-10.85-12.03-23.9-12.97-28.41-.62-2.86-1.58-4.02-2.04-4.03-.1 0-1.29.1-2.74 4.89-2.46 8.09 3.33 38.24 3.4 38.6a.83.83 0 1 1-1.63.32c-.25-1.26-5.94-30.87-3.36-39.35 1.24-4.09 2.65-6.08 4.3-6.08h.02c2.15.09 3.16 3.4 3.58 5.35 1.03 4.88 9.6 21.67 12.9 28l.32.62c2.95 5.72 3.98 11.23 3.66 19.43a.83.83 0 0 1-.83.72Z" fill="#263238"/><path d="M84.95 266.67a.85.85 0 0 1-.83-.76c0-.1-.8-10.6-1.6-17.29-.78-6.69-8.6-19.01-8.7-19.13a.84.84 0 1 1 1.43-.88c.33.51 8.14 12.86 8.95 19.81.82 6.95 1.6 17.26 1.61 17.36a.83.83 0 0 1-.76.89h-.1Z" fill="#263238"/><ellipse cx="239.66" cy="272.9" rx=".72" ry=".71" fill="#263238"/><circle cx="248.98" cy="275.05" fill="#263238" r="1.43"/><circle cx="238.95" cy="272.19" fill="#263238" r="1.43"/><ellipse rx="1.08" ry="5.38" transform="rotate(26.44 -458.86 510.98) skewX(-.11)" fill="#263238"/></svg>