<svg aria-hidden="true" style="position: absolute; width: 0; height: 0; overflow: hidden;" version="1.1" xmlns="http://www.w3.org/2000/svg" xmlns:xlink="http://www.w3.org/1999/xlink">
<defs>
<symbol id="icon-burger-menu" viewBox="0 0 57 32">
<path fill="#39515e" style="fill: var(--color1, #39515e)" d="M1.684 0h53.103c0.93 0 1.684 0.754 1.684 1.684v2.274c0 0.93-0.754 1.684-1.684 1.684h-53.103c-0.93 0-1.684-0.754-1.684-1.684v-2.274c0-0.93 0.754-1.684 1.684-1.684z"></path>
<path fill="#39515e" style="fill: var(--color1, #39515e)" d="M1.684 13.171h53.103c0.93 0 1.684 0.754 1.684 1.684v2.274c0 0.93-0.754 1.684-1.684 1.684h-53.103c-0.93 0-1.684-0.754-1.684-1.684v-2.274c0-0.93 0.754-1.684 1.684-1.684z"></path>
<path fill="#39515e" style="fill: var(--color1, #39515e)" d="M1.684 26.358h36.581c0.93 0 1.684 0.754 1.684 1.684v2.274c0 0.93-0.754 1.684-1.684 1.684h-36.581c-0.93 0-1.684-0.754-1.684-1.684v-2.274c0-0.93 0.754-1.684 1.684-1.684z"></path>
</symbol>
<symbol id="icon-close-menu" viewBox="0 0 32 32">
<path d="M23.736 10.304l-1.504-1.504-5.968 5.96-5.96-5.96-1.504 1.504 5.96 5.96-5.96 5.976 1.504 1.504 5.96-5.968 5.968 5.968 1.504-1.504-5.968-5.968 5.968-5.96z"></path>
</symbol>
</defs>
</svg>
