<svg width="426" height="320" fill="none" xmlns="http://www.w3.org/2000/svg"><path d="M394.65 126.63s-8.64-48.1-70.46-77.81c-61.82-29.7-90.4-.14-121.46 12.19-31.07 12.32-47.93-4.67-99.8-12.66-51.88-8-96.8 71.67-82.1 133.92 14.69 62.25 47.1 84.4 117.98 98.56 70.87 14.15 112.8-32.52 162.93-24.05 50.13 8.47 109.77-39.14 92.91-130.15Z" fill="#CFCFCF"/><path opacity=".7" d="M394.65 126.63s-8.64-48.1-70.46-77.81c-61.82-29.7-90.4-.14-121.46 12.19-31.07 12.32-47.93-4.67-99.8-12.66-51.88-8-96.8 71.67-82.1 133.92 14.69 62.25 47.1 84.4 117.98 98.56 70.87 14.15 112.8-32.52 162.93-24.05 50.13 8.47 109.77-39.14 92.91-130.15Z" fill="white"/><path d="M28.3 269.32h-4.96a.26.26 0 0 1-.2-.08.3.3 0 0 1-.07-.21.3.3 0 0 1 .08-.21.26.26 0 0 1 .19-.09h4.96c.07 0 .14.04.2.1a.31.31 0 0 1 0 .4.26.26 0 0 1-.2.1ZM407.73 269.32H36.37a.26.26 0 0 1-.19-.08.3.3 0 0 1-.08-.21.3.3 0 0 1 .08-.21.26.26 0 0 1 .2-.09h371.35c.07 0 .14.03.2.09a.31.31 0 0 1 0 .42.26.26 0 0 1-.2.08ZM126.83 61.8c-3.41 0-6.75 1.11-9.6 3.18a18.59 18.59 0 0 0-6.35 8.46 20.43 20.43 0 0 0-.98 10.88 19.43 19.43 0 0 0 4.72 9.65 16.87 16.87 0 0 0 8.84 5.16c3.35.73 6.83.35 9.98-1.07a17.68 17.68 0 0 0 7.75-6.94c1.9-3.1 2.91-6.75 2.91-10.47 0-5-1.82-9.8-5.06-13.33a16.57 16.57 0 0 0-12.2-5.52Zm0 33.92c-2.73 0-5.4-.88-7.68-2.54a14.89 14.89 0 0 1-5.1-6.78 16.37 16.37 0 0 1-.79-8.72 15.57 15.57 0 0 1 3.79-7.73 13.52 13.52 0 0 1 7.08-4.13c2.69-.59 5.47-.29 8 .86a14.18 14.18 0 0 1 6.2 5.56 16.1 16.1 0 0 1 2.34 8.38c0 4-1.46 7.85-4.05 10.68a13.28 13.28 0 0 1-9.79 4.42Z" fill="#263238"/><path d="M126.83 99.74a16.5 16.5 0 0 1-9.73-3.21 18.86 18.86 0 0 1-6.46-8.58 20.75 20.75 0 0 1-1-11.05c.68-3.71 2.34-7.12 4.8-9.8a17.12 17.12 0 0 1 8.97-5.23c3.4-.74 6.92-.36 10.12 1.09 3.2 1.45 5.94 3.9 7.87 7.04a20.38 20.38 0 0 1 2.95 10.62c0 5.07-1.85 9.93-5.14 13.52a16.84 16.84 0 0 1-12.38 5.6Zm0-37.64a16 16 0 0 0-9.44 3.12 18.28 18.28 0 0 0-6.25 8.32 20.1 20.1 0 0 0-.97 10.7c.66 3.6 2.27 6.9 4.65 9.5a16.6 16.6 0 0 0 8.7 5.07c3.29.71 6.7.34 9.8-1.06a17.4 17.4 0 0 0 7.63-6.83 19.75 19.75 0 0 0 2.86-10.3c0-4.9-1.8-9.62-4.98-13.09a16.31 16.31 0 0 0-12-5.43Zm0 33.92c-2.79 0-5.52-.9-7.83-2.6a15.18 15.18 0 0 1-5.2-6.9 16.7 16.7 0 0 1-.8-8.9 15.87 15.87 0 0 1 3.86-7.88 13.78 13.78 0 0 1 7.22-4.21c2.74-.6 5.57-.3 8.15.87a14.45 14.45 0 0 1 6.33 5.67 16.4 16.4 0 0 1 2.38 8.55c0 4.09-1.5 8-4.14 10.88a13.55 13.55 0 0 1-9.97 4.52Zm0-30.2c-2.68 0-5.3.87-7.53 2.5a14.6 14.6 0 0 0-5 6.64 16.06 16.06 0 0 0-.77 8.55 15.27 15.27 0 0 0 3.7 7.58 13.26 13.26 0 0 0 6.96 4.05c2.63.57 5.36.28 7.84-.84a13.9 13.9 0 0 0 6.08-5.45 15.79 15.79 0 0 0 2.29-8.23c0-3.92-1.44-7.68-3.98-10.46-2.54-2.77-5.99-4.33-9.59-4.34Z" fill="#263238"/><path d="M133.55 82.96h-.06l-6.07-1.7a.28.28 0 0 1-.17-.14.34.34 0 0 1-.03-.23.32.32 0 0 1 .13-.19.26.26 0 0 1 .2-.03l6.07 1.7c.03 0 .06.02.1.05a.3.3 0 0 1 .1.2l-.01.1a.3.3 0 0 1-.1.17.25.25 0 0 1-.16.07ZM126.83 80.92a.26.26 0 0 1-.13-.03.28.28 0 0 1-.1-.1l-7.13-11.38a.32.32 0 0 1-.02-.21.3.3 0 0 1 .1-.17.25.25 0 0 1 .2-.05c.06 0 .12.04.16.1l7.14 11.4c.04.07.06.15.05.22a.3.3 0 0 1-.12.2c-.04.02-.1.03-.15.02Z" fill="#263238"/><path d="M128.54 80.62a2 2 0 0 1-.29 1.04c-.19.31-.45.55-.77.7-.3.14-.65.17-.98.1a1.67 1.67 0 0 1-.88-.51 2.02 2.02 0 0 1-.37-2.04c.13-.34.35-.63.63-.83a1.61 1.61 0 0 1 2.16.23c.32.35.5.82.5 1.31Z" fill="white"/><path d="M126.83 82.79c-.39 0-.77-.13-1.1-.37a2.13 2.13 0 0 1-.73-.96 2.34 2.34 0 0 1 .42-2.36c.28-.3.63-.51 1.02-.6.38-.08.78-.04 1.14.13.37.16.67.44.9.8a2.3 2.3 0 0 1-.25 2.72c-.37.4-.87.63-1.4.64Zm0-3.73c-.28 0-.56.09-.8.26s-.42.42-.53.7c-.11.3-.14.61-.09.92.06.3.2.58.4.8.2.22.46.37.74.43.28.06.57.03.83-.09s.49-.32.65-.58a1.68 1.68 0 0 0-.18-1.98c-.27-.3-.64-.46-1.02-.46ZM349.5 171.4H206.87a.26.26 0 0 1-.2-.08.3.3 0 0 1-.07-.2V62.71a.3.3 0 0 1 .08-.2.26.26 0 0 1 .19-.09H349.5c.07 0 .14.03.2.09a.3.3 0 0 1 .07.2v108.4a.3.3 0 0 1-.08.2.26.26 0 0 1-.19.09Zm-142.37-.58h142.1V63.02h-142.1v107.8Z" fill="#263238"/><path d="M345.8 168.6H210.56a.26.26 0 0 1-.19-.09.31.31 0 0 1-.08-.2V65.53a.3.3 0 0 1 .08-.21.26.26 0 0 1 .2-.09H345.8c.07 0 .14.03.2.09.05.05.07.13.07.2V168.3c0 .08-.02.16-.07.21a.26.26 0 0 1-.2.09ZM210.83 168h134.7V65.83H210.86l-.03 102.18Z" fill="#263238"/><path d="M345.8 168.6H210.56a.26.26 0 0 1-.19-.09.3.3 0 0 1-.08-.2v-3.5a.3.3 0 0 1 .08-.2.26.26 0 0 1 .2-.09H345.8c.07 0 .14.03.2.09.05.05.07.13.07.2v3.5c0 .07-.02.15-.07.2a.26.26 0 0 1-.2.09ZM210.83 168h134.7v-2.9H210.86l-.03 2.9Z" fill="#263238"/><path d="M341.07 168.6h-130.5a.26.26 0 0 1-.2-.09.3.3 0 0 1-.08-.2v-3.5a.3.3 0 0 1 .08-.2.26.26 0 0 1 .2-.09h130.5c.07 0 .14.03.19.09a.3.3 0 0 1 .07.2v3.5a.3.3 0 0 1-.07.2.26.26 0 0 1-.2.09ZM210.83 168H340.8v-2.9H210.86l-.03 2.9ZM263.52 100.92a.75.75 0 0 1-.24-.59c0-.18.04-.37.1-.54.03-.18.05-.35.06-.53 0-1.48-.08-4.32-.23-8.53-.15-3.58-.22-6.42-.22-8.5 0-.06 0-.13.04-.2a.42.42 0 0 1 .12-.15c.1-.1.24-.15.38-.14a.63.63 0 0 1 .48.2c.07.07.12.15.16.24.03.09.05.18.05.28 0 1 .04 2.49.14 4.49.07 2.2.11 3.7.11 4.49V92.32c.05 1.45.07 3.61.07 6.48v.65h1.76c.13.07.24.18.32.31.08.13.14.28.16.44a.75.75 0 0 1-.35.63.49.49 0 0 1-.22.06.96.96 0 0 1-.26-.05h-.09c-.14.02-.29.02-.43 0h-.39a2.25 2.25 0 0 0-.37 0 .78.78 0 0 1-.28.23.7.7 0 0 1-.35.07.75.75 0 0 1-.52-.22ZM269.27 100.91c-.26-.08-.4-.31-.4-.7V85.73a9.5 9.5 0 0 0-.13-1.27 6.4 6.4 0 0 1-.16-1.27v-.08c.17-.32.36-.62.57-.9.29 0 .57-.03.85-.1.27-.05.56-.09.84-.1.26.01.5.1.71.24.1.06.18.14.24.23.06.1.1.22.1.33 0 .5-.34.75-1.07.75h-.65a.67.67 0 0 0-.24 0c0 .6.02 1.25.09 2.05l.04.7.05 1.37c0 .31 0 .8-.07 1.44l-.04 1.4.31-.08c.25-.09.5-.14.76-.15a.6.6 0 0 1 .25.06c.07.04.14.09.2.15a.7.7 0 0 1 .2.48c.01.2-.05.4-.16.54a.56.56 0 0 1-.19.18.5.5 0 0 1-.24.06H270.56a.56.56 0 0 0-.25.04.6.6 0 0 0-.23.14v7.7l1.29-.07c.86 0 1.3.22 1.3.65v.1c-.11.22-.3.39-.5.48-.23.12-.47.2-.72.24H270c-.25 0-.5-.04-.73-.13ZM274.95 101.1c-.24-.16-.36-.33-.36-.53a.8.8 0 0 1 .14-.48c.04-.07.1-.12.17-.15a.4.4 0 0 1 .21-.04c.23.02.46.08.67.2.19.09.39.16.59.2a1 1 0 0 0 .43-.12c.14-.07.26-.17.36-.3.25-.3.43-.68.54-1.08a7.2 7.2 0 0 0 .1-4.5c-.21-.8-.49-1.57-.83-2.3l-.37-.8-.88-1.97c-.21-.51-.4-1.03-.54-1.57a8.52 8.52 0 0 1-.34-2.32c0-.58.1-1.16.29-1.7.18-.51.48-.98.86-1.34a1.82 1.82 0 0 1 1.41-.59c.28 0 .56.09.8.26.24.15.42.38.54.66l-.39.52c-.31.03-.63-.06-.9-.25-.13.02-.27.07-.4.14-.12.08-.23.18-.31.3a2.73 2.73 0 0 0-.58 1.85c0 .66.08 1.3.24 1.93.15.65.36 1.27.63 1.86l1.62 3.5a11.33 11.33 0 0 1 .85 4.26c0 1.08-.25 2.14-.74 3.09-.24.47-.59.88-1 1.17-.41.3-.89.44-1.37.44-.5.01-.99-.1-1.44-.35ZM281.42 101.1c-.24-.16-.37-.33-.37-.53 0-.18.04-.35.14-.48.04-.06.1-.1.16-.14a.43.43 0 0 1 .2-.04c.24.02.46.1.67.2.19.1.39.16.6.2.14 0 .3-.04.43-.11s.25-.17.35-.3c.25-.31.44-.68.54-1.08a7.2 7.2 0 0 0 .1-4.5c-.2-.8-.49-1.57-.83-2.3l-.37-.8a75.9 75.9 0 0 1-.88-1.98c-.2-.5-.39-1.03-.53-1.56a8.48 8.48 0 0 1-.34-2.32c0-.58.09-1.16.28-1.7.18-.52.48-.98.85-1.35.39-.4.9-.6 1.42-.59.29 0 .56.1.8.26s.43.39.54.66l-.39.53c-.31.02-.62-.06-.89-.25-.14.02-.27.06-.4.14a1.1 1.1 0 0 0-.32.3c-.2.26-.37.55-.47.88-.07.31-.1.63-.07.95 0 .66.08 1.3.24 1.93.15.65.36 1.27.62 1.86l1.62 3.5a10.96 10.96 0 0 1 .85 4.26c0 1.08-.25 2.14-.73 3.09-.25.47-.59.88-1 1.17-.42.3-.9.44-1.38.44-.5.01-1-.1-1.44-.35ZM290.42 101.13a3.8 3.8 0 0 1-.87-1.22 12.26 12.26 0 0 1-.98-3.69 42.93 42.93 0 0 1-.34-3.74v-4.23c0-.88.03-1.77.1-2.64.07-.8.22-1.6.46-2.36.19-.6.56-1.1 1.06-1.44a2.1 2.1 0 0 1 1.9.06c.33.18.62.45.84.78.51.78.86 1.67 1.03 2.62.23 1.1.37 2.21.4 3.34.07 1.18.1 2.3.1 3.34v1.42c0 .28-.04.81-.11 1.6-.06.51-.1 1.04-.1 1.56v.1a8.6 8.6 0 0 0-.14 1.65 4.22 4.22 0 0 1-1.04 2.72c-.14.18-.32.33-.52.43-.2.1-.4.15-.63.16-.42 0-.84-.15-1.16-.46Zm1.94-1.84c.2-.65.34-1.32.4-2 .09-.8.16-1.69.22-2.69.03-.43.04-.99.04-1.66v-2.3a46.3 46.3 0 0 0-.27-3.36c-.1-1.05-.33-2.07-.69-3.05-.12-.36-.31-.7-.57-.97-.2-.21-.45-.34-.73-.35-.38 0-.66.33-.84.98a10.4 10.4 0 0 0-.46 2.24c-.09.88-.14 1.72-.16 2.52v1.84c.02 1.38.13 2.76.32 4.12.25 2.22.6 3.78 1.08 4.72.3.58.62.87.96.87.33 0 .49-.29.69-.91h.01ZM300.44 96.12c-1.08-4-2-7.68-2.76-11.04v8.18c0 .7.06 1.88.18 3.56.1 1.83.16 3.01.16 3.54 0 .08-.03.16-.08.23a.45.45 0 0 1-.17.16c-.18.1-.38.16-.57.15-.32 0-.48-.13-.48-.4l.04-.72c.04-.53.05-.88.05-1.04 0-.89-.05-2.28-.14-4.19-.09-1.94-.13-3.13-.13-3.53v-3.2c0-.51 0-1.27.06-2.3.07-.87.1-1.63.1-2.28v-.15c0-.83.16-1.25.5-1.25.2 0 .45.37.75 1.1.78 2.09 1.42 4.24 1.92 6.43.44 1.8.96 4.1 1.56 6.93 0-.07.1.5.36 1.72v.12c0-1.6 0-3.05.05-4.33l.04-4.34v-7.38a.72.72 0 0 1 .25-.46.6.6 0 0 1 .48-.13c.41 0 .62.32.62.97v.15c-.1.23-.14.47-.14.72 0 1.02 0 2.55-.07 4.6-.07 2.03-.07 3.6-.07 4.63v7.6c0 .27-.06.53-.2.76-.03.1-.1.18-.18.25a.51.51 0 0 1-.27.1c-.3-.01-.92-1.73-1.86-5.16ZM280.48 124.72c.02-1.28.13-2.57.34-3.84.21-1.6.33-2.82.36-3.68-.45-.04-.98-.06-1.57-.06l-.54.06c-.06.41-.09.83-.1 1.25-.11 1.9-.23 3.32-.33 4.25a8.68 8.68 0 0 1-.35 1.85c-.13.47-.3.7-.47.7a.7.7 0 0 1-.45-.15.44.44 0 0 1-.14-.16.48.48 0 0 1-.06-.22c.06-2.5.33-5 .8-7.45l-.68.05c-.63 0-.94-.26-.94-.8 0-.36.36-.54 1.08-.54h.69c.13-.87.25-1.95.34-3.25l-.57.06c-.72 0-1.08-.25-1.08-.73v-.12l.34-.4h1.33l.21-1.55c.18-1.13.28-2.27.3-3.42v-.44c-.01-.23.02-.46.11-.67a.5.5 0 0 1 .2-.19.44.44 0 0 1 .26-.04h.18l.25.59c-.02.95-.09 1.9-.2 2.85-.12.91-.19 1.84-.2 2.76.2.04.4.06.6.05h.4c.33.02.66-.02.98-.1.15-.71.35-2.03.59-3.94l.25-1.82c.06-.1.15-.2.25-.26.1-.07.21-.1.33-.11.13 0 .26.06.36.16.05.04.1.09.13.15a.5.5 0 0 1 .05.19c-.04.95-.17 1.9-.39 2.81-.21.91-.36 1.84-.43 2.77h.74l.47.6c-.02.12-.05.25-.1.38-.02.1-.09.18-.17.23-.1.08-.2.13-.32.13l-.75-.05a21.47 21.47 0 0 0-.28 3.22h.23c.64 0 .96.24.96.74 0 .42-.3.6-.87.6h-.39c-.03.34-.11 1.17-.25 2.41a51.16 51.16 0 0 0-.39 5.2l-.38.53c-.5-.03-.73-.23-.73-.6Zm.68-8.83c.17-1.06.3-2.12.36-3.2a5.68 5.68 0 0 0-2.04-.02 16.83 16.83 0 0 0-.36 3.27h.3c.57 0 1.14-.01 1.71-.06l.03.01ZM286.75 124.25c-.1-.08-.16-.26-.16-.55a.51.51 0 0 1 .11-.37.81.81 0 0 1 .49-.1c.33 0 .5-.14.5-.43 0-1.64-.11-4.07-.34-7.27a110.31 110.31 0 0 1-.35-7.6v-.48c0-.78-.26-1.18-.78-1.18h-.53c-.43 0-.65-.18-.65-.54 0-.37.61-.65 1.85-.65.65 0 1.04.14 1.16.42-.08.35-.12.7-.14 1.05.03.76.09 1.52.19 2.27.09.76.14 1.52.15 2.29 0 1.18.09 3.14.26 5.89.17 2.42.25 4.4.25 5.93v.15H289.33l.27-.03c.64 0 .96.21.96.63 0 .4-.87.72-2.6.72h-.68a.9.9 0 0 1-.53-.15ZM384.05 265.63c0-.68.18-1.34.53-1.9.34-.56.82-1 1.4-1.25.56-.26 1.2-.33 1.8-.2.6.14 1.16.46 1.6.94a3.69 3.69 0 0 1 .68 3.7 3.36 3.36 0 0 1-1.16 1.54 2.94 2.94 0 0 1-3.94-.43 3.65 3.65 0 0 1-.91-2.4Z" fill="#263238"/><path d="M387.17 269.32c-.67 0-1.33-.21-1.88-.62-.56-.4-1-.99-1.25-1.66a4 4 0 0 1 .73-4.03 3.3 3.3 0 0 1 1.74-1.01 3.12 3.12 0 0 1 1.96.21c.62.28 1.15.76 1.52 1.37a3.94 3.94 0 0 1-.43 4.66c-.63.7-1.5 1.08-2.4 1.08Zm0-6.8c-.56 0-1.12.18-1.58.53-.47.34-.84.82-1.05 1.4a3.37 3.37 0 0 0 .61 3.38c.4.43.91.73 1.46.85.56.12 1.13.06 1.65-.18.52-.23.97-.63 1.28-1.14a3.31 3.31 0 0 0-.36-3.93 2.73 2.73 0 0 0-2.01-.9Z" fill="#263238"/><path d="M385.61 265.63c0-.34.1-.67.26-.95.17-.28.42-.5.7-.63.29-.13.6-.16.9-.1.3.07.58.23.8.47.22.24.37.54.43.87.06.33.03.67-.09.99-.12.3-.32.57-.57.76a1.47 1.47 0 0 1-1.97-.21c-.3-.32-.46-.75-.46-1.2Z" fill="white"/><path d="M387.17 267.62c-.36 0-.72-.12-1.02-.34-.3-.22-.53-.53-.67-.9a2.17 2.17 0 0 1 .4-2.17 1.7 1.7 0 0 1 2-.43c.33.15.61.41.81.74a2.13 2.13 0 0 1-.23 2.52c-.34.37-.8.58-1.3.58Zm0-3.4c-.26 0-.5.09-.72.24a1.4 1.4 0 0 0-.47.63 1.53 1.53 0 0 0 .28 1.54c.18.2.4.33.66.38.25.06.5.03.74-.08.24-.1.44-.29.58-.52a1.54 1.54 0 0 0 .12-1.32 1.42 1.42 0 0 0-.28-.46 1.28 1.28 0 0 0-.91-.42v.01ZM350.63 265.63c0-.68.19-1.34.53-1.9.34-.56.83-1 1.4-1.25.57-.26 1.2-.33 1.8-.2.6.14 1.16.46 1.6.94a3.69 3.69 0 0 1 .68 3.7 3.36 3.36 0 0 1-1.15 1.54 2.94 2.94 0 0 1-3.94-.43 3.65 3.65 0 0 1-.91-2.4Z" fill="#263238"/><path d="M353.76 269.32a3.2 3.2 0 0 1-1.88-.62c-.56-.4-1-.99-1.25-1.66a4.02 4.02 0 0 1-.2-2.14c.14-.72.46-1.38.94-1.9a3.31 3.31 0 0 1 1.74-1 3.12 3.12 0 0 1 1.95.21c.62.28 1.15.76 1.52 1.37a3.94 3.94 0 0 1-.42 4.66c-.64.7-1.5 1.08-2.4 1.08Zm0-6.8c-.56 0-1.11.18-1.58.53-.47.34-.83.82-1.05 1.4a3.37 3.37 0 0 0 .62 3.38c.4.43.9.73 1.46.85.55.12 1.12.06 1.64-.18.52-.23.97-.63 1.28-1.14a3.31 3.31 0 0 0-.35-3.93 2.74 2.74 0 0 0-2.02-.9Z" fill="#263238"/><path d="M352.2 265.63c0-.34.1-.67.27-.95.17-.28.41-.5.7-.63.28-.13.6-.16.9-.1.3.07.58.23.8.47a1.84 1.84 0 0 1 .34 1.86c-.12.3-.32.57-.58.76a1.47 1.47 0 0 1-1.97-.21c-.3-.32-.46-.75-.46-1.2Z" fill="white"/><path d="M353.76 267.62c-.36 0-.71-.12-1.01-.34-.3-.22-.54-.53-.68-.9a2.17 2.17 0 0 1 .4-2.17c.26-.28.58-.47.94-.54.35-.08.72-.04 1.06.11.33.15.62.41.82.74a2.12 2.12 0 0 1-.24 2.52c-.34.37-.8.58-1.29.58Zm0-3.4c-.25 0-.5.09-.71.24a1.4 1.4 0 0 0-.48.63 1.52 1.52 0 0 0 .28 1.54c.18.2.41.33.66.38.25.06.51.03.75-.08.23-.1.43-.29.57-.52.15-.23.22-.5.22-.78a1.5 1.5 0 0 0-.37-1 1.3 1.3 0 0 0-.42-.31 1.2 1.2 0 0 0-.5-.11v.01ZM339.73 265.63c0-.68.19-1.34.53-1.9.34-.56.83-1 1.4-1.25.57-.26 1.2-.33 1.8-.2.6.14 1.16.46 1.6.94a3.7 3.7 0 0 1 .68 3.7 3.36 3.36 0 0 1-1.16 1.54 2.94 2.94 0 0 1-3.94-.43 3.65 3.65 0 0 1-.91-2.4Z" fill="#263238"/><path d="M342.85 269.32a3.2 3.2 0 0 1-1.88-.62c-.56-.4-1-.98-1.25-1.66a4.01 4.01 0 0 1 .73-4.03 3.3 3.3 0 0 1 1.74-1.01 3.13 3.13 0 0 1 1.95.2c.63.29 1.15.76 1.53 1.37a3.94 3.94 0 0 1-.43 4.67c-.63.7-1.5 1.08-2.39 1.08Zm0-6.8c-.56 0-1.11.18-1.58.52s-.84.83-1.06 1.4a3.37 3.37 0 0 0 .62 3.39c.4.43.9.73 1.46.85.55.12 1.12.06 1.64-.18.53-.23.97-.63 1.28-1.14a3.32 3.32 0 0 0-.35-3.93 2.65 2.65 0 0 0-2.01-.91Z" fill="#263238"/><path d="M341.3 265.63c0-.34.08-.67.25-.95.18-.28.42-.5.7-.63.29-.13.6-.16.9-.1.3.07.59.23.8.47.22.24.37.54.43.87.06.33.03.67-.09.99-.12.3-.32.57-.57.76a1.47 1.47 0 0 1-1.97-.21 1.83 1.83 0 0 1-.46-1.2Z" fill="white"/><path d="M342.85 267.62c-.36 0-.72-.11-1.02-.33-.3-.22-.53-.53-.67-.9a2.17 2.17 0 0 1-.1-1.15c.06-.4.24-.75.5-1.03a1.7 1.7 0 0 1 2-.43c.32.15.6.41.8.74a2.13 2.13 0 0 1-.22 2.52c-.34.37-.8.58-1.29.58Zm0-3.4c-.25 0-.5.08-.72.24a1.4 1.4 0 0 0-.47.63 1.46 1.46 0 0 0 .28 1.54c.17.2.4.33.65.38.25.06.51.03.75-.08.23-.1.44-.29.58-.52a1.54 1.54 0 0 0-.15-1.79 1.3 1.3 0 0 0-.42-.3 1.2 1.2 0 0 0-.5-.12v.02ZM365.2 261.74h-6.6V224.9h6.58v36.83h.02Z" fill="#263238"/><path d="M365.2 262.03h-6.6a.27.27 0 0 1-.2-.08.32.32 0 0 1-.07-.21V224.9c0-.08.03-.16.09-.22a.3.3 0 0 1 .2-.1h6.58a.3.3 0 0 1 .2.1c.06.06.1.14.1.22v36.83l-.03.12a.3.3 0 0 1-.16.16.27.27 0 0 1-.1.01Zm-6.33-.59h6.06v-36.26h-6.06v36.26Z" fill="#263238"/><path d="M356.85 261.74h10.1v-26.02h-10.1v26.02Z" fill="#263238"/><path d="M366.95 262.03h-10.1a.26.26 0 0 1-.2-.08.3.3 0 0 1-.07-.21V235.7a.3.3 0 0 1 .07-.2.26.26 0 0 1 .2-.1h10.1c.07 0 .14.04.2.1a.3.3 0 0 1 .07.2v26.03a.3.3 0 0 1-.08.2.26.26 0 0 1-.19.1Zm-9.84-.59h9.57V236h-9.57v25.44ZM377.1 218.72h-8.43v-19.8h8.44v19.77l-.02.03Z" fill="#263238"/><path d="M377.08 219.01h-8.43a.3.3 0 0 1-.2-.1.35.35 0 0 1-.09-.21v-19.81c0-.08.03-.15.08-.2a.27.27 0 0 1 .2-.1h8.48c.07 0 .13.04.19.1.05.05.07.12.07.2v19.8c0 .1-.03.17-.1.23a.29.29 0 0 1-.2.1Zm-8.2-.59h7.95v-19.24h-7.93l-.01 19.24Z" fill="#263238"/><path d="M356.17 198.9h33.03c.77 0 1.54-.17 2.25-.5a5.8 5.8 0 0 0 1.9-1.4 6.85 6.85 0 0 0 1.64-4.57l-.8-35.18a6.6 6.6 0 0 0-1.74-4.36 5.56 5.56 0 0 0-4.04-1.8h-27.28c-1.38 0-2.72.53-3.77 1.52a6.48 6.48 0 0 0-1.95 3.83l-4.96 35.18a6.87 6.87 0 0 0 1.33 5.08c.54.69 1.22 1.24 1.97 1.62a5.4 5.4 0 0 0 2.42.58Z" fill="#263238"/><path d="M389.2 199.2h-33.03c-.87 0-1.74-.21-2.53-.6-.8-.4-1.5-.99-2.07-1.71a7.18 7.18 0 0 1-1.39-5.31l4.96-35.18c.21-1.57.94-3 2.04-4.02a5.73 5.73 0 0 1 3.95-1.59h27.28c1.58 0 3.1.66 4.24 1.87a6.88 6.88 0 0 1 1.82 4.58l.8 35.18c.01.88-.13 1.76-.42 2.58a6.7 6.7 0 0 1-1.3 2.2 6.07 6.07 0 0 1-1.99 1.47c-.74.35-1.54.53-2.35.53h-.01Zm-28.06-47.82c-1.32 0-2.6.5-3.6 1.44a6.15 6.15 0 0 0-1.86 3.67l-4.96 35.17c-.12.86-.07 1.74.15 2.57.22.84.6 1.61 1.12 2.27a5.59 5.59 0 0 0 1.88 1.55c.72.37 1.5.56 2.3.56h33.03c.74 0 1.47-.17 2.15-.48.67-.3 1.29-.77 1.8-1.34a6.52 6.52 0 0 0 1.57-4.35l-.8-35.19a6.26 6.26 0 0 0-1.65-4.18 5.26 5.26 0 0 0-3.87-1.7l-27.26.01ZM381.45 236.88a.25.25 0 0 1-.15-.05l-14.48-10.41a.3.3 0 0 1-.11-.19.32.32 0 0 1 .04-.22.27.27 0 0 1 .07-.08.25.25 0 0 1 .3 0l14.49 10.41.08.08a.32.32 0 0 1 .04.22c0 .04-.02.07-.04.1a.28.28 0 0 1-.24.13Z" fill="#263238"/><path d="m382 235.01 2.47 1.81c.2.15.37.34.49.57a1.9 1.9 0 0 1-.26 2.16l-.18.18c-.28.3-.66.49-1.06.5-.4.02-.79-.12-1.1-.4l-2.26-2.04a1.9 1.9 0 0 1-.13-2.55 1.51 1.51 0 0 1 2.04-.23Z" fill="#263238"/><path d="M383.4 240.53c-.44 0-.87-.17-1.2-.47l-2.27-2.04c-.2-.18-.36-.4-.48-.65a2.17 2.17 0 0 1 .74-2.69 1.74 1.74 0 0 1 1.96.08l2.47 1.82a2 2 0 0 1 .57.66 2.2 2.2 0 0 1-.3 2.52l-.18.18a1.8 1.8 0 0 1-1.31.59ZM381.1 235a1.3 1.3 0 0 0-.95.44c-.12.15-.22.32-.29.5a1.56 1.56 0 0 0 .06 1.16c.09.18.2.33.34.46l2.27 2.04c.26.23.58.35.91.34.33-.02.65-.17.89-.42l.17-.18a1.58 1.58 0 0 0 .22-1.8c-.1-.19-.24-.35-.41-.47l-2.47-1.82a1.26 1.26 0 0 0-.74-.25ZM335.04 227.97h53.72c1.37 0 2.7-.6 3.66-1.65a6.1 6.1 0 0 0 0-8 5.16 5.16 0 0 0-1.68-1.23 4.8 4.8 0 0 0-1.98-.43h-53.72c-1.38 0-2.7.6-3.67 1.66a6.12 6.12 0 0 0 0 8c.48.52 1.06.94 1.68 1.22.63.29 1.3.43 1.99.43Z" fill="#263238"/><path d="M388.75 228.28h-53.71a5.26 5.26 0 0 1-3.75-1.8 6.25 6.25 0 0 1-1.54-4.14c0-1.55.55-3.04 1.54-4.15a5.25 5.25 0 0 1 3.75-1.8h53.71c.74-.03 1.46.1 2.14.4.69.28 1.3.72 1.83 1.27a6 6 0 0 1 1.23 1.95 6.42 6.42 0 0 1-1.23 6.6c-.52.55-1.14.99-1.83 1.28-.68.29-1.4.42-2.13.4Zm-53.71-11.32a4.74 4.74 0 0 0-3.37 1.63 5.63 5.63 0 0 0-1.39 3.73c0 1.39.5 2.73 1.39 3.73.88 1 2.1 1.58 3.37 1.63h53.71c.66.02 1.32-.1 1.94-.36a4.89 4.89 0 0 0 1.65-1.15 5.8 5.8 0 0 0 0-7.71c-.48-.5-1.04-.89-1.65-1.15a4.54 4.54 0 0 0-1.94-.35h-53.71Z" fill="#263238"/><path d="M329.9 221.63c.18-1.4.83-2.67 1.82-3.59a5.06 5.06 0 0 1 3.54-1.38h27.84c1.29-.02 2.54.47 3.52 1.39a5.97 5.97 0 0 1 1.82 3.58 6.14 6.14 0 0 1-1.26 4.44 5.25 5.25 0 0 1-1.76 1.4c-.67.33-1.4.5-2.13.5h-28.25c-.74 0-1.46-.17-2.13-.5a5.24 5.24 0 0 1-1.75-1.4 6.16 6.16 0 0 1-1.26-4.43Z" fill="#263238"/><path d="M363.31 228.28h-28.27c-.77 0-1.54-.18-2.24-.53a5.5 5.5 0 0 1-1.83-1.48 6.46 6.46 0 0 1-1.33-4.66 6.24 6.24 0 0 1 1.9-3.78 5.3 5.3 0 0 1 3.73-1.45h27.84a5.3 5.3 0 0 1 3.73 1.45 6.24 6.24 0 0 1 .58 8.44 5.51 5.51 0 0 1-1.84 1.49c-.7.34-1.47.52-2.24.53h-.03Zm-28.06-11.3a4.78 4.78 0 0 0-3.37 1.3 5.64 5.64 0 0 0-1.73 3.4 5.83 5.83 0 0 0 1.2 4.2 4.98 4.98 0 0 0 1.64 1.33c.64.32 1.32.48 2.01.49h28.28c.7 0 1.38-.17 2.01-.48.63-.3 1.2-.76 1.66-1.33.47-.56.82-1.23 1.03-1.96a5.63 5.63 0 0 0-1.55-5.66 4.77 4.77 0 0 0-3.37-1.3h-27.81ZM338.73 263.8h51.57c0-.82-.3-1.6-.82-2.19a2.71 2.71 0 0 0-2-.9h-45.93c-.75 0-1.47.33-2 .9a3.23 3.23 0 0 0-.82 2.18Z" fill="#263238"/><path d="M390.3 264.09h-51.57a.26.26 0 0 1-.2-.09.31.31 0 0 1-.07-.2c0-.9.33-1.76.9-2.4a2.98 2.98 0 0 1 2.19-.98h45.93c.82 0 1.6.36 2.18 1 .58.62.9 1.48.9 2.37a.3.3 0 0 1-.07.2.26.26 0 0 1-.19.1Zm-51.26-.6h50.99a2.88 2.88 0 0 0-.83-1.77 2.44 2.44 0 0 0-1.71-.71h-45.94c-.63 0-1.24.25-1.7.71-.47.46-.77 1.1-.84 1.78h.03Z" fill="#263238"/><path d="M347.93 263.8h16.79v-3.09h-13.99c-.74.01-1.45.34-1.98.91a3.23 3.23 0 0 0-.82 2.17Z" fill="#263238"/><path d="M364.7 264.09h-16.77a.26.26 0 0 1-.19-.09.31.31 0 0 1-.07-.2c0-.9.32-1.76.9-2.4a2.97 2.97 0 0 1 2.19-.98h13.96c.07 0 .14.03.19.08.05.06.08.14.08.21v3.08l-.02.12a.28.28 0 0 1-.16.16.25.25 0 0 1-.11.02Zm-16.5-.6h16.23v-2.48h-13.7c-.63 0-1.23.25-1.7.71-.47.46-.77 1.1-.84 1.78Z" fill="#263238"/><path d="M356.2 178.05v-2.8a1.76 1.76 0 0 1 .45-1.16 1.38 1.38 0 0 1 1.06-.48h-19.97c-.4 0-.78.18-1.06.48-.28.31-.44.73-.44 1.16v2.8c0 .43.16.85.44 1.16.28.3.66.48 1.06.48h19.97c-.4 0-.78-.18-1.06-.48s-.44-.73-.44-1.16Z" fill="#8C8C8C"/><path d="M357.7 180h-19.96c-.47 0-.92-.2-1.25-.57a2.02 2.02 0 0 1-.52-1.36v-2.8c0-.51.19-1 .52-1.37a1.7 1.7 0 0 1 1.25-.56h19.97c.07 0 .14.03.19.09a.3.3 0 0 1 .08.2.3.3 0 0 1-.08.21.26.26 0 0 1-.2.09c-.32 0-.63.14-.86.4-.23.24-.36.58-.36.94v2.8c0 .35.13.7.36.95.23.25.54.39.87.39.07 0 .14.03.19.09.05.05.08.13.08.2a.3.3 0 0 1-.08.21.26.26 0 0 1-.2.09Zm-19.96-6.07c-.32 0-.64.14-.87.4-.23.24-.36.58-.36.94v2.8c0 .35.13.7.36.95.23.25.55.39.87.39h18.68c-.32-.36-.5-.84-.5-1.34v-2.8c0-.5.18-.98.5-1.34h-18.68Z" fill="#263238"/><path d="m370.32 173.83.16-.11.03-.02v-.06l-.03-.02h-12.77c-.2 0-.4.04-.58.12-.18.08-.34.2-.48.35a1.65 1.65 0 0 0-.44 1.16v2.8c0 .43.16.85.44 1.16.28.3.66.48 1.06.48h12.75l.02-.02a.06.06 0 0 0 0-.06l-.02-.02-.17-.13.03-5.63Z" fill="white"/><path d="M370.45 179.83h-12.74c-.43 0-.84-.18-1.15-.51-.3-.33-.47-.78-.47-1.25v-2.8c0-.47.17-.92.47-1.25.3-.33.72-.52 1.15-.52h12.75c.04 0 .07.02.1.04.04.03.06.06.07.1v.13a.2.2 0 0 1-.07.1l-.11.08v5.46l.1.08a.2.2 0 0 1 .08.1v.12a.2.2 0 0 1-.07.1.18.18 0 0 1-.1.02Zm-12.74-6.07c-.36 0-.71.16-.97.44-.25.28-.4.66-.4 1.05v2.8c0 .4.15.77.4 1.05.26.28.6.44.97.44h12.49a.2.2 0 0 1 0-.08v-5.7h-12.5Z" fill="#263238"/><path d="M358.82 173.83h11.5v5.63h-11.5c-.62 0-1.21-.27-1.65-.75a2.68 2.68 0 0 1-.69-1.8v-.53c0-.67.25-1.32.7-1.8a2.25 2.25 0 0 1 1.64-.75Z" fill="white"/><path d="M370.32 179.61h-11.5c-.65 0-1.28-.28-1.74-.79-.47-.5-.73-1.2-.73-1.9v-.53c0-.72.26-1.4.73-1.91.46-.5 1.09-.8 1.75-.8h11.49c.03 0 .06.02.09.05.02.03.04.06.04.1v5.63c0 .04-.01.08-.04.1a.13.13 0 0 1-.1.05Zm-11.5-5.63c-.58 0-1.14.26-1.55.7a2.53 2.53 0 0 0-.65 1.7v.53c0 .64.23 1.25.65 1.7.41.45.97.7 1.56.7h11.33v-5.33h-11.33Z" fill="#263238"/><path d="M361.9 175.02h-4.98a.13.13 0 0 1-.1-.05.15.15 0 0 1-.04-.1c0-.04.02-.08.04-.1a.14.14 0 0 1 .1-.05h4.97c.04 0 .07.02.1.05.02.02.04.06.04.1 0 .04-.02.08-.04.1a.13.13 0 0 1-.1.05ZM365.2 175.53h-4.64a.13.13 0 0 1-.1-.04.15.15 0 0 1-.03-.1c0-.04.01-.08.04-.1a.13.13 0 0 1 .1-.05h4.63c.04 0 .07.02.1.04.02.03.04.07.04.1 0 .05-.01.08-.04.11a.13.13 0 0 1-.1.04ZM363.4 176.17h-4.46a.13.13 0 0 1-.1-.04.15.15 0 0 1-.03-.1c0-.04.01-.08.04-.11a.13.13 0 0 1 .1-.04h4.44c.04 0 .07.01.1.04.02.03.04.07.04.1 0 .04-.02.08-.04.1a.13.13 0 0 1-.1.05ZM359.95 178.1h-2.92a.13.13 0 0 1-.1-.03.15.15 0 0 1-.04-.1c0-.05.02-.09.04-.11a.13.13 0 0 1 .1-.05h2.92c.03 0 .07.02.1.05.02.03.03.06.03.1 0 .04-.01.08-.04.1a.13.13 0 0 1-.1.05ZM363.59 178.57h-4.36a.13.13 0 0 1-.1-.05.15.15 0 0 1 0-.2.13.13 0 0 1 .1-.05h4.36c.03 0 .07.02.1.05a.15.15 0 0 1 0 .2.13.13 0 0 1-.1.05ZM359.83 178.99h-1.16a.13.13 0 0 1-.1-.04.15.15 0 0 1-.04-.1c0-.04.02-.08.04-.11a.13.13 0 0 1 .1-.04h1.16c.04 0 .07.01.1.04.02.03.04.06.04.1 0 .04-.02.08-.04.1a.13.13 0 0 1-.1.05ZM369.37 177.68h-7.4a.13.13 0 0 1-.1-.04.15.15 0 0 1 0-.2.13.13 0 0 1 .1-.05h7.42c.03 0 .07.02.1.04.02.03.03.07.03.1l-.01.07c0 .02-.02.04-.03.05a.13.13 0 0 1-.06.03h-.06ZM370.23 176.38h-1.53a.13.13 0 0 1-.1-.04.15.15 0 0 1-.04-.1c0-.04.01-.08.04-.1a.13.13 0 0 1 .1-.05h1.53c.03 0 .07.01.1.04a.15.15 0 0 1 0 .21.13.13 0 0 1-.1.04ZM369.98 175.96h-1.54a.13.13 0 0 1-.1-.04.15.15 0 0 1-.03-.1c0-.05.01-.08.04-.11a.13.13 0 0 1 .1-.05H370c.03 0 .07.02.1.05.02.03.03.06.03.1 0 .04-.01.08-.04.1a.13.13 0 0 1-.1.05h-.01ZM369.98 178.68h-3.9a.13.13 0 0 1-.1-.04.15.15 0 0 1-.03-.1c0-.04.01-.08.04-.1a.13.13 0 0 1 .1-.05h3.89c.03 0 .06.02.1.04a.16.16 0 0 1 0 .21.13.13 0 0 1-.1.04Z" fill="#263238"/><path d="M357.28 171.83v-2.8c0-.43.16-.85.44-1.16.28-.3.66-.48 1.06-.48h-19.96c-.4 0-.79.18-1.07.48-.28.31-.44.73-.44 1.16v2.8a1.76 1.76 0 0 0 .44 1.16c.14.15.3.27.49.35.18.09.38.13.57.13h19.97c-.4 0-.78-.18-1.06-.48-.28-.31-.44-.73-.44-1.16Z" fill="#CFCFCF"/><path d="M358.78 173.76h-19.96c-.47 0-.93-.2-1.26-.57a2.03 2.03 0 0 1-.52-1.36v-2.8c0-.5.19-1 .52-1.36a1.7 1.7 0 0 1 1.26-.57h19.96c.08 0 .14.03.2.08.04.06.07.13.07.21a.3.3 0 0 1-.08.21.26.26 0 0 1-.19.09c-.32 0-.64.14-.87.4-.23.25-.36.59-.36.94v2.8c0 .35.13.7.36.95.23.25.55.4.87.4.08 0 .14.03.2.08.04.06.07.13.07.2a.3.3 0 0 1-.08.22.26.26 0 0 1-.19.08Zm-19.96-6.07c-.33 0-.64.14-.88.4-.23.25-.36.59-.36.94v2.8c0 .35.13.7.36.95.24.25.55.4.88.4h18.67c-.32-.37-.5-.85-.5-1.35v-2.8a2 2 0 0 1 .5-1.34h-18.67Z" fill="#263238"/><path d="m371.39 167.63.17-.12.02-.02v-.06l-.02-.02h-12.78c-.4 0-.78.18-1.06.48-.28.31-.44.73-.44 1.16v2.8c0 .43.16.84.44 1.15.28.31.66.49 1.06.49h12.75l.02-.03v-.06l-.02-.02-.17-.12.03-5.63Z" fill="#8C8C8C"/><path d="M371.53 173.76h-12.75c-.47 0-.92-.2-1.25-.57a2.03 2.03 0 0 1-.52-1.36v-2.8c0-.5.19-1 .52-1.36a1.7 1.7 0 0 1 1.25-.57h12.75a.3.3 0 0 1 .2.07c.05.04.09.1.1.18.03.07.03.15 0 .22a.33.33 0 0 1-.12.17l-.05.03v5.3l.05.04c.06.04.1.1.12.17.03.07.03.15 0 .22a.35.35 0 0 1-.1.19.3.3 0 0 1-.2.07Zm-12.75-6.07c-.32 0-.64.14-.87.4-.23.25-.36.59-.36.94v2.8c0 .35.13.7.36.95.23.25.54.4.87.4h12.36v-5.5h-12.36Z" fill="#263238"/><path d="M359.9 167.63h11.49v5.63H359.9c-.62 0-1.22-.27-1.66-.75a2.68 2.68 0 0 1-.68-1.8v-.53c0-.68.25-1.33.68-1.8a2.24 2.24 0 0 1 1.66-.75Z" fill="white"/><path d="M371.39 173.4h-11.5c-.65 0-1.27-.3-1.74-.8-.46-.5-.72-1.2-.72-1.91v-.52c0-.71.26-1.4.72-1.9.47-.51 1.1-.8 1.75-.8h11.49c.04 0 .07.01.1.04.02.03.03.07.03.1v5.63c0 .04-.01.08-.04.1a.13.13 0 0 1-.1.05Zm-11.5-5.64c-.57 0-1.13.26-1.55.71a2.53 2.53 0 0 0-.64 1.7v.52c0 .64.23 1.25.64 1.7.42.45.98.7 1.56.7h11.33v-5.33H359.9Z" fill="#263238"/><path d="M362.97 168.8h-4.98a.13.13 0 0 1-.09-.03.15.15 0 0 1 0-.21.13.13 0 0 1 .1-.04h4.97c.03 0 .07.01.1.04a.16.16 0 0 1 0 .2.13.13 0 0 1-.1.05ZM366.28 169.31h-4.64a.13.13 0 0 1-.1-.04.16.16 0 0 1-.03-.1c0-.04.01-.08.04-.1a.13.13 0 0 1 .1-.05h4.63c.04 0 .07.01.1.04.02.03.04.06.04.1 0 .04-.02.08-.04.1a.13.13 0 0 1-.1.05ZM364.47 169.95h-4.45a.13.13 0 0 1-.1-.04.15.15 0 0 1-.03-.1c0-.04.01-.08.04-.1a.13.13 0 0 1 .1-.05h4.44c.03 0 .07.01.1.04.02.03.03.07.03.1 0 .04-.01.08-.04.11a.13.13 0 0 1-.1.04ZM361.02 171.89h-2.92a.13.13 0 0 1-.1-.04.15.15 0 0 1-.03-.1c0-.05.01-.08.04-.11a.13.13 0 0 1 .1-.04h2.91c.04 0 .07.01.1.04.02.03.04.06.04.1 0 .04-.02.08-.04.1a.13.13 0 0 1-.1.05ZM364.63 172.34h-4.36a.13.13 0 0 1-.1-.04.16.16 0 0 1-.03-.1c0-.04.01-.08.04-.1a.13.13 0 0 1 .1-.05h4.35c.04 0 .07.01.1.04.02.03.04.07.04.1 0 .05-.02.08-.04.11a.13.13 0 0 1-.1.04ZM360.89 172.77h-1.17a.13.13 0 0 1-.1-.05.15.15 0 0 1 0-.2.13.13 0 0 1 .1-.05h1.17c.03 0 .07.02.1.05.02.02.03.06.03.1 0 .04-.01.08-.04.1a.13.13 0 0 1-.1.05ZM370.44 171.47h-7.4a.13.13 0 0 1-.09-.05.15.15 0 0 1-.04-.1c0-.04.01-.08.04-.1a.13.13 0 0 1 .1-.05h7.39c.04 0 .07.02.1.05.02.02.03.06.03.1 0 .04-.01.08-.03.1a.13.13 0 0 1-.1.05ZM371.3 170.16h-1.52a.13.13 0 0 1-.1-.04.15.15 0 0 1-.04-.1c0-.04.01-.08.04-.1a.13.13 0 0 1 .1-.05h1.52c.04 0 .07.02.1.04.02.03.04.07.04.1 0 .05-.02.08-.04.11a.13.13 0 0 1-.1.04ZM371.05 169.74h-1.53a.13.13 0 0 1-.1-.04.15.15 0 0 1 0-.2.13.13 0 0 1 .1-.05h1.56c.04 0 .07.01.1.04a.15.15 0 0 1-.07.25h-.06ZM371.05 172.47h-3.89a.13.13 0 0 1-.1-.05.16.16 0 0 1-.03-.1c0-.04.01-.08.04-.1a.13.13 0 0 1 .1-.05h3.88c.04 0 .07.02.1.05.03.02.04.06.04.1 0 .04-.01.08-.04.1a.13.13 0 0 1-.1.05ZM340.78 171.87v-3.03h1.08v.32h-.7v1h.55v.3h-.54v1.1h.7v.31h-1.1ZM342.17 171.87v-3.03h.27l.78 2.01v-2.01h.33v3.03h-.25l-.8-2.07v2.07h-.33ZM344.64 171.9a.65.65 0 0 1-.41-.12.67.67 0 0 1-.23-.35 1.84 1.84 0 0 1-.07-.55v-1.01c0-.2.02-.4.07-.6a.62.62 0 0 1 .22-.35c.15-.09.31-.13.48-.1a.8.8 0 0 1 .42.09c.1.06.19.16.23.29.05.16.07.33.07.5v.1h-.37V169.4a.32.32 0 0 0-.1-.19.36.36 0 0 0-.22-.06.34.34 0 0 0-.25.08.44.44 0 0 0-.1.24V170.9c0 .13 0 .25.03.37 0 .09.05.17.11.22a.3.3 0 0 0 .23.07c.09 0 .17-.03.23-.09s.1-.14.12-.22l.03-.39v-.2h-.43v-.3h.7v1.5h-.24l-.04-.35c-.03.1-.1.2-.17.28a.47.47 0 0 1-.3.1ZM345.81 171.87v-3.03h.4v2.73h.7v.3h-1.1ZM347.2 171.87v-3.03h.38v3.03h-.38ZM348.68 171.9a.66.66 0 0 1-.64-.42c-.06-.14-.1-.3-.1-.46l.35-.1c0 .1.02.2.04.31.02.1.06.18.12.25a.3.3 0 0 0 .23.1l.12-.03a.3.3 0 0 0 .17-.2l.02-.13a.62.62 0 0 0-.09-.34 2.18 2.18 0 0 0-.21-.25l-.47-.45a.86.86 0 0 1-.2-.28 1.04 1.04 0 0 1-.07-.38c0-.1.01-.2.04-.28a.73.73 0 0 1 .13-.24.64.64 0 0 1 .49-.18c.1 0 .19 0 .28.04.08.03.15.08.21.14.06.08.1.16.14.25.03.11.05.23.06.34l-.33.1c0-.09-.02-.18-.04-.27a.4.4 0 0 0-.1-.2.3.3 0 0 0-.22-.08.31.31 0 0 0-.23.08.36.36 0 0 0-.08.26c0 .07.01.15.04.22.04.07.08.13.14.18l.47.46c.1.1.2.22.28.35.08.15.12.32.11.5 0 .13-.02.26-.08.38a.61.61 0 0 1-.23.25.71.71 0 0 1-.35.08ZM349.65 171.87v-3.03h.39v1.3h.7v-1.3h.4v3.03h-.4v-1.42h-.7v1.42h-.4Z" fill="#263238"/><path d="M297.78 180.25h42.75v-1.89h-42.75v1.89Z" fill="white"/><path d="M340.52 180.54h-42.74a.26.26 0 0 1-.2-.08.32.32 0 0 1-.07-.21v-1.88c0-.08.03-.16.08-.21a.26.26 0 0 1 .19-.09h42.75c.07 0 .14.03.19.09a.3.3 0 0 1 .07.2v1.89c0 .07-.02.15-.07.2a.26.26 0 0 1-.2.1Zm-42.47-.59h42.2v-1.29h-42.2v1.3Z" fill="#263238"/><path d="M285.73 180.25h42.75v-1.89h-42.75v1.89Z" fill="white"/><path d="M328.47 180.54h-42.74a.26.26 0 0 1-.2-.08.31.31 0 0 1-.07-.21v-1.88a.3.3 0 0 1 .08-.21.26.26 0 0 1 .19-.09h42.74c.08 0 .14.03.2.09a.3.3 0 0 1 .07.2v1.89c0 .07-.02.15-.07.2a.26.26 0 0 1-.2.1Zm-42.47-.59h42.2v-1.29H286v1.3Z" fill="#263238"/><path d="M290.5 175.02h35.64l-3.84-29.7h-35.65l3.84 29.7Z" fill="white"/><path d="M326.14 175.32h-35.65a.26.26 0 0 1-.17-.07.3.3 0 0 1-.1-.19l-3.84-29.7a.33.33 0 0 1 .07-.23.28.28 0 0 1 .2-.1h35.62c.06 0 .13.03.17.08a.3.3 0 0 1 .1.18l3.84 29.7a.33.33 0 0 1-.06.23.3.3 0 0 1-.18.1Zm-35.41-.6h35.07l-3.77-29.1h-35.08l3.78 29.1Z" fill="#263238"/><path d="M289.02 175.02h35.64l-3.84-29.7h-35.64l3.84 29.7Z" fill="#263238"/><path d="M324.67 175.32h-35.62a.26.26 0 0 1-.18-.07.3.3 0 0 1-.1-.19l-3.84-29.7.01-.12a.31.31 0 0 1 .06-.1.27.27 0 0 1 .2-.1h35.65c.06 0 .13.02.17.07.05.04.08.1.1.18l3.84 29.7-.01.12a.3.3 0 0 1-.06.1.27.27 0 0 1-.22.1Zm-35.42-.6h35.08l-3.78-29.1h-35.08l3.78 29.1Z" fill="#263238"/><path d="m299.94 161.22-3.58 19.03h9.18l3.58-19.03h-9.18Zm6.24 5.65a.36.36 0 0 1-.12.2.3.3 0 0 1-.2.07l-5.21-.05a.32.32 0 0 1-.25-.14.37.37 0 0 1-.06-.3l.47-2.14a.35.35 0 0 1 .12-.2.3.3 0 0 1 .2-.07l5.2.05c.06 0 .1.02.15.04a.37.37 0 0 1 .17.4l-.47 2.14Z" fill="white"/><path d="M305.56 180.54h-9.18a.25.25 0 0 1-.2-.1.3.3 0 0 1-.06-.25l3.55-19.03a.3.3 0 0 1 .1-.17c.05-.05.1-.07.17-.07h9.2c.04 0 .08.01.11.03.04.02.07.04.1.08l.05.11v.13l-3.56 19.04a.29.29 0 0 1-.1.17.25.25 0 0 1-.18.06Zm-8.87-.59h8.64l3.47-18.44h-8.64l-3.47 18.44Zm9.18-12.52-5.21-.05a.56.56 0 0 1-.26-.07.67.67 0 0 1-.31-.73l.47-2.14c.03-.14.1-.27.2-.36.11-.09.25-.14.38-.13l5.2.05c.1 0 .19.02.27.06a.69.69 0 0 1 .32.44v.3l-.48 2.14a.65.65 0 0 1-.21.36.56.56 0 0 1-.37.13Zm-4.75-2.9-.03.02a.05.05 0 0 0-.02.03l-.47 2.13.05.38v-.3l5.2.05h.04l.02-.04.47-2.11-.05-.37v.3l-5.21-.06v-.02Z" fill="#263238"/><path d="m374.7 191.07-1.84 76.15c-.01.48-.2.94-.51 1.28-.32.34-.75.53-1.2.53-.44 0-.87-.2-1.19-.54-.32-.34-.5-.8-.5-1.3l-.92-76.12h6.17Z" fill="white"/><path d="M371.14 269.32a1.9 1.9 0 0 1-1.39-.62c-.37-.4-.58-.94-.58-1.5l-.92-76.12c0-.04 0-.08.02-.11a.28.28 0 0 1 .06-.1.26.26 0 0 1 .2-.09h6.16c.04 0 .07 0 .1.02l.1.07c.04.06.07.13.07.21l-1.84 76.15c-.02.56-.23 1.1-.6 1.49-.37.39-.86.6-1.38.6Zm-2.35-77.95.91 75.82c0 .42.16.81.43 1.1.26.3.63.47 1.01.47s.75-.17 1.02-.46c.26-.3.42-.7.42-1.1l1.84-75.85-5.63.02Z" fill="#263238"/><path d="m352.17 191.07-1.86 76.15c0 .48-.2.94-.51 1.28-.32.34-.75.53-1.19.53-.45 0-.88-.2-1.2-.54-.31-.34-.5-.8-.5-1.3l-.92-76.12h6.18Z" fill="white"/><path d="M348.61 269.32a1.9 1.9 0 0 1-1.38-.62c-.37-.4-.59-.94-.6-1.5l-.9-76.12a.3.3 0 0 1 .07-.21.25.25 0 0 1 .19-.09h6.18a.25.25 0 0 1 .19.09c.05.06.08.13.08.21l-1.85 76.15c-.01.56-.23 1.1-.6 1.49-.37.39-.86.6-1.38.6Zm-2.34-77.95.9 75.82c0 .42.16.81.43 1.1.26.3.63.47 1.01.47s.75-.17 1.02-.46c.26-.3.42-.7.42-1.1l1.84-75.85-5.62.02Z" fill="#263238"/><path d="m296.42 191.07-1.85 76.15c-.01.48-.2.95-.51 1.28-.32.34-.75.53-1.2.53-.44 0-.87-.2-1.19-.54-.32-.34-.5-.8-.5-1.3l-.92-76.12h6.17Z" fill="white"/><path d="M292.89 269.32a1.9 1.9 0 0 1-1.38-.62c-.37-.4-.59-.94-.6-1.5l-.9-76.12a.3.3 0 0 1 .07-.21.24.24 0 0 1 .19-.09h6.18c.07 0 .14.03.19.09.05.06.07.13.08.21l-1.86 76.15c0 .56-.22 1.1-.59 1.49-.37.39-.87.6-1.38.6Zm-2.34-77.95.9 75.82c.01.41.17.8.43 1.1a1.36 1.36 0 0 0 2.01.01c.28-.3.43-.68.44-1.1l1.8-75.83h-5.58Z" fill="#263238"/><path d="m273.88 191.07-1.85 76.15c-.01.48-.2.94-.52 1.28-.31.34-.74.53-1.19.53-.44 0-.87-.2-1.2-.54-.31-.34-.5-.8-.5-1.3l-.91-76.12h6.17Z" fill="white"/><path d="M270.32 269.32a1.9 1.9 0 0 1-1.38-.62c-.37-.4-.58-.94-.59-1.5l-.91-76.12c0-.08.02-.15.07-.21a.26.26 0 0 1 .2-.09h6.17c.03 0 .07 0 .1.02l.09.07c.03.03.04.06.06.1l.02.11-1.85 76.15c-.01.56-.23 1.1-.6 1.49-.36.39-.86.6-1.38.6Zm-2.34-77.95.9 75.82c0 .42.16.81.43 1.1.27.3.63.47 1.01.47.39 0 .75-.17 1.02-.46.27-.3.42-.7.42-1.1l1.84-75.85-5.62.02Z" fill="#263238"/><path d="M265.65 260.45H376.9v-77.7H265.65v77.7Z" fill="#CFCFCF"/><path d="M376.9 260.75H265.65a.27.27 0 0 1-.2-.08.31.31 0 0 1-.07-.21v-77.7a.3.3 0 0 1 .07-.2.26.26 0 0 1 .2-.1H376.9c.08 0 .15.04.2.1a.3.3 0 0 1 .07.2v77.73c0 .07-.04.14-.09.19a.27.27 0 0 1-.18.07Zm-110.98-.58h110.71v-77.12H265.9l.02 77.12Z" fill="#263238"/><path d="M345.83 260.45h31.07v-77.7h-31.07v77.7Z" fill="#CFCFCF"/><path d="M376.9 260.75h-31.07a.27.27 0 0 1-.2-.08.31.31 0 0 1-.07-.21v-77.7a.3.3 0 0 1 .07-.2.26.26 0 0 1 .2-.1h31.07c.08 0 .14.04.2.1a.3.3 0 0 1 .07.2v77.73c0 .07-.04.14-.09.19a.27.27 0 0 1-.18.07Zm-30.8-.58h30.53v-77.12H346.1v77.12Z" fill="#263238"/><path d="M265.65 187.31H376.9v-4.56H265.65v4.56Z" fill="#263238"/><path d="M376.9 187.6H265.65a.26.26 0 0 1-.2-.08.3.3 0 0 1-.07-.2v-4.56a.3.3 0 0 1 .07-.2.26.26 0 0 1 .2-.1H376.9c.08 0 .15.04.2.1a.3.3 0 0 1 .07.2v4.55a.3.3 0 0 1-.07.21.26.26 0 0 1-.2.09Zm-110.98-.58h110.71v-3.97H265.9l.02 3.97Z" fill="#263238"/><path d="M263.93 184.64h114.7v-5.02h-114.7v5.02Z" fill="#CFCFCF"/><path d="M378.63 184.93h-114.7a.26.26 0 0 1-.2-.08.3.3 0 0 1-.08-.21v-5.02a.3.3 0 0 1 .08-.2.26.26 0 0 1 .2-.1h114.7c.07 0 .14.04.19.1a.3.3 0 0 1 .08.2v5.02a.3.3 0 0 1-.08.2.26.26 0 0 1-.2.1Zm-114.41-.59h114.14v-4.42H264.19l.03 4.43Z" fill="#263238"/><path d="M263.92 184.64h79.84v-5.02h-79.84v5.02Z" fill="#CFCFCF"/><path d="M343.76 184.93h-79.83a.26.26 0 0 1-.2-.08.3.3 0 0 1-.08-.21v-5.02a.3.3 0 0 1 .08-.2.26.26 0 0 1 .2-.1h79.83a.3.3 0 0 1 .27.3v5.02a.3.3 0 0 1-.08.2.26.26 0 0 1-.19.1Zm-79.57-.59h79.3v-4.42h-79.3v4.43Z" fill="#263238"/><path d="M186.94 152.25s0-2.79-3.58-6.68c-3.57-3.9-5.86-6.12-5.86-6.12s-1.78 6.4 1.52 10.29a64.78 64.78 0 0 0 7.9 7.51l.02-5ZM181.75 169.62s0-2.79-3.56-6.68c-3.57-3.9-5.87-6.12-5.87-6.12s-1.78 6.4 1.53 10.3a64.77 64.77 0 0 0 7.9 7.5v-5Z" fill="#CFCFCF"/><path d="M186.7 156.98s.28-2.77 4.2-6.22c3.94-3.46 6.43-5.41 6.43-5.41s1.15 6.56-2.52 10.05a62.77 62.77 0 0 1-8.59 6.56l.49-4.98ZM180.45 177.5s.54-2.72 4.78-5.72c4.23-2.99 6.9-4.64 6.9-4.64s.54 6.66-3.47 9.72a61.65 61.65 0 0 1-9.17 5.54l.96-4.9ZM181.63 199.87s0-2.78 3.57-6.68c3.56-3.9 5.86-6.13 5.86-6.13s1.78 6.4-1.53 10.3a64.7 64.7 0 0 1-7.9 7.5v-5Z" fill="#CFCFCF"/><path d="M181.57 205.32s.36-2.76-2.67-7.16c-3.02-4.4-5-6.97-5-6.97s-2.6 6.05.17 10.42a66.97 66.97 0 0 0 6.85 8.66l.65-4.95ZM178.05 221.5s0-2.77 3.57-6.67 5.86-6.12 5.86-6.12 1.79 6.4-1.53 10.3a64.74 64.74 0 0 1-7.9 7.5v-5ZM180.43 236.18s-.64-2.7 1.9-7.45c2.55-4.75 4.24-7.51 4.24-7.51s3.24 5.7.91 10.38a69.02 69.02 0 0 1-5.9 9.45l-1.15-4.87Z" fill="#CFCFCF"/><path d="M183.93 249.75a.26.26 0 0 1-.16-.06.3.3 0 0 1-.1-.15c-.05-.16-4.95-16.76-5.89-22.87-.54-3.62.34-6.92 1.37-10.74a65.76 65.76 0 0 0 2.07-9.86c.54-4.57-.2-9.12-.9-13.52-.7-4.39-1.37-8.53-.66-12.17.69-3.45 1.82-6.36 3.02-9.42 1.28-3.3 2.6-6.7 3.33-10.83a84.31 84.31 0 0 0 1-8.72.27.27 0 0 1 .16-.15.26.26 0 0 1 .29.09c.05.06.07.14.07.21-.18 2.9-.5 5.8-.96 8.67-.74 4.2-2.08 7.65-3.37 10.94-1.2 3.06-2.31 5.94-2.98 9.33-.7 3.53-.04 7.62.66 11.95.71 4.44 1.45 9.03.9 13.69a66.91 66.91 0 0 1-2.08 9.95c-1.02 3.76-1.9 7-1.36 10.48.93 6.07 5.82 22.63 5.87 22.8.01.03.02.07.01.11a.3.3 0 0 1-.1.2.26.26 0 0 1-.08.05l-.11.02Z" fill="#263238"/><path d="M186.68 159.12a.25.25 0 0 1-.12-.03.29.29 0 0 1-.1-.08.32.32 0 0 1 .05-.42l3.85-3.21a.25.25 0 0 1 .2-.05c.06.01.12.05.16.11a.31.31 0 0 1-.03.4l-3.85 3.23a.25.25 0 0 1-.16.05ZM186.85 155.41a.25.25 0 0 1-.13-.03.29.29 0 0 1-.1-.11l-1.62-3.13a.32.32 0 0 1-.03-.22.29.29 0 0 1 .13-.18.25.25 0 0 1 .2-.03c.07.02.13.07.17.14l1.62 3.13c.03.07.04.15.02.22a.3.3 0 0 1-.13.18.25.25 0 0 1-.13.03ZM180.15 180.4a.26.26 0 0 1-.13-.03.3.3 0 0 1-.1-.09.32.32 0 0 1-.04-.22.3.3 0 0 1 .1-.19c.04 0 3.24-2.67 6.53-5.27a.25.25 0 0 1 .2-.05c.07 0 .14.05.18.11.04.07.06.15.05.22a.3.3 0 0 1-.1.2c-3.28 2.6-6.48 5.24-6.53 5.26a.25.25 0 0 1-.16.06ZM181.75 174.92a.25.25 0 0 1-.14-.05.3.3 0 0 1-.1-.11c0-.06-2.7-5.75-5.68-9.49a.31.31 0 0 1-.08-.2c0-.08.03-.16.08-.22a.26.26 0 0 1 .2-.07c.07 0 .13.04.18.1 3.03 3.8 5.74 9.55 5.76 9.6.04.08.04.16.02.23a.3.3 0 0 1-.13.18.34.34 0 0 1-.1.03ZM181.75 204.14a.25.25 0 0 1-.13-.04.3.3 0 0 1-.14-.25c0-.04.01-.1.04-.14a44.05 44.05 0 0 1 7.02-10.23.26.26 0 0 1 .1-.02c.04 0 .07 0 .1.02l.1.07a.32.32 0 0 1 .07.2c0 .05 0 .09-.02.12a43.37 43.37 0 0 0-6.99 10.21.26.26 0 0 1-.15.06ZM181.13 208.02a.26.26 0 0 1-.15-.05.29.29 0 0 1-.1-.13 51.22 51.22 0 0 0-5.64-10.58.31.31 0 0 1 .05-.4.26.26 0 0 1 .2-.06c.07 0 .14.05.18.11 0 0 .3.43 2.16 3.43a51.1 51.1 0 0 1 3.53 7.39.29.29 0 0 1-.07.2.26.26 0 0 1-.1.07.2.2 0 0 1-.06.02ZM178.05 226.91h-.1a.29.29 0 0 1-.15-.15.33.33 0 0 1 0-.23c.82-2.24 1.8-4.4 2.92-6.49a41.6 41.6 0 0 1 3.78-5.41.26.26 0 0 1 .38-.02.3.3 0 0 1 .09.2c0 .09-.03.16-.07.22a40.86 40.86 0 0 0-3.73 5.3 48.55 48.55 0 0 0-2.96 6.51.26.26 0 0 1-.16.07ZM181.6 241.32a.26.26 0 0 1-.18-.08.31.31 0 0 1-.1-.18c-.2-2.17.15-4.36 1-6.33 1.08-2.25 2.22-5 3-6.84l.48-1.18a.28.28 0 0 1 .16-.15.25.25 0 0 1 .2.01c.07.03.12.1.14.17.03.07.02.16 0 .23l-.5 1.17c-.77 1.84-1.93 4.6-3 6.86a12.7 12.7 0 0 0-.95 6.1.3.3 0 0 1-.13.18.26.26 0 0 1-.09.04h-.03Z" fill="#263238"/><path d="M163.56 189.42s-.27-1.77 1.58-4.6c1.85-2.84 3.06-4.54 3.06-4.54s1.76 3.8.07 6.64c-1.26 2-2.67 3.9-4.21 5.65l-.5-3.15ZM168.54 199.69s-.28-1.77 1.57-4.62c1.85-2.84 3.07-4.52 3.07-4.52s1.76 3.8.06 6.63c-1.25 2-2.66 3.9-4.2 5.64l-.5-3.13Z" fill="#CFCFCF"/><path d="M164.18 192.37s-.45-1.7-3.24-3.4a89.38 89.38 0 0 0-4.57-2.64s-.07 4.25 2.58 6a38.4 38.4 0 0 0 6.04 3.09l-.81-3.05ZM170.14 204.47s-.6-1.64-3.56-3.01c-2.96-1.38-4.8-2.1-4.8-2.1s.35 4.25 3.15 5.68c2.03.99 4.14 1.79 6.3 2.39l-1.09-2.96ZM171.63 218.64s-.28-1.77-2.9-3.76c-2.63-2-4.29-3.15-4.29-3.15s-.48 4.23 1.98 6.27c1.8 1.44 3.71 2.72 5.7 3.8l-.49-3.16Z" fill="#CFCFCF"/><path d="M172.2 222.06s-.5-1.69.97-4.81c1.46-3.12 2.44-4.96 2.44-4.96s2.24 3.49.93 6.56a44.71 44.71 0 0 1-3.43 6.24l-.9-3.03ZM176.69 236.13s.19-1.77 2.7-3.94c2.5-2.17 4.1-3.4 4.1-3.4s.7 4.18-1.65 6.38a39.47 39.47 0 0 1-5.5 4.12l.35-3.16ZM176.02 231.82s-.27-1.77-2.9-3.77c-2.62-2-4.29-3.14-4.29-3.14s-.48 4.22 1.99 6.27c1.8 1.43 3.71 2.7 5.7 3.78l-.5-3.14ZM175.99 241.27s.13-1.77-1.93-4.45c-2.07-2.67-3.42-4.22-3.42-4.22s-1.45 3.95.46 6.62a41.96 41.96 0 0 0 4.64 5.22l.25-3.17Z" fill="#CFCFCF"/><path d="M175.12 250.3h-.04a.25.25 0 0 1-.1-.03.3.3 0 0 1-.12-.18.31.31 0 0 1 0-.12c0-.1 1.43-11.06 1.4-14.97 0-2.22-.84-4.05-1.88-6.36a41.37 41.37 0 0 1-2.3-6.01c-.81-2.88-.8-5.85-.8-8.72 0-2.88 0-5.42-.77-7.54a33.07 33.07 0 0 0-2.79-5.48 34.65 34.65 0 0 1-3.23-6.47 54.88 54.88 0 0 1-1.49-5.45.31.31 0 0 1 .1-.2.28.28 0 0 1 .1-.05h.1a.27.27 0 0 1 .19.11l.04.1c.4 1.8.89 3.55 1.46 5.27a34.1 34.1 0 0 0 3.16 6.38 33.26 33.26 0 0 1 2.84 5.58c.82 2.22.81 4.9.8 7.75 0 2.85 0 5.76.78 8.55.6 2.04 1.37 4.02 2.28 5.92 1.03 2.29 1.92 4.26 1.93 6.62 0 3.95-1.36 14.6-1.41 15.06a.3.3 0 0 1-.09.17.26.26 0 0 1-.16.07Z" fill="#263238"/><path d="M164.38 193.8a.26.26 0 0 1-.13-.03l-2.73-1.57a.26.26 0 0 1-.09-.07.3.3 0 0 1-.07-.22l.03-.12a.3.3 0 0 1 .08-.09.25.25 0 0 1 .31-.02l2.73 1.56c.06.04.1.1.13.18.02.07.01.15-.02.22a.28.28 0 0 1-.1.12.25.25 0 0 1-.14.04ZM163.9 191.5h-.08a.28.28 0 0 1-.16-.16.33.33 0 0 1-.01-.22l.7-2.15a.3.3 0 0 1 .13-.18.25.25 0 0 1 .22-.02.28.28 0 0 1 .16.16.32.32 0 0 1 0 .24l-.7 2.15a.3.3 0 0 1-.1.13.27.27 0 0 1-.15.04ZM170.6 206.37a.24.24 0 0 1-.13-.04s-2.28-1.26-4.61-2.52a.28.28 0 0 1-.14-.17.3.3 0 0 1-.01-.12.3.3 0 0 1 .08-.2.27.27 0 0 1 .2-.07c.04 0 .07.01.1.03 2.34 1.26 4.62 2.53 4.62 2.53.06.03.1.08.13.14.03.06.03.13.02.19a.3.3 0 0 1-.1.16.26.26 0 0 1-.17.07ZM169.04 203.12h-.08a.26.26 0 0 1-.1-.06.3.3 0 0 1-.1-.2c0-.03 0-.07.02-.1a36.8 36.8 0 0 1 2.75-6.84.26.26 0 0 1 .1-.06.25.25 0 0 1 .22.03.3.3 0 0 1 .12.2.3.3 0 0 1 0 .12 37.58 37.58 0 0 0-2.66 6.7.3.3 0 0 1-.1.16.25.25 0 0 1-.17.05ZM171.94 221.43a.26.26 0 0 1-.21-.12 26.56 26.56 0 0 0-5.33-5.5.31.31 0 0 1 0-.32.28.28 0 0 1 .17-.13.26.26 0 0 1 .2.05 27.01 27.01 0 0 1 5.4 5.55c.05.06.06.14.05.22a.3.3 0 0 1-.1.2.25.25 0 0 1-.18.05ZM172.72 223.8h-.06a.27.27 0 0 1-.17-.13.3.3 0 0 1-.03-.22 33.2 33.2 0 0 1 1.48-5c.87-2.1 1.01-2.4 1.02-2.4a.28.28 0 0 1 .16-.15.25.25 0 0 1 .2.01c.06.04.11.1.13.18.03.07.02.15-.01.22 0 0-.15.32-1 2.36a33.84 33.84 0 0 0-1.46 4.89.3.3 0 0 1-.08.17.26.26 0 0 1-.18.08ZM176.41 238.3a.28.28 0 0 1-.24-.17.32.32 0 0 1-.02-.17c0-.05.02-.1.05-.15.9-1.22 1.9-2.35 2.99-3.38a15.84 15.84 0 0 0 1.96-1.83.25.25 0 0 1 .3.07.3.3 0 0 1 .07.2c0 .04 0 .08-.02.11a15.91 15.91 0 0 1-2 1.94c-1.05 1-2.02 2.1-2.9 3.28a.27.27 0 0 1-.08.07.24.24 0 0 1-.1.03ZM176.54 235.29a.25.25 0 0 1-.14-.04.28.28 0 0 1-.1-.1 29.33 29.33 0 0 0-2.43-3.63 25.38 25.38 0 0 0-2.92-2.97.31.31 0 0 1-.03-.23c0-.04.02-.08.04-.11a.27.27 0 0 1 .19-.11.25.25 0 0 1 .2.07c1.05.89 2.03 1.88 2.93 2.94a28.96 28.96 0 0 1 2.52 3.82.32.32 0 0 1-.26.36ZM175.74 244.74a.26.26 0 0 1-.18-.09.31.31 0 0 1-.09-.2 7.8 7.8 0 0 0-1.16-3.57c-.9-1.3-1.9-2.88-2.56-3.94l-.43-.68a.3.3 0 0 1-.04-.1.32.32 0 0 1 .03-.23.27.27 0 0 1 .17-.14.25.25 0 0 1 .21.05c.03.02.06.05.07.08l.44.69c.66 1.04 1.65 2.63 2.54 3.9a8.32 8.32 0 0 1 1.27 3.92c0 .08-.02.16-.07.21a.26.26 0 0 1-.18.1h-.02ZM187.65 269.03h-16.28c-.32 0-.63-.14-.85-.39a1.38 1.38 0 0 1-.36-.93l-2.33-19.63h23.35l-2.34 19.66c0 .34-.13.66-.35.9-.23.25-.53.38-.84.39ZM199.78 89.8l-3.14-6.85a3.4 3.4 0 0 0 1.41-1.33c.34-.58.53-1.26.53-1.95V64.58c0-.95-.35-1.87-.97-2.55a3.17 3.17 0 0 0-2.34-1.06H171c-.88 0-1.72.39-2.34 1.06-.62.68-.96 1.6-.96 2.55v15.07c0 .96.34 1.88.96 2.55a3.18 3.18 0 0 0 2.34 1.06h18.42l10.37 6.54Z" fill="#263238"/><path d="M199.78 90.1a.23.23 0 0 1-.14-.05l-10.32-6.48h-18.35c-.95 0-1.86-.4-2.53-1.14a4.1 4.1 0 0 1-1.05-2.76V64.58a4.1 4.1 0 0 1 1.05-2.76 3.44 3.44 0 0 1 2.53-1.14h24.29c.47 0 .93.1 1.37.3.43.19.83.48 1.16.84a4.22 4.22 0 0 1 1.05 2.76v15.07c0 .7-.17 1.38-.5 1.98-.32.6-.78 1.1-1.34 1.43l3.02 6.59a.33.33 0 0 1-.06.34.25.25 0 0 1-.18.1Zm-28.8-28.81c-.8 0-1.58.34-2.14.96-.57.62-.9 1.46-.9 2.33v15.07c0 .88.32 1.72.89 2.34.57.63 1.34.98 2.15.98h18.41c.05 0 .1 0 .14.03l9.6 6.04-2.73-5.97a.35.35 0 0 1 .06-.33.26.26 0 0 1 .09-.07c.52-.27.97-.7 1.29-1.23.31-.53.48-1.15.48-1.79V64.58c0-.87-.32-1.72-.89-2.34a2.92 2.92 0 0 0-2.14-.97l-24.31.02Z" fill="#263238"/><path d="m201.26 88.5-3.14-6.84a3.4 3.4 0 0 0 1.4-1.33c.35-.58.53-1.26.53-1.95V63.3c0-.96-.34-1.87-.96-2.55a3.17 3.17 0 0 0-2.34-1.06h-24.28c-.88 0-1.72.38-2.34 1.06-.62.68-.97 1.6-.97 2.55v15.07c0 .96.35 1.87.97 2.55a3.17 3.17 0 0 0 2.34 1.06h18.42l10.37 6.52Z" fill="white"/><path d="M201.26 88.8a.22.22 0 0 1-.14-.04l-10.32-6.48h-18.35c-.95 0-1.85-.41-2.52-1.14a4.1 4.1 0 0 1-1.05-2.76V63.31a4.1 4.1 0 0 1 1.05-2.76 3.44 3.44 0 0 1 2.52-1.14h24.29c.94 0 1.85.41 2.52 1.14a4.1 4.1 0 0 1 1.05 2.76v15.07c0 .7-.18 1.38-.5 1.98-.32.6-.79 1.1-1.35 1.43l3.02 6.58a.31.31 0 0 1-.05.35.27.27 0 0 1-.17.08ZM172.45 60c-.8 0-1.58.35-2.14.97a3.47 3.47 0 0 0-.9 2.34v15.07c0 .88.33 1.72.9 2.34.56.62 1.34.97 2.14.97h18.44c.05 0 .1.02.14.04l9.57 6.04-2.7-5.97a.34.34 0 0 1 0-.24.3.3 0 0 1 .06-.1.27.27 0 0 1 .1-.07c.52-.26.97-.69 1.28-1.22.32-.53.49-1.16.49-1.79V63.31c0-.88-.32-1.72-.89-2.34a2.92 2.92 0 0 0-2.15-.97h-24.34Z" fill="#263238"/><path d="M179.62 70.9c0-.28-.07-.55-.21-.79a1.33 1.33 0 0 0-.59-.52 1.2 1.2 0 0 0-.75-.08c-.25.05-.48.19-.66.39a1.53 1.53 0 0 0-.28 1.54c.1.26.27.48.48.63a1.22 1.22 0 0 0 1.63-.17c.25-.27.38-.63.38-1ZM186.03 70.9c0-.28-.07-.55-.21-.79a1.33 1.33 0 0 0-.58-.52 1.2 1.2 0 0 0-.75-.08c-.25.05-.49.19-.67.38a1.54 1.54 0 0 0-.28 1.54c.1.26.26.48.48.64a1.22 1.22 0 0 0 1.63-.17 1.52 1.52 0 0 0 .38-1ZM192.46 70.9c0-.28-.08-.55-.22-.78a1.33 1.33 0 0 0-.58-.52c-.23-.1-.5-.13-.74-.08-.25.06-.48.19-.66.39a1.52 1.52 0 0 0-.28 1.53c.1.26.26.48.47.63a1.21 1.21 0 0 0 1.63-.17c.24-.27.38-.63.38-1ZM217.19 155.35a239.77 239.77 0 0 0-1.39 24.5c0 12.64-.38 32 .26 37.79 3.24 29.68 3.78 34.03 4.86 42.17.07.52.27 1 .59 1.4.31.4.73.7 1.19.85a2.33 2.33 0 0 0 2.19-.39c.3-.24.57-.56.76-.92.18-.37.3-.77.31-1.2l3.78-45.3 2.27-36.16s2.16 35.24 3.1 41.55c.78 5.38 6.89 31.96 8.5 39.1.16.75.5 1.44.99 1.99.49.56 1.1.95 1.78 1.15.15.05.3.07.45.08.63 0 1.25-1.5 1.6-2.48.17-.49.25-1 .26-1.53l.36-39.54.33-44.87s1.34-10 .67-14.47c-.67-4.46-32.86-3.72-32.86-3.72Z" fill="#263238"/><path d="M223.43 262.47c-.27 0-.54-.05-.8-.13a2.8 2.8 0 0 1-1.32-.94 3.2 3.2 0 0 1-.66-1.55c-1.08-7.95-1.56-11.9-4.86-42.18-.47-4.28-.39-15.71-.31-26.78.03-3.96.05-7.7.05-11.03.05-8.2.51-16.4 1.39-24.54a.3.3 0 0 1 .09-.18.26.26 0 0 1 .17-.08c3.32-.08 32.44-.63 33.12 3.96.67 4.47-.61 14.14-.67 14.57l-.32 44.82-.36 39.53c0 .57-.1 1.12-.29 1.64-.92 2.67-1.62 2.67-1.84 2.67-.17 0-.34-.03-.51-.08a4.1 4.1 0 0 1-1.91-1.23 4.67 4.67 0 0 1-1.06-2.13l-.85-3.74c-2.27-9.96-6.98-30.7-7.67-35.38-.72-4.93-2.2-27.68-2.82-37.29l-2 31.88-3.78 45.34a3.2 3.2 0 0 1-.88 2.04 2.7 2.7 0 0 1-1.92.84l.01-.03Zm-6-106.83c-.86 8.04-1.3 16.13-1.36 24.22 0 3.34-.02 7.06-.05 11.03-.08 11.05-.16 22.47.3 26.72 3.31 30.25 3.78 34.21 4.86 42.15.06.42.22.81.45 1.15.24.33.55.6.9.76a2.11 2.11 0 0 0 2.2-.24c.29-.21.52-.5.69-.82.16-.33.26-.7.28-1.07l3.77-45.31 2.28-36.16a.3.3 0 0 1 .08-.2.26.26 0 0 1 .18-.07c.07 0 .14.02.19.08a.3.3 0 0 1 .08.2c0 .35 2.16 35.28 3.09 41.51.68 4.66 5.4 25.38 7.65 35.33l.85 3.74c.15.7.46 1.34.92 1.86.45.52 1.03.9 1.66 1.08.13.04.26.06.38.06.25 0 .75-.59 1.34-2.28.16-.46.25-.95.25-1.44l.36-39.53.33-44.87c0-.14 1.33-10.04.68-14.42-.48-3.08-19.5-3.77-32.36-3.48Z" fill="#263238"/><path d="M231.31 177.37h-.11l-7.18-3.53a.29.29 0 0 1-.14-.17.32.32 0 0 1 0-.22.28.28 0 0 1 .16-.16.25.25 0 0 1 .2 0l7.18 3.54.09.07a.3.3 0 0 1 .07.2.3.3 0 0 1-.03.12.26.26 0 0 1-.1.12.25.25 0 0 1-.14.03ZM248.69 161.2c.37-.2.68-.5.92-.88.23-.37.38-.8.43-1.25v-3.6l6-41.93s-10.96-6.22-14.7-6.88c-2.3-.4-4.6-.67-6.91-.82l-.9.16s-12.01 1.15-13.06 2.46c-.9 1.12-9.35 20.87-11.8 26.62l5.26 11.46c1.72-1.65 3.69-4.01 3.69-4.01s-1.5 13.6-1.35 14.58c.15.98 1.94 1.14 1.94 1.14s29.73 3.44 30.48 2.95Z" fill="white"/><path d="M248.15 161.52c-3.95 0-23.58-2.23-29.96-2.97-.2 0-2-.22-2.2-1.4-.13-.88.9-10.55 1.26-13.76-.71.82-2 2.26-3.15 3.37a.25.25 0 0 1-.34.01.28.28 0 0 1-.08-.1l-5.25-11.46a.33.33 0 0 1 0-.26c3.27-7.65 10.95-25.57 11.84-26.68 1.08-1.36 12-2.44 13.24-2.55l.88-.17h.06c.03 0 3.2.17 6.93.82 3.73.65 14.34 6.65 14.8 6.91.05.03.09.07.11.13.03.06.04.12.03.18l-6.01 41.92v3.54c-.05.5-.21.97-.47 1.38-.26.4-.6.74-1.02.97-.21.08-.44.12-.67.12Zm-30.53-19.28h.11c.05.02.1.06.12.12.03.05.04.11.04.18-.6 5.44-1.47 13.8-1.36 14.49.11.69 1.3.86 1.7.9 11.64 1.35 29.26 3.24 30.34 2.95.33-.18.6-.45.81-.77.21-.33.34-.7.39-1.1v-3.6l5.98-41.76c-1.4-.8-11.05-6.16-14.46-6.76-3.5-.59-6.52-.8-6.85-.81l-.87.16c-4.62.44-12.19 1.47-12.9 2.35-.71.9-6.47 14.18-11.7 26.42l5.04 10.99c1.62-1.6 3.39-3.71 3.4-3.74a.26.26 0 0 1 .2-.02Z" fill="#263238"/><path d="M217.62 142.82h-.05a.26.26 0 0 1-.17-.11.3.3 0 0 1-.05-.22l3.56-24.43c0-.04.02-.08.04-.11a.3.3 0 0 1 .07-.09.26.26 0 0 1 .2-.05c.07.01.13.06.18.12.04.06.06.14.05.22l-3.58 24.43a.3.3 0 0 1-.08.17.26.26 0 0 1-.17.07Z" fill="#263238"/><path d="m208.01 136.63-10.03-14.9c0-1.7-.11-3.4-.35-5.1-.35-1.65-2.1-2.4-2.92-3.8-.81-1.41-2.45-2.95-2.8-1.66-.35 1.29 1.87 4.2 1.87 4.2l-5.94-1.77s-2.7-1.77-2.7-.76c0 1 2.34 7 3.74 7.89 1.4.89 5.6 3.7 5.6 3.7s9.18 19.1 9.77 20.38c.6 1.28 3.74 4.08 5.37 3.95 1.64-.13 4.32-2.2 4.32-2.2l-5.93-9.93Z" fill="white"/><path d="M209.51 149.04c-1.79 0-4.9-2.8-5.5-4.12-.54-1.22-9.12-19.02-9.72-20.3-.54-.36-4.25-2.84-5.54-3.65-1.53-.99-3.87-7.12-3.87-8.15 0-.1.03-.21.07-.3.05-.1.12-.17.2-.23.59-.36 2.13.6 2.8 1.02l5.14 1.53c-.67-.99-1.7-2.75-1.42-3.77a.89.89 0 0 1 .23-.44c.11-.13.26-.2.42-.23.83-.13 2.04 1.24 2.64 2.26.35.54.77 1.02 1.25 1.43.72.69 1.47 1.4 1.7 2.48.25 1.67.37 3.37.35 5.06l9.98 14.82 5.94 9.9c.03.07.05.15.03.22a.3.3 0 0 1-.1.19c-.12.09-2.76 2.12-4.45 2.26l-.15.02Zm-24.02-36.25h-.09c0 .85 2.3 6.82 3.62 7.66 1.31.84 5.56 3.67 5.6 3.7.04.02.08.06.1.1l9.78 20.4c.54 1.18 3.59 3.9 5.1 3.79 1.29-.1 3.3-1.51 3.96-2l-5.77-9.65-10.02-14.9a.34.34 0 0 1-.06-.17c.01-1.68-.1-3.36-.34-5.02-.19-.9-.84-1.52-1.53-2.18a7.48 7.48 0 0 1-1.35-1.55c-.64-1.1-1.67-2.06-2.1-2-.05 0-.15 0-.21.27-.23.82.99 2.84 1.8 3.93.04.05.06.1.06.17 0 .06-.02.12-.05.17a.27.27 0 0 1-.13.12.25.25 0 0 1-.17 0l-5.94-1.76a6.38 6.38 0 0 0-2.26-1.08Z" fill="#263238"/><path d="M189.22 119.82s-4.2-5.47-2.8-5.86c1.4-.38 2.45 1.92 2.57 2.55.12.64 1.99 2.3 1.99 2.3s3.38.12 4.08.88c.46.62.75 1.38.82 2.17" fill="white"/><path d="M195.88 122.16a.25.25 0 0 1-.18-.08.3.3 0 0 1-.1-.19 3.95 3.95 0 0 0-.73-1.98c-.46-.5-2.63-.76-3.9-.81a.24.24 0 0 1-.16-.07c-.46-.4-1.96-1.76-2.08-2.46a4.2 4.2 0 0 0-1.35-2.13 1.07 1.07 0 0 0-.9-.19l-.04.02a.09.09 0 0 0-.02.04c-.2.7 1.62 3.53 3.01 5.3.03.03.04.07.05.1a.31.31 0 0 1-.08.32.28.28 0 0 1-.1.05.27.27 0 0 1-.1.01.27.27 0 0 1-.18-.1c-.59-.76-3.49-4.63-3.12-5.89.04-.11.1-.21.18-.29a.6.6 0 0 1 .28-.16 1.5 1.5 0 0 1 1.31.27c.77.62 1.33 1.5 1.59 2.5.06.32.97 1.3 1.81 2.07.64 0 3.47.2 4.18.97.51.67.82 1.49.9 2.35 0 .08-.02.16-.07.22a.27.27 0 0 1-.18.1l-.02.03Z" fill="#263238"/><path d="M208.01 136.64s4.38 9.95 4.38 10.85c0 .91 1.86.68 1.86.68s2.9-2.26 2.7-4.74c-.2-2.49-6.21-12.9-6.21-12.9s-3.6 1.8-2.73 6.1Z" fill="white"/><path d="M213.77 148.49c-.49.04-.98-.1-1.4-.39a.77.77 0 0 1-.18-.26.86.86 0 0 1-.07-.33c0-.64-2.7-6.92-4.35-10.73v-.07a5.87 5.87 0 0 1 2.87-6.42.25.25 0 0 1 .2-.01c.05.02.1.06.14.13.25.43 6.05 10.48 6.26 13 .22 2.63-2.7 4.92-2.8 5.02a.27.27 0 0 1-.13.05h-.54Zm-5.5-11.96c.76 1.77 4.4 10.04 4.4 10.96a.22.22 0 0 0 .06.17c.45.23.94.3 1.43.22.39-.32 2.7-2.35 2.52-4.43-.18-2.19-5.16-10.98-6.04-12.52a4.9 4.9 0 0 0-2.07 2.36 5.47 5.47 0 0 0-.3 3.25Z" fill="#263238"/><path d="M235.03 103.22s-2.1.98-2.4 2.46c-.3 1.48-.9 7.7-2.26 9.66-.7.93-1.25 1.98-1.65 3.11l5.4-1.96 6 7.53s1.05-5.07 3-8.83 3.3-4.75 3.3-7.86c0-3.11-3.6-4.59-4.65-4.75-1.05-.17-6.75.64-6.75.64Z" fill="white"/><path d="M240.13 124.32a.28.28 0 0 1-.2-.1l-5.87-7.39-5.23 1.9a.24.24 0 0 1-.27-.07.29.29 0 0 1-.07-.13.32.32 0 0 1 0-.16c.4-1.16.97-2.24 1.69-3.2 1.01-1.48 1.62-5.53 1.95-7.95.1-.71.19-1.27.26-1.6.32-1.6 2.46-2.63 2.56-2.67h.06c.24-.03 5.76-.81 6.83-.65 1.25.2 4.89 1.81 4.89 5.04 0 2.3-.73 3.53-1.82 5.33-.45.75-.96 1.6-1.52 2.68-1.9 3.68-2.96 8.7-2.97 8.76a.3.3 0 0 1-.07.14.26.26 0 0 1-.13.08l-.09-.01Zm-6-8.12c.04 0 .08 0 .11.02l.09.08 5.67 7.1a39.7 39.7 0 0 1 2.9-8.37c.57-1.1 1.09-1.95 1.54-2.7 1.08-1.8 1.73-2.89 1.73-5.01 0-3.08-3.73-4.35-4.42-4.46-.82-.13-5.03.42-6.64.65-.26.13-1.97 1.02-2.22 2.23-.06.32-.14.87-.24 1.57-.36 2.47-.96 6.62-2.06 8.2-.53.77-1 1.6-1.4 2.46l4.87-1.76.07-.01Z" fill="#263238"/><path d="M227.52 78.98s-.9 3.77-.3 4.59c.6.82 1.05 2.62.46 3.6-.6.98-2.11 2.79-1.96 3.28.15.48 2.55 1.8 2.55 1.8s.16 7.53 1.35 8.02c1.2.5 4.36.33 4.36.33l.15 15.9 9.76-10.64-.3-10.66s3-1.64 3.75-3.11-.45-4.75-.45-4.75-.3-7.54-.3-8.35a5.8 5.8 0 0 0-1.6-3.73 4.9 4.9 0 0 0-3.5-1.51c-4.36-.18-13.97 5.23-13.97 5.23Z" fill="white"/><path d="M234.13 116.78a.3.3 0 0 1-.1 0 .27.27 0 0 1-.12-.1.3.3 0 0 1-.05-.17l-.15-15.58c-.81 0-3.14.07-4.18-.36-1.23-.5-1.48-6.12-1.52-8.12-.95-.52-2.4-1.39-2.54-1.89-.15-.5.3-1.12 1.26-2.47l.72-1.06c.54-.87.1-2.54-.44-3.26-.65-.89.1-4.19.25-4.84a.28.28 0 0 1 .14-.18c.4-.23 9.71-5.46 14.1-5.3 1.37-.01 2.7.56 3.69 1.59 1 1.03 1.6 2.44 1.66 3.94 0 .77.28 7.66.3 8.3.16.43 1.18 3.45.42 4.94-.69 1.36-3.07 2.79-3.71 3.15l.3 10.46a.31.31 0 0 1-.08.22l-9.76 10.65a.28.28 0 0 1-.19.08Zm-.15-16.48c.03 0 .07 0 .1.02l.09.06a.3.3 0 0 1 .08.2l.14 15.23 9.22-10.05-.3-10.56a.3.3 0 0 1 .04-.16.27.27 0 0 1 .12-.1c.02 0 2.93-1.62 3.63-3 .54-1.1-.14-3.62-.47-4.5a.3.3 0 0 1 0-.1c0-.3-.3-7.54-.3-8.36 0-.05-.28-4.77-4.86-4.95-4-.13-12.65 4.56-13.71 5.15-.35 1.5-.67 3.73-.33 4.2.66.9 1.15 2.83.47 3.95-.2.31-.46.7-.75 1.1-.44.62-1.19 1.66-1.17 1.94.74.65 1.55 1.19 2.41 1.61a.3.3 0 0 1 .11.11c.03.05.04.1.04.15.07 3.53.54 7.5 1.18 7.76 1.13.46 4.22.3 4.24.3h.02Z" fill="#263238"/><path d="M231.43 86.1c0 .6-.28 1.07-.6 1.07-.33 0-.6-.48-.6-1.06 0-.6.26-1.07.6-1.07.33 0 .6.48.6 1.07ZM232.62 85.2c-.03 0-.07-.01-.1-.03a.25.25 0 0 1-.1-.07c-1.44-1.72-2.69-.53-2.76-.47a.27.27 0 0 1-.1.06.25.25 0 0 1-.29-.06.3.3 0 0 1-.08-.2.3.3 0 0 1 .08-.21s1.72-1.65 3.53.5a.29.29 0 0 1 .08.21c0 .04 0 .08-.02.11a.29.29 0 0 1-.06.1.24.24 0 0 1-.18.05ZM233.98 100.6a35.5 35.5 0 0 0 5.27-2.83l-5.19 6.4-.08-3.57Z" fill="#263238"/><path d="M234.07 104.47h-.1a.28.28 0 0 1-.13-.1.3.3 0 0 1-.04-.17l-.06-3.58c0-.06.01-.12.04-.17a.28.28 0 0 1 .12-.1c1.81-.79 3.56-1.73 5.23-2.81a.26.26 0 0 1 .19-.05c.06.02.12.05.16.1a.3.3 0 0 1 .07.2.3.3 0 0 1-.07.19l-5.2 6.4a.26.26 0 0 1-.21.1Zm.2-3.67.05 2.62 3.65-4.49c-1.58.9-3.2 1.64-3.72 1.87h.03ZM240.73 77.34s-12.3 3.11-14.86 2.79c-2.55-.33-4.5-5.89-2.4-8.69s11.87-4.25 16.51-2.78c4.64 1.48 10.96 5.08 10.5 7.37-.45 2.3-3.6 11.3-3.6 11.3s-2.54-1.47-3.3.17c-.38.77-.69 1.6-.9 2.46 0 0-.44 1.14-1.08 0-.63-1.15-.6-2.3-1.8-4.27-1.2-1.96-3.3-4.09-2.4-5.07.9-.99 3.33-3.28 3.33-3.28Z" fill="#263238"/><path d="M242.16 90.76c-.29 0-.54-.22-.77-.66-.22-.46-.4-.94-.54-1.44-.29-1-.7-1.94-1.24-2.8-.31-.5-.69-1.04-1.08-1.55-1.08-1.54-2.16-3-1.3-3.9.57-.63 1.73-1.77 2.51-2.52-3.04.74-11.76 2.81-13.92 2.53-1.2-.16-2.35-1.37-3.02-3.18-.8-2.2-.64-4.55.44-5.98 2.27-3 12.25-4.32 16.8-2.88 4.13 1.3 11.23 5 10.7 7.72-.45 2.28-3.5 10.97-3.62 11.34a.26.26 0 0 1-.16.17.27.27 0 0 1-.22 0s-1.44-.83-2.36-.5a.89.89 0 0 0-.34.2c-.1.09-.17.2-.23.33-.37.75-.67 1.54-.88 2.36v.06c-.03.07-.27.66-.73.69h-.04Zm-1.44-13.71c.05 0 .1.01.14.04a.31.31 0 0 1 .13.3.3.3 0 0 1-.1.17s-2.4 2.3-3.28 3.26c-.5.55.45 1.86 1.35 3.12.38.53.76 1.06 1.08 1.6.56.9 1 1.9 1.3 2.94.14.46.32.91.54 1.34.15.29.28.37.3.36a.95.95 0 0 0 .25-.3c.22-.87.53-1.71.92-2.5.09-.2.22-.38.37-.52.15-.15.33-.25.52-.32.87-.3 2 .15 2.5.4.55-1.58 3.1-8.95 3.5-10.96.37-1.9-5.37-5.46-10.33-7.02-4.7-1.5-14.26.09-16.22 2.68-1.16 1.55-.92 3.87-.36 5.4.56 1.52 1.58 2.68 2.59 2.8 2.46.32 14.64-2.74 14.76-2.77l.04-.02Z" fill="#263238"/><path d="M228.27 92.26s3.49-.89 4.86 0a63.9 63.9 0 0 1 3.9 2.94s2.27-.48 3-1.44c.75-.96.74-5.37.74-5.37h1.93l-.15 4.01a6.6 6.6 0 0 1-1.39 4.16c-.73.89-3.9 2.33-3.9 2.33l-3.89 1.84-3.77-.46a20.79 20.79 0 0 1-1.33-8.01Z" fill="#263238"/><path d="M233.37 101.03h-.02l-3.75-.46a.26.26 0 0 1-.13-.05.3.3 0 0 1-.09-.12c-1-2.57-1.47-5.35-1.38-8.14 0-.06.03-.12.07-.17a.27.27 0 0 1 .14-.1c.15-.04 3.61-.9 5.08 0 1.25.8 3.34 2.5 3.82 2.9.69-.16 2.22-.63 2.74-1.31s.68-3.45.68-5.18a.3.3 0 0 1 .07-.21.26.26 0 0 1 .2-.09h1.9c.07 0 .14.03.2.09l.05.1a.3.3 0 0 1 .02.12l-.15 4c.02 1.6-.5 3.15-1.46 4.36-.77.92-3.86 2.35-3.99 2.4l-3.89 1.84a.33.33 0 0 1-.1.02Zm-3.56-1.03 3.53.43 3.82-1.81c.87-.4 3.24-1.57 3.78-2.25a6.36 6.36 0 0 0 1.32-3.98l.14-3.7h-1.32c0 1.07-.1 4.36-.8 5.26-.78 1.03-3.06 1.52-3.16 1.54a.26.26 0 0 1-.22-.05s-2.5-2.09-3.86-2.95c-1-.63-3.42-.25-4.48 0a20.5 20.5 0 0 0 1.25 7.5Z" fill="#263238"/><path d="M229.67 94.51a2 2 0 0 1-.89-.17.27.27 0 0 1-.1-.06.31.31 0 0 1-.09-.22.3.3 0 0 1 .1-.22.25.25 0 0 1 .32-.03c.05 0 1.16.54 2.9-.77a.24.24 0 0 1 .3 0l.06.07a.31.31 0 0 1-.06.4c-.74.62-1.62.96-2.54 1Z" fill="white"/><path d="m208.67 135.08 18.3-1.19 8.83 20.13-16.1-1.3-11.03-17.64Z" fill="#CFCFCF"/><path d="m235.8 154.31-16.1-1.3a.26.26 0 0 1-.2-.1l-11.05-17.66a.31.31 0 0 1 0-.3.28.28 0 0 1 .09-.11.26.26 0 0 1 .13-.05l18.3-1.18c.05 0 .1 0 .15.04.04.03.08.07.1.12l8.84 20.13a.32.32 0 0 1 0 .3.26.26 0 0 1-.11.1.24.24 0 0 1-.15.01Zm-15.95-1.88 15.51 1.26-8.56-19.5-17.64 1.15 10.69 17.09Z" fill="#263238"/><path d="m209.35 135.8 16.88-1.12 8.85 20.13-14.7-1.38-11.03-17.63Z" fill="white"/><path d="M235.08 155.1h-.03l-14.7-1.38a.27.27 0 0 1-.2-.12l-11.02-17.64a.31.31 0 0 1 0-.29.29.29 0 0 1 .09-.12.25.25 0 0 1 .13-.05l16.89-1.11c.05 0 .1 0 .15.03.05.03.09.08.1.13l8.83 20.13a.34.34 0 0 1 0 .3.26.26 0 0 1-.24.13Zm-14.57-1.95 14.1 1.32-8.55-19.48-16.24 1.07 10.69 17.1Z" fill="#263238"/><path d="m208.67 135.08 9.73 18.97 16.36 1.35-8.9-19.88-17.2-.44Z" fill="#CFCFCF"/><path d="m234.75 155.7-16.36-1.36a.24.24 0 0 1-.12-.05.27.27 0 0 1-.1-.1l-9.7-18.97a.29.29 0 0 1-.05-.15c0-.05.02-.1.04-.14a.26.26 0 0 1 .1-.11.23.23 0 0 1 .14-.03l17.18.43c.05 0 .1.02.14.05.04.03.07.07.1.12l8.88 19.88a.31.31 0 0 1-.11.38.26.26 0 0 1-.13.04Zm-16.19-1.94 15.75 1.3-8.63-19.25-16.55-.42 9.44 18.38Z" fill="#263238"/><path d="m247.8 124.65 3.73 22.82 12.01 2.7s-3.1-32.53-3.93-34.56c-.83-2.03-6.21-3.62-6.83-3.62" fill="white"/><path d="M263.55 150.5h-.06l-12.01-2.71a.27.27 0 0 1-.14-.08.3.3 0 0 1-.07-.16l-3.71-22.83a.32.32 0 0 1 .04-.22c.04-.06.1-.1.17-.12h.1l.1.05.08.08a.3.3 0 0 1 .03.1l3.7 22.64 11.47 2.58c-1.07-11.34-3.23-32.52-3.87-34.08-.76-1.86-6.02-3.44-6.59-3.44a.26.26 0 0 1-.19-.09.3.3 0 0 1-.08-.2c0-.08.03-.16.08-.21a.26.26 0 0 1 .2-.09c.66 0 6.18 1.59 7.07 3.8.84 2.04 3.83 33.32 3.96 34.65a.3.3 0 0 1-.18.31.22.22 0 0 1-.1.02Z" fill="#263238"/><path d="M248.64 147.02s1.03-5.65 3.51-6.1c2.5-.45 9.72-.9 11.4 3.4 1.66 4.3 1.86 6.77.62 8.35-1.24 1.58-4.35.45-9.12-1.13-4.76-1.58-6.41-4.52-6.41-4.52Z" fill="white"/><path d="M262.27 153.74c-1.59 0-3.82-.74-6.66-1.69l-.63-.21c-4.81-1.6-6.5-4.52-6.58-4.65a.28.28 0 0 1-.03-.2c.04-.24 1.08-5.86 3.74-6.34 3.33-.59 10.06-.64 11.69 3.53 1.72 4.48 1.89 7 .57 8.67-.26.31-.6.55-.96.7-.36.16-.75.22-1.14.2Zm-13.35-6.76c.33.5 2.09 2.95 6.21 4.3l.64.21c4.3 1.43 7.12 2.36 8.2 1 1.14-1.46.94-3.87-.68-8.05-1.54-4-8.53-3.68-11.1-3.21-2.07.38-3.1 4.95-3.27 5.75Z" fill="#263238"/><path d="m237.73 145.15-8.1-2.46-8.1 4.43s-1.04.65-.44 1.3c.6.66 1.65.17 1.65.17s-.6.98 0 1.48 4.06-.66 4.06-.66-3.3 2.46-2.26 2.94c1.05.48 5.86-2.13 5.86-2.13l-2.7 2.52a.5.5 0 0 0-.06.66c.04.06.1.11.17.14.25.14.54.17.81.1 1.05-.16 4.8-3.23 4.8-3.23h5.68s19.96 4.59 22.66 4.42c2.7-.16 3.15-5.56 1.35-8.03-1.8-2.46-6.02-2.13-7.06-2.13-1.05 0-18.32.48-18.32.48Z" fill="white"/><path d="M261.59 155.11c-3.2 0-21.42-4.17-22.55-4.43h-5.56c-.63.52-3.8 3.07-4.86 3.24-.3.07-.62.04-.9-.1h-.05a.69.69 0 0 1-.3-.23.86.86 0 0 1 .1-1.09l1.2-1.11c-1.55.73-3.56 1.55-4.28 1.22a.55.55 0 0 1-.26-.2.62.62 0 0 1-.1-.32c-.06-.55.68-1.36 1.41-2.01-1.12.3-2.48.55-2.9.2a1.13 1.13 0 0 1-.36-.58c-.05-.22-.04-.47.03-.69-.24.06-.49.05-.72-.02-.24-.07-.46-.2-.64-.38a.91.91 0 0 1-.25-.75c.05-.21.15-.42.28-.6.13-.17.3-.31.47-.42l8.13-4.43a.28.28 0 0 1 .2 0l8.05 2.44c1.14-.04 17.27-.49 18.29-.49h.33c1.42-.03 5.2-.11 6.93 2.24 1.2 1.64 1.5 4.62.68 6.63-.17.51-.47.96-.86 1.3-.4.33-.87.53-1.37.58h-.14Zm-22.52-5.01h.06c.2.04 19.96 4.57 22.6 4.41.39-.04.76-.21 1.07-.48.32-.28.55-.64.68-1.05.74-1.8.46-4.56-.6-6.01-1.57-2.13-5.15-2.06-6.48-2.03h-.34a3847.07 3847.07 0 0 0-18.4.5l-8-2.43-8 4.37c-.15.08-.47.36-.5.6 0 .04 0 .09.03.13a.3.3 0 0 0 .08.11c.46.51 1.34.11 1.35.1a.25.25 0 0 1 .17-.01c.06.01.11.05.15.1a.31.31 0 0 1 .01.35s-.45.76-.06 1.08c.3.23 2.21-.17 3.81-.7a.25.25 0 0 1 .2 0c.05.03.1.09.13.15.02.06.03.14.01.2a.31.31 0 0 1-.1.17c-1.3.96-2.41 2.1-2.35 2.4.7.33 3.73-1.03 5.67-2.09a.25.25 0 0 1 .2-.01c.05.02.1.06.14.12.04.05.05.12.05.2-.01.06-.04.13-.09.18l-2.7 2.52a.2.2 0 0 0-.05.17c0 .03.01.06.03.08l.06.05h.05c.2.1.42.12.63.06.72-.11 3.18-1.96 4.66-3.18.05-.04.1-.06.16-.06h5.69-.02Z" fill="#263238"/><path d="M222.73 148.88a.24.24 0 0 1-.15-.05.29.29 0 0 1-.1-.14.31.31 0 0 1 0-.22.29.29 0 0 1 .15-.16l4.06-1.63a.26.26 0 0 1 .2 0 .3.3 0 0 1 .14.4.28.28 0 0 1-.15.15l-4.06 1.64-.09.01ZM226.77 149.7a.25.25 0 0 1-.15-.05.3.3 0 0 1-.1-.14.33.33 0 0 1 0-.22.28.28 0 0 1 .16-.15l1.94-.82a.25.25 0 0 1 .22 0c.03 0 .07.03.1.06a.3.3 0 0 1 .05.1.3.3 0 0 1-.08.33.27.27 0 0 1-.1.06l-1.94.81-.1.02Z" fill="#263238"/><path d="m220.92 259.8-1.72 3.16s-7.4 4.75-7.61 5.11c-.22.37.67 1.22 2.11 1.1 1.45-.13 8.59-.59 8.59-.59 1 0 2.01-.07 3-.25.9-.24 1.34-.24 1.34-1.94s-.66-6.83-.66-6.83l-5.05.25Z" fill="white"/><path d="M213.43 269.5c-.39.04-.78-.03-1.13-.19a2.44 2.44 0 0 1-.92-.74.63.63 0 0 1 0-.64c.22-.36 4.85-3.36 7.64-5.15l1.68-3.1a.28.28 0 0 1 .1-.1.25.25 0 0 1 .12-.04l5.05-.25c.07 0 .13.03.18.07a.3.3 0 0 1 .1.19c.03.2.67 5.15.67 6.85 0 1.7-.5 1.96-1.38 2.19l-.16.04a17 17 0 0 1-3.08.26c-.05 0-7.13.48-8.56.59l-.31.02Zm-1.62-1.24c.07.2.7.74 1.85.64 1.43-.11 8.52-.58 8.59-.58.99 0 1.98-.08 2.96-.24l.17-.05c.74-.2.96-.25.96-1.61s-.5-5.44-.63-6.5l-4.66.22-1.64 3.02a.27.27 0 0 1-.1.1c-2.66 1.68-6.97 4.48-7.48 4.97l-.02.03Z" fill="#263238"/><path d="m243.6 258.74-.32 5.13s-1.6 5.13-1.53 5.77c.07.64 1.96 1.5 3.12 1.5a8.3 8.3 0 0 0 3.78-1.18c.4-.29.7-.7.88-1.17.18-.48.23-1 .14-1.51-.15-1.1-.73-5.85-.73-6.09l-.07-2.53-1.08.55a2.1 2.1 0 0 0-1.3-.7c-.97 0-1.94.07-2.89.23Z" fill="white"/><path d="M244.86 271.44c-1.17 0-3.29-.88-3.39-1.77-.07-.64 1.13-4.6 1.53-5.89l.31-5.1c.01-.06.04-.13.08-.18.04-.05.1-.08.16-.09.97-.16 1.94-.24 2.92-.24.5.06.97.29 1.34.65l.92-.47a.25.25 0 0 1 .25 0 .3.3 0 0 1 .1.1l.03.14.08 2.54c0 .24.54 4.8.72 6.05.1.56.04 1.14-.16 1.67s-.54.99-.98 1.3a8.56 8.56 0 0 1-3.91 1.29Zm-1.02-12.45-.3 4.9a.5.5 0 0 1 0 .07c-.78 2.48-1.56 5.27-1.52 5.65.04.37 1.65 1.24 2.85 1.24a7.97 7.97 0 0 0 3.62-1.15c.35-.26.62-.62.77-1.05.16-.42.2-.9.12-1.34-.12-.94-.72-5.85-.72-6.13l-.06-2.07-.72.36a.26.26 0 0 1-.17.02.27.27 0 0 1-.15-.1 1.9 1.9 0 0 0-1.13-.58c-.86-.01-1.72.05-2.58.18h-.01ZM53.82 265.63c0-.68-.19-1.34-.53-1.9a3.2 3.2 0 0 0-1.4-1.25 2.88 2.88 0 0 0-1.8-.2c-.6.14-1.16.46-1.6.94a3.7 3.7 0 0 0-.68 3.7c.24.63.64 1.16 1.15 1.54a2.94 2.94 0 0 0 3.94-.43c.3-.31.52-.69.68-1.1.16-.42.24-.86.24-1.3Z" fill="#263238"/><path d="M50.68 269.32c-.67 0-1.32-.21-1.88-.62-.56-.4-1-.99-1.25-1.66a4.01 4.01 0 0 1 .74-4.03 3.31 3.31 0 0 1 1.74-1.01 3.13 3.13 0 0 1 1.95.21c.62.28 1.15.75 1.52 1.36a3.94 3.94 0 0 1-.42 4.67c-.64.7-1.5 1.08-2.4 1.08Zm0-6.8c-.56 0-1.11.18-1.58.53-.47.34-.83.82-1.05 1.4a3.37 3.37 0 0 0 .62 3.38c.4.43.9.73 1.46.85.55.12 1.12.06 1.64-.18.53-.23.97-.63 1.28-1.14a3.32 3.32 0 0 0-.35-3.93 2.73 2.73 0 0 0-2.02-.9Z" fill="#263238"/><path d="M52.24 265.62c0-.33-.09-.66-.26-.94a1.6 1.6 0 0 0-.7-.63c-.28-.13-.6-.16-.9-.1-.3.07-.58.23-.8.47-.22.24-.37.54-.43.87-.06.33-.02.67.1.99.11.3.31.57.57.76a1.47 1.47 0 0 0 1.97-.21 1.72 1.72 0 0 0 .45-1.2Z" fill="white"/><path d="M50.68 267.62c-.36 0-.71-.12-1.01-.34-.3-.22-.54-.53-.68-.9a2.17 2.17 0 0 1 .4-2.17c.26-.28.59-.47.94-.54.36-.08.72-.04 1.06.11.33.15.62.41.82.74a2.13 2.13 0 0 1-.23 2.52c-.35.37-.81.58-1.3.58Zm0-3.4c-.25 0-.5.08-.71.24-.21.16-.38.37-.48.63-.1.26-.12.54-.07.81.05.28.17.53.35.73.18.2.41.33.66.38.25.06.51.03.75-.08.23-.1.43-.29.58-.52.14-.23.21-.5.21-.78a1.52 1.52 0 0 0-.37-1 1.3 1.3 0 0 0-.42-.32 1.2 1.2 0 0 0-.5-.1v.01ZM87.2 265.63c0-.68-.17-1.34-.52-1.9a3.2 3.2 0 0 0-1.4-1.25 2.88 2.88 0 0 0-1.8-.2c-.6.14-1.16.46-1.6.94a3.7 3.7 0 0 0-.68 3.7c.24.63.64 1.16 1.16 1.54a2.94 2.94 0 0 0 3.94-.43 3.67 3.67 0 0 0 .91-2.4Z" fill="#263238"/><path d="M84.09 269.32c-.67 0-1.33-.21-1.88-.62-.56-.4-1-.99-1.25-1.66a4.01 4.01 0 0 1 .73-4.03 3.31 3.31 0 0 1 1.74-1.01 3.13 3.13 0 0 1 1.96.21c.62.28 1.15.75 1.52 1.36a3.94 3.94 0 0 1-.43 4.67c-.63.7-1.5 1.08-2.4 1.08Zm0-6.8c-.56 0-1.12.18-1.58.53-.47.34-.84.82-1.05 1.4a3.37 3.37 0 0 0 .61 3.38c.4.43.91.73 1.46.85.56.12 1.13.06 1.65-.18.52-.23.97-.63 1.28-1.14a3.32 3.32 0 0 0-.36-3.93 2.74 2.74 0 0 0-2.01-.9Z" fill="#263238"/><path d="M85.65 265.62c0-.33-.09-.66-.26-.94a1.6 1.6 0 0 0-.7-.63c-.28-.13-.6-.16-.9-.1-.3.07-.58.23-.8.47a1.85 1.85 0 0 0-.34 1.86c.12.3.32.57.58.76a1.47 1.47 0 0 0 1.97-.21 1.72 1.72 0 0 0 .45-1.2Z" fill="white"/><path d="M84.09 267.62c-.36 0-.72-.12-1.02-.34-.3-.22-.53-.53-.67-.9a2.17 2.17 0 0 1 .4-2.17c.25-.28.58-.47.94-.54.35-.08.72-.04 1.05.11.34.15.62.41.82.74a2.13 2.13 0 0 1-.23 2.52c-.34.37-.8.58-1.29.58Zm0-3.4c-.26 0-.5.08-.72.24-.2.16-.37.37-.47.63-.1.26-.13.54-.08.81.05.28.18.53.36.73.18.2.4.33.66.38.25.06.5.03.74-.08.24-.1.44-.29.58-.52a1.5 1.5 0 0 0 .12-1.32 1.44 1.44 0 0 0-.27-.46 1.31 1.31 0 0 0-.42-.31 1.2 1.2 0 0 0-.5-.12v.02ZM98.13 265.63c0-.68-.19-1.34-.53-1.9a3.2 3.2 0 0 0-1.4-1.25 2.88 2.88 0 0 0-1.8-.2c-.6.14-1.16.46-1.6.94a3.7 3.7 0 0 0-.68 3.7c.24.63.64 1.16 1.16 1.54a2.94 2.94 0 0 0 3.94-.43 3.67 3.67 0 0 0 .91-2.4Z" fill="#263238"/><path d="M95 269.32c-.66 0-1.32-.21-1.88-.62-.55-.4-.99-.99-1.24-1.66a4.01 4.01 0 0 1 .73-4.03 3.31 3.31 0 0 1 1.74-1.01 3.13 3.13 0 0 1 1.96.21c.62.28 1.15.75 1.52 1.36a3.94 3.94 0 0 1-.43 4.67c-.63.7-1.5 1.08-2.4 1.08Zm0-6.8c-.56 0-1.1.18-1.58.53-.46.34-.83.82-1.04 1.4a3.37 3.37 0 0 0 .61 3.38c.4.43.9.73 1.46.85.55.12 1.13.06 1.65-.18.52-.23.96-.63 1.28-1.14a3.32 3.32 0 0 0-.36-3.93 2.74 2.74 0 0 0-2.01-.9Z" fill="#263238"/><path d="M96.57 265.62c0-.33-.1-.66-.27-.94a1.6 1.6 0 0 0-.7-.63c-.28-.13-.6-.16-.9-.1-.3.07-.58.23-.8.47a1.85 1.85 0 0 0-.34 1.86c.12.3.32.57.58.76a1.47 1.47 0 0 0 1.97-.21 1.72 1.72 0 0 0 .46-1.2Z" fill="white"/><path d="M95 267.62c-.35 0-.7-.12-1-.34-.31-.22-.54-.53-.68-.9a2.16 2.16 0 0 1 .4-2.17c.25-.28.58-.47.93-.54.36-.08.73-.04 1.06.11.34.15.62.41.82.74a2.13 2.13 0 0 1-.23 2.52c-.34.37-.8.58-1.3.58Zm0-3.4c-.25 0-.5.08-.7.24-.22.16-.39.37-.48.63-.1.26-.13.54-.08.81.05.28.18.53.36.73.18.2.4.33.66.38.25.06.5.03.74-.08.24-.1.44-.29.58-.52a1.52 1.52 0 0 0-.15-1.79 1.3 1.3 0 0 0-.42-.3 1.2 1.2 0 0 0-.5-.12v.02ZM72.7 224.89h6.56v36.82h-6.6v-36.8l.04-.02Z" fill="#263238"/><path d="M79.25 262.03h-6.6a.26.26 0 0 1-.18-.08.3.3 0 0 1-.08-.21V224.9c0-.08.04-.16.09-.22a.3.3 0 0 1 .2-.1h6.56a.3.3 0 0 1 .2.1c.05.06.08.14.08.22v36.83a.3.3 0 0 1-.07.2.26.26 0 0 1-.2.1Zm-6.32-.59h6.05v-36.26h-6.05v36.26Z" fill="#263238"/><path d="M81.01 235.71h-10.1v26.02H81v-26.02Z" fill="#263238"/><path d="M81.01 262.03h-10.1a.26.26 0 0 1-.2-.08.3.3 0 0 1-.07-.21V235.7a.3.3 0 0 1 .07-.2.26.26 0 0 1 .2-.1H81c.08 0 .14.04.2.1a.3.3 0 0 1 .07.2v26.03a.3.3 0 0 1-.08.2.26.26 0 0 1-.19.1Zm-9.83-.59h9.56V236h-9.56v25.44ZM60.74 198.89h8.49v19.8h-8.47v-19.8h-.02Z" fill="#263238"/><path d="M69.2 219.01h-8.44a.3.3 0 0 1-.2-.1.34.34 0 0 1-.09-.21v-19.81a.3.3 0 0 1 .08-.2.26.26 0 0 1 .2-.1h8.47c.07 0 .14.04.2.1a.3.3 0 0 1 .07.2v19.8c0 .09-.03.17-.09.22a.3.3 0 0 1-.2.1Zm-8.19-.59h7.94v-19.24h-7.94v19.24Z" fill="#263238"/><path d="M81.68 198.9H48.66c-.77 0-1.54-.17-2.25-.5a5.79 5.79 0 0 1-1.9-1.4 6.4 6.4 0 0 1-1.24-2.1 6.83 6.83 0 0 1-.4-2.48l.8-35.17a6.6 6.6 0 0 1 1.74-4.37 5.54 5.54 0 0 1 4.05-1.8h27.26c1.39 0 2.73.55 3.78 1.53a6.49 6.49 0 0 1 1.95 3.83l4.96 35.19a6.88 6.88 0 0 1-1.33 5.07 5.89 5.89 0 0 1-1.98 1.62 5.4 5.4 0 0 1-2.42.58Z" fill="#CFCFCF"/><path d="M81.68 199.2H48.66c-.8 0-1.6-.18-2.35-.52a6.07 6.07 0 0 1-1.99-1.48 6.7 6.7 0 0 1-1.3-2.2c-.3-.82-.44-1.7-.42-2.58l.8-35.18a6.87 6.87 0 0 1 1.82-4.58 5.77 5.77 0 0 1 4.24-1.87h27.26c1.45 0 2.86.56 3.96 1.59a6.75 6.75 0 0 1 2.03 4.02l4.96 35.18a7.2 7.2 0 0 1-1.39 5.3 6.14 6.14 0 0 1-2.07 1.7c-.79.4-1.65.61-2.53.62Zm-32.22-47.82c-1.45 0-2.84.6-3.87 1.7a6.26 6.26 0 0 0-1.65 4.19l-.8 35.18a6.52 6.52 0 0 0 1.58 4.34 5.53 5.53 0 0 0 1.8 1.34c.68.31 1.4.47 2.14.48h33.02c.8 0 1.59-.2 2.3-.56a5.6 5.6 0 0 0 1.9-1.55 6.56 6.56 0 0 0 1.27-4.84l-4.96-35.17a6.15 6.15 0 0 0-1.86-3.67 5.23 5.23 0 0 0-3.6-1.44H49.45ZM56.4 236.88a.24.24 0 0 1-.12-.04.28.28 0 0 1-.1-.1.32.32 0 0 1-.04-.21.3.3 0 0 1 .11-.19l14.5-10.41a.25.25 0 0 1 .2-.06c.04 0 .08.02.1.04.04.02.07.05.09.09a.31.31 0 0 1 .03.23.3.3 0 0 1-.13.19l-14.49 10.4a.22.22 0 0 1-.15.06Z" fill="#263238"/><path d="m55.85 235.01-2.46 1.81c-.2.15-.37.34-.49.57a1.88 1.88 0 0 0 .26 2.16l.17.18c.28.3.66.48 1.06.5.4.02.79-.12 1.1-.4l2.27-2.04a1.9 1.9 0 0 0 .13-2.55 1.51 1.51 0 0 0-2.03-.23Z" fill="#263238"/><path d="M54.46 240.53c-.5 0-.97-.21-1.32-.6l-.17-.17a2.23 2.23 0 0 1-.3-2.52c.14-.26.33-.49.57-.66l2.46-1.82c.4-.27.88-.38 1.34-.29.47.1.88.38 1.17.79a2.18 2.18 0 0 1-.28 2.76l-2.27 2.04c-.34.3-.76.47-1.2.47Zm1.55-5.3-2.47 1.82a1.56 1.56 0 0 0-.19 2.27l.17.18a1.28 1.28 0 0 0 1.8.08l2.27-2.04a1.54 1.54 0 0 0 .22-1.97c-.21-.3-.51-.5-.85-.57-.33-.06-.67.02-.95.23Z" fill="#263238"/><path d="M102.82 227.97H49.1c-.68 0-1.36-.14-1.99-.43-.63-.28-1.2-.7-1.68-1.22a6.1 6.1 0 0 1-1.52-4c0-1.5.55-2.94 1.52-4a4.97 4.97 0 0 1 3.67-1.66h53.72c.68 0 1.35.15 1.98.43.63.28 1.2.7 1.68 1.22a6.1 6.1 0 0 1 1.52 4c0 1.5-.54 2.94-1.52 4a4.98 4.98 0 0 1-3.66 1.66Z" fill="#CFCFCF"/><path d="M102.82 228.28H49.1a5.26 5.26 0 0 1-3.75-1.8 6.25 6.25 0 0 1-1.54-4.14c0-1.55.56-3.04 1.54-4.15a5.26 5.26 0 0 1 3.75-1.8h53.72c.73-.03 1.46.1 2.14.4.68.28 1.3.71 1.83 1.27A6 6 0 0 1 108 220a6.43 6.43 0 0 1-1.22 6.6c-.53.55-1.15.99-1.83 1.28-.68.29-1.41.42-2.14.4ZM49.1 216.97a4.74 4.74 0 0 0-3.37 1.63 5.63 5.63 0 0 0-1.39 3.73c0 1.39.5 2.73 1.39 3.73.88 1 2.1 1.58 3.37 1.63h53.72c.66.02 1.31-.1 1.93-.36a4.9 4.9 0 0 0 1.65-1.15 5.8 5.8 0 0 0 0-7.71 4.9 4.9 0 0 0-1.65-1.15 4.57 4.57 0 0 0-1.93-.35H49.1Z" fill="#263238"/><path d="M107.97 221.63a5.97 5.97 0 0 0-1.83-3.59 5.06 5.06 0 0 0-3.54-1.38H74.77a5.06 5.06 0 0 0-3.55 1.38A5.96 5.96 0 0 0 69.6 224c.21.76.58 1.47 1.06 2.07.49.6 1.09 1.08 1.76 1.4.67.33 1.4.5 2.12.5h28.28c.73 0 1.46-.17 2.13-.5.66-.33 1.26-.8 1.75-1.4a6.16 6.16 0 0 0 1.27-4.43Z" fill="#CFCFCF"/><path d="M102.82 228.28H74.54c-.77 0-1.53-.18-2.23-.53a5.5 5.5 0 0 1-1.84-1.48 6.47 6.47 0 0 1-1.33-4.66 6.25 6.25 0 0 1 1.91-3.78 5.3 5.3 0 0 1 3.73-1.45h27.82a5.29 5.29 0 0 1 3.73 1.45 6.24 6.24 0 0 1 .58 8.44 5.51 5.51 0 0 1-1.84 1.49c-.7.34-1.47.52-2.24.53h-.01Zm-28.07-11.3a4.78 4.78 0 0 0-3.37 1.3 5.64 5.64 0 0 0-.53 7.6 4.98 4.98 0 0 0 1.65 1.33c.63.32 1.32.48 2.01.49h28.3c.7 0 1.39-.17 2.02-.48.63-.3 1.2-.76 1.66-1.33a5.76 5.76 0 0 0 1.2-4.21 5.64 5.64 0 0 0-1.72-3.4 4.78 4.78 0 0 0-3.37-1.3H74.75ZM99.15 263.8h-51.6a3.33 3.33 0 0 1 .83-2.19c.26-.28.57-.5.91-.66.34-.16.71-.24 1.08-.24H96.3a2.64 2.64 0 0 1 2.01.9 3.33 3.33 0 0 1 .84 2.18Z" fill="#263238"/><path d="M99.15 264.09h-51.6a.26.26 0 0 1-.2-.09.3.3 0 0 1-.07-.2c0-.9.33-1.76.9-2.4a2.98 2.98 0 0 1 2.2-.98H96.3c.82 0 1.6.36 2.19.99.58.63.9 1.49.9 2.38 0 .08-.02.15-.07.2a.26.26 0 0 1-.17.1Zm-51.27-.6h51a2.88 2.88 0 0 0-.83-1.77 2.44 2.44 0 0 0-1.7-.71H50.37c-.63 0-1.24.25-1.7.71-.47.46-.77 1.1-.83 1.78h.04Z" fill="#263238"/><path d="M89.97 263.8H73.16v-3.09h13.96a2.8 2.8 0 0 1 2.01.9 3.32 3.32 0 0 1 .84 2.19Z" fill="#263238"/><path d="M89.97 264.09H73.16a.26.26 0 0 1-.2-.09.3.3 0 0 1-.07-.2v-3.09c0-.07.02-.15.08-.2a.26.26 0 0 1 .19-.1h13.96c.82.01 1.6.37 2.19 1 .58.63.9 1.49.9 2.38 0 .08-.02.15-.06.2a.27.27 0 0 1-.18.1Zm-16.52-.6H89.7a2.88 2.88 0 0 0-.83-1.77 2.44 2.44 0 0 0-1.71-.71H73.43l.02 2.49ZM93.55 193.01l3.72 6.7s13 1.41 20.44 3.24c7.43 1.82 8.91 10.74 9.28 12.57.42 2.04 2.7 44.58 1.98 44.78-.71.2-6.31.81-6.31.81s-9.42-41.33-12.2-41.95c-2.79-.6-44.04.41-50.2-3.23-6.14-3.65-7.61-14.2-4.08-21.5 3.54-7.3 37.37-1.42 37.37-1.42Z" fill="#263238"/><path d="M122.66 261.4a.25.25 0 0 1-.17-.05.28.28 0 0 1-.1-.17c-3.62-15.9-10.08-41.31-11.99-41.73-.77-.16-4.88-.21-10.09-.26-13.36-.14-35.71-.37-40.15-3.01-6.57-3.91-7.64-14.78-4.2-21.88 3.59-7.4 36.24-1.82 37.63-1.58l.11.05c.03.02.06.05.08.09l3.65 6.57c1.4.16 13.37 1.53 20.33 3.23 4.86 1.18 8.04 5.42 9.45 12.56l.05.24c.22 1.13.94 13.09 1.43 23.13 1.08 21.79.65 21.92.35 22-.76.21-6.13.8-6.36.82h-.03Zm-52.8-70.34c-6.48 0-12.12.83-13.42 3.5-3.32 6.87-2.32 17.35 3.98 21.1 4.32 2.57 26.59 2.8 39.9 2.95 5.44.06 9.37.1 10.2.28 2.81.62 11.14 36.65 12.34 41.92 1.87-.2 5.1-.6 5.94-.75.54-2.73-1.62-42.36-2.06-44.47l-.07-.26c-1.36-6.9-4.4-10.97-9.04-12.1-7.33-1.8-20.27-3.23-20.4-3.24a.25.25 0 0 1-.12-.05.27.27 0 0 1-.09-.1l-3.65-6.57c-1.35-.22-13.47-2.2-23.52-2.2Z" fill="#263238"/><path d="M68.28 201.12s17.27 0 25.64.81c8.37.82 13.56 7.7 13.2 13.79-.38 6.08-7.13 46-7.13 46l-6.5-.59L90 218.36s-5.81 4.13-28.45-2.21" fill="#263238"/><path d="M99.99 262.02h-.03l-6.47-.59a.26.26 0 0 1-.17-.08.3.3 0 0 1-.08-.18l-3.45-42.34c-1.61.79-8.6 3.11-28.26-2.4a.27.27 0 0 1-.1-.04.32.32 0 0 1-.1-.32c0-.04.02-.07.04-.1a.3.3 0 0 1 .08-.09.26.26 0 0 1 .2-.03c22.18 6.2 28.18 2.3 28.24 2.25a.27.27 0 0 1 .13-.03c.04 0 .09.01.13.03.04.03.08.06.1.1.03.05.04.1.05.15l3.45 42.5 6.03.58c.59-3.47 6.73-39.97 7.08-45.7.36-5.9-4.76-12.68-12.95-13.48-8.2-.8-25.44-.81-25.62-.81a.26.26 0 0 1-.19-.09.3.3 0 0 1-.08-.2.3.3 0 0 1 .08-.21.26.26 0 0 1 .2-.09c.17 0 17.38 0 25.66.81 8.5.83 13.81 7.96 13.43 14.1-.36 6.03-7.06 45.64-7.13 46.04a.3.3 0 0 1-.1.16.26.26 0 0 1-.17.06Z" fill="#263238"/><path d="M128.97 260.3s11.2 2.4 11.2 3.63c0 1.25-14.23 4.76-15.74 4.97-1.52.2-1.75-7.79-1.75-7.79l6.3-.8Z" fill="white"/><path d="M124.34 269.2c-.2 0-.4-.08-.54-.22-1.22-1.14-1.42-7.17-1.44-7.85a.3.3 0 0 1 .06-.2c.05-.06.1-.1.17-.1l6.32-.82h.09c4.25.92 11.38 2.63 11.38 3.93 0 1.73-15.82 5.23-15.98 5.25h-.06Zm-1.4-7.83c.09 2.6.48 6.45 1.24 7.16a.21.21 0 0 0 .18.08c2.03-.28 14.68-3.54 15.49-4.72-.45-.71-5.83-2.23-10.89-3.32l-6.03.8Z" fill="#263238"/><path d="m123.46 267.74 15.93-4.44c.47.24.75.46.75.66 0 1.25-14.23 4.76-15.74 4.97-.4.02-.7-.47-.94-1.2Z" fill="#CFCFCF"/><path d="M124.33 269.2c-.68 0-1.01-1.04-1.12-1.4a.3.3 0 0 1 0-.23.3.3 0 0 1 .17-.15l15.93-4.43a.27.27 0 0 1 .18 0c.63.32.9.58.9.93 0 1.73-15.82 5.23-15.97 5.25l-.09.03Zm-.5-1.3c.17.48.37.73.54.7 2.03-.27 14.65-3.53 15.48-4.67-.14-.15-.3-.26-.48-.34l-15.54 4.32Z" fill="#263238"/><path d="M99.99 261.72s11.33 5.3 10.56 6.56c-.77 1.26-15.55.62-17.06.41-1.52-.2 0-7.58 0-7.58l6.5.61Z" fill="white"/><path d="M103.28 269.33c-4.52 0-9.45-.3-9.83-.34a.77.77 0 0 1-.3-.14.85.85 0 0 1-.24-.25c-.9-1.4.2-6.93.33-7.55a.31.31 0 0 1 .1-.17.27.27 0 0 1 .18-.06l6.48.59h.08c1.72.8 10.3 4.9 10.75 6.51a.59.59 0 0 1-.06.47c-.41.74-3.82.94-7.5.94Zm-9.58-7.9c-.35 1.77-.98 5.89-.36 6.83l.07.1.1.04c2.27.3 16.07.69 16.82-.3-.06-.75-5.44-3.75-10.41-6.09l-6.22-.58Z" fill="#263238"/><path d="M110.18 267.5c.33.33.48.59.37.78-.75 1.24-15.55.62-17.06.41-.37-.05-.54-.52-.64-1.18l17.33-.01Z" fill="#CFCFCF"/><path d="M103.28 269.33c-4.52 0-9.45-.3-9.83-.34-.47-.07-.76-.56-.87-1.45a.34.34 0 0 1 .07-.24.26.26 0 0 1 .2-.1h17.33c.06 0 .13.03.17.08.18.17.71.7.43 1.18-.42.67-3.83.87-7.5.87Zm-10.1-1.54c.07.37.2.59.34.59 2.26.31 16 .69 16.8-.28a1.71 1.71 0 0 0-.25-.33l-16.9.02Z" fill="#263238"/><path d="m114.95 174.6 6.8-1.72 7.13 5.13-5.74-.18-10.1 1.32 1.9-4.56Z" fill="white"/><path d="M113.03 179.45a.25.25 0 0 1-.13-.04.27.27 0 0 1-.1-.1.3.3 0 0 1-.01-.28l1.92-4.56a.28.28 0 0 1 .18-.16l6.8-1.71a.22.22 0 0 1 .2.04l7.14 5.13c.05.03.1.08.11.14a.31.31 0 0 1-.1.35.25.25 0 0 1-.16.05l-5.76-.2-10.06 1.34h-.03Zm2.1-4.6-1.65 3.97 9.62-1.26 4.86.15-6.25-4.49-6.57 1.63Z" fill="#263238"/><path d="m90.22 166.8 24.73 7.8-1.92 4.55-20.73.38-2.08-12.73Z" fill="white"/><path d="M92.3 179.83a.25.25 0 0 1-.17-.07.3.3 0 0 1-.09-.17l-2.07-12.74.01-.15a.3.3 0 0 1 .07-.12.27.27 0 0 1 .26-.06l24.74 7.8c.03 0 .07.02.1.05.02.03.05.06.06.1a.29.29 0 0 1 0 .25l-1.91 4.56a.28.28 0 0 1-.1.12.24.24 0 0 1-.14.04l-20.73.39h-.03Zm-1.74-12.62 1.97 12.02 20.33-.37 1.71-4.08-24.01-7.56ZM88.59 167.57a.25.25 0 0 1-.17-.06.3.3 0 0 1-.1-.17l-.36-1.67a.32.32 0 0 1 .03-.22.27.27 0 0 1 .28-.14c.03 0 .06.02.1.04a.28.28 0 0 1 .11.19l.37 1.67c.02.07 0 .15-.03.22a.27.27 0 0 1-.17.13h-.06Z" fill="#263238"/><path d="M63.53 132.44 51.77 154.4l2.4 44.78 41.44-3.7-3.39-23.9-7.17-26.1-2.79-4.13 3.19 1.1-4.79-4.8-3.78-3.9-13.35-1.31Z" fill="white"/><path d="M54.17 199.47a.27.27 0 0 1-.18-.07.31.31 0 0 1-.1-.2l-2.38-44.79c0-.06 0-.11.03-.16L63.3 132.3a.3.3 0 0 1 .1-.11c.05-.03.1-.04.16-.04l13.34 1.33c.06 0 .12.03.16.08l3.78 3.91 4.78 4.78c.04.05.07.1.08.17a.3.3 0 0 1-.03.2.27.27 0 0 1-.13.12.25.25 0 0 1-.18 0l-2.4-.84 2.3 3.4.04.1 7.17 26.08 3.4 23.96a.34.34 0 0 1-.06.23.28.28 0 0 1-.08.08.26.26 0 0 1-.11.03l-41.44 3.7h-.01Zm-2.12-45 2.37 44.37 40.88-3.64-3.35-23.6-7.15-26-2.75-4.09a.32.32 0 0 1 0-.35.27.27 0 0 1 .12-.1.25.25 0 0 1 .17 0l2.04.69-3.9-3.9-3.72-3.84-13.08-1.28-11.63 21.74Z" fill="#263238"/><path d="M87.81 164.1a.26.26 0 0 1-.16-.06.3.3 0 0 1-.1-.16l-3.04-13.98-2.4-5.62a.32.32 0 0 1 0-.22.28.28 0 0 1 .13-.16.24.24 0 0 1 .21-.02l.09.06c.03.03.05.06.06.1l2.41 5.67 3.07 14.03c.01.08 0 .16-.03.22a.27.27 0 0 1-.17.13l-.07.01Z" fill="#263238"/><path d="M81.56 107.31a55.38 55.38 0 0 0-4.95-7.65c-2.55-3.14-10.54-2.95-14.03 1.22-3.5 4.17-2.4 11.5-1.12 13.6 1.28 2.1 4 11.85 4 11.85l.64 6.97 12.68 5.84-.86-11.41s5.75-1.23 6.23-3.14c.48-1.92-.96-8.55-.96-8.55s1.91-1.4 1.76-2.61c-.16-1.22-3.39-6.12-3.39-6.12Z" fill="white"/><path d="M78.75 139.41h-.1l-12.69-5.83a.27.27 0 0 1-.1-.1.32.32 0 0 1-.06-.14l-.65-7c0-.04-2.7-9.69-3.95-11.72-1.25-2.03-2.5-9.63 1.14-13.96 1.83-2.17 5.08-3.48 8.48-3.47 2.61 0 4.86.86 5.98 2.25a55.8 55.8 0 0 1 4.98 7.71c.37.55 3.24 4.97 3.4 6.22.15 1.25-1.22 2.4-1.73 2.78.25 1.14 1.37 6.7.92 8.5-.45 1.8-5 3.02-6.2 3.3l.84 11.15c0 .05 0 .1-.02.14a.29.29 0 0 1-.1.12.26.26 0 0 1-.14.05Zm-12.41-6.33 12.13 5.58-.83-10.93c0-.07.02-.14.06-.2.04-.06.1-.1.16-.12 1.56-.33 5.66-1.5 6.02-2.94.46-1.83-.94-8.33-.96-8.4a.34.34 0 0 1 .01-.17.3.3 0 0 1 .1-.15c.5-.35 1.76-1.47 1.62-2.32-.12-.94-2.43-4.63-3.3-5.97a55.48 55.48 0 0 0-4.93-7.62c-1.03-1.27-3.12-2.05-5.58-2.06-3.28 0-6.35 1.23-8.1 3.28-3.45 4.12-2.3 11.23-1.07 13.23 1.28 2.11 3.9 11.53 4.02 11.93l.65 6.86Z" fill="#263238"/><path d="M64.47 114.8s2.54 2.32 3.93-.34c1.4-2.66 2.44-5.3 2.44-7.6 0-2.28-5.22-4.17-1.74-5.69 3.47-1.51 5.98 1.87 7.51-1.53 1.53-3.4.14-3.78-8.2-3.78-8.36 0-12.53 4.56-10.8 10.25 1.73 5.69 5.22 12.15 5.22 12.15l1.64-3.45Z" fill="#263238"/><path d="M62.84 118.55a.24.24 0 0 1-.14-.04.27.27 0 0 1-.1-.1c-.03-.07-3.5-6.55-5.23-12.2a7.4 7.4 0 0 1 .72-6.41c1.8-2.73 5.47-4.23 10.31-4.23 5.94 0 8.16.21 8.83 1.38.44.77.08 1.81-.38 2.82-.95 2.12-2.33 1.83-3.77 1.53-1.13-.22-2.4-.48-3.85.15-.62.27-.97.59-1.02.86-.08.47.58 1.14 1.21 1.76.8.81 1.72 1.73 1.72 2.78 0 2.03-.81 4.56-2.47 7.73-.16.35-.39.66-.67.9s-.6.4-.95.5a3.31 3.31 0 0 1-2.44-.76l-1.49 3.15a.28.28 0 0 1-.1.11.25.25 0 0 1-.13.05l-.05.02Zm5.56-22.37c-4.6 0-8.2 1.44-9.87 3.98a6.82 6.82 0 0 0-.65 5.89c1.34 4 3 7.89 4.95 11.59l1.4-2.95a.28.28 0 0 1 .08-.1.24.24 0 0 1 .11-.05h.12c.03.01.07.03.1.06 0 0 1.18 1.05 2.27.84a2 2 0 0 0 1.26-1.1c1.62-3.08 2.4-5.52 2.4-7.45 0-.78-.82-1.61-1.54-2.35-.72-.75-1.51-1.54-1.38-2.36.09-.52.54-.93 1.35-1.3a6.46 6.46 0 0 1 4.15-.17c1.47.3 2.45.5 3.23-1.22.54-1.15.64-1.82.4-2.24-.55-.93-3.14-1.1-8.4-1.1l.02.03ZM78.05 115.97c-.84 0-1.67-.27-2.37-.78a4.6 4.6 0 0 1-1.57-2.09 5.05 5.05 0 0 1 .93-5.07c.6-.65 1.35-1.1 2.18-1.27a3.94 3.94 0 0 1 2.46.26c.78.36 1.45.95 1.92 1.72a4.96 4.96 0 0 1-.54 5.87 4.1 4.1 0 0 1-3 1.36Zm0-8.71a3.5 3.5 0 0 0-2.07.68 4 4 0 0 0-1.37 1.83 4.4 4.4 0 0 0 .8 4.42c.53.57 1.2.96 1.91 1.12.73.15 1.48.07 2.16-.24.68-.3 1.26-.82 1.67-1.5a4.33 4.33 0 0 0-.47-5.12 3.57 3.57 0 0 0-2.63-1.2Z" fill="#263238"/><path d="M84.75 115.1a.26.26 0 0 1-.14-.03.28.28 0 0 1-.1-.11.31.31 0 0 1 .02-.33.27.27 0 0 1 .08-.07 3.75 3.75 0 0 0 1.64-2.18c.27-.93.2-1.94-.19-2.82a3.61 3.61 0 0 0-1.91-1.9 3.22 3.22 0 0 0-2.59.07.25.25 0 0 1-.2 0 .28.28 0 0 1-.14-.16.32.32 0 0 1 0-.22.28.28 0 0 1 .13-.16 3.72 3.72 0 0 1 2.98-.07c.97.4 1.75 1.18 2.2 2.19.46 1 .54 2.17.23 3.24a4.33 4.33 0 0 1-1.88 2.52.27.27 0 0 1-.13.04ZM64.47 115.1a.25.25 0 0 1-.2-.05.3.3 0 0 1-.11-.2.32.32 0 0 1 .05-.22c.04-.06.1-.1.18-.12l9.58-3.48a.25.25 0 0 1 .2.02c.07.03.12.1.14.16.02.08.02.16-.01.23a.28.28 0 0 1-.16.14l-9.59 3.5a.2.2 0 0 1-.08.02Z" fill="#263238"/><path d="M67.19 117.07s-1.92-4.35-3.84-3.48c-1.92.87-.96 7.65.96 8.36 1.92.72 3.68-1.04 3.68-1.04s1.61 3.66 3.5 4.7" fill="white"/><path d="M71.5 125.9a.2.2 0 0 1-.12 0c-1.65-.9-3.04-3.56-3.48-4.5-.6.47-2.07 1.44-3.67.86-1.27-.46-2.1-3.1-2.16-5.39-.07-1.86.37-3.15 1.2-3.53 2.13-.97 4.1 3.44 4.18 3.63a.32.32 0 0 1 .01.23.29.29 0 0 1-.14.17.24.24 0 0 1-.2 0 .26.26 0 0 1-.1-.05.3.3 0 0 1-.05-.1c-.51-1.14-2.12-3.96-3.5-3.33-.58.26-.92 1.4-.86 2.94.07 2.3.9 4.53 1.81 4.85 1.74.64 3.39-.96 3.4-.98a.25.25 0 0 1 .35-.01c.04.03.06.06.08.1 0 .04 1.58 3.58 3.4 4.57l.07.07a.31.31 0 0 1 .04.33.28.28 0 0 1-.1.11.25.25 0 0 1-.16.04ZM79.58 110.33c0 .67-.19 1.22-.42 1.22-.23 0-.41-.55-.41-1.22 0-.67.18-1.21.41-1.21.23 0 .42.54.42 1.21ZM75.97 106.69a.25.25 0 0 1-.15-.05.3.3 0 0 1-.1-.14.32.32 0 0 1 .06-.32 3.67 3.67 0 0 1 2.8-.9l.1.03.08.07a.32.32 0 0 1 .07.21c0 .05-.01.08-.03.12a.29.29 0 0 1-.06.09.26.26 0 0 1-.2.07 3.07 3.07 0 0 0-2.47.8.24.24 0 0 1-.1.02ZM81.88 118.49c-.53 0-1.04-.2-1.45-.55a.33.33 0 0 1-.05-.42c.04-.05.1-.1.17-.1.08-.02.15 0 .2.05a2.04 2.04 0 0 0 2.3.09.25.25 0 0 1 .2-.03c.07.02.13.06.17.13.03.07.04.15.02.22a.3.3 0 0 1-.12.18c-.44.27-.94.42-1.44.43Z" fill="#263238"/><path d="m63.73 128.75 17.23 9.65-1.1 7.23-17.9-13.02 1.77-3.86Z" fill="white"/><path d="M79.86 145.92a.27.27 0 0 1-.15-.04l-17.9-13.03a.3.3 0 0 1-.11-.16.32.32 0 0 1 .02-.21l1.76-3.86a.29.29 0 0 1 .17-.15.25.25 0 0 1 .2 0l17.23 9.64c.05.03.1.08.12.13.03.06.04.12.03.19l-1.1 7.23c-.02.05-.03.1-.06.13a.29.29 0 0 1-.1.1.25.25 0 0 1-.11.03ZM62.3 132.51l17.35 12.62 1-6.57-16.81-9.42-1.54 3.37Z" fill="#263238"/><path d="M60.11 144.81s-5.13 11.05-4.62 11.95c.52.9 8.39 29.88 9.07 30.03.69.16 32.86-9.68 32.86-9.68l-1.03-4.85-21.56-1.5-1.88-18.48" fill="white"/><path d="M64.54 187.11h-.04c-.44-.12-1.31-2.75-6.23-19.98-1.45-5.07-2.81-9.85-3-10.21-.55-.97 3.04-8.88 4.6-12.24a.28.28 0 0 1 .16-.15.25.25 0 0 1 .2.02c.07.04.12.1.14.17.02.08.02.16-.01.23-2.43 5.2-4.82 10.99-4.62 11.68.19.36 1.23 3.97 3.04 10.33 2.12 7.38 5.28 18.46 5.9 19.57 1.42-.18 19.97-5.79 32.42-9.62l-.93-4.37-21.36-1.48a.25.25 0 0 1-.17-.08.3.3 0 0 1-.08-.18l-1.86-18.48c0-.07.02-.15.06-.21a.26.26 0 0 1 .29-.1.27.27 0 0 1 .16.14l.03.1 1.85 18.26L96.43 172c.06 0 .11.03.16.07.04.04.07.1.09.16l1.02 4.85c.02.08 0 .15-.03.22a.28.28 0 0 1-.16.14c-7.49 2.27-31.7 9.68-32.97 9.68Z" fill="#263238"/><path d="M69.94 177.54a.26.26 0 0 1-.17-.07.3.3 0 0 1-.1-.2l.01-.12a.3.3 0 0 1 .05-.1l3.96-5.22-2.22 1.37a.24.24 0 0 1-.1.05h-.11a.25.25 0 0 1-.1-.05.3.3 0 0 1-.1-.33.28.28 0 0 1 .15-.18l3.48-2.18a.25.25 0 0 1 .19-.03c.06 0 .12.04.16.1a.31.31 0 0 1 0 .38l-4.89 6.47a.27.27 0 0 1-.1.08.25.25 0 0 1-.11.03Z" fill="#263238"/><path d="m96.39 172.26 8.05-.75 6.15 3.93 2.4 2.24-4.97.37-4.27-1.5s-.69 1.31-3.94.94c-3.25-.37-2.4-.38-2.4-.38l-1.02-4.85Z" fill="white"/><path d="M108.02 178.34h-.08l-4.1-1.43c-.34.39-1.4 1.18-4.06.89-2.75-.32-2.75-.33-2.73-.67a.3.3 0 0 1 .06-.17l-.98-4.62a.28.28 0 0 1 .04-.23.26.26 0 0 1 .2-.12l8.04-.75a.3.3 0 0 1 .16.04l6.16 3.92 2.43 2.27a.3.3 0 0 1 .09.15v.17a.29.29 0 0 1-.1.14.25.25 0 0 1-.15.06l-4.95.37-.03-.02Zm-4.27-2.08h.08l4.23 1.47 4.25-.32-1.89-1.76-6.05-3.85-7.65.71.93 4.4c.28.04.88.13 2.2.27 2.98.35 3.66-.77 3.66-.78a.28.28 0 0 1 .24-.14Z" fill="#263238"/><path d="M146.3 178.37h-42.74v1.88h42.74v-1.88Z" fill="white"/><path d="M146.3 180.54h-42.74a.26.26 0 0 1-.2-.09.31.31 0 0 1-.07-.2v-1.88c0-.08.03-.16.08-.21a.26.26 0 0 1 .19-.09h42.74c.08 0 .14.03.2.09a.3.3 0 0 1 .07.2v1.89a.3.3 0 0 1-.07.2.26.26 0 0 1-.2.09Zm-42.47-.59h42.2v-1.29h-42.2v1.3Z" fill="#263238"/><path d="M158.35 178.37h-42.74v1.88h42.74v-1.88Z" fill="white"/><path d="M158.36 180.54H115.6a.26.26 0 0 1-.2-.09.31.31 0 0 1-.07-.2v-1.88c0-.08.03-.16.08-.21a.26.26 0 0 1 .19-.09h42.75c.07 0 .14.03.19.09a.3.3 0 0 1 .07.2v1.89a.3.3 0 0 1-.07.2.26.26 0 0 1-.2.09Zm-42.48-.59h42.2v-1.29h-42.2v1.3Z" fill="#263238"/><path d="M153.59 175.02h-35.65l3.85-29.7h35.64l-3.84 29.7Z" fill="white"/><path d="M153.59 175.32h-35.62a.29.29 0 0 1-.2-.1.32.32 0 0 1-.06-.24l3.84-29.7a.3.3 0 0 1 .09-.17.25.25 0 0 1 .17-.08h35.62c.04 0 .08.01.11.03l.1.07a.32.32 0 0 1 .06.24l-3.84 29.7a.31.31 0 0 1-.1.18.26.26 0 0 1-.17.07Zm-35.33-.6h35.08l3.77-29.1h-35.08l-3.77 29.1Z" fill="#263238"/><path d="M155.06 175.02h-35.64l3.84-29.7h35.65l-3.85 29.7Z" fill="#263238"/><path d="M155.06 175.32h-35.64a.26.26 0 0 1-.11-.03.28.28 0 0 1-.15-.18.3.3 0 0 1 0-.13l3.84-29.7a.3.3 0 0 1 .09-.18.27.27 0 0 1 .18-.07h35.61a.27.27 0 0 1 .2.1c.03.03.05.07.06.11a.3.3 0 0 1 .01.13l-3.84 29.7a.3.3 0 0 1-.08.17.27.27 0 0 1-.17.08Zm-35.33-.6h35.08l3.78-29.1H123.5l-3.78 29.1Z" fill="#263238"/><path d="m144.15 161.22 3.57 19.03h-9.18l-3.57-19.03h9.18Zm-6.25 5.65c.02.07.06.14.12.2.06.04.13.07.2.07l5.21-.05a.3.3 0 0 0 .14-.04.35.35 0 0 0 .18-.24.4.4 0 0 0 0-.16l-.47-2.14a.35.35 0 0 0-.12-.2.3.3 0 0 0-.2-.07l-5.22.05a.3.3 0 0 0-.14.04.35.35 0 0 0-.17.24.38.38 0 0 0 0 .16l.47 2.14Z" fill="white"/><path d="M147.72 180.54h-9.18a.25.25 0 0 1-.17-.06.3.3 0 0 1-.1-.17l-3.57-19.03v-.13l.06-.12a.28.28 0 0 1 .21-.1h9.17c.06 0 .12.02.17.06.05.05.08.1.1.17l3.57 19.03a.3.3 0 0 1 0 .13.29.29 0 0 1-.15.2.24.24 0 0 1-.11.02Zm-8.98-.59h8.64l-3.44-18.44h-8.63l3.43 18.44Zm-.54-12.52a.55.55 0 0 1-.36-.14.65.65 0 0 1-.21-.35l-.47-2.14a.68.68 0 0 1 .3-.74.55.55 0 0 1 .27-.06l5.2-.05c.14 0 .27.04.38.13.1.09.18.22.2.36l.48 2.14a.68.68 0 0 1-.1.55.61.61 0 0 1-.21.18.55.55 0 0 1-.26.07l-5.21.05Zm-.05-.63c0 .01 0 .02.02.03l.03.01 5.21-.05.06-.08-.47-2.13-.02-.03a.05.05 0 0 0-.04-.02l-5.2.06-.32.14.26-.06.47 2.13Z" fill="#263238"/><path d="m74.05 191.07 1.85 76.15c.02.48.2.95.52 1.28.32.34.75.53 1.19.53.45 0 .88-.2 1.2-.54.31-.34.5-.8.5-1.3l.92-76.12h-6.18Z" fill="white"/><path d="M77.61 269.32c-.52 0-1.01-.21-1.38-.6-.37-.4-.59-.93-.6-1.5l-1.85-76.14c0-.08.03-.15.08-.21a.26.26 0 0 1 .2-.09h6.17c.03 0 .07 0 .1.02l.09.07c.05.06.08.13.08.21l-.92 76.12c0 .56-.22 1.1-.59 1.5-.37.4-.86.62-1.38.62Zm-3.29-77.95 1.85 75.84c0 .4.16.8.43 1.08a1.36 1.36 0 0 0 2.01 0c.27-.3.42-.69.43-1.1l.9-75.82h-5.62Z" fill="#263238"/><path d="m96.6 191.07 1.85 76.15c0 .48.2.94.51 1.28.32.34.75.53 1.2.53.44 0 .87-.2 1.19-.54.32-.34.5-.8.5-1.3l.92-76.12H96.6Z" fill="white"/><path d="M100.15 269.32c-.51 0-1.01-.21-1.38-.6-.37-.4-.58-.93-.6-1.5l-1.84-76.14a.3.3 0 0 1 .17-.28.24.24 0 0 1 .1-.02h6.17a.25.25 0 0 1 .2.09.3.3 0 0 1 .07.21l-.91 76.12c-.01.56-.22 1.1-.6 1.5-.36.4-.86.62-1.38.62Zm-3.27-77.95 1.84 75.84c0 .41.15.81.42 1.1.27.3.63.46 1.01.46s.75-.16 1.02-.45c.27-.3.42-.7.42-1.11l.9-75.82-5.61-.02Z" fill="#263238"/><path d="m152.34 191.07 1.85 76.15c.02.48.2.94.52 1.28.32.34.74.53 1.19.53.45 0 .88-.2 1.2-.54.31-.34.5-.8.5-1.3l.91-76.12h-6.17Z" fill="white"/><path d="M155.9 269.32c-.52 0-1.02-.21-1.39-.6-.37-.4-.58-.93-.6-1.5l-1.84-76.14c0-.08.03-.15.07-.21a.26.26 0 0 1 .2-.09h6.17c.04 0 .07 0 .1.02.04.02.07.04.09.07a.3.3 0 0 1 .08.21l-.91 76.12c-.01.56-.22 1.1-.6 1.5-.36.4-.86.62-1.38.62Zm-3.28-77.95 1.84 75.84c0 .41.15.81.42 1.1.27.3.63.46 1.01.46s.75-.16 1.02-.45c.27-.3.42-.7.42-1.11l.9-75.82-5.61-.02Z" fill="#263238"/><path d="m174.88 191.07 1.85 76.15c.01.48.2.94.52 1.28.31.34.74.53 1.19.53.44 0 .87-.2 1.2-.54.31-.34.5-.8.5-1.3l.91-76.12h-6.17Z" fill="white"/><path d="M178.44 269.32c-.52 0-1.02-.21-1.38-.6-.38-.4-.59-.93-.6-1.5l-1.84-76.14c0-.08.02-.15.07-.21a.25.25 0 0 1 .2-.09h6.16a.25.25 0 0 1 .2.09l.06.1a.3.3 0 0 1 .01.11l-.9 76.12c-.02.56-.23 1.1-.6 1.5-.37.4-.86.62-1.38.62Zm-3.28-77.95L177 267.2c0 .41.15.81.42 1.1.27.3.64.46 1.02.46s.74-.16 1.01-.45c.27-.3.42-.7.42-1.11l.91-75.82-5.62-.02Z" fill="#263238"/><path d="M183.11 182.76H71.86v9.11h111.25v-9.11Z" fill="#CFCFCF"/><path d="M183.12 192.16H71.86a.26.26 0 0 1-.19-.08.31.31 0 0 1-.08-.21v-9.1a.3.3 0 0 1 .08-.22.26.26 0 0 1 .2-.08h111.25c.07 0 .13.03.19.08.05.06.07.13.07.21v9.11c0 .08-.02.15-.07.2a.26.26 0 0 1-.2.1Zm-110.99-.58h110.72v-8.53H72.13v8.53Z" fill="#263238"/><path d="M102.94 182.76H71.86v9.11h31.08v-9.11Z" fill="#CFCFCF"/><path d="M102.92 192.16H71.86a.26.26 0 0 1-.19-.08.31.31 0 0 1-.08-.21v-9.1a.3.3 0 0 1 .08-.22.26.26 0 0 1 .2-.08h31.05c.08 0 .14.03.2.08a.3.3 0 0 1 .07.21v9.11c0 .08-.02.15-.07.2a.26.26 0 0 1-.2.1Zm-30.8-.58h30.53v-8.53H72.14v8.53Z" fill="#263238"/><path d="M183.11 182.76H71.86v4.56h111.25v-4.56Z" fill="#263238"/><path d="M183.12 187.6H71.86a.26.26 0 0 1-.19-.08.3.3 0 0 1-.08-.2v-4.56a.3.3 0 0 1 .08-.2.26.26 0 0 1 .2-.1h111.25c.07 0 .13.04.19.1.05.05.07.12.07.2v4.55c0 .08-.02.16-.07.21a.26.26 0 0 1-.2.09Zm-110.99-.58h110.72v-3.97H72.13v3.97Z" fill="#263238"/><path d="M184.84 179.62H70.14v5.02h114.7v-5.02Z" fill="#CFCFCF"/><path d="M184.84 184.93H70.14a.26.26 0 0 1-.2-.08.3.3 0 0 1-.07-.21v-5.02a.3.3 0 0 1 .07-.2.26.26 0 0 1 .2-.1h114.7c.07 0 .14.04.19.1.05.05.08.12.08.2v5.02c0 .08-.03.15-.08.2a.26.26 0 0 1-.2.1Zm-114.41-.59h114.14v-4.42H70.4l.03 4.43Z" fill="#263238"/><path d="M184.84 179.62H105v5.02h79.84v-5.02Z" fill="#CFCFCF"/><path d="M184.84 184.93H105a.26.26 0 0 1-.2-.08.3.3 0 0 1-.07-.21v-5.02a.3.3 0 0 1 .08-.2.26.26 0 0 1 .19-.1h79.84c.07 0 .14.04.19.1.05.05.08.12.08.2v5.02c0 .08-.03.15-.08.2a.26.26 0 0 1-.2.1Zm-79.57-.59h79.3v-4.42h-79.3v4.43Z" fill="#263238"/></svg>