<svg width="426" height="320" fill="none" xmlns="http://www.w3.org/2000/svg"><path d="M308.37 274.82a77.24 77.24 0 0 0 23.83-27.05c35.61-66.55 27.57-164.7-41.02-206.79-31.7-19.45-77.33-31.76-111.6-11.78-27.79 16.2-44.82 46.71-58.92 74.47-8.85 17.48-16.15 36.24-27.06 52.58-14.16 21.18-29.74 49.47-14.01 74.08 21.44 33.52 61.93 48.83 98.65 58.91 39.84 10.93 84.64 12.49 121.44-8.84 2.98-1.73 5.87-3.59 8.69-5.58Z" fill="#C8C8C8"/><path opacity=".7" d="M308.37 274.82a77.24 77.24 0 0 0 23.83-27.05c35.61-66.55 27.57-164.7-41.02-206.79-31.7-19.45-77.33-31.76-111.6-11.78-27.79 16.2-44.82 46.71-58.92 74.47-8.85 17.48-16.15 36.24-27.06 52.58-14.16 21.18-29.74 49.47-14.01 74.08 21.44 33.52 61.93 48.83 98.65 58.91 39.84 10.93 84.64 12.49 121.44-8.84 2.98-1.73 5.87-3.59 8.69-5.58Z" fill="white"/><g opacity=".3" stroke="black" stroke-miterlimit="10"><path opacity=".3" d="M339.71 54.94h-64.18v84.07h64.18V54.94Z"/><path opacity=".3" d="M327.93 70.37h-40.62v53.21h40.62V70.38Z"/></g><path d="M260.5 45.52H90.59v150.86h169.9V45.52Z" fill="#263238" stroke="#263238" stroke-miterlimit="10"/><path d="M257.28 41.85H87.36V192.7h169.92V41.85Z" fill="white" stroke="#263238" stroke-linecap="round" stroke-linejoin="round"/><path d="M224.2 102.73h8.44V94.3h-8.45v8.43ZM235.25 102.73h8.45V94.3h-8.45v8.43Z" fill="white" stroke="#263238" stroke-linecap="round" stroke-linejoin="round"/><path d="M220.81 99.02H177.9" stroke="#263238" stroke-linecap="round" stroke-linejoin="round"/><path d="M224.2 122.62h8.44v-8.43h-8.45v8.43ZM235.25 122.62h8.45v-8.43h-8.45v8.43Z" fill="white" stroke="#263238" stroke-linecap="round" stroke-linejoin="round"/><path d="M220.81 118.91H177.9" stroke="#263238" stroke-linecap="round" stroke-linejoin="round"/><path d="M224.2 142.52h8.44v-8.43h-8.45v8.43ZM235.25 142.52h8.45v-8.43h-8.45v8.43Z" fill="white" stroke="#263238" stroke-linecap="round" stroke-linejoin="round"/><path d="M220.81 138.8H177.9" stroke="#263238" stroke-linecap="round" stroke-linejoin="round"/><path d="M143.42 102.73h8.45V94.3h-8.45v8.43ZM154.48 102.73h8.45V94.3h-8.45v8.43Z" fill="white" stroke="#263238" stroke-linecap="round" stroke-linejoin="round"/><path d="M140.04 99.02H97.12" stroke="#263238" stroke-linecap="round" stroke-linejoin="round"/><path d="M143.42 122.62h8.45v-8.43h-8.45v8.43ZM154.48 122.62h8.45v-8.43h-8.45v8.43Z" fill="white" stroke="#263238" stroke-linecap="round" stroke-linejoin="round"/><path d="M140.04 118.91H97.12" stroke="#263238" stroke-linecap="round" stroke-linejoin="round"/><path d="M143.42 142.52h8.45v-8.43h-8.45v8.43ZM154.48 142.52h8.45v-8.43h-8.45v8.43Z" fill="white" stroke="#263238" stroke-linecap="round" stroke-linejoin="round"/><path d="M140.04 138.8H97.12" stroke="#263238" stroke-linecap="round" stroke-linejoin="round"/><path d="M109.1 171.5h-9.32v9.28h9.31v-9.29ZM147.08 171.5h-9.3v9.28h9.3v-9.29ZM186.58 171.5h-9.31v9.28h9.3v-9.29Z" fill="white" stroke="#263238" stroke-linecap="round" stroke-linejoin="round"/><path d="m157.25 97.12 1.44 2.89 6.98-6.72M157.25 116.8l1.44 2.87 6.98-6.72M145.23 137.42l1.45 2.88 6.97-6.72M237.56 96.89l1.44 2.87 6.97-6.71M225.92 117.03l1.44 2.88 6.98-6.72M225.92 137.24l1.44 2.88 6.98-6.71" stroke="#263238" stroke-width="2" stroke-linecap="round" stroke-linejoin="round"/><path d="M257.28 41.85H87.36V65.4h169.92V41.85Z" fill="white" stroke="#263238" stroke-linecap="round" stroke-linejoin="round"/><path d="M257.28 41.85h-6.4V192.7h6.4V41.85Z" fill="#DBDBDB" stroke="#263238" stroke-linecap="round" stroke-linejoin="round"/><path d="M257.28 64.52h-6.4v29.12h6.4V64.52Z" fill="#949494" stroke="#263238" stroke-linecap="round" stroke-linejoin="round"/><path d="M257.28 41.85H87.36V53.3h169.92V41.85Z" fill="#DBDBDB" stroke="#263238" stroke-linecap="round" stroke-linejoin="round"/><path d="M162.99 45.18h-67v4.78h67v-4.78Z" fill="white" stroke="#263238" stroke-linecap="round" stroke-linejoin="round"/><path d="M247.25 45.4h5.88M247.25 47.89h5.88M247.25 50.37h5.88" stroke="#263238" stroke-linecap="round" stroke-linejoin="round"/><path d="M146.72 74.95c0-1.48.78-2.32 2.2-2.32 1.42 0 2.2.84 2.2 2.32v4.77c0 1.47-.78 2.3-2.2 2.3-1.42 0-2.2-.83-2.2-2.3v-4.77Zm1.45 4.86c0 .66.29.9.75.9s.75-.24.75-.9v-4.97c0-.66-.29-.9-.75-.9s-.75.24-.75.9v4.97ZM153.34 75.28v6.64h-1.3v-9.18h1.8l1.5 5.5v-5.5h1.28v9.18h-1.48l-1.8-6.64ZM157.66 72.74h1.45v7.87h2.4v1.31h-3.83l-.02-9.18ZM162.13 72.74h1.45v9.18h-1.45v-9.18ZM165.91 75.28v6.64h-1.28v-9.18h1.8l1.5 5.5v-5.5h1.28v9.18h-1.47l-1.83-6.64ZM171.68 76.61h1.99v1.31h-2v2.69h2.5v1.31h-3.94v-9.18h3.95v1.31h-2.5v2.56ZM176.7 72.74h4.46v1.31h-1.51v7.87h-1.45v-7.87h-1.5v-1.3ZM183.24 76.61h1.98v1.31h-1.98v2.69h2.5v1.31h-3.95v-9.18h3.95v1.31h-2.5v2.56ZM188.58 72.63c1.4 0 2.13.84 2.13 2.32v.28h-1.37v-.38c0-.66-.26-.9-.72-.9-.46 0-.72.24-.72.9 0 1.87 2.82 2.25 2.82 4.87 0 1.47-.73 2.3-2.16 2.3-1.42 0-2.13-.83-2.13-2.3v-.57h1.37v.66c0 .66.3.9.75.9.46 0 .75-.24.75-.9 0-1.86-2.82-2.24-2.82-4.86-.05-1.48.7-2.32 2.1-2.32ZM191.13 72.74h4.47v1.31h-1.5v7.87h-1.44v-7.87h-1.5l-.03-1.3ZM107.03 169.25h-1.47l-.24-1.66h-1.75l-.25 1.66h-1.36l1.47-9.18h2.12l1.48 9.18Zm-3.3-2.91h1.4l-.7-4.64-.7 4.64ZM144.4 162.17v.32c0 .95-.28 1.55-.93 1.87.78.3 1.08 1 1.08 1.96v.75c0 1.42-.75 2.18-2.2 2.18h-2.27v-9.18h2.18c1.5 0 2.15.7 2.15 2.1Zm-2.87-.8v2.42h.57c.53 0 .86-.23.86-.97v-.5c0-.67-.22-.95-.73-.95h-.7Zm0 3.73v2.82h.83c.48 0 .74-.23.74-.91v-.8c0-.85-.27-1.11-.92-1.11h-.65ZM184.28 165.83v1.24c0 1.47-.74 2.31-2.16 2.31-1.42 0-2.15-.84-2.15-2.3v-4.78c0-1.47.73-2.3 2.15-2.3s2.16.83 2.16 2.3v.9h-1.37v-1.03c0-.66-.29-.9-.75-.9s-.75.24-.75.9v4.97c0 .66.3.9.75.9s.75-.24.75-.9v-1.31h1.37Z" fill="#263238"/><path d="M97.77 155.18h110.44" stroke="#263238" stroke-linecap="round" stroke-linejoin="round"/><path opacity=".3" d="M279.17 42.59h12.19V30.41h-12.2v12.16ZM295.13 42.59h12.2V30.41h-12.2v12.16Z" stroke="black" stroke-linecap="round" stroke-linejoin="round"/><path opacity=".3" d="m281.79 35.23 2.08 4.15 6.12-6.71" stroke="black" stroke-width="2" stroke-linecap="round" stroke-linejoin="round"/><path opacity=".3" d="M94.58 221.03h12.2v-12.16h-12.2v12.16ZM110.54 221.03h12.2v-12.16h-12.2v12.16Z" stroke="black" stroke-linecap="round" stroke-linejoin="round"/><path opacity=".3" d="m97.19 213.68 2.08 4.15 6.12-6.72" stroke="black" stroke-width="2" stroke-linecap="round" stroke-linejoin="round"/><path opacity=".3" d="M152.34 221.03h12.2v-12.16h-12.2v12.16ZM168.31 221.03h12.2v-12.16h-12.2v12.16Z" stroke="black" stroke-linecap="round" stroke-linejoin="round"/><path opacity=".3" d="m154.96 213.68 2.08 4.15 6.12-6.72" stroke="black" stroke-width="2" stroke-linecap="round" stroke-linejoin="round"/><g opacity=".3" stroke="black" stroke-linecap="round" stroke-linejoin="round"><path opacity=".3" d="M171.26 36.5a7.8 7.8 0 1 0-2.5-15.4 7.8 7.8 0 1 0 2.5 15.4Z"/><path opacity=".3" d="M172.2 31.62 170 28.8v-4.44"/></g><g opacity=".3"><path opacity=".3" d="M316.08 178.53h-1.16l-.2-1.32h-1.4l-.2 1.32h-1.06l1.18-7.28h1.67l1.17 7.28Zm-2.61-2.3h1.1l-.56-3.7-.54 3.7ZM332.4 172.92v.26a1.42 1.42 0 0 1-.73 1.47 1.48 1.48 0 0 1 .85 1.56v.62a1.53 1.53 0 0 1-.45 1.29 1.54 1.54 0 0 1-1.3.43h-1.8v-7.3h1.74c1.18 0 1.7.54 1.7 1.67Zm-2.28-.62v1.93h.45c.42 0 .69-.2.69-.77v-.4c0-.53-.18-.76-.6-.76h-.54Zm0 2.96v2.24h.65c.4 0 .63-.17.63-.71v-.63c0-.67-.23-.88-.74-.88l-.54-.02ZM348.93 175.84v.97c0 1.16-.58 1.83-1.71 1.83s-1.72-.67-1.72-1.83v-3.79c0-1.17.59-1.83 1.72-1.83s1.7.66 1.7 1.83v.7h-1.08v-.8c0-.52-.23-.71-.6-.71-.35 0-.61.19-.61.71v3.94c0 .52.23.7.62.7.4 0 .6-.18.6-.7v-1.02h1.07Z" fill="black"/><path opacity=".3" d="M318.36 182.5h-8.86v8.84h8.86v-8.84ZM334.86 182.5h-8.87v8.84h8.87v-8.84ZM351.35 182.5h-8.87v8.84h8.87v-8.84Z" stroke="black" stroke-miterlimit="10"/></g><path d="M108.2 284.95H89.44M353 284.95H114.31" stroke="#263238" stroke-miterlimit="10"/><path d="m280.92 284.74 4-60.78 2.96-28.9-8.1-9.02-4.06-2.94s-5.72 4.97-9.78 6.07c-4.05 1.1-7.95 2.2-7.95 2.2s-13.84 25.96-14.96 37.74c-1.11 11.78-2.95 55.4-2.95 55.4l1.54.23h39.3Z" fill="#9E9E9E" stroke="#263238" stroke-miterlimit="10"/><path d="M261.9 234.63s-.7-.35.69-3.91" stroke="#263238" stroke-miterlimit="10"/><path d="M260.27 190.76c.69 4.9 1.07 9.86 1.14 14.81 0 0 4.15-1.66 7.47-7.45a67.04 67.04 0 0 0 4.73-9.74l-13.34 2.38Z" fill="#263238" stroke="#263238" stroke-miterlimit="10"/><path d="m280.92 284.74 3.6-54.65C281 231.9 274 234.87 266.3 235c-9.23.16-20.66-7-20.66-7l-2.58 1.01v.1c-1.1 11.8-2.95 55.4-2.95 55.4l1.54.23h39.28Z" fill="white" stroke="#263238" stroke-miterlimit="10"/><path d="M274.91 254.15c0 14.08.49 27.62.62 30.58h27.2c.37-4.39 2.72-31.7 3.92-41.49 1.31-10.7 9.94-26.62 9.94-32.31 0-5.7 1.75-4.8-6.13-8.95-7.87-4.14-25.24-13.1-27.65-14.19-2.4-1.1-5.03-3.73-5.03-3.73s.87 5.46.62 20.3c-.25 14.83-3.49 33.87-3.49 49.8Z" fill="white"/><g opacity=".2" fill="black"><path opacity=".2" d="M277.78 184.12c.32 2.58.5 5.18.56 7.78v-7.25l-.56-.53ZM313.54 219.64v1.86l.62-1.65v-.22h.08c.09-.2.16-.42.24-.63h-.32v-7.73h2.41v-.62h-2.4v-6.63l-.63-.35v6.98H307v-7.77h5.06l-1.17-.63h-3.9v-2.04l-.62-.34v2.37h-6.54v-5.76l-.62-.32v6.08h-6.54v-7.75h3.26l-1.21-.63h-2.05v-1.05l-.63-.32v1.38h-6.54v-4.7l-.62-.3v5h-6.48v.62h6.48v7.76h-6.43v.63h6.43v7.77h-6.54v-2.96c-.13 3.04-.35 6.22-.63 9.46V219h-.16l-.05.62h.21v7.8h-.93l-.06.62h1.02v7.77h-1.76l-.06.62h1.82v7.77h-2.43l-.03.62h2.49v7.77h-2.76v.62h2.77v7.77h-2.75v.62h2.74v7.77h-2.62v.62h2.6v14.76h.63v-14.78h6.5v14.76h.62v-14.76h6.55v14.76h.62v-14.76h6.54v14.76h.62v-14.76h4.2c0-.2 0-.4.05-.62h-4.25v-7.75h4.99c0-.2.04-.41.06-.62h-5.05v-7.77h5.76c0-.21.04-.41.06-.62h-5.82v-7.77h6.55v.82l.27-2.38c.09-.7.2-1.41.35-2.15v-4.68h1.16l.2-.62H307v-7.77h4.05c.08-.2.15-.42.24-.62h-4.3v-7.77l6.55-.02Zm-6.54-8.37h6.54v7.77H307v-7.77Zm-22.12 58.09h-6.54v-7.75h6.54v7.75Zm0-8.4h-6.54v-7.76h6.54v7.77Zm0-8.38h-6.54v-7.75h6.54v7.75Zm0-8.4h-6.54v-7.76h6.54v7.77Zm0-8.38h-6.54v-7.75h6.54v7.75Zm0-8.4h-6.54v-7.76h6.54v7.77Zm0-8.38h-6.54v-7.75h6.54v7.75Zm7.17 50.34h-6.55v-7.75h6.55v7.75Zm0-8.4h-6.55v-7.76h6.55v7.77Zm0-8.38h-6.55v-7.75h6.55v7.75Zm0-8.4h-6.55v-7.76h6.55v7.77Zm0-8.38h-6.55v-7.75h6.55v7.75Zm0-8.4h-6.55v-7.76h6.55v7.77Zm0-8.38h-6.55v-7.75h6.55v7.75Zm0-8.4h-6.55v-7.76h6.55v7.77Zm0-8.38h-6.55v-7.75h6.55v7.75Zm7.16 67.12h-6.54v-7.75h6.54v7.75Zm0-8.4h-6.54v-7.76h6.54v7.77Zm0-8.38h-6.54v-7.75h6.54v7.75Zm0-8.4h-6.54v-7.76h6.54v7.77Zm0-8.38h-6.54v-7.75h6.54v7.75Zm0-8.4h-6.54v-7.76h6.54v7.77Zm0-8.38h-6.54v-7.75h6.54v7.75Zm0-8.4h-6.54v-7.76h6.54v7.77Zm7.17 33.57h-6.55v-7.77h6.55v7.77Zm0-8.4h-6.55v-7.74h6.55v7.75Zm0-8.38h-6.55v-7.77h6.55v7.77Zm0-8.4h-6.55v-7.74h6.55v7.75Zm0-8.38h-6.55v-7.77h6.55v7.77Z"/></g><path d="M274.91 254.15c0 14.08.49 27.62.62 30.58h27.2c.37-4.39 2.72-31.7 3.92-41.49 1.31-10.7 9.94-26.62 9.94-32.31 0-5.7 1.75-4.8-6.13-8.95-7.87-4.14-25.24-13.1-27.65-14.19-2.4-1.1-5.03-3.73-5.03-3.73s.87 5.46.62 20.3c-.25 14.83-3.49 33.87-3.49 49.8Z" stroke="#263238" stroke-miterlimit="10"/><path d="M277.78 184.12s.87 5.46.62 20.3c-.05 3.72-.3 7.75-.62 11.9.74-1.03 3.16-4.3 3.74-4.49.65-.22 4.15 3.06 7 3.5 2.83.43 3.93.43.87-2.84-3.06-3.28-4.36-12.88-5.47-20.08a27.87 27.87 0 0 0-1.02-4.55h-.07c-2.43-1.12-5.05-3.74-5.05-3.74Z" fill="#263238" stroke="#263238" stroke-miterlimit="10"/><path d="M295.73 251.62c2.01-.92 3.6-1.7 3.6-1.7l.73 5.7s-10.89 4.78-16.98 5.15c-6.08.37-6.64.55-6.64.55l.18-5.52" stroke="#263238" stroke-miterlimit="10"/><path d="M290.27 253.85c1.12-.38 2.43-.9 3.7-1.46M278.65 255.25c3.18-.08 6.36-.37 9.5-.86M300.06 255.62l.37 4.42" stroke="#263238" stroke-miterlimit="10"/><path d="M216.58 284.74h30.6c.08-2.4.96-32.8 1.56-48.32.62-16.16 11.62-40.67 11.62-40.67s1.46-3.46-.1-5.01c-1.55-1.56-5.29-.93-8.1 1.24-2.8 2.18-28.65 13.36-30.21 14.92-1.56 1.55-1.25 6.84-1.87 13.05-.62 6.22-10.9 49.1-10.9 49.1s-2.8.62-3.74 1.24c-.94.62-.94 2.49-.94 2.49s1.25.3 4.99 2.17c3.44 1.72 6.6 8.68 7.1 9.8Z" fill="white"/><path opacity=".2" d="M256.22 202.86v3.17l.62-1.66v-1.51h.59l.24-.62h-.83v-7.75h3.93c.04-.2.09-.4.12-.63h-4.05v-3.9c-.2.03-.41.06-.62.11v3.8h-6.55v-.43l-.62.32v.1h-.2l-1.26.63h1.46v7.77h-6.54v-5.35l-.62.3v5.03h-6.54v-1.99l-.63.3v1.69h-3.62l-1.32.62h4.94v7.79h-6.54v-7.03l-.62.3v6.73H221v-1.57a54.94 54.94 0 0 0-.62 6.84v3.1h-.22l-.06.63h.28v7.78h-1.67l-.14.62h1.81v7.77h-3.5l-.13.62h3.63v7.77H215l-.14.62h5.53v7.77h-6.54v-3.42l-.62 2.68v.7h-.17l-.14.63h.3v7.8h-2.13l-.15.62h2.29v7.77h-5.3c-.63.17-1.25.38-1.86.62v3.38l.62.27V270h6.54v8.7l.62.94V270h6.54v14.76h.62v-14.79h6.55v14.76h.62v-14.76h6.54v14.76h.63v-14.76h6.54v14.76h.62v-14.76h5.12v-.62h-5.12v-7.75h5.38v-.62h-5.38v-7.77h5.65v-.62h-5.65v-7.77h5.93v-.62h-5.93v-7.77h6.23c0-.2 0-.41.03-.62h-6.26v-7.77h6.54v4.6c.16-1.33.37-2.7.63-4.07v-.53h.1l.11-.62h-.21v-7.77h2.08l.18-.62h-2.26v-7.77h4.67l.21-.62h-4.88v-7.77l6.54-.02Zm-6.55-8.37h6.55v7.77h-6.55v-7.77Zm-29.28 74.89h-6.54v-7.77h6.54v7.77Zm0-8.4h-6.54v-7.76h6.54v7.77Zm7.17 8.4H221v-7.77h6.55v7.77Zm0-8.4H221v-7.76h6.55v7.77Zm0-8.38H221v-7.77h6.55v7.77Zm0-8.4H221v-7.76h6.55v7.77Zm0-8.38H221v-7.77h6.55v7.77Zm0-8.4H221v-7.76h6.55v7.77Zm0-8.38H221v-7.77h6.55v7.77Zm7.16 50.34h-6.54v-7.77h6.54v7.77Zm0-8.4h-6.54v-7.76h6.54v7.77Zm0-8.38h-6.54v-7.77h6.54v7.77Zm0-8.4h-6.54v-7.76h6.54v7.77Zm0-8.38h-6.54v-7.77h6.54v7.77Zm0-8.4h-6.54v-7.76h6.54v7.77Zm0-8.38h-6.54v-7.77h6.54v7.77Zm7.17 50.34h-6.54v-7.77h6.54v7.77Zm0-8.4h-6.54v-7.76h6.54v7.77Zm0-8.38h-6.54v-7.77h6.54v7.77Zm0-8.4h-6.54v-7.76h6.54v7.77Zm0-8.38h-6.54v-7.77h6.54v7.77Zm0-8.4h-6.54v-7.76h6.54v7.77Zm0-8.38h-6.54v-7.77h6.54v7.77Zm0-8.4h-6.54v-7.76h6.54v7.77Zm7.16 16.79h-6.54v-7.77h6.54v7.77Zm0-8.4h-6.54v-7.76h6.54v7.77Zm0-8.38h-6.54v-7.77h6.54v7.77Z" fill="black"/><path d="M216.58 284.74h30.6c.08-2.4.96-32.8 1.56-48.32.62-16.16 11.62-40.67 11.62-40.67s1.46-3.46-.1-5.01c-1.55-1.56-5.29-.93-8.1 1.24-2.8 2.18-28.65 13.36-30.21 14.92-1.56 1.55-1.25 6.84-1.87 13.05-.62 6.22-10.9 49.1-10.9 49.1s-2.8.62-3.74 1.24c-.94.62-.94 2.49-.94 2.49s1.25.3 4.99 2.17c3.44 1.72 6.6 8.68 7.1 9.8Z" stroke="#263238" stroke-miterlimit="10"/><path d="M204.5 272.8s1.25.3 4.99 2.17c3.73 1.87 7.16 9.95 7.16 9.95h6.04c.38-1.14 1.3-5.25-2.92-10.26-4.99-5.9-10.6-5.6-10.6-5.6s-2.8.63-3.73 1.25c-.94.62-.94 2.49-.94 2.49ZM256.5 190c-1.34 3.54-4.5 11.53-7.14 15.34-3.42 4.98-9.65 9.02-7.47 10.88 2.18 1.87 8.4-4.04 8.4-4.04s1.57 4.35 1.88 5.6c.02.05.04.1.08.15a195.01 195.01 0 0 1 8.1-22.18s1.47-3.46-.09-5.01c-.8-.8-2.17-1.02-3.76-.74Z" fill="#263238" stroke="#263238" stroke-miterlimit="10"/><path d="M233.75 220c.18-1.15.3-2.3.35-3.47M228.8 285.52s.94-19.89.94-31.39c0-8.28 2.26-22.22 3.53-30.75" stroke="#263238" stroke-miterlimit="10"/><path d="M230.36 249.8s4.98 1.55 7.48 1.86l7.47.94-.56 7.04s-.37-.2-5.98-2.07c-5.6-1.86-9.03-3.42-9.03-3.42" stroke="#263238" stroke-miterlimit="10"/><path d="M244.75 259.62s-.37 13.8-.37 15.66c0 1.87-5.6.62-5.6.62" stroke="#263238" stroke-miterlimit="10"/><path d="M249.22 183.44s5.88 8.42 11.14 12.3c5.25 3.9 9.74-1.55 13.25-7.38 3.5-5.83 5.84-10.1 7.6-15.15 1.74-5.06 0-13.4-7.02-20.02-7-6.6-23.38-16.32-27.47-11.27-4.09 5.05-7.99 16.16-5.26 25.65a50.07 50.07 0 0 0 7.76 15.87Z" fill="#9E9E9E" stroke="#263238" stroke-miterlimit="10"/><path d="M246.75 165.3c2.21-.66 4.58-.66 6.8 0" stroke="#263238" stroke-width="2" stroke-miterlimit="10" stroke-linecap="round"/><path d="M251.78 170.5c.18 1.02-.06 1.9-.53 2-.48.08-1.01-.67-1.2-1.68-.19-1.01.05-1.9.53-1.98.48-.09 1 .66 1.2 1.67ZM269.1 170.78c.19 1-.05 1.86-.52 1.98-.47.12-1.01-.66-1.2-1.67-.18-1.02.05-1.9.53-1.99.48-.08 1.01.66 1.2 1.68Z" fill="#263238"/><path d="M256.27 184.48a18.4 18.4 0 0 0 7 .97c4.1-.2 7.6-3.1 7.6-3.1" stroke="#263238" stroke-miterlimit="10"/><path d="M247.33 146.22s8.65 19.68 9.73 20.22c1.09.55 3.25-5.93 3.25-5.93s2.97 5.39 6.5 7.01 4.6-1.08 4.6-1.08c1.76 1 3.48 2.08 5.14 3.24l1.35 1.08 1.35 4.85s-4.05 13.22-2.7 14.84c1.35 1.63 8.92-.54 8.92-.54s-1.87 2.7.54 2.7c2.42 0 6.76.54 12.98-7.83 6.22-8.36 6.76-21.84 6.76-21.84s2.97 3.23 3.25-.81c.27-4.05-3.52-10.8-3.52-10.8s5.95 5.94 5.41-.26c-.53-6.2-4.05-13.22-5.4-14.84-1.36-1.61-9.48-6.21-9.48-6.21s3.25-.54.82-4.32c-2.43-3.78-11.36-4.86-14.6-4.86-3.25 0-10.01 1.09-10.01 1.09s4.33-8.37-.27-8.91c-4.6-.54-12.71 8.37-12.71 8.37s-8.1-6.48-10.55-5.13c-2.45 1.35-.8 3.24-.8 3.24s-10.55.8-13.53 5.4c-2.98 4.58.54 7.28.54 7.28s-18.93 12.94-15.95 17.8c2.97 4.85 8.38.27 8.38.27s-7.57 19.42-6.49 20.77c1.08 1.35 6.23-.54 6.23-.54s-.27 15.64 3.79 17.26c4.05 1.63 4.86-1.34 4.86-1.34s2.17 2.15 7.04 2.42 6.49-5.4 6.49-5.4-5.41-12.67-5.14-23.2c.28-10.5 3.22-14 3.22-14Z" fill="#263238" stroke="#263238" stroke-miterlimit="10"/><path d="M258.22 168.93s-1.95 10.1-.4 12.24c1.56 2.14 7.02 0 7.4-1.16" fill="#9E9E9E"/><path d="M258.22 168.93s-1.95 10.1-.4 12.24c1.56 2.14 7.02 0 7.4-1.16" stroke="#263238" stroke-miterlimit="10"/><path d="M250.13 175.15c4.25 0 7.7-2.52 7.7-5.64 0-3.1-3.45-5.63-7.7-5.63s-7.7 2.52-7.7 5.63c0 3.12 3.45 5.64 7.7 5.64ZM268.63 174.77c4.25 0 7.7-2.53 7.7-5.64s-3.44-5.64-7.7-5.64c-4.24 0-7.69 2.53-7.69 5.64s3.45 5.64 7.7 5.64Z" stroke="#263238" stroke-miterlimit="10"/><path d="M258.22 168.93s1.55-1.16 2.72.2" stroke="#263238" stroke-miterlimit="10"/><path d="M194.1 276.47s9.78-2.75 12.8-3.25c3-.5 9.03 5 10.03 8s-.28 3.68-.28 3.68l-20.04-.67-2.5-7.76Z" fill="#9E9E9E" stroke="#263238" stroke-miterlimit="10"/><path d="M197.65 275.5s7.38 2.76 9.23 3.87c1.84 1.1 1.29 3.3.18 4.4a10.43 10.43 0 0 1-4.61 2.22c-1.72.1-3.45.1-5.17 0-2.21-.19-4.24.19-6.09.19-1.84 0-7.38-.56-7.38-.56l-1.66-1.1s-3.12.92-5.54 1.86c-2.41.95-1.66-1.1.18-2.58 1.85-1.47 6.47-5.15 7.2-5.52.75-.36 10.16-3.1 10.16-3.1l3.5.32Z" fill="#9E9E9E" stroke="#263238" stroke-miterlimit="10"/><path d="M200.41 276.23s-4.8-2.2-6.09-2.2-10.52 3.1-11.8 4.04c-1.3.94-2.6 9.76-1.67 10.31.92.56 1.66-1.1 1.87-2.2.2-1.1 2.77-7 2.77-7l-1.87 9.39s.75 1.47 1.48.18c.74-1.29 5.35-10.12 5.72-10.68a6.76 6.76 0 0 1 1.66-1.28s-.92 4.05-1.66 7.91c-.74 3.87-.18 4.98.93 5.16 1.1.18 1.66-2.4 2.21-3.68.55-1.29 2.95-8.66 2.95-8.66" fill="#9E9E9E"/><path d="M200.41 276.23s-4.8-2.2-6.09-2.2-10.52 3.1-11.8 4.04c-1.3.94-2.6 9.76-1.67 10.31.92.56 1.66-1.1 1.87-2.2.2-1.1 2.77-7 2.77-7l-1.87 9.39s.75 1.47 1.48.18c.74-1.29 5.35-10.12 5.72-10.68a6.76 6.76 0 0 1 1.66-1.28s-.92 4.05-1.66 7.91c-.74 3.87-.18 4.98.93 5.16 1.1.18 1.66-2.4 2.21-3.68.55-1.29 2.95-8.66 2.95-8.66" stroke="#263238" stroke-miterlimit="10"/><path d="M205.75 279.92s-5.53 5.7-6.28 7c-.74 1.28-.73 1.46 1.3 1.46 2.03 0 8.3-4.05 8.85-4.6.55-.55.38-2.2-.92-3.31a3.27 3.27 0 0 0-2.95-.55ZM240.3 279.29s-7.38 2.38-9.2 3.72c-1.8 1.35-4.42 2.84-3.85 3.3.56.44 2.38 0 2.95-.46.56-.46 3.18-.91 3.18-.91s3.06-1.81 5.45-3.28c2.38-1.47 4.2-3.06 1.47-2.38Z" fill="#9E9E9E" stroke="#263238" stroke-miterlimit="10"/><path d="M281.06 266.82s-20.56 3.73-28 6.33c-7.44 2.6-10.4 4.42-14.12 7.04-3.72 2.63-11.26 7.58-10.14 8.45 1.12.87 5.03-2.18 5.7-2.84.65-.65 5.46-2.61 5.46-2.61l3.21-1.64s-4.84 5.94-6.59 7.45c-1.74 1.51-.56 2.46.75 2.02 1.32-.43 3.8-3.03 3.8-3.03l7.99-5.25s-3.28 4.59-4.82 5.9c-1.53 1.3 1.75 2.4 2.41 1.3.67-1.09 3.94-3.92 3.94-3.92s5.47-2.84 6.78-3.93c1.32-1.1 4.6-4.15 4.6-4.15l24.5 1.97s1.53-.87.65-5.9c-.87-5.02-6.12-7.2-6.12-7.2Z" fill="#9E9E9E" stroke="#263238" stroke-miterlimit="10"/><path d="m297.68 228.2 12.03 29.68-19.47 6.76 5.47 15.93s13.99.04 24.93-.62 18.62-7.24 16.86-15.09c-1.75-7.85-8.3-19.2-13.56-32.74-5.25-13.53-3.63-21.6-6.03-25.74-2.4-4.14-9.2-5.24-9.2-5.24l-3.73-.62" fill="white"/><path opacity=".2" d="M335.66 273.11v-3.1h1.63l.17-.63h-1.8v-7.77h.93l-.2-.62h-.73v-1.9l-.62-1.57v3.47h-6.55v-7.77h4.7c-.1-.2-.18-.41-.27-.62h-4.43v-7.77h.88l-.29-.62h-.59v-1.3l-.62-1.39v2.69h-6.54v-7.77h4.36a18 18 0 0 1-.25-.62h-4.11v-7.77h1.16l-.19-.62h-.97v-3.55c-.24-.98-.44-1.92-.62-2.82v6.37h-6.55v-7.77h6.28l-.1-.62h-6.18v-7.77h5.12l-.1-.62h-5.02v-7.62c-.54-.3-1.1-.56-1.68-.8H307v-1.38l-.63-.12v1.5h-1.83l-.17.63h2v7.79h-4.05l-.16.62h4.22v7.77h-6.27l-.17.62h6.44v7.77h-6.55v-7.37l-.62 2.35v4.97h-1.32l-.16.63h1.48v3.93l.62 1.53v-5.42h6.55v7.77h-5.61l.25.62h5.36v7.77h-2.19l.26.62h1.96v4.83l.62 1.53v-6.36h6.51v7.77h-5.98l.26.62h5.72v7.77H307v-2.15l-.63.22v1.93h-5.56l-1.8.62h.2v7.77h-6.54v-5.6l-.63.22v5.35h-.18l.8 2.33v-1.71h6.55v10.56h.62v-10.56h6.55v10.48h.62v-10.47h6.54v10.27h.62v-10.27h6.55v9.94l.62-.05v-9.89h6.54v8.53l.62-.24v-8.29h6.55v3.9c.21-.25.43-.5.62-.77Zm-29.29-3.73h-6.54v-7.77h6.55v7.77Zm7.17 0H307v-7.77h6.54v7.77Zm0-25.17H307v-7.77h6.54v7.77Zm0-8.39H307v-7.77h6.54v7.77Zm0-8.39H307v-7.77h6.54v7.77Zm0-8.39H307v-7.77h6.54v7.77Zm0-8.39H307v-7.77h6.54v7.77Zm7.17 58.73h-6.55v-7.77h6.55v7.77Zm0-8.39h-6.55v-7.77h6.55V261Zm0-8.39h-6.55v-7.77h6.55v7.77Zm0-8.39h-6.55v-7.77h6.55v7.77Zm0-8.39h-6.55v-7.77h6.55v7.77Zm7.16 33.56h-6.54v-7.77h6.54v7.77Zm0-8.39h-6.54v-7.77h6.54V261Zm0-8.39h-6.54v-7.77h6.54v7.77Zm.62 16.78v-7.77h6.55v7.77h-6.55Z" fill="#263238"/><path d="m297.68 228.2 12.03 29.68-19.47 6.76 5.47 15.93s13.99.04 24.93-.62 18.62-7.24 16.86-15.09c-1.75-7.85-8.3-19.2-13.56-32.74-5.25-13.53-3.63-21.6-6.03-25.74-2.4-4.14-9.2-5.24-9.2-5.24l-3.73-.62" stroke="#263238" stroke-miterlimit="10"/><path d="M321.43 254.86a87.37 87.37 0 0 0-11.72 3.01s8.32-5.45 12.9-5.89M327 254.6a12 12 0 0 0-2.6-.09" stroke="#263238" stroke-miterlimit="10"/><path d="M295.93 262.23s4.43 4.22 5.74 7.49c1.3 3.27.82 12.15-.05 13.02-.87.87-17.15.76-19.83-2.57-.7-.87 4.08-2.88 1.67-7.69-2.4-4.8-3.5-5.23-3.5-5.23s-1.97-1.1 1.75-3.5c3.72-2.39 12.25-4.13 14.22-1.52Z" fill="#263238" stroke="#263238" stroke-miterlimit="10"/><path d="M334.72 295.88h-16.15l-2.02-31.85h20.19l-2.02 31.85Z" fill="#263238" stroke="#263238" stroke-linejoin="round"/><path d="M337.64 264.08h-21.98v4.64h21.98v-4.64Z" fill="white" stroke="#263238" stroke-linejoin="round"/><path d="M337.64 264.26h-21.98l2.2-2.75h17.58l2.2 2.75ZM335.31 286.54l.8-12.69h-18.94l.8 12.69h17.34Z" fill="white" stroke="#263238" stroke-linejoin="round"/><path d="m241.65 298 19.9-5.25v2.69l-19.9 5.56v-3Z" fill="#263238" stroke="#263238" stroke-linejoin="round"/><path d="M261.55 292.75H157.5L137.4 298h104.25l19.9-5.25Z" fill="white" stroke="#263238" stroke-linejoin="round"/><path d="M241.65 238.02H137.39V301h104.26v-62.98Z" fill="white" stroke="#263238" stroke-linejoin="round"/><path d="M241.65 247.13c-22.68 1.08-36.19 21.93-56.26 35.9-18.3 12.74-40.88 14.92-47.97 15.26V301h104.23v-53.87Z" fill="#263238" stroke="#263238" stroke-linejoin="round"/><path d="M241.65 298H137.39v3h104.26v-3Z" fill="white" stroke="#263238" stroke-miterlimit="10"/><path d="M106.52 277.22s-8.68-13.86-1.71-21.66c6.97-7.8 18.24-4.04 20.56 3.18 2.33 7.22-2.6 19.35-2.6 19.35l-16.25-.87Z" fill="white" stroke="#263238" stroke-linecap="round" stroke-linejoin="round"/><path d="M106.81 261.34c-1.45 0-6.95-2.02-8.68-4.62-1.74-2.6-2.04-8.38 2.9-8.38 4.93 0 6.65 8.66 6.65 8.66l.29 3.18" fill="white"/><path d="M106.81 261.34c-1.45 0-6.95-2.02-8.68-4.62-1.74-2.6-2.04-8.38 2.9-8.38 4.93 0 6.65 8.66 6.65 8.66l.29 3.18" stroke="#263238" stroke-linecap="round" stroke-linejoin="round"/><path d="M111.27 255.94c-1.3-.62-5.32-4.9-5.71-8-.4-3.1 1.94-8.4 6.34-6.21 4.4 2.18 2.08 10.72 2.08 10.72l-1.16 2.97" fill="white"/><path d="M111.27 255.94c-1.3-.62-5.32-4.9-5.71-8-.4-3.1 1.94-8.4 6.34-6.21 4.4 2.18 2.08 10.72 2.08 10.72l-1.16 2.97" stroke="#263238" stroke-linecap="round" stroke-linejoin="round"/><path d="M116.53 257.4c-.73-1.25-1.7-7.02-.3-9.82 1.4-2.8 6.28-5.92 8.72-1.65 2.44 4.26-4.23 10.07-4.23 10.07l-2.63 1.82" fill="white"/><path d="M116.53 257.4c-.73-1.25-1.7-7.02-.3-9.82 1.4-2.8 6.28-5.92 8.72-1.65 2.44 4.26-4.23 10.07-4.23 10.07l-2.63 1.82" stroke="#263238" stroke-linecap="round" stroke-linejoin="round"/><path d="M118.25 267.75c-.24-1.43.85-7.17 3.12-9.32 2.26-2.15 7.94-3.39 8.76 1.45.81 4.84-7.48 8-7.48 8l-3.12.8" fill="white"/><path d="M118.25 267.75c-.24-1.43.85-7.17 3.12-9.32 2.26-2.15 7.94-3.39 8.76 1.45.81 4.84-7.48 8-7.48 8l-3.12.8" stroke="#263238" stroke-linecap="round" stroke-linejoin="round"/><path d="m98.76 253.23.98 1.54M101.56 257l1.53 1.25M99.88 250.3l1.54 2.23M103.52 254.35l1.67 3.06M107.42 246.96l.56 1.67M109.38 251.7l.98 1.4M108.96 243.62l1.26 2.78M104.07 263.27l.42 2.5M105.33 268.14l.56 2.1M106.72 263.4l.56 2.79M108.54 268.14l.42 2.1M109.52 259.78l.84 3.9M111.48 267.44l.13 1.82M113.01 258.53l.7 3.62M113.7 265.92l.29 3.76M117.07 259.92v3.07M116.64 266.9l.15 2.36M120.56 245.43l-.7 1.67M119.58 249.05l-.7 2.37M123.63 248.63l-1.12 2.23M120.14 253.38l-1.26 1.39M117.48 248.5l-.41 1.8M123.63 258.53l-1.53 2.5M121.12 262.57l-.84 2.23M122.38 265.92l2.5-1.4M126.42 258.53l-1.25 2.1M127.68 260.9l-1.67 1.25" stroke="white" stroke-linecap="round" stroke-linejoin="round"/><path d="M125.88 272.39h-23.75v23.69h23.75v-23.7Z" fill="#263238" stroke="#263238" stroke-linecap="round" stroke-linejoin="round"/></svg>