<svg width="390" height="390" fill="none" xmlns="http://www.w3.org/2000/svg"><path d="M341.9 130.53h-69.67v158.05h69.67V130.53Z" stroke="#263238" stroke-width=".75" stroke-linecap="round" stroke-linejoin="round"/><path d="M335.78 136.65h-57.44v145.81h57.44V136.65ZM284.87 201.03l-1.57 2.72M301.36 172.48l-14.68 25.43M314.83 149.14l-11.12 19.27M317.19 145.07l-1.19 2.05M289.54 270.33l-1.33 2.31M292.63 264.98l-1.4 2.46M311.47 232.35l-15.81 27.4M325.47 208.1l-12.38 21.45M328.54 202.8l-1.23 2.12M307.06 252.88l-11.4 19.76M321.65 227.62l-12.93 22.39M324.68 222.37l-1.53 2.64M283.3 221.48l-1.73 3M298.46 195.23l-13.77 23.85M317.37 162.47l-17.29 29.95M328.74 142.79l-10.03 17.38M117.77 130.53H48.1v158.05h69.67V130.53Z" stroke="#263238" stroke-width=".75" stroke-linecap="round" stroke-linejoin="round"/><path d="M111.66 136.65H54.22v145.81h57.44V136.65ZM60.75 201.03l-1.57 2.72M77.23 172.48l-14.68 25.43M90.7 149.14l-11.12 19.27M93.05 145.07l-1.17 2.05M65.42 270.33l-1.34 2.31M68.5 264.98l-1.41 2.46M87.34 232.35l-15.81 27.4M101.34 208.1l-12.38 21.45M104.41 202.8l-1.23 2.12M82.94 252.88l-11.41 19.76M97.52 227.62 84.6 250.01M100.55 222.37l-1.52 2.64M59.18 221.48l-1.74 3M74.33 195.23l-13.77 23.85M93.24 162.47l-17.28 29.95M104.6 142.79l-10.03 17.38" stroke="#263238" stroke-width=".75" stroke-linecap="round" stroke-linejoin="round"/><path d="M23.01 354.45h343.98" stroke="#263238" stroke-linecap="round" stroke-linejoin="round"/><path d="M142.5 292.66h-5.97v20.3h5.97v-20.3Z" fill="white"/><path opacity=".2" d="M142.5 292.66h-5.97v20.3h5.97v-20.3Z" fill="black"/><path d="M148.47 294.9h-5.96v18.05h5.96V294.9ZM155.92 294.9h-4.21v18.05h4.21V294.9Z" fill="white"/><path opacity=".9" d="M155.92 294.9h-4.21v18.05h4.21V294.9Z" fill="white"/><path d="M151.72 293h-3.82v19.96h3.82v-19.97Z" fill="white"/><path opacity=".1" d="M151.72 293h-3.82v19.96h3.82v-19.97Z" fill="black"/><path d="M161.9 292.66h-5.97v20.3h5.97v-20.3ZM167.86 294.9h-5.96v18.05h5.96V294.9Z" fill="white"/><path opacity=".2" d="M167.86 294.9h-5.96v18.05h5.96V294.9Z" fill="#263238"/><path d="M175.32 294.9h-4.21v18.05h4.21V294.9Z" fill="white"/><path opacity=".8" d="M175.32 294.9h-4.21v18.05h4.21V294.9Z" fill="white"/><path d="M171.1 293h-3.81v19.96h3.82v-19.97Z" fill="white"/><path opacity=".1" d="M171.1 293h-3.81v19.96h3.82v-19.97Z" fill="black"/><path d="M203.79 312.96h5.97v-20.29h-5.97v20.29Z" fill="white"/><path opacity=".2" d="M203.79 312.96h5.97v-20.29h-5.97v20.29Z" fill="black"/><path d="M197.82 312.96h5.96V294.9h-5.96v18.06ZM190.37 312.96h4.2V294.9h-4.2v18.06Z" fill="white"/><path opacity=".9" d="M190.37 312.96h4.2V294.9h-4.2v18.06Z" fill="white"/><path d="M194.57 312.95h3.82v-19.97h-3.82v19.97Z" fill="white"/><path opacity=".1" d="M194.57 312.95h3.82v-19.97h-3.82v19.97Z" fill="black"/><path d="M184.4 312.96h5.96v-20.29h-5.97v20.29ZM178.43 312.96h5.96V294.9h-5.96v18.06Z" fill="white"/><path opacity=".2" d="M178.43 312.96h5.96V294.9h-5.96v18.06Z" fill="#263238"/><path d="M175.18 312.95H179v-19.97h-3.82v19.97Z" fill="white"/><path opacity=".1" d="M175.18 312.95H179v-19.97h-3.82v19.97Z" fill="black"/><path d="M238.19 312.96h5.97v-20.29h-5.97v20.29Z" fill="white"/><path opacity=".2" d="M238.19 312.96h5.97v-20.29h-5.97v20.29Z" fill="black"/><path d="M232.21 312.96h5.97V294.9h-5.97v18.06ZM224.76 312.96h4.22V294.9h-4.22v18.06Z" fill="white"/><path opacity=".9" d="M224.76 312.96h4.22V294.9h-4.22v18.06Z" fill="white"/><path d="M228.97 312.95h3.82v-19.97h-3.82v19.97Z" fill="white"/><path opacity=".1" d="M228.97 312.95h3.82v-19.97h-3.82v19.97Z" fill="black"/><path d="M218.79 312.96h5.97v-20.29h-5.97v20.29ZM248.04 312.24l3.92-1.05-5.28-19.68-3.92 1.05 5.28 19.68ZM212.82 312.96h5.97V294.9h-5.97v18.06Z" fill="white"/><path opacity=".2" d="M212.82 312.96h5.97V294.9h-5.97v18.06Z" fill="#263238"/><path d="M209.58 312.95h3.82v-19.97h-3.82v19.97Z" fill="white"/><path opacity=".1" d="M209.58 312.95h3.82v-19.97h-3.82v19.97Z" fill="black"/><path d="m250.04 339.31 4-1.07-5.25-19.6-4 1.08 5.25 19.6Z" fill="white"/><path opacity=".2" d="m250.04 339.31 4-1.07-5.25-19.6-4 1.08 5.25 19.6Z" fill="black"/><path d="M239.74 339.11h5.97v-18.05h-5.97v18.05ZM232.28 339.11h4.2v-18.05h-4.2v18.05Z" fill="white"/><path opacity=".9" d="M232.28 339.11h4.2v-18.05h-4.2v18.05Z" fill="white"/><path d="M236.49 339.12h3.82v-19.97h-3.82v19.97Z" fill="white"/><path opacity=".1" d="M236.49 339.12h3.82v-19.97h-3.82v19.97Z" fill="black"/><path d="M226.32 339.12h5.96v-20.29h-5.96v20.3ZM220.34 339.11h5.97v-18.05h-5.97v18.05Z" fill="white"/><path opacity=".2" d="M220.34 339.11h5.97v-18.05h-5.97v18.05Z" fill="#263238"/><path d="M212.9 339.11h4.2v-18.05h-4.2v18.05Z" fill="white"/><path opacity=".8" d="M212.9 339.11h4.2v-18.05h-4.2v18.05Z" fill="white"/><path d="M217.1 339.12h3.82v-19.97h-3.82v19.97Z" fill="white"/><path opacity=".1" d="M217.1 339.12h3.82v-19.97h-3.82v19.97Z" fill="black"/><path d="M184.42 318.83h-5.96v20.3h5.96v-20.3Z" fill="white"/><path opacity=".2" d="M184.42 318.83h-5.96v20.3h5.96v-20.3Z" fill="black"/><path d="M190.39 321.06h-5.97v18.06h5.97v-18.06ZM197.85 321.06h-4.22v18.06h4.22v-18.06Z" fill="white"/><path opacity=".9" d="M197.85 321.06h-4.22v18.06h4.22v-18.06Z" fill="white"/><path d="M193.63 319.15h-3.82v19.97h3.82v-19.97Z" fill="white"/><path opacity=".1" d="M193.63 319.15h-3.82v19.97h3.82v-19.97Z" fill="black"/><path d="M203.81 318.83h-5.96v20.3h5.96v-20.3ZM209.78 321.06h-5.97v18.06h5.97v-18.06Z" fill="white"/><path opacity=".2" d="M209.78 321.06h-5.97v18.06h5.97v-18.06Z" fill="#263238"/><path d="M213.03 319.15h-3.83v19.97h3.83v-19.97Z" fill="white"/><path opacity=".1" d="M213.03 319.15h-3.83v19.97h3.83v-19.97Z" fill="black"/><path d="M150.03 318.83h-5.97v20.3h5.97v-20.3Z" fill="white"/><path opacity=".2" d="M150.03 318.83h-5.97v20.3h5.97v-20.3Z" fill="black"/><path d="M156 321.06h-5.97v18.06h5.96v-18.06ZM163.45 321.06h-4.21v18.06h4.2v-18.06Z" fill="white"/><path opacity=".9" d="M163.45 321.06h-4.21v18.06h4.2v-18.06Z" fill="white"/><path d="M159.24 319.15h-3.83v19.97h3.83v-19.97Z" fill="white"/><path opacity=".1" d="M159.24 319.15h-3.83v19.97h3.83v-19.97Z" fill="black"/><path d="M169.42 318.83h-5.97v20.3h5.97v-20.3ZM144.05 319.7l-3.9-1.05-5.26 19.6 3.9 1.05 5.26-19.6ZM175.38 321.06h-5.96v18.06h5.96v-18.06Z" fill="white"/><path opacity=".2" d="M175.38 321.06h-5.96v18.06h5.96v-18.06Z" fill="#263238"/><path d="M178.63 319.15h-3.82v19.97h3.82v-19.97Z" fill="white"/><path opacity=".1" d="M178.63 319.15h-3.82v19.97h3.82v-19.97Z" fill="black"/><path d="M141.12 354.45h-5.97l-.82-11.54h7.6l-.81 11.54ZM254.85 354.45h-5.97l-.82-11.54h7.6l-.81 11.54Z" fill="#263238"/><path d="M261.43 285H128.56a2.86 2.86 0 0 0-2.86 2.87v54.27a2.86 2.86 0 0 0 2.86 2.86h132.86a2.86 2.86 0 0 0 2.86-2.86v-54.27a2.86 2.86 0 0 0-2.87-2.87v0Zm-2.88 5.74v22.22H131.41v-22.22h127.14Zm-127.1 48.56v-22.25h127.13v22.25H131.45Z" fill="white" stroke="#263238" stroke-width=".75" stroke-linecap="round" stroke-linejoin="round"/><path d="M241.78 171h-91.92a5.35 5.35 0 0 0-5.35 5.36v19.73c0 2.96 2.4 5.35 5.35 5.35h91.92c2.96 0 5.35-2.4 5.35-5.35v-19.73c0-2.96-2.4-5.35-5.35-5.35Z" fill="#263238" stroke="#263238" stroke-linecap="round" stroke-linejoin="round"/><path d="M240.15 169.37h-91.93a5.35 5.35 0 0 0-5.35 5.35v19.73c0 2.96 2.4 5.36 5.35 5.36h91.93c2.95 0 5.35-2.4 5.35-5.36v-19.73c0-2.96-2.4-5.35-5.35-5.35Z" fill="white" stroke="#263238" stroke-linecap="round" stroke-linejoin="round"/><path d="M240.15 169.37h-91.93a5.35 5.35 0 0 0-5.35 5.35v19.73c0 2.96 2.4 5.36 5.35 5.36h91.93c2.95 0 5.35-2.4 5.35-5.36v-19.73c0-2.96-2.4-5.35-5.35-5.35Z" stroke="#263238" stroke-linecap="round" stroke-linejoin="round"/><path d="M165.6 193.57h-13.52v-17.1h9l4.51 4.51v12.6Z" fill="white"/><path opacity=".5" d="M165.6 193.57h-13.52v-17.1h9l4.51 4.51v12.6Z" fill="white"/><path d="M165.6 193.57h-13.52v-17.1h9l4.51 4.51v12.6Z" stroke="#263238" stroke-linecap="round" stroke-linejoin="round"/><path d="M161.09 180.98h4.5l-4.5-4.5v4.5Z" fill="white" stroke="#263238" stroke-linecap="round" stroke-linejoin="round"/><path d="M155.08 185.55a.86.86 0 0 1 0-1.71h7.51a.86.86 0 0 1 0 1.7h-7.51ZM155.08 189.14a.86.86 0 0 1 0-1.7h5.87a.86.86 0 0 1 .56 1.43.86.86 0 0 1-.56.27h-5.87Z" fill="#858585" stroke="#263238" stroke-width=".75" stroke-linecap="round" stroke-linejoin="round"/><path d="M199.77 186.53H174.6a1.77 1.77 0 0 0 0 3.53h25.16v-3.53Z" fill="white"/><path d="M174.61 190.06a1.77 1.77 0 0 1 0-3.53h59.9a1.78 1.78 0 0 1 1.33 3.06 1.78 1.78 0 0 1-1.33.47h-59.9Z" stroke="#263238" stroke-linecap="round" stroke-linejoin="round"/><path d="M200.34 181.74h-1.9v-.9l1.8-4.26h1.08v4.26h.47v.9h-.47v1.15h-.98v-1.15Zm0-.9v-2.45l-.98 2.46h.97ZM202.25 181.4v-.5h.94v.57c0 .45.2.61.52.61.31 0 .51-.16.51-.61v-1.41c0-.46-.2-.63-.51-.63-.32 0-.52.17-.52.63v.05h-.94l.18-3.53h2.62v.9h-1.74l-.07 1.51a.93.93 0 0 1 .85-.46c.73 0 1.1.52 1.1 1.45v1.42c0 1.01-.5 1.56-1.48 1.56-.97 0-1.46-.55-1.46-1.56ZM205.83 179.08v-1.56a.96.96 0 0 1 .95-1.05.96.96 0 0 1 .96 1.05v1.56a.97.97 0 0 1-.57.96.97.97 0 0 1-1.1-.23.96.96 0 0 1-.24-.73Zm1.27.05v-1.67c0-.28-.12-.4-.31-.4-.2 0-.33.13-.33.4v1.67c0 .28.11.4.33.4.2 0 .31-.13.31-.4Zm1.97-2.55h.63l-2.44 6.31h-.63l2.44-6.3Zm-.47 5.4v-1.57a.97.97 0 0 1 .24-.73.96.96 0 0 1 1.67.73v1.56a.97.97 0 0 1-.25.74.95.95 0 0 1-1.1.23.96.96 0 0 1-.56-.97Zm1.27.04v-1.67c0-.28-.12-.4-.32-.4s-.32.12-.32.4v1.67c0 .28.11.4.32.4.2 0 .32-.12.32-.4Z" fill="#263238"/><path d="M241.78 206.33h-91.92a5.35 5.35 0 0 0-5.35 5.35v19.73c0 2.96 2.4 5.35 5.35 5.35h91.92c2.96 0 5.35-2.4 5.35-5.35v-19.73c0-2.96-2.4-5.35-5.35-5.35Z" fill="#263238" stroke="#263238" stroke-linecap="round" stroke-linejoin="round"/><path d="M240.15 204.69h-91.93a5.35 5.35 0 0 0-5.35 5.35v19.73c0 2.96 2.4 5.35 5.35 5.35h91.93c2.95 0 5.35-2.4 5.35-5.35v-19.73c0-2.96-2.4-5.35-5.35-5.35Z" fill="white" stroke="#263238" stroke-linecap="round" stroke-linejoin="round"/><path d="M219.6 221.63h-44.99a1.77 1.77 0 0 0 0 3.53h45v-3.53Z" fill="white"/><path d="M174.61 225.16a1.77 1.77 0 0 1 0-3.53h59.9a1.78 1.78 0 0 1 1.33 3.06 1.77 1.77 0 0 1-1.33.47h-59.9Z" stroke="#263238" stroke-linecap="round" stroke-linejoin="round"/><path d="M198.56 216.53v-.56a1.3 1.3 0 0 1 .64-1.29 1.25 1.25 0 0 1-.6-1.24v-.26a1.51 1.51 0 1 1 3.02 0v.26a1.28 1.28 0 0 1-.61 1.24 1.3 1.3 0 0 1 .65 1.29v.56a1.56 1.56 0 1 1-3.12 0h.02Zm2.11-.06v-.6c0-.48-.2-.72-.56-.72-.37 0-.56.24-.56.72v.6c0 .48.2.71.56.71.36 0 .56-.23.56-.7Zm0-2.84v-.5c0-.42-.18-.63-.52-.63s-.53.21-.53.63v.5c0 .41.19.63.53.63s.48-.22.48-.63h.04ZM202.25 216.5v-.5h.94v.57c0 .45.2.61.52.61.31 0 .5-.16.5-.61v-1.41c0-.46-.2-.63-.5-.63-.32 0-.52.17-.52.63v.05h-.94l.18-3.53h2.62v.9h-1.74l-.07 1.51a.93.93 0 0 1 .85-.46c.73 0 1.1.52 1.1 1.45v1.42a1.47 1.47 0 0 1-.88 1.46 1.48 1.48 0 0 1-2.07-1.46h.01ZM205.83 214.18v-1.56a.96.96 0 0 1 .95-1.05.96.96 0 0 1 .96 1.05v1.56a.97.97 0 0 1-.57.97.97.97 0 0 1-1.1-.24.96.96 0 0 1-.24-.73Zm1.27.05v-1.67c0-.28-.12-.4-.31-.4-.2 0-.33.13-.33.4v1.67c0 .28.11.4.33.4.2 0 .31-.13.31-.4Zm1.97-2.55h.63l-2.44 6.31h-.63l2.44-6.3Zm-.47 5.4v-1.57a.97.97 0 0 1 .24-.73.96.96 0 0 1 1.67.73v1.56a.97.97 0 0 1-.25.74.95.95 0 0 1-1.1.23.96.96 0 0 1-.56-.97Zm1.27.04v-1.67c0-.28-.12-.4-.32-.4s-.32.12-.32.4v1.67c0 .28.11.4.32.4.2 0 .32-.12.32-.4Z" fill="#263238"/><path d="M165.6 228.67h-13.52v-17.1h9l4.51 4.51v12.6Z" fill="white"/><path opacity=".5" d="M165.6 228.67h-13.52v-17.1h9l4.51 4.51v12.6Z" fill="white" stroke="#263238" stroke-linecap="round" stroke-linejoin="round"/><path d="M165.6 228.67h-13.52v-17.1h9l4.51 4.51v12.6Z" stroke="#263238" stroke-linecap="round" stroke-linejoin="round"/><path d="M155.08 220.65a.86.86 0 0 1 0-1.71h7.51a.86.86 0 0 1 0 1.7h-7.51ZM155.08 224.24a.86.86 0 0 1 0-1.7h5.87a.86.86 0 0 1 .56 1.43.86.86 0 0 1-.56.27h-5.87Z" fill="#858585" stroke="#263238" stroke-width=".75" stroke-linecap="round" stroke-linejoin="round"/><path d="M161.09 216.08h4.5l-4.5-4.5v4.5Z" fill="white" stroke="#263238" stroke-linecap="round" stroke-linejoin="round"/><path d="M254.35 123.85H137.29a5.35 5.35 0 0 0-5.35 5.35v27.2c0 2.95 2.4 5.35 5.35 5.35h117.06c2.96 0 5.35-2.4 5.35-5.35v-27.2c0-2.96-2.4-5.35-5.35-5.35Z" fill="#263238" stroke="#263238" stroke-linecap="round" stroke-linejoin="round"/><path d="M252.71 122.21H135.65a5.35 5.35 0 0 0-5.35 5.35v27.2c0 2.96 2.4 5.35 5.35 5.35h117.06c2.96 0 5.35-2.4 5.35-5.35v-27.2c0-2.95-2.4-5.35-5.35-5.35Z" fill="white" stroke="#263238" stroke-linecap="round" stroke-linejoin="round"/><path d="M174.9 157h-25.04v-31.67h16.69l8.34 8.34v23.32Z" fill="white"/><path opacity=".7" d="M174.9 157h-25.04v-31.67h16.69l8.34 8.34v23.32Z" fill="white"/><path d="M174.9 157h-25.04v-31.67h16.69l8.34 8.34v23.32Z" stroke="#263238" stroke-linecap="round" stroke-linejoin="round"/><path d="M166.54 133.67h8.35l-8.34-8.34v8.34Z" fill="white" stroke="#263238" stroke-linecap="round" stroke-linejoin="round"/><path d="M157.25 137.57h-4.92v4.91h4.92v-4.91ZM162.3 137.57h-4.91v4.91h4.91v-4.91ZM167.36 137.57h-4.91v4.91h4.91v-4.91ZM172.42 137.57h-4.91v4.91h4.9v-4.91ZM157.25 142.48h-4.92v4.92h4.92v-4.92ZM162.3 142.48h-4.91v4.92h4.91v-4.92ZM167.36 142.48h-4.91v4.92h4.91v-4.92ZM172.42 142.48h-4.91v4.92h4.9v-4.92ZM157.25 147.4h-4.92v4.91h4.92v-4.91ZM162.3 147.4h-4.91v4.91h4.91v-4.91ZM167.36 147.4h-4.91v4.91h4.91v-4.91ZM172.42 147.4h-4.91v4.91h4.9v-4.91Z" stroke="white" stroke-width=".75" stroke-linecap="round" stroke-linejoin="round"/><path d="m152.43 151.84 4.96-4.56 2.46.12 2.68-4.85 2.38 2.39 2.66-2.8 2.4-4.57" stroke="white" stroke-width="2" stroke-linecap="round" stroke-linejoin="round"/><path d="m167.15 139 2.81-1.43.57 3.07" stroke="white" stroke-width="2" stroke-linecap="round" stroke-linejoin="round"/><path d="M184.74 140.15h-1.44v-.95c1.14 0 1.56-.25 1.86-1.08h.9v8.57h-1.35l.03-6.54ZM187.66 144.68v-4.53a2.05 2.05 0 1 1 4.1 0v4.53a2.05 2.05 0 1 1-4.1 0Zm2.75.08v-4.68c0-.6-.27-.84-.7-.84-.43 0-.7.23-.7.84v4.68c0 .62.27.85.7.85.43 0 .7-.23.7-.85ZM192.57 144.68v-4.53a2.05 2.05 0 1 1 4.1 0v4.53a2.05 2.05 0 1 1-4.1 0Zm2.76.08v-4.68c0-.6-.28-.84-.7-.84-.43 0-.7.23-.7.84v4.68c0 .62.27.85.7.85.43 0 .7-.23.7-.85ZM197.51 141.51v-2.14a1.3 1.3 0 0 1 2.6 0v2.14a1.3 1.3 0 0 1-2.22.93 1.3 1.3 0 0 1-.38-.93Zm1.75.07v-2.27c0-.38-.17-.55-.45-.55-.27 0-.44.17-.44.55v2.27c0 .38.16.54.44.54s.45-.16.45-.54Zm2.67-3.47h.87l-3.33 8.58h-.86l3.32-8.57Zm-.65 7.35v-2.15a1.29 1.29 0 0 1 .8-1.2 1.3 1.3 0 0 1 1.7.7c.07.16.1.33.1.5v2.15a1.31 1.31 0 0 1-.8 1.2 1.31 1.31 0 0 1-1.42-.28 1.3 1.3 0 0 1-.38-.92Zm1.75.06v-2.27c0-.38-.18-.54-.45-.54s-.44.16-.44.54v2.28c0 .37.16.53.44.53s.45-.16.45-.53ZM206.07 144.03v-3.4a1.46 1.46 0 0 1 2.92 0v.68h-.94v-.74c0-.41-.2-.58-.5-.58s-.5.17-.5.58v3.53c0 .41.2.57.5.57s.5-.16.5-.57v-.97h.94v.9a1.46 1.46 0 0 1-2.92 0ZM209.52 143.99v-3.32a1.5 1.5 0 0 1 3.01 0V144a1.5 1.5 0 0 1-2.57 1.06 1.5 1.5 0 0 1-.44-1.06Zm2.02.06v-3.44c0-.45-.2-.62-.51-.62-.32 0-.52.17-.52.62v3.44c0 .45.2.62.52.62.31 0 .51-.17.51-.62ZM213.2 139.18h1.42l.63 4.51.63-4.51h1.41v6.3h-.93v-4.77l-.73 4.78h-.83l-.71-4.78v4.78h-.87l-.02-6.31ZM218.05 139.18h1.46c.99 0 1.47.55 1.47 1.56v.62c0 1-.48 1.56-1.47 1.56h-.47v2.57h-1v-6.31Zm1.46 2.83c.3 0 .48-.14.48-.59v-.78c0-.45-.17-.6-.48-.6h-.47v1.94l.47.03ZM221.52 139.18h1v5.4h1.62v.9h-2.62v-6.3ZM224.64 139.18h2.7v.9h-1.71v1.66h1.35v.9h-1.36v1.94h1.71v.9h-2.69v-6.3ZM228.66 140.08h-1.03v-.9h3.06v.9h-1.03v5.4h-1v-5.4ZM231.18 139.18h2.7v.9h-1.71v1.66h1.35v.9h-1.35v1.94h1.7v.9h-2.7v-6.3ZM234.44 139.18h1.52c.99 0 1.47.55 1.47 1.56v3.19c0 1-.48 1.56-1.47 1.56h-1.52v-6.31Zm1.5 5.4c.31 0 .5-.16.5-.6v-3.3c0-.44-.19-.6-.5-.6h-.5v4.5h.5Z" fill="#263238"/><path d="M241.78 241.65h-91.92a5.35 5.35 0 0 0-5.35 5.35v19.74c0 2.95 2.4 5.35 5.35 5.35h91.92c2.96 0 5.35-2.4 5.35-5.35V247c0-2.95-2.4-5.35-5.35-5.35Z" fill="#263238" stroke="#263238" stroke-linecap="round" stroke-linejoin="round"/><path d="M240.15 240.01h-91.93a5.35 5.35 0 0 0-5.35 5.36v19.73c0 2.95 2.4 5.35 5.35 5.35h91.93c2.95 0 5.35-2.4 5.35-5.35v-19.74c0-2.95-2.4-5.35-5.35-5.35Z" fill="white" stroke="#263238" stroke-linecap="round" stroke-linejoin="round"/><path d="M216.43 256.74h-41.82a1.77 1.77 0 0 0 0 3.52h41.82v-3.52Z" fill="white"/><path d="M174.61 260.26a1.76 1.76 0 0 1 0-3.52h59.9a1.77 1.77 0 0 1 1.63 1.08 1.76 1.76 0 0 1-.95 2.3c-.22.1-.44.14-.68.14h-59.9Z" stroke="#263238" stroke-linecap="round" stroke-linejoin="round"/><path d="M165.6 263.78h-13.52v-17.1h9l4.51 4.5v12.6Z" fill="white"/><path opacity=".5" d="M165.6 263.78h-13.52v-17.1h9l4.51 4.5v12.6Z" fill="white"/><path d="M165.6 263.78h-13.52v-17.1h9l4.51 4.5v12.6Z" stroke="#263238" stroke-linecap="round" stroke-linejoin="round"/><path d="M155.08 255.75a.86.86 0 0 1 0-1.7h7.51a.86.86 0 0 1 .55 1.43.86.86 0 0 1-.55.27h-7.51ZM155.08 259.34a.85.85 0 0 1-.6-1.45.85.85 0 0 1 .6-.25h5.87a.85.85 0 1 1 0 1.7h-5.87Z" fill="#858585" stroke="#263238" stroke-width=".75" stroke-linecap="round" stroke-linejoin="round"/><path d="M161.09 251.18h4.5l-4.5-4.5v4.5Z" fill="white" stroke="#263238" stroke-linecap="round" stroke-linejoin="round"/><path d="M200.62 247.69h-2v-.9h2.96v.87l-1.56 5.46h-1.01l1.6-5.43ZM202.2 251.6v-3.31a1.5 1.5 0 0 1 3.02 0v3.31a1.5 1.5 0 0 1-3.01 0Zm2.03.07v-3.44c0-.45-.2-.63-.52-.63-.31 0-.51.18-.51.63v3.44c0 .45.2.61.51.61s.52-.16.52-.61ZM205.83 249.29v-1.56a.95.95 0 0 1 .56-.97.95.95 0 0 1 1.3.58c.04.12.06.25.05.39v1.56a.97.97 0 0 1-.25.73.95.95 0 0 1-1.1.23.96.96 0 0 1-.56-.96Zm1.27.05v-1.67c0-.28-.12-.4-.31-.4-.2 0-.33.11-.33.4v1.67c0 .27.11.38.33.38.2 0 .31-.12.31-.38Zm1.94-2.55h.63l-2.44 6.3h-.63l2.44-6.3Zm-.48 5.4v-1.57a.97.97 0 0 1 .25-.73.95.95 0 0 1 1.1-.23.96.96 0 0 1 .56.96v1.56a.97.97 0 0 1-.24.73.96.96 0 0 1-1.67-.73Zm1.28.03v-1.66c0-.28-.12-.4-.32-.4s-.32.12-.32.4v1.66c0 .28.11.4.32.4.2 0 .35-.12.35-.4h-.03Z" fill="#263238"/><path d="m92.38 85.96 20.59-15.92 20.58 15.92H92.38Z" fill="#263238" stroke="#263238" stroke-linecap="round" stroke-linejoin="round"/><path d="M118.35 68.8h-10.77V78h10.77v-9.2Z" fill="#263238" stroke="#263238" stroke-linecap="round" stroke-linejoin="round"/><path d="M112.97 45.93V78" stroke="#263238" stroke-width=".75" stroke-linecap="round" stroke-linejoin="round"/><path d="m256.44 85.96 20.6-15.92 20.58 15.92h-41.18Z" fill="#263238" stroke="#263238" stroke-linecap="round" stroke-linejoin="round"/><path d="M282.42 68.8h-10.77V78h10.77v-9.2Z" fill="#263238" stroke="#263238" stroke-linecap="round" stroke-linejoin="round"/><path d="M277.03 44.37V78" stroke="#263238" stroke-width=".75" stroke-linecap="round" stroke-linejoin="round"/><path d="m285.07 334.3-.44 12.87 6.66.32 2.43-13.19h-8.65Z" fill="white" stroke="#263238" stroke-linecap="round" stroke-linejoin="round"/><path d="M272.03 351.12c2.25-.78 6.13-2.1 7.6-3.02 1.16-.74 2.8-3.12 4-3.8a2.02 2.02 0 0 1 1.6 0c.2.23.33.5.38.79a.66.66 0 0 0 1.2.17c.19-.37.46-.69.78-.94 1.03-.57 3.82-.74 4.73 0 1.51 1.24 2.06 5.52 2.34 7.44.07.43 0 2.77 0 2.77h-24.3v-1.07a2.44 2.44 0 0 1 1.67-2.34v0Z" fill="white" stroke="#263238" stroke-linecap="round" stroke-linejoin="round"/><path d="M294.68 354.51h-24.32v-1.07c0-.26.04-.53.13-.78h24.22c0 .82-.03 1.85-.03 1.85Z" fill="#858585" stroke="#263238" stroke-linecap="round" stroke-linejoin="round"/><path d="m289.27 234.52-5.1 104.68 9.35 1.56s5.9-30.3 6.62-40.22c.17-2.34 0-9.4 0-9.4l6.62-32.6s4.36-4.02 4.87-23.18l-22.36-.84Z" fill="#263238" stroke="#263238" stroke-linecap="round" stroke-linejoin="round"/><path opacity=".7" d="M303.12 275.04c.36-1.52.78-3 1.3-4.49.07-.21.16-.4.26-.6.23-2.21.58-4.42 1.06-6.6.17-.8.6-1.54 1.25-2.07a3.01 3.01 0 0 1 1.97-1.69c-.29-2.01-.73-4-1.31-5.95-.6-2.04-1.56-4-1.85-6.11-.08-.55-.4-1.12-.29-1.18-.67-.26-1.33-.56-1.96-.9l-.12-.08c-.6 9.87-.7 19.78-.3 29.67Z" fill="black"/><path d="M288.83 294.4a9.35 9.35 0 0 0 4.4-2.4" stroke="#7F7F7F" stroke-width=".75" stroke-linecap="round" stroke-linejoin="round"/><path d="m282.93 341.19 11.32.93.84-3.67-12.16-.95v3.69ZM315.61 332.72l2.41 15.04 6.16-.48-.2-15.4-8.37.84Z" fill="white" stroke="#263238" stroke-linecap="round" stroke-linejoin="round"/><path d="M305.3 351.12c2.25-.78 6.13-2.1 7.58-3.02 1.17-.74 2.8-3.12 4.01-3.8a2.04 2.04 0 0 1 1.62 0c.14.15.24.33.28.53a.77.77 0 0 0 .67.56.78.78 0 0 0 .77-.4c.16-.26.37-.5.62-.68 1.03-.58 3.82-.74 4.73 0 1.51 1.24 2.06 5.51 2.34 7.44.06.42 0 2.76 0 2.76h-24.3v-1.07a2.45 2.45 0 0 1 1.67-2.32v0Z" fill="white" stroke="#263238" stroke-linecap="round" stroke-linejoin="round"/><path d="M327.94 354.51h-24.32v-1.07c0-.26.04-.53.13-.78h24.22c0 .82-.03 1.85-.03 1.85Z" fill="#858585" stroke="#263238" stroke-linecap="round" stroke-linejoin="round"/><path d="M302.3 237.68s2.34 13.55 4.49 24.92c1.47 7.7 1.56 30.47 1.56 30.47l7.47 47.01 9.21-1.24s.11-28.94-.92-38.22c-.24-2.07-.62-8.2-.62-8.2s.35-24.56 2.25-32.77c1.35-5.85 4.05-12 .78-23.98l-24.22 2.01Z" fill="#263238" stroke="#263238" stroke-linecap="round" stroke-linejoin="round"/><path d="M310.37 294.4a6.33 6.33 0 0 0 3.9 2.5" stroke="#7F7F7F" stroke-width=".75" stroke-linecap="round" stroke-linejoin="round"/><path d="m314.28 337.97.53 3.44 11.42-1.22-.08-3.71-11.87 1.49Z" fill="white" stroke="#263238" stroke-linecap="round" stroke-linejoin="round"/><path d="m258.83 175-2.52-4.23s-.61-6.92-2.01-8.27c-1.4-1.34-4.53-5.31-4.97-4.53-.7 1.24 1.9 3.47 1.9 3.47l.47 2.57s-4.2-3.03-5.4-3.03c0 0-3.35-3.97-4.53-3.97-1.19-.01.48 2.74.48 2.74s-1.13-.86-1.35-.33c-.22.54 1.46 2.38 1.46 2.38s-.65.7.33 2.21a2.76 2.76 0 0 0 .78 2.75c1.3 1.03 8.25 4.97 8.25 4.97l2.34 5.5 4.77-2.22Z" fill="#858585" stroke="#263238" stroke-linecap="round" stroke-linejoin="round"/><path d="M243.28 161.91s.92.38.54 1.73c.37.52.57 1.14.6 1.78.09 1.18 6.1.6 7.72 3.12M243.28 160.45l2.45 2.6" stroke="#263238" stroke-width=".75" stroke-linecap="round" stroke-linejoin="round"/><path d="m284.83 173.94-16.07 12.53-11.02-15.01-5.6 2.8s8.8 24.36 15.48 24.36c7.09 0 20.57-11.39 20.57-11.39s.85-2.17-3.36-13.29Z" fill="white" stroke="#263238" stroke-linecap="round" stroke-linejoin="round"/><path d="M269.37 187.66c.37.8.65 1.64.83 2.5" stroke="#263238" stroke-width=".75" stroke-linecap="round" stroke-linejoin="round"/><path d="m284.83 173.94 3.43 45.33v18.82s19.72 2.34 39.18-.5l-.67-19.38 1.98-43.2s-9.04-6.53-22.9-6.53c-13.87 0-21.02 5.46-21.02 5.46Z" fill="white" stroke="#263238" stroke-linecap="round" stroke-linejoin="round"/><path opacity=".2" d="m327.44 237.6-.62-17.38c-.33 8.38-9.57 5.23-11.66 4.84-2.24-.42-4.81 6.96-4.81 6.96s-8.58 1.47-15.3.95c-6.72-.52-6.82-6.65-6.82-6.65v11.78s19.75 2.37 39.21-.5Z" fill="black"/><path d="M297.5 218.83a52.07 52.07 0 0 0 23.15-8.34Z" fill="white"/><path d="M297.5 218.83a52.07 52.07 0 0 0 23.15-8.34" stroke="#263238" stroke-width=".75" stroke-linecap="round" stroke-linejoin="round"/><path d="M294.06 219.06s.66 0 1.83-.08Z" fill="white"/><path d="M294.06 219.06s.66 0 1.83-.08" stroke="#263238" stroke-width=".75" stroke-linecap="round" stroke-linejoin="round"/><path d="m300.74 176.12-3.42-1.24-3.26 3.16 2.39-9.75 2.88-2.27 1.46.93 6.55-.25 5.1.42 2.42-.75 2.6 2.59-5.77 11.02-2.42-4.18-5.33.67-3.2-.35Z" fill="white"/><path opacity=".5" d="m300.74 176.12-3.42-1.24-3.26 3.16 2.39-9.75 2.88-2.27 1.46.93 6.55-.25 5.1.42 2.42-.75 2.6 2.59-5.77 11.02-2.42-4.18-5.33.67-3.2-.35Z" fill="white"/><path d="m300.74 176.12-3.42-1.24-3.26 3.16 2.39-9.75 2.88-2.27 1.46.93 6.55-.25 5.1.42 2.42-.75 2.6 2.59-5.77 11.02-2.42-4.18-5.33.67-3.2-.35Z" stroke="#263238" stroke-linecap="round" stroke-linejoin="round"/><path d="M312.09 168.93 311.3 157l-7.54 1.33-1.56 5.6-1.56 4.85-.74.08 2.05 11.14 10.88-10.92-.75-.16Z" fill="#858585"/><path d="M293.56 157.83c0 3.03.47 9.8 4.63 10.59 4.3.82 9.24-4.08 11.01-6.04.44-.49.79-1.05 1.02-1.67l.94-2.5c.62.04 1.24-.09 1.78-.38h-19.38Z" fill="#263238" stroke="#263238" stroke-width=".5" stroke-linecap="round" stroke-linejoin="round"/><path d="M312.09 168.93 311.3 157l-7.54 1.33-1.56 5.6-1.56 4.85-.74.08 2.05 11.14 10.88-10.92-.75-.16Z" stroke="#263238" stroke-linecap="round" stroke-linejoin="round"/><path d="M298.58 142.53s-3.56-2.72-1.81-4.85c.9-1.11 2.1.35 2.1.35s-.64-3.4 1.9-3.9c2.34-.44 2.24 2.25 2.24 2.25s1.21-2.3 3.33-1.8c1.68.41 1.04 2.8 1.04 2.8s2.24-2.8 4.56-1.56c2.01 1.05.36 3.58.36 3.58s2.38-.84 3.72.5c1.33 1.34 0 3.12 0 3.12s2.63 0 2.74 1.97c.12 1.96-2.03 2.34-2.03 2.34s3.04.98 3.06 3.37c.03 2.38-2.01 1.62-2.01 1.62s1.26 2.25.21 3.44a1.26 1.26 0 0 1-1.6.38 1.26 1.26 0 0 1-.44-.38s1.31 2.83-.35 3.66c-1.2.58-1.9-.85-1.9-.85s-1 2.44-2.22.95c-1.22-1.5-7.26-13.04-7.26-13.04l-5.64-3.95Z" fill="#263238" stroke="#263238" stroke-width=".75" stroke-linecap="round" stroke-linejoin="round"/><path d="m297.55 142.64-2.24 4.68a3.67 3.67 0 0 0-.35 1.56v1.47l-1.24 3.12c-.07.16-.12.32-.16.5-.4 1.66-2.3 10.58 2.34 12.4 4.09 1.6 9.84-2.27 11.96-3.87.52-.4.97-.89 1.3-1.45l1.41-2.28a2.95 2.95 0 0 0 3.27-1.15c1.26-1.8 2.7-2.77.98-4.4-1.72-1.62-3.31.98-3.31.98l.23-4.58-2-3.51-.1-2.2s-6.53-.73-10.92-3.13l-1.17 1.86Z" fill="white" stroke="#263238" stroke-width=".75" stroke-linecap="round" stroke-linejoin="round"/><path d="m297.55 142.64-2.24 4.68a3.67 3.67 0 0 0-.35 1.56v1.47l-1.24 3.12c-.07.16-.12.32-.16.5-.4 1.66-2.3 10.58 2.34 12.4 4.09 1.6 9.84-2.27 11.96-3.87.52-.4.97-.89 1.3-1.45l1.41-2.28a2.95 2.95 0 0 0 3.27-1.15c1.26-1.8 2.7-2.77.98-4.4-1.72-1.62-3.31.98-3.31.98l.23-4.58-2-3.51-.1-2.2s-6.53-.73-10.92-3.13l-1.17 1.86Z" fill="#858585" stroke="#263238" stroke-linecap="round" stroke-linejoin="round"/><path d="M301.53 158.62c-1.26 2.44-2.98 2.04-4.05 1.43" stroke="#263238" stroke-width=".75" stroke-linecap="round" stroke-linejoin="round"/><path d="M301.56 153.07c-.18.56-.53.94-.78.86-.26-.08-.35-.6-.18-1.15.18-.56.53-.94.78-.86.26.09.35.6.18 1.16ZM296.35 151.46c-.18.56-.53.94-.79.86-.25-.09-.34-.6-.17-1.16.18-.55.53-.93.78-.85.25.09.35.6.18 1.15Z" fill="#263238"/><path d="M295.97 147.86a1.55 1.55 0 0 1 1.7.6c.12.18.2.38.25.59M300.46 149.99s1.81-1.92 3.04.11M297.96 151.95a4.5 4.5 0 0 1-2.89 3.27l1.42 2.25" stroke="#263238" stroke-width=".75" stroke-linecap="round" stroke-linejoin="round"/><path d="m307.02 241.38-.4 2.4a1.56 1.56 0 0 0 1.25 1.76l25.02 4.1a1.56 1.56 0 0 0 1.75-1.25l.4-2.4-28.02-4.61Z" fill="white" stroke="#263238" stroke-width=".75" stroke-linecap="round" stroke-linejoin="round"/><path d="m336.15 230.8-25.3-4.16a1.38 1.38 0 0 0-1.58 1.14l-2.51 15.28c-.12.75.39 1.46 1.14 1.58l25.3 4.16c.75.12 1.46-.39 1.59-1.14l2.5-15.28a1.38 1.38 0 0 0-1.14-1.59Z" fill="white"/><path opacity=".5" d="m336.15 230.8-25.3-4.16a1.38 1.38 0 0 0-1.58 1.14l-2.51 15.28c-.12.75.39 1.46 1.14 1.58l25.3 4.16c.75.12 1.46-.39 1.59-1.14l2.5-15.28a1.38 1.38 0 0 0-1.14-1.59Z" fill="white"/><path d="m336.15 230.8-25.3-4.16a1.38 1.38 0 0 0-1.58 1.14l-2.51 15.28c-.12.75.39 1.46 1.14 1.58l25.3 4.16c.75.12 1.46-.39 1.59-1.14l2.5-15.28a1.38 1.38 0 0 0-1.14-1.59Z" stroke="#263238" stroke-linecap="round" stroke-linejoin="round"/><path d="m326.4 233.64-1.39 4.68-4.68 3.35a55.05 55.05 0 0 1-2.34 6.01.74.74 0 0 0 .26.98c.1.06.23.1.35.1.65 0 1.4-.3 1.82-1.55 0 0 .18 2.46 1.7.95 0 0 .93 2.4 2.38.51 0 0 3.36.5 3.9-1.92.53-2.43 1.33-6.7 1.33-6.7l2.14-5.02-5.48-1.39Z" fill="#858585" stroke="#263238" stroke-linecap="round" stroke-linejoin="round"/><path d="m320.38 246.25.54-3.62M321.22 246.48s.37 1.2 1.2 1c.82-.2 2 .72 4.57-.36" stroke="#263238" stroke-width=".75" stroke-linecap="round" stroke-linejoin="round"/><path d="M328.75 175s11.7 32.52 11.48 37.27c-.22 4.75-8.54 25.41-8.54 25.41l-6.43-2.04 4.29-24.24-3.85-16.84s-.87-12.34 3.05-19.55Z" fill="white" stroke="#263238" stroke-linecap="round" stroke-linejoin="round"/><path d="M331 210.87a3.64 3.64 0 0 1 3.07-.65" stroke="#263238" stroke-width=".75" stroke-linecap="round" stroke-linejoin="round"/><path d="M323.39 236.15c-.24-.3-.4-.66-.52-1.03a1.78 1.78 0 1 0 1.01 3.23c.39-.28.65-.7.73-1.16-.5-.21-.93-.57-1.22-1.04ZM95.11 167.54l1.42 7-15.77.66 2.74-19.4 10.62 1.24 1 10.5Z" fill="white"/><path d="m102.18 156.92-13.19 3.9c.16 1.51.48 3 .94 4.45.78 2.25 5.53 6.24 8.58 6.2 3.05-.05 3.39-9.77 3.39-9.77l1.84-1.02a.86.86 0 0 0 .27-1.26l-1.83-2.5Z" fill="#263238" stroke="#263238" stroke-width=".75" stroke-linecap="round" stroke-linejoin="round"/><path d="m95.11 167.54 1.42 7-15.77.66 2.74-19.4 10.62 1.24 1 10.5Z" stroke="#263238" stroke-linecap="round" stroke-linejoin="round"/><path d="M95.84 142.89s3.83.78 3.44-3.38c-.4-4.16-7.53-1.61-11.25-1.15-3.72.47-15.73 4.96-11.48 12.04 0 0-2.5 4 6.51 10.7 0 0 4.28-2.02 6.63.92l1.84-3.57 4.68-8.22-.37-7.34Z" fill="#263238" stroke="#263238" stroke-linecap="round" stroke-linejoin="round"/><path d="M95.56 142.26s3.66 2.05 5.77-.51c0 0 .23 5.46-5.77.51Z" fill="#263238" stroke="#263238" stroke-linecap="round" stroke-linejoin="round"/><path d="M95.94 141.7s5.46 5.74 5.27 9.68v3.6l2.89 3.24a.8.8 0 0 1 .21.64.8.8 0 0 1-.35.56l-1.68 1.17s.5 9.2-2.4 9.53c-2.88.33-7.68-3.12-8.64-5.15a28.2 28.2 0 0 1-1.56-5.76 4.36 4.36 0 0 1-3.2-3.7c-.33-3.03 2.72-2.94 3.5-.96l.65 1.61 1.98-.07s-1.13-2.85-.46-3.7c.67-.84 3.3-2.89 2.1-4.84-1.21-1.96-.8-5.3 1.69-5.86Z" fill="white" stroke="#263238" stroke-linecap="round" stroke-linejoin="round"/><path d="M99.06 162.39a2.21 2.21 0 0 0 2.34 1.08" stroke="#263238" stroke-width=".75" stroke-linecap="round" stroke-linejoin="round"/><path d="M97.62 151.4s1.24-1.72 2.42-.14" stroke="#263238" stroke-linecap="round" stroke-linejoin="round"/><path d="M99.58 155c0 .54-.2.98-.5 1-.29 0-.53-.43-.55-.97-.02-.53.21-.98.5-.99.29 0 .54.4.55.96Z" fill="#263238"/><path d="m74.57 327.79-2.28 19.6 6.78 1.04 3.73-19.37-8.23-1.27Z" fill="white" stroke="#263238" stroke-linecap="round" stroke-linejoin="round"/><path d="M71.38 241.18s.27 11.35 4.28 19.34l.91 30.14-4.62 48.56 10.28.98 9.36-50.79 3.13-46.02-23.34-2.21Z" fill="white" stroke="#263238" stroke-linecap="round" stroke-linejoin="round"/><path opacity=".2" d="m93.26 265.52-.85-5.4-3.9-17.02-.72-.36-16.38-1.56s0 1.86.37 4.61l8.08 4.59c.2 2.88.85 5.71 1.93 8.38a1.47 1.47 0 0 1-1.48 2.04c-.84-.06-1.56 0-1.56.55 0 1.26 6.1 5.34 6.1 5.34s6.15 19.89 5.93 27.24l.84-4.53 1.64-23.88Z" fill="black"/><path d="M95.25 329.07 96 348.8h6.86l.73-19.72h-8.33Z" fill="white" stroke="#263238" stroke-linecap="round" stroke-linejoin="round"/><path d="M113.77 351.57a42.65 42.65 0 0 1-6.58-2.62c-1.02-.63-2.44-2.7-3.48-3.28a1.75 1.75 0 0 0-1.39 0c-.5.4-.52 2.51-.52 2.51s-.88-2.15-1.52-2.51c-.9-.5-3.31-.65-4.1 0-1.3 1.06-1.78 4.78-2.04 6.44-.06.37 0 2.4 0 2.4h21.06v-.93a2.12 2.12 0 0 0-1.43-2.01v0Z" fill="#263238" stroke="#263238" stroke-linecap="round" stroke-linejoin="round"/><path d="m109.6 242.11-1.69 45.56-2.81 52.02H94.38s-2.25-39.93-1.68-51.48l-5.63-26.71s-5.9-7.88-4.5-17.44l27.03-1.95Z" fill="white" stroke="#263238" stroke-linecap="round" stroke-linejoin="round"/><path d="m93.43 335.82.35 6.26h11.74l.91-6.26h-13ZM71.09 335.28l-.24 6.26 11.68 1.11 1.5-6.13-12.94-1.24ZM127.37 212.12l-16.22-10.31 17.09-17.09 16.22 10.31-17.1 17.1Z" fill="white" stroke="#263238" stroke-linecap="round" stroke-linejoin="round"/><path d="m128.3 208.6-13.05-8.3L129 186.56l13.04 8.3-13.75 13.73Z" fill="white" stroke="#263238" stroke-width=".75" stroke-linecap="round" stroke-linejoin="round"/><path d="m129.25 194.36 2.27-2.28-2.92-1.85-2.28 2.27 2.93 1.86ZM125.71 197.9l2.28-2.28-2.93-1.86-2.27 2.28 2.92 1.86ZM122.05 201.56l2.27-2.28-2.92-1.86-2.28 2.28 2.93 1.86Z" stroke="#263238" stroke-width=".75" stroke-linecap="round" stroke-linejoin="round"/><path d="m134.82 187.38-2.15 2.16a.96.96 0 0 0 .16 1.49l3.12 2a1.79 1.79 0 0 0 2.24-.24l1.98-2-5.35-3.41ZM77.12 174.06l2.81-6.18s16.31-1.83 20.67 11.8l-23.48-5.62ZM67.86 179.34s-4.02 30.83-2.96 41.76c.85 8.64 6.54 15.96 6.54 15.96l8.44-3.31-4.29-12.65s1.33-22.78 2.6-28.08l-10.33-13.68Z" fill="#858585" stroke="#263238" stroke-linecap="round" stroke-linejoin="round"/><path d="m69 235.54 2.38 2.85 9.75-3.8-1.27-3.8L69 235.54Z" fill="#858585" stroke="#263238" stroke-linecap="round" stroke-linejoin="round"/><path d="M67.86 179.34s-1.27 17.71 2.34 30.16 0 32.9 0 32.9 16.62 10.75 42.12 2.52c0 0-3.16-60.53-7.38-63.9-4.22-3.37-28.03-16.23-37.08-1.68Z" fill="#858585" stroke="#263238" stroke-linecap="round" stroke-linejoin="round"/><path opacity=".2" d="M112.32 244.92s-1.08-20.75-2.82-38.63c-3.7-8.95-9.72-20.88-10.04-4.13-.47 24.22 14.44 22.8 2.63 27.01a19.2 19.2 0 0 1-16.29-1.26.97.97 0 0 0-1.2 1.46c2.96 3.76 7.46 6.11 10.92 7.46a1.52 1.52 0 0 1 .55 2.46c-.23.24-.53.4-.86.45-11.13 1.65-19.85-4.27-23.85-7.7-.47 5.95-1.24 10.35-1.24 10.35s16.7 10.76 42.2 2.53Z" fill="black"/><path d="M104.96 181.03a9.92 9.92 0 0 1 5.7 7.7c.83 5.8 6.23 23.62 6.23 23.62l1.8-1.16a7.46 7.46 0 0 1 4.3 7.99s-4.38 8.58-9.17 6.97c-4.92-1.67-7.68-5.7-10.14-12.28-1.3-3.51-5.06-14.09-5.06-14.09" fill="#858585"/><path d="M104.96 181.03a9.92 9.92 0 0 1 5.7 7.7c.83 5.8 6.23 23.62 6.23 23.62l1.8-1.16a7.46 7.46 0 0 1 4.3 7.99s-4.38 8.58-9.17 6.97c-4.92-1.67-7.68-5.7-10.14-12.28-1.3-3.51-5.06-14.09-5.06-14.09" stroke="#263238" stroke-linecap="round" stroke-linejoin="round"/><path d="M119.04 217.51c.03.46.01.92-.06 1.37M115.82 221.1s1.48-2.34 1.27-7.39c.7.54 1.25 1.27 1.56 2.1" stroke="#263238" stroke-width=".75" stroke-linecap="round" stroke-linejoin="round"/><path d="m119.86 210.7 5.63-4.02a7.1 7.1 0 0 1 4.99-5.27s2.6-4.29 4.07-3.79c1.47.5-1.76 2.25-2.04 4.5l1.2 1.6s3.9-.7 4.85-1.96c0 0-.21 2.68-1.76 3.12 0 0 0 2.04-1.05 1.97l-7.74 2.18-4.5 8.4-3.65-6.74Z" fill="white" stroke="#263238" stroke-linecap="round" stroke-linejoin="round"/><path d="M96.84 230.2c.89-.09 1.77-.24 2.63-.46M74.73 217.4s8.3 12.7 20.28 12.86" stroke="#263238" stroke-width=".75" stroke-linecap="round" stroke-linejoin="round"/><path d="M117.44 210.83s5.86 4.43 5.3 9.78l2.11-4.05s-.07-3.4-4.92-7.02l-2.5 1.3Z" fill="#858585" stroke="#263238" stroke-linecap="round" stroke-linejoin="round"/><path d="M94.14 354.51h21.06v-.93c0-.23-.04-.45-.11-.67H94.1c0 .71.03 1.6.03 1.6Z" fill="white" stroke="#263238" stroke-width=".75" stroke-linecap="round" stroke-linejoin="round"/><path d="M89.7 351.57a42.67 42.67 0 0 1-6.58-2.62c-1.02-.63-2.44-2.7-3.47-3.28a1.76 1.76 0 0 0-1.4 0c-.5.4-.52 2.51-.52 2.51s-.88-2.15-1.52-2.51c-.9-.5-3.31-.65-4.1 0-1.3 1.06-1.79 4.78-2.04 6.44-.07.37 0 2.4 0 2.4h21.06v-.93a2.12 2.12 0 0 0-1.43-2.01v0Z" fill="#263238" stroke="#263238" stroke-linecap="round" stroke-linejoin="round"/><path d="M70.05 354.51h21.06v-.93c0-.23-.04-.45-.1-.67H70.01c0 .71.03 1.6.03 1.6Z" fill="white" stroke="#263238" stroke-width=".75" stroke-linecap="round" stroke-linejoin="round"/><path d="M101.12 288.51s-2.24 3.87-5.87 2.4M85.51 289.87s-4.02 3.43-7.34 1.03" stroke="#263238" stroke-width=".75" stroke-linecap="round" stroke-linejoin="round"/><path d="m127.43 189.95.56 2.8h4.98l-4.05-.95.2-1.9-1.7.05Z" fill="white"/></svg>