<svg width="390" height="264" fill="none" xmlns="http://www.w3.org/2000/svg"><path d="m336.46 168.72-.46 4.07 7.95-9.26c.95.1 1.9.15 2.86.15M326.5 140.6a11.88 11.88 0 0 0-1.91 5.24c-.76 6.77 4.57 13.18 12.62 16.14l-.4 3.64M329.59 137.23c-.52.41-1.01.86-1.47 1.34M359.4 137.23a26.29 26.29 0 0 0-12.2-4.45c-4.63-.57-9.32.12-13.59 1.99M352.35 163.13c7.59-1.56 13.34-6.4 14.02-12.68.49-4.4-1.57-8.63-5.26-11.88" stroke="#263238" stroke-linecap="round" stroke-linejoin="round"/><path d="M333.62 141.73a4.98 4.98 0 0 0 3.73-.8l2.83 2.2c-.2.07-.18-.35.03-.37.21 0 .37.19.52.34.66.7 1.78.72 2.74.52.95-.2 1.88-.58 2.85-.55.57.06 1.14.2 1.69.4 3.9 1.2 7.96 1.8 12 2.4M330.26 145.87c.59-.04 3.84 0 4.31-.4l.8 1.39.87-.85.45 1.72c.66.15.58-1.12 1.17-1.5a.8.8 0 0 1 1.03.31c.2.36.29.76.27 1.17l4 .32.77.07c.28-.42.7-.74 1.17-.9-.14.92 1.02 1.44 1.94 1.63 4.55.92 9.11 1.72 13.7 2.4M332.04 152.2c.37.25.82-.23 1.27-.29.45-.05.82.28 1.21.49.4.2 1.06.11 1.08-.33.1.58.82.8 1.4.88l15.35 2.14M126.77 132.3l6.15 8.25-1.23-10.8a28.64 28.64 0 0 0 4.2-2.5c6.3-4.54 8.83-11.85 6.52-17.73-1.62-4.12-5.4-6.91-10.2-8.07M102.5 119.29c-.2 1.86.06 3.75.75 5.5 2.49 6.35 10.19 9.55 18.7 8.45M103.66 114.87a16.9 16.9 0 0 0-.67 1.87M130.07 101.05a26.3 26.3 0 0 0-12.89 1.7 25.92 25.92 0 0 0-11.1 8.06" stroke="#263238" stroke-linecap="round" stroke-linejoin="round"/><path d="M109.33 116.98a4.97 4.97 0 0 0 2.92-2.42l3.5.63c-.15.14-.32-.23-.14-.35.18-.1.4 0 .58.06.93.32 1.92-.18 2.67-.8.75-.63 1.4-1.4 2.28-1.8a7.2 7.2 0 0 1 1.67-.45c4.02-.73 7.9-2.08 11.75-3.43M108.29 122.2c.52-.3 3.4-1.78 3.63-2.32l1.35.85.38-1.16 1.2 1.3c.66-.16 0-1.24.32-1.84a.78.78 0 0 1 1.05-.2c.34.22.6.53.78.89l3.69-1.56.72-.3c.04-.5.25-.98.58-1.35.3.9 1.58.8 2.48.55 4.46-1.28 8.88-2.7 13.26-4.23M112.81 126.98c.45.06.63-.58 1-.84.36-.25.85-.12 1.3-.13.44-.01.98-.38.8-.78.35.47 1.1.32 1.65.12l14.6-5.21" stroke="#263238" stroke-linecap="round" stroke-linejoin="round"/><path d="M304.9 32.38H159.25a5.13 5.13 0 0 0-5.14 5.12v130.82c0 2.83 2.3 5.12 5.14 5.12H304.9c2.84 0 5.14-2.3 5.14-5.12V37.5c0-2.83-2.3-5.12-5.14-5.12Z" fill="white"/><path opacity=".2" d="M310.04 109.65v58.82a4.96 4.96 0 0 1-4.98 4.97H159.1a5 5 0 0 1-4.98-4.97v-11.65h.31v7.86a5.65 5.65 0 0 0 5.7 5.67h141.02a5.7 5.7 0 0 0 5.7-5.67v-46.3a3.95 3.95 0 0 0-3.97-3.96H154.11v-4.77h155.93Z" fill="black"/><path d="M304.9 32.38H159.25a5.13 5.13 0 0 0-5.14 5.12v130.82c0 2.83 2.3 5.12 5.14 5.12H304.9c2.84 0 5.14-2.3 5.14-5.12V37.5c0-2.83-2.3-5.12-5.14-5.12Z" stroke="#263238" stroke-linecap="round" stroke-linejoin="round"/><path d="M296.46 126.4v-6.74a2.5 2.5 0 0 0-2.5-2.5H170.2a2.5 2.5 0 0 0-2.5 2.5v6.74a2.5 2.5 0 0 1-2.5 2.5 2.51 2.51 0 0 0-2.5 2.49v13.3a11.54 11.54 0 0 0 11.59 11.56 1.87 1.87 0 0 1 1.86 1.85v3.99a5.54 5.54 0 0 0 5.56 5.54h100.75a5.57 5.57 0 0 0 5.56-5.54v-3.99a1.86 1.86 0 0 1 1.86-1.85 11.63 11.63 0 0 0 10.72-7.14c.58-1.4.88-2.9.88-4.42v-13.3a2.5 2.5 0 0 0-2.5-2.5 2.5 2.5 0 0 1-2.5-2.5Z" fill="#263238"/><path d="M177.17 120.98h-4.33a2 2 0 0 0-2 2v1.1c0 2.3 1.87 5.2 4.17 5.2s4.16-2.9 4.16-5.2v-1.1a1.99 1.99 0 0 0-2-2v0ZM187.53 120.98h-4.33a2 2 0 0 0-2 2v1.1c0 2.3 1.86 5.2 4.16 5.2s4.16-2.9 4.16-5.2v-1.1a1.99 1.99 0 0 0-2-2v0ZM197.92 120.98h-4.32a2 2 0 0 0-2 2v1.1c0 2.3 1.86 5.2 4.16 5.2s4.16-2.9 4.16-5.2v-1.1a1.99 1.99 0 0 0-2-2v0ZM208.3 120.98h-4.33a2 2 0 0 0-2 2v1.1c0 2.3 1.87 5.2 4.17 5.2s4.16-2.9 4.16-5.2v-1.1a2 2 0 0 0-2-2v0ZM218.68 120.98h-4.33a2 2 0 0 0-2 2v1.1c0 2.3 1.86 5.2 4.16 5.2s4.17-2.9 4.17-5.2v-1.1a2 2 0 0 0-2-2v0ZM229.06 120.98h-4.33a2 2 0 0 0-2 2v1.1c0 2.3 1.86 5.2 4.16 5.2s4.16-2.9 4.16-5.2v-1.1a1.99 1.99 0 0 0-2-2v0ZM239.43 120.98h-4.33a2 2 0 0 0-2 2v1.1c0 2.3 1.87 5.2 4.16 5.2 2.3 0 4.17-2.9 4.17-5.2v-1.1a1.99 1.99 0 0 0-2-2v0ZM249.8 120.98h-4.32a2 2 0 0 0-2 2v1.1c0 2.3 1.86 5.2 4.16 5.2s4.16-2.9 4.16-5.2v-1.1a1.99 1.99 0 0 0-2-2v0ZM260.18 120.98h-4.3a2 2 0 0 0-2 2v1.1c0 2.3 1.86 5.2 4.16 5.2s4.17-2.9 4.17-5.2v-1.1a2 2 0 0 0-2.03-2v0ZM270.56 120.98h-4.33a2 2 0 0 0-2 2v1.1c0 2.3 1.86 5.2 4.16 5.2s4.17-2.9 4.17-5.2v-1.1a2 2 0 0 0-2-2v0ZM280.94 120.98h-4.33a2 2 0 0 0-2 2v1.1c0 2.3 1.86 5.2 4.16 5.2s4.16-2.9 4.16-5.2v-1.1a2 2 0 0 0-2-2v0ZM291.31 120.98h-4.33a2 2 0 0 0-2 2v1.1c0 2.29 1.86 5.2 4.2 5.2 2.33 0 4.15-2.91 4.15-5.2v-1.11a2 2 0 0 0-2.02-1.99v0ZM177.17 142.9h-4.33a2 2 0 0 0-2 2v1.1c0 2.3 1.87 5.21 4.17 5.21s4.16-2.91 4.16-5.2v-1.11a2 2 0 0 0-2-2v0ZM187.53 142.9h-4.33a2 2 0 0 0-2 2v1.1c0 2.3 1.86 5.21 4.16 5.21s4.16-2.91 4.16-5.2v-1.11a1.99 1.99 0 0 0-2-2v0ZM197.92 142.9h-4.32a2 2 0 0 0-2 2v1.1c0 2.3 1.86 5.21 4.16 5.21s4.16-2.91 4.16-5.2v-1.11a1.99 1.99 0 0 0-2-2v0ZM208.3 142.9h-4.33a2 2 0 0 0-2 2v1.1c0 2.3 1.87 5.21 4.17 5.21s4.16-2.91 4.16-5.2v-1.11a2 2 0 0 0-2-2v0ZM218.68 142.9h-4.33a2 2 0 0 0-2 2v1.1c0 2.3 1.86 5.21 4.16 5.21s4.17-2.91 4.17-5.2v-1.11a2 2 0 0 0-2-2v0ZM229.06 142.9h-4.33a2 2 0 0 0-2 2v1.1c0 2.3 1.86 5.21 4.16 5.21s4.16-2.91 4.16-5.2v-1.11a1.99 1.99 0 0 0-2-2ZM239.43 142.9h-4.33a2 2 0 0 0-2 2v1.1c0 2.3 1.87 5.21 4.16 5.21 2.3 0 4.17-2.91 4.17-5.2v-1.11a1.99 1.99 0 0 0-2-2v0ZM249.8 142.9h-4.32a2 2 0 0 0-2 2v1.1c0 2.3 1.86 5.21 4.16 5.21s4.16-2.91 4.16-5.2v-1.11a1.99 1.99 0 0 0-2-2v0ZM260.18 142.9h-4.3a2 2 0 0 0-2 2v1.1c0 2.3 1.86 5.21 4.16 5.21s4.17-2.91 4.17-5.2v-1.11a1.99 1.99 0 0 0-1.26-1.85c-.24-.1-.5-.15-.77-.15v0ZM270.56 142.9h-4.33a2.01 2.01 0 0 0-2 2v1.1c0 2.3 1.86 5.21 4.16 5.21s4.17-2.91 4.17-5.2v-1.11a1.99 1.99 0 0 0-2-2v0ZM280.94 142.9h-4.33a2 2 0 0 0-2 2v1.1c0 2.3 1.86 5.21 4.16 5.21s4.16-2.91 4.16-5.2v-1.11a1.99 1.99 0 0 0-2-2ZM291.31 142.9h-4.33a2 2 0 0 0-2 2v1.1c0 2.3 1.87 5.21 4.17 5.21s4.16-2.91 4.16-5.2v-1.11a1.99 1.99 0 0 0-2-2v0ZM171.98 132.3h-4.32a2 2 0 0 0-2 2v1.1c0 2.29 1.87 5.2 4.17 5.2s4.16-2.9 4.16-5.2v-1.1a1.99 1.99 0 0 0-2-2v0ZM182.36 132.3h-4.33a2 2 0 0 0-2 2v1.1c0 2.29 1.86 5.2 4.16 5.2s4.17-2.9 4.17-5.2v-1.1a1.99 1.99 0 0 0-2-2v0ZM192.74 132.3h-4.33a2 2 0 0 0-2 2v1.1c0 2.29 1.86 5.2 4.16 5.2s4.17-2.9 4.17-5.2v-1.1a1.99 1.99 0 0 0-2-2v0ZM203.11 132.3h-4.33a2 2 0 0 0-2 2v1.1c0 2.29 1.87 5.2 4.16 5.2 2.3 0 4.17-2.9 4.17-5.2v-1.1a2 2 0 0 0-2-2v0ZM213.49 132.3h-4.35a2 2 0 0 0-2 2v1.1c0 2.29 1.87 5.2 4.17 5.2s4.16-2.9 4.16-5.2v-1.1a1.99 1.99 0 0 0-1.98-2v0ZM223.86 132.3h-4.33a2 2 0 0 0-2 2v1.1c0 2.29 1.87 5.2 4.17 5.2s4.17-2.9 4.17-5.2v-1.1a2 2 0 0 0-2-2v0ZM234.26 132.3h-4.33a2 2 0 0 0-2 2v1.1c0 2.29 1.87 5.2 4.16 5.2 2.3 0 4.17-2.9 4.17-5.2v-1.1a1.99 1.99 0 0 0-2-2v0ZM244.62 132.3h-4.33a2 2 0 0 0-2 2v1.1c0 2.29 1.87 5.2 4.16 5.2 2.3 0 4.17-2.9 4.17-5.2v-1.1a1.99 1.99 0 0 0-2-2ZM255 132.3h-4.34a2 2 0 0 0-2 2v1.1c0 2.29 1.87 5.2 4.17 5.2s4.16-2.9 4.16-5.2v-1.1a1.99 1.99 0 0 0-2-2ZM265.37 132.3h-4.33a2 2 0 0 0-2 2v1.1c0 2.29 1.86 5.2 4.17 5.2 2.3 0 4.16-2.9 4.16-5.2v-1.1a1.99 1.99 0 0 0-2-2v0ZM275.74 132.3h-4.33a2 2 0 0 0-2 2v1.1c0 2.29 1.86 5.2 4.16 5.2s4.17-2.9 4.17-5.2v-1.1a2 2 0 0 0-2-2ZM286.12 132.3h-4.32a2 2 0 0 0-1.97 2v1.1c0 2.29 1.86 5.2 4.16 5.2s4.16-2.9 4.16-5.2v-1.1a1.99 1.99 0 0 0-2.03-2v0ZM296.5 132.3h-4.33a2 2 0 0 0-2 2v1.1c0 2.29 1.87 5.2 4.17 5.2s4.16-2.9 4.16-5.2v-1.1a2 2 0 0 0-2-2v0ZM271.7 153.95h-79.25c-1.04 0-1.88.83-1.88 1.87v5.67c0 1.03.84 1.87 1.88 1.87h79.26c1.03 0 1.87-.84 1.87-1.87v-5.67c0-1.04-.84-1.87-1.87-1.87ZM282.32 154.5H278a2 2 0 0 0-2 2v1.1c0 2.3 1.87 5.2 4.17 5.2s4.16-2.9 4.16-5.2v-1.1a1.99 1.99 0 0 0-2-2ZM186.16 154.5h-4.33a2 2 0 0 0-2 2v1.1c0 2.3 1.87 5.2 4.17 5.2s4.16-2.9 4.16-5.2v-1.1a2 2 0 0 0-2-2v0Z" fill="white" stroke="#263238" stroke-linecap="round" stroke-linejoin="round"/><path opacity=".2" d="M177.4 124.14c.22 0 .43.03.63.06V122.98c0-.23-.09-.45-.25-.62a.87.87 0 0 0-.62-.25h-4.33a.87.87 0 0 0-.86.86v1.11c0 1.6 1.17 3.6 2.55 4-.43-1.77.53-3.94 2.89-3.94ZM188.02 123.85h.4v-.9a.87.87 0 0 0-.87-.86h-4.33a.87.87 0 0 0-.87.86v1.1c0 1.76 1.39 3.94 2.92 4.08-.7-1.8.22-4.28 2.75-4.28ZM198.7 123.7h.09v-.73a.86.86 0 0 0-.87-.86h-4.32a.87.87 0 0 0-.88.86v1.1c0 1.78 1.48 4.08 3.04 4.08h.23c-.79-1.84.12-4.45 2.71-4.45ZM208.42 123.4c.24 0 .48.01.72.06v-.5a.86.86 0 0 0-.86-.87h-4.33a.86.86 0 0 0-.87.86v1.1c0 1.67 1.29 3.8 2.74 4.08-1-1.82-.14-4.73 2.6-4.73ZM219.32 123.4h.22v-.44a.86.86 0 0 0-.86-.86h-4.33a.87.87 0 0 0-.87.86v1.1c0 1.79 1.47 4.09 3.03 4.09h.24c-1.02-1.84-.16-4.75 2.57-4.75ZM229.78 123.46h.14v-.5a.87.87 0 0 0-.86-.87h-4.33a.87.87 0 0 0-.87.86v1.1c0 1.78 1.47 4.08 3.03 4.08.1.01.19.01.28 0-.95-1.83-.08-4.67 2.62-4.67ZM239.8 123.4l.5.03v-.46a.86.86 0 0 0-.87-.86h-4.33a.86.86 0 0 0-.86.86v1.11c0 1.75 1.45 4.04 3 4.08-1.04-1.83-.19-4.76 2.56-4.76ZM250.67 123.55v-.58a.86.86 0 0 0-.86-.86h-4.33a.86.86 0 0 0-.87.86v1.1c0 1.78 1.47 4.08 3.03 4.08.16 0 .32-.03.47-.07-.85-1.8.01-4.45 2.56-4.53ZM260.2 123.32c.29 0 .57.04.85.11v-.46a.87.87 0 0 0-.87-.86h-4.3a.87.87 0 0 0-.87.86v1.11c0 1.64 1.25 3.72 2.67 4.03-1.1-1.82-.25-4.79 2.52-4.79ZM270.8 123.32c.21 0 .42.02.63.06v-.4a.87.87 0 0 0-.87-.87h-4.33a.87.87 0 0 0-.87.86v1.11c0 1.75 1.4 3.97 2.92 4.08-1.1-1.83-.25-4.84 2.53-4.84ZM281.35 123.62c.15 0 .3.02.45.04v-.69a.86.86 0 0 0-.86-.86h-4.33a.88.88 0 0 0-.8.53.86.86 0 0 0-.07.33v1.11c0 1.75 1.4 3.96 2.92 4.08-.84-1.84.05-4.54 2.69-4.54ZM292.18 123.49v-.52a.86.86 0 0 0-.87-.86h-4.33a.86.86 0 0 0-.86.86v1.11c0 1.78 1.46 4.08 3.03 4.08.23 0 .45-.05.65-.14-.83-1.76-.04-4.34 2.38-4.53ZM177.7 145h.34v-.12a.86.86 0 0 0-.87-.86h-4.33a.86.86 0 0 0-.86.86V146c0 1.78 1.47 4.08 3.03 4.08.1 0 .21-.02.32-.04-1.31-1.77-.52-5.02 2.38-5.02ZM187.87 145c.18 0 .37.02.54.05v-.15a.87.87 0 0 0-.86-.86h-4.33a.87.87 0 0 0-.87.86v1.1c0 1.78 1.47 4.09 3.03 4.09h.13c-1.34-1.8-.55-5.08 2.36-5.08ZM198.18 145.15c.2 0 .4.02.58.06v-.31a.87.87 0 0 0-.25-.61.85.85 0 0 0-.6-.26h-4.34a.87.87 0 0 0-.87.87v1.1c0 1.75 1.45 4.04 3 4.08-1.16-1.81-.35-4.93 2.48-4.93ZM208.72 145.23c.15 0 .3 0 .44.03v-.36a.87.87 0 0 0-.25-.61.85.85 0 0 0-.61-.26h-4.33a.87.87 0 0 0-.8.54.87.87 0 0 0-.06.33v1.1c0 1.78 1.46 4.08 3.03 4.08h.07c-1.12-1.82-.29-4.85 2.5-4.85ZM218.88 145c.22 0 .45.03.66.07v-.17a.87.87 0 0 0-.86-.86h-4.33a.88.88 0 0 0-.87.86v1.1c0 1.78 1.47 4.09 3.03 4.09-1.33-1.79-.55-5.08 2.37-5.08ZM229.41 145.08c.17 0 .34.01.51.04v-.22a.87.87 0 0 0-.86-.87h-4.33a.87.87 0 0 0-.87.87v1.1c0 1.78 1.47 4.08 3.03 4.08h.1c-1.25-1.8-.45-5 2.42-5ZM240.17 145.3h.13v-.41a.86.86 0 0 0-.87-.86h-4.33a.86.86 0 0 0-.86.86v1.1c0 1.78 1.46 4.08 3.02 4.08.12 0 .23-.01.34-.04-1-1.81-.17-4.73 2.57-4.73ZM250.62 145.08h.03v-.18a.87.87 0 0 0-.25-.61.87.87 0 0 0-.61-.26h-4.31a.87.87 0 0 0-.8.54.87.87 0 0 0-.07.33v1.1c0 1.78 1.47 4.08 3.03 4.08.18 0 .36-.03.53-.1-1.19-1.8-.36-4.9 2.45-4.9ZM260.72 144.85h.32a.87.87 0 0 0-.86-.83h-4.3a.87.87 0 0 0-.87.86V146c0 1.78 1.47 4.08 3.03 4.08.14 0 .29-.03.42-.07-1.46-1.73-.7-5.15 2.26-5.15ZM271.4 145v-.1a.87.87 0 0 0-.86-.86h-4.33a.87.87 0 0 0-.87.86v1.1c0 1.78 1.48 4.09 3.04 4.09.2 0 .4-.04.58-.1-1.22-1.81-.41-4.98 2.45-4.98ZM281.58 145h.23v-.11a.86.86 0 0 0-.86-.86h-4.33a.86.86 0 0 0-.87.86v1.1c0 1.78 1.47 4.08 3.03 4.08.14 0 .28-.02.41-.05-1.3-1.79-.5-5.01 2.39-5.01ZM291.8 145.45h.38v-.58a.86.86 0 0 0-.87-.87h-4.33a.86.86 0 0 0-.86.87v1.1c0 1.78 1.46 4.08 3.03 4.08-.9-1.8-.03-4.6 2.65-4.6ZM172.78 134.58h.07v-.29a.87.87 0 0 0-.87-.86h-4.32a.86.86 0 0 0-.86.86v1.1c0 1.78 1.47 4.08 3.03 4.08.15 0 .3-.02.45-.07-1.13-1.81-.28-4.82 2.5-4.82ZM182.94 134.58h.29v-.3a.87.87 0 0 0-.87-.86h-4.33a.87.87 0 0 0-.87.86v1.1c0 1.78 1.47 4.08 3.03 4.08h.26c-1.15-1.82-.32-4.88 2.49-4.88ZM193.55 134.58h.05v-.29a.87.87 0 0 0-.86-.86h-4.33a.86.86 0 0 0-.62.25.88.88 0 0 0-.26.61v1.1c0 1.78 1.47 4.08 3.03 4.08.16 0 .31-.02.46-.07-1.1-1.81-.26-4.82 2.53-4.82ZM203.7 134.52h.28v-.22a.86.86 0 0 0-.87-.86h-4.33a.86.86 0 0 0-.86.86v1.1c0 1.78 1.47 4.09 3.02 4.09.11 0 .22-.02.32-.04-1.2-1.81-.4-4.93 2.45-4.93ZM213.81 134.58c.19 0 .38.01.56.04v-.33a.86.86 0 0 0-.87-.86h-4.36a.86.86 0 0 0-.86.86v1.1c0 1.78 1.46 4.08 3.03 4.08-1.16-1.8-.34-4.9 2.5-4.9ZM224.26 134.2c.16 0 .31.01.47.03a.86.86 0 0 0-.87-.8h-4.33a.87.87 0 0 0-.86.86v1.1c0 1.78 1.47 4.08 3.03 4.08.11 0 .22-.01.33-.04-1.52-1.73-.77-5.23 2.23-5.23ZM234.72 134.65h.39v-.38a.87.87 0 0 0-.87-.87h-4.33a.88.88 0 0 0-.87.87v1.1c0 1.78 1.48 4.08 3.03 4.08h.12c-1.09-1.8-.27-4.8 2.53-4.8ZM245.48 134.3a.86.86 0 0 0-.86-.87h-4.33a.87.87 0 0 0-.8.53.86.86 0 0 0-.07.33v1.1c0 1.78 1.47 4.08 3.03 4.08.31 0 .62-.09.89-.24-1.18-1.74-.47-4.7 2.14-4.94ZM255.88 134.52v-.22a.86.86 0 0 0-.87-.86h-4.33a.86.86 0 0 0-.86.86v1.1c0 1.78 1.46 4.09 3.03 4.09.25 0 .5-.07.72-.17-1.07-1.78-.3-4.65 2.3-4.8ZM265.88 134.35h.36v-.08a.87.87 0 0 0-.87-.86h-4.33a.88.88 0 0 0-.87.86v1.11c0 1.78 1.48 4.08 3.04 4.08.1 0 .22-.02.32-.04-1.35-1.76-.57-5.07 2.35-5.07ZM276.61 134.73v-.44a.86.86 0 0 0-.86-.86h-4.33a.87.87 0 0 0-.87.86v1.1c0 1.78 1.47 4.08 3.03 4.08.18 0 .35-.03.52-.08-.95-1.8-.12-4.6 2.51-4.66ZM286.5 134.42c.16 0 .33.02.49.04v-.17a.86.86 0 0 0-.87-.86h-4.32a.88.88 0 0 0-.62.25.87.87 0 0 0-.25.61v1.1c0 1.78 1.47 4.08 3.03 4.08h.16c-1.3-1.8-.51-5.05 2.38-5.05ZM296.96 134.87h.4v-.58a.86.86 0 0 0-.86-.86h-4.33a.87.87 0 0 0-.87.86v1.1c0 1.75 1.46 4.08 3.02 4.08-.91-1.83-.03-4.6 2.64-4.6ZM272.45 161.52v-5.74a.7.7 0 0 0-.7-.7H192.4a.7.7 0 0 0-.7.7v5.74c0 .4.31.7.7.7h79.33c.4 0 .7-.3.7-.7ZM283.19 157.07v-.58a.87.87 0 0 0-.26-.61.85.85 0 0 0-.6-.26h-4.34a.85.85 0 0 0-.6.26.86.86 0 0 0-.26.6v1.11c0 1.78 1.46 4.08 3.03 4.08.13 0 .26-.02.38-.05-.86-1.82.02-4.53 2.64-4.55ZM186.52 156.7c.17 0 .34.01.51.04v-.25a.87.87 0 0 0-.87-.86h-4.33a.88.88 0 0 0-.86.86v1.1c0 1.78 1.47 4.09 3.03 4.09h.1c-1.25-1.81-.43-4.98 2.42-4.98ZM160.48 35.22h143.2a3.72 3.72 0 0 1 3.7 3.7v32.62H156.77V38.92a3.7 3.7 0 0 1 3.7-3.7Z" fill="black"/><path d="M291.97 41.37H172.2c-1-8.26-2.76-16.42-5.26-24.37h130.3a129.8 129.8 0 0 0-5.28 24.37Z" fill="white"/><path opacity=".2" d="M293.14 33.52c-.87 4.74-1.16 7.85-1.16 7.85H172.22s-.3-3.05-1.2-7.85h122.12Z" fill="black"/><path d="M291.97 41.37H172.2c-1-8.26-2.76-16.42-5.26-24.37h130.3a129.8 129.8 0 0 0-5.28 24.37v0Z" stroke="#263238" stroke-linecap="round" stroke-linejoin="round"/><path d="M290.33 61.9H172.85v48.19h117.48v-48.2Z" fill="#263238"/><g opacity=".4" fill="white"><path opacity=".4" d="m228.66 105.82.62.03 2.34-36.1c-1 12.05-1.98 24.08-2.96 36.07ZM226.67 105.67l.62.05c1.35-11.94 2.7-23.93 4.04-35.97-1.55 12.05-3.1 24.02-4.66 35.92ZM224.72 105.45c.2 0 .41.05.62.07 1.92-11.81 3.84-23.74 5.78-35.78-2.14 12.05-4.27 23.96-6.4 35.71ZM222.75 105.15l.63.1c2.48-11.65 4.99-23.49 7.5-35.52a5468.19 5468.19 0 0 1-8.13 35.42ZM220.79 104.79l.63.12c3.04-11.42 6.12-23.15 9.24-35.17-3.32 12.03-6.61 23.7-9.87 35.05ZM218.84 104.34l.63.16c3.58-11.17 7.26-22.75 10.95-34.77a2466.1 2466.1 0 0 1-11.58 34.61ZM216.9 103.82l.63.19c4.09-10.86 8.37-22.29 12.66-34.3-4.5 12.01-9 23.38-13.3 34.1ZM214.98 103.22l.64.2a1287.2 1287.2 0 0 0 14.35-33.7 1226.53 1226.53 0 0 1-14.99 33.5ZM213.04 102.54l.65.24a910.76 910.76 0 0 0 16.03-33.08 816.7 816.7 0 0 1-16.68 32.84ZM211.15 101.78l.64.26a660.03 660.03 0 0 0 17.7-32.35 602.8 602.8 0 0 1-18.34 32.09ZM209.28 100.91l.64.31a505.46 505.46 0 0 0 19.33-31.54 451.58 451.58 0 0 1-19.97 31.23ZM207.43 99.96l.64.35a391.65 391.65 0 0 0 20.95-30.65 350.68 350.68 0 0 1-21.6 30.3Z"/><path opacity=".4" d="M205.64 98.9c.2.14.43.27.64.4a304.52 304.52 0 0 0 22.53-29.65 277.16 277.16 0 0 1-23.17 29.26Z"/><path opacity=".4" d="m203.84 97.75.64.44a242.27 242.27 0 0 0 24.07-28.54 221.69 221.69 0 0 1-24.7 28.1Z"/><path opacity=".4" d="M228.32 69.61c-9.4 11.74-18.6 20.7-26.19 26.88l.63.48a196.32 196.32 0 0 0 25.56-27.36Z"/><path opacity=".4" d="M228.09 69.6c-10.02 11.65-19.8 20.16-27.62 25.52l.62.53c7.71-5.7 17.25-14.38 27-26.05Z"/><path opacity=".4" d="M227.83 69.58c-10.61 11.56-20.95 19.57-28.95 24.05.2.2.39.4.59.58 7.92-4.83 18.03-13.04 28.36-24.63Z"/><path opacity=".4" d="M227.62 69.56c-11.2 11.44-22.07 18.92-30.2 22.48l.59.63c8.04-3.94 18.67-11.63 29.6-23.11Z"/><path opacity=".4" d="m196.08 90.34.52.69c8.15-3 19.28-10.16 30.8-21.5-11.76 11.29-23.13 18.21-31.32 20.8Z"/><path opacity=".4" d="m194.89 88.57.46.73c8.18-2.05 19.8-8.64 31.8-19.8-12.24 11.1-24.06 17.44-32.26 19.07Z"/><path opacity=".4" d="m193.87 86.77.4.76c8.18-1.1 20.19-7.11 32.65-18.03-12.67 10.81-24.87 16.57-33.05 17.27Z"/><path opacity=".4" d="m193.04 84.93.33.77c8.13-.2 20.44-5.6 33.3-16.24-13 10.52-25.5 15.67-33.63 15.47ZM230.64 105.9h.62c.18-12.03.38-24.08.58-36.15l-1.2 36.15ZM232.62 105.92h.62c-.4-12.04-.78-24.1-1.17-36.16l.55 36.16ZM234.6 105.86h.61l-2.92-36.1 2.3 36.1ZM236.6 105.74l.62-.05c-1.56-11.9-3.12-23.89-4.68-35.94 1.34 12.05 2.7 24.05 4.06 36ZM238.54 105.56l.62-.08-6.42-35.74 5.8 35.82ZM240.51 105.3l.63-.1c-2.7-11.6-5.4-23.4-8.15-35.46 2.52 12.05 5.03 23.9 7.52 35.55ZM242.47 104.96l.63-.12a4880.15 4880.15 0 0 1-9.88-35.1c3.1 12.04 6.2 23.78 9.25 35.22ZM244.43 104.55l.63-.14a2450.78 2450.78 0 0 1-11.6-34.68c3.7 12.04 7.35 23.65 10.97 34.82ZM246.38 104.08l.63-.19c-4.31-10.75-8.8-22.13-13.32-34.17 4.3 12.03 8.57 23.45 12.69 34.36ZM248.31 103.51l.64-.2a1042.92 1042.92 0 0 1-15.03-33.6c4.9 12.02 9.76 23.28 14.39 33.8ZM250.23 102.86l.64-.23a805.2 805.2 0 0 1-16.72-32.93c5.5 12 10.95 23.05 16.08 33.16ZM252.14 102.14c.21-.1.43-.18.64-.27a595.78 595.78 0 0 1-18.4-32.18 666.41 666.41 0 0 0 17.76 32.45ZM254.02 101.33l.65-.31a451 451 0 0 1-20.05-31.34 506.07 506.07 0 0 0 19.4 31.65ZM255.88 100.41c.21-.1.43-.23.64-.35-7.76-9.74-15-19.9-21.68-30.4a400.46 400.46 0 0 0 21.03 30.75ZM257.7 99.4l.66-.38a277.86 277.86 0 0 1-23.27-29.37A304.35 304.35 0 0 0 257.7 99.4Z"/><path opacity=".4" d="M235.32 69.63A242.6 242.6 0 0 0 259.5 98.3l.65-.44a221.94 221.94 0 0 1-24.83-28.23Z"/><path opacity=".4" d="M235.56 69.61a195.66 195.66 0 0 0 25.7 27.47l.63-.48c-7.62-6.19-16.88-15.18-26.33-26.99Z"/><path opacity=".4" d="M235.8 69.6c9.8 11.74 19.4 20.46 27.14 26.15l.63-.53c-7.85-5.34-17.7-13.88-27.78-25.62Z"/><path opacity=".4" d="M236.01 69.58c10.43 11.65 20.6 19.91 28.54 24.74l.58-.58c-8-4.47-18.42-12.51-29.12-24.16Z"/><path opacity=".4" d="M236.26 69.56c11.02 11.56 21.74 19.3 29.8 23.2l.57-.64c-8.12-3.5-19.09-11.02-30.37-22.56Z"/><path opacity=".4" d="m267.5 91.11.52-.7c-8.2-2.54-19.68-9.49-31.55-20.87 11.62 11.43 22.86 18.61 31.02 21.57Z"/><path opacity=".4" d="m268.76 89.36.48-.75c-8.22-1.54-20.15-7.9-32.52-19.1 12.15 11.26 23.83 17.87 32.04 19.85Z"/><path opacity=".4" d="m269.9 87.55.4-.78c-8.18-.58-20.5-6.34-33.3-17.28 12.55 11.03 24.72 17.05 32.9 18.06Z"/><path opacity=".4" d="M237.18 69.46c13 10.75 25.47 16.16 33.6 16.25.1-.27.22-.53.33-.79-8.1.33-20.75-4.82-33.93-15.46Z"/></g><path opacity=".2" d="M214.98 70.62c-2.21 5.66.18 22.13 16.16 22.13s21.78-11.57 21.13-18.73l21.33-3.42s6.54 18-7.34 30.6c-13.88 12.6-62 11.79-72.17 2.21-10.17-9.57-4.53-28.49-4.53-28.49l25.42-4.3Z" fill="black"/><path d="M308.6 46.19v-3.97a.69.69 0 0 1 .48-.66l2.92-.9v-3.98a1.8 1.8 0 0 1 1.8-1.8h3.5a.67.67 0 0 1 .68.63v1.29a.66.66 0 0 1-.66.66h-4.46v3.88a.7.7 0 0 1-.33.59l-2.49 1.5v2.77l-1.45-.01Z" fill="#999999" stroke="#263238" stroke-linecap="round" stroke-linejoin="round"/><path d="M312.44 46.19h-3.85v11.46h3.85V46.2Z" fill="#263238"/><path d="M317.24 45.22h-4.8v13.4h4.8v-13.4Z" fill="#757575"/><path opacity=".2" d="M317.23 53.38h-4.8v5.24h4.8v-5.24Z" fill="black"/><path d="M317.24 45.22h-4.8v13.4h4.8v-13.4Z" stroke="#263238" stroke-linecap="round" stroke-linejoin="round"/><path d="M151.72 57.65h3.84V46.18h-3.84v11.47Z" fill="#263238"/><path d="M146.9 58.62h4.82v-13.4h-4.81v13.4Z" fill="#757575"/><path opacity=".2" d="M151.72 53.38h-4.8v5.12h4.8v-5.12Z" fill="black"/><path d="M146.9 58.62h4.82v-13.4h-4.81v13.4Z" stroke="#263238" stroke-linecap="round" stroke-linejoin="round"/><path d="M154.98 52.6a4.65 4.65 0 0 0-1.38-5.24l-2.82-2.33a1.71 1.71 0 0 0-2.5.3l-11.2 15.42c-.22.29-.33.64-.33 1V78.3a1.66 1.66 0 0 0 .5 1.2 1.67 1.67 0 0 0 1.2.48v0a1.69 1.69 0 0 0 1.69-1.68V64.86c0-.34.1-.66.3-.93l8.38-11.65a.9.9 0 0 1 1.33-.16l1.54 1.3c.38.33.87.5 1.37.5v0a2.08 2.08 0 0 0 1.92-1.32v0Z" fill="white" stroke="#263238" stroke-linecap="round" stroke-linejoin="round"/><path d="M152.67 51.1a.8.8 0 1 0 0-1.6.8.8 0 0 0 0 1.6Z" fill="#999999" stroke="#263238" stroke-linecap="round" stroke-linejoin="round"/><path d="M305.03 40.65h-145.9v22.53h145.9V40.65Z" fill="#263238"/><path opacity=".2" d="M302.92 42.35H161.18a.8.8 0 0 0-.8.8v3.65c0 .44.35.8.8.8h141.74a.8.8 0 0 0 .8-.8v-3.65a.8.8 0 0 0-.8-.8Z" fill="white"/><path d="M291.97 67.71H172.2a62.39 62.39 0 0 1-5.26-24.37h130.3c0 11.28-5.28 24.37-5.28 24.37Z" fill="white"/><g opacity=".7" stroke="#263238" stroke-linecap="round" stroke-linejoin="round"><path opacity=".7" d="M181.9 65.88s2.62-.14 4.08-1.02c1.47-.88 1.37.8 2.2.9.85.12 2.83-.58 3.89-.58 1.05 0 .25.64 1.43.58 1.19-.05.55.06 1.17-.05l5.08-.85s2.57-.5 3.1-.24c.51.25 1.2 1.48 1.96 1.16.76-.32.35-.58 1.5-.58.7 0 1.41.1 2.09.3 0 0 .1-.3.63-.3h.94s2 .52 2.3.52c.32 0 2.68-.51 2.76-.52.08 0 2.34-.58 2.34-.58.47.5 1.08.85 1.75 1.03.85.11 1.75-.11 2.4.17.64.29 2.75-.11 2.75-.11.5 0 1 .04 1.5.11.66.15 1.34.13 1.99-.06a7.57 7.57 0 0 1 3.62-.05c1.9.34 3.65-.52 4.45-.53.8 0 4.03.36 5.14.36 1.11 0 4.05.4 6.1.17 2.04-.23 3.38.28 4.75.28s2.84-.06 3.16-.06c.31 0 1.83-.99 4-.75 2.18.24.24-.3 1.58 0s2.4.58 2.96.64c.46.03.91.01 1.36-.06l2.34-.16h11.65M179.47 61.39s7.22 0 8.52-.12c1.3-.12 2-.78 2.7-.78.69 0 4.2.66 4.2.66a1.16 1.16 0 0 1 1.17-.66c.95 0 .46.09 1.34.43.88.35.42 0 .88.35.69.3 1.42.52 2.16.63 0 0 3.26.15 3.38-.63.12-.78 1.75.63 1.75.63s4.42-.63 6.12-.63c1.7 0 5.99-.35 5.99-.35s3.5.47 3.66.47c.17 0 .75.91 1.37.5.63-.4 1.23-.85 1.97-.74.69.17 1.35.42 1.99.75l1.63-.86 1.86.11s1.91 1.27 3.27.75c1.04-.42 2.05-.89 3.03-1.41l1.68 1.4h1.1l3.25-.62a1.97 1.97 0 0 0 2.13.63c1.38-.4 14.56 0 17.9 0 3.36 0 4.1-.86 4.1-.86l2.58.86h12.85"/></g><path opacity=".2" d="M293.19 64.34c-.71 2.1-1.22 3.37-1.22 3.37H172.2s-.58-1.22-1.39-3.37H293.2ZM295.68 55.53c-.4 1.74-.85 3.45-1.28 4.96H169.52a69 69 0 0 1-1.26-4.96h127.42Z" fill="black"/><path d="M291.97 67.71H172.2a62.39 62.39 0 0 1-5.26-24.37h130.3c0 11.28-5.28 24.37-5.28 24.37Z" stroke="#263238" stroke-linecap="round" stroke-linejoin="round"/><path d="M159.1 39.5h-3.57v24.85h3.57V39.49Z" fill="#757575"/><path opacity=".2" d="M159.03 56.98h-3.48v7.37h3.48v-7.37Z" fill="black"/><path d="M159.1 39.5h-3.57v24.85h3.57V39.49Z" stroke="#263238" stroke-linecap="round" stroke-linejoin="round"/><path d="M308.62 39.5h-3.57v24.85h3.57V39.49Z" fill="#757575"/><path opacity=".2" d="M308.62 56.98h-3.6v7.37h3.6v-7.37Z" fill="black"/><path d="M308.62 39.5h-3.57v24.85h3.57V39.49Z" stroke="#263238" stroke-linecap="round" stroke-linejoin="round"/><path d="M305.08 38.45v18.13h-146V38.45h-1.41V57.8h148.81V38.45h-1.4Z" fill="#999999" stroke="#263238" stroke-linecap="round" stroke-linejoin="round"/><path d="M313.7 69v40.65a2.58 2.58 0 0 1-2.58 2.58h-158.1a2.6 2.6 0 0 1-2.6-2.58V68.99a2.58 2.58 0 0 1 2.6-2.58h72.85v2.58s-12.44 10.76-33.89 14.72c3.08 13.87 19.87 24.47 40.13 24.47 20.25 0 37.04-10.61 40.12-24.47-21.47-3.96-33.9-14.72-33.9-14.72v-2.6h72.8a2.6 2.6 0 0 1 2.58 2.6Z" fill="white" stroke="#263238" stroke-linecap="round" stroke-linejoin="round"/><path d="M313.7 69v40.65a2.6 2.6 0 0 1-2.6 2.58H153.03a2.6 2.6 0 0 1-2.6-2.58V68.99a2.6 2.6 0 0 1 2.6-2.59h72.85V69s-12.45 10.74-33.89 14.71c3.08 13.87 19.87 24.47 40.13 24.47 20.27 0 37.04-10.61 40.12-24.47-21.47-3.97-33.9-14.72-33.9-14.72v-2.6h72.8a2.6 2.6 0 0 1 2.58 2.6Z" fill="white"/><path opacity=".2" d="M310.2 69.61v37.54a1.88 1.88 0 0 1-1.18 1.75c-.23.1-.48.14-.73.14H154.57a1.9 1.9 0 0 1-1.9-1.89V69.61a1.89 1.89 0 0 1 1.9-1.9h71.27v1.28s-12.44 10.75-33.88 14.72c3.07 13.87 19.86 24.47 40.13 24.47 20.26 0 37.04-10.61 40.12-24.47C250.73 79.74 238.3 69 238.3 69v-1.28h70.01a1.91 1.91 0 0 1 1.9 1.9Z" fill="white"/><path d="M313.7 69v40.65a2.6 2.6 0 0 1-2.6 2.58H153.03a2.6 2.6 0 0 1-2.6-2.58V68.99a2.6 2.6 0 0 1 2.6-2.59h72.85V69s-12.45 10.74-33.89 14.71c3.08 13.87 19.87 24.47 40.13 24.47 20.27 0 37.04-10.61 40.12-24.47-21.47-3.97-33.9-14.72-33.9-14.72v-2.6h72.8a2.6 2.6 0 0 1 2.58 2.6v0Z" stroke="#263238" stroke-linecap="round" stroke-linejoin="round"/><path opacity=".2" d="m261.48 124.28 7.77 21.6s3.36-23.77 5.36-23.77c2 0 6.32 13 6.32 13s2.66-6.78 5.19-7.03c2.52-.24 4.8 16.65 4.8 16.65l.4 37.49-3.19 56.7s-20.3-22.31-26.23-28.06-11.59-18.4-13.22-20.97c-1.64-2.56-2.05-16.01-2.05-16.01a14.39 14.39 0 0 0 3.06-9.28s4.77-7.95 4.47-13.82c-.29-5.87-1.03-28.69 7.32-26.5Z" fill="black" fill-opacity=".7"/><path d="M322.6 228.87 291.83 245c0-.16-4.04-6.7-8.92-14.08a361.2 361.2 0 0 0-6.86-10.03c-3.7-5.2-8.4-9.7-8.81-10.67-1.17-2.91-10.18-13.82-12.2-18.06-2-4.24-2.47-17.43-3.36-20.53-.88-3.1 1.66-6.07 3.7-7.51 2.05-1.45 4.2-5.25 4.2-5.25s-2.27-8.78-2.29-13.25c-.02-4.46-1.55-20.05.27-21.51 1.83-1.46 3.46-.84 3.91.16 1.5 3.3 2.84 11.6 4 15.43 1.14 3.83 3.3 14.93 4.37 15.73 1.06.8 2.95-2.2 2.95-2.2s.19-9.32.59-13.18l-.58-12.23s-1.1-7.35 1.44-8.05c3.5-.96 4.79 1.24 5.19 2.16.4.93 2.03 6.26 2.03 6.26l.1.37v.18l.08.33.22.86c.78 3.04 2.27 9.11 2.2 10.61-.08 2.02-.78 13.22.21 15.54l1.56-15.46s-2.5-11.92-1.78-13.64c.73-1.72 4.17.18 4.58.86.41.67 3.75 4.76 4.35 6.32l.58 1.56s.83-3.69 2.76-2.73c1.93.96 2.17 5.66 2.3 7.7.14 2.06 1.54 15.24 1.76 15.27.22.02 2.45 6.87 2.14 11.4-.63 9.68 1.05 16.88 1.1 20.6.07 3.72-2.74 12.32-2.74 12.32.1.17 1.93 3.28 2.43 6.01.37 2 6.92 9.25 12.27 15 3.72 3.98 6.84 7.23 7 7.58Z" fill="white"/><path opacity=".4" d="M282.92 230.94c-2.2-3.35-4.59-6.86-6.85-10.04-3.7-5.2-8.41-9.7-8.81-10.67-1.17-2.91-10.18-13.81-12.2-18.05-2.01-4.24-2.47-17.44-3.36-20.54-.89-3.1 1.66-6.07 3.7-7.51 2.05-1.45 4.2-5.24 4.2-5.24s-2.27-8.79-2.3-13.25c-.02-4.47-1.54-20.06.28-21.52 1.82-1.45 3.45-.84 3.9.16 1.5 3.3 2.85 11.6 4 15.43s3.31 14.93 4.38 15.73c1.06.8 2.95-2.2 2.95-2.2s.18-9.32.58-13.18l-.58-12.23s-1.1-7.35 1.45-8.05c3.5-.96 4.78 1.24 5.18 2.16.4.93 2.03 6.26 2.03 6.26l.1.37v.18l.08.33.23.87c-.9-1.43-2.15-2.65-3.82-2.97-4.67-.9-3.66 4.28-3.22 7.39.26 2.06.2 4.15-.14 6.2l1.17-.67c-.85 1.5-2.05 13.94-2.05 16.7 0 2.77-2.2 3.69-4.16 2.88-1.97-.81-2.67-13.5-4.17-15.78-1.5-2.28-5.65 2.07-5.84 6.05-.19 3.97 3.53 15.84 2.65 18.63-.88 2.8-.87 13.4-.87 13.4l-1.07-2.73c.07.37 0 1.62-2.25 5.31a10.96 10.96 0 0 0-1.22 9.06c1.37 3.03 8.33 11 9.5 11.81 0 0 .85-3.46 3.5-2.54-.9 1.44-1.56 3.01-1.95 4.66-.55 2.54 5 4.17 6.73 6.59 1.07 1.47 1.78 5.96 8.25 17ZM315.63 221.3c-5.47-5.49-15.1-10.72-14.51-12.09.78-1.84-.21-5.76-1.9-8.94-1.68-3.18.6-8.34.6-8.34l1.03 3c.83-3.46.93-7.05.29-10.55-1.07-5.95-1.9-3.86-1.9-3.86s.22-5.36 1.17-8.28c.95-2.92 1.75-10.02.44-14.22-1.31-4.2-4.09-3.4-4.83-1.97-.74 1.45.05 7.08.67 8.93.6 1.84-2 4.95-2.06 2.64-.05-2.3-1.03-8.73-1.03-8.73l1.98-12.92-1.98-10.25s.82-3.7 2.75-2.73c1.94.96 2.18 5.65 2.31 7.7.13 2.05 1.54 15.24 1.75 15.26.22.02 2.45 6.87 2.15 11.4-.64 9.68 1.04 16.89 1.1 20.6.06 3.72-2.75 12.33-2.75 12.33.1.17 1.93 3.28 2.44 6 .36 2.01 6.91 9.25 12.26 15.01l.01.01ZM292.99 134.16c.1.3.2.53.27.72-1.86-4.3-5.02-2.97-5.58-1.74-.56 1.22 1.32 8.8 1.75 9.99.43 1.17-1.7 10.57-2 13.68-.31 3.1-1.14 3.74-1.14 3.74-2.1.16-2.33-5.61-2.33-6.4.04.66.17 1.31.38 1.94l1.56-15.46s-2.57-11.93-1.84-13.65c.73-1.72 4.17.18 4.58.86.41.67 3.75 4.76 4.35 6.32Z" fill="white"/><path d="M322.6 228.87c-.4-.9-18.65-19.22-19.28-22.58-.52-2.81-2.45-6.02-2.45-6.02s2.81-8.59 2.76-12.32c-.06-3.74-1.76-10.92-1.1-20.6.3-4.53-1.93-11.38-2.15-11.4-.22-.03-1.63-13.21-1.75-15.26-.13-2.06-.37-6.75-2.31-7.71s-2.76 2.73-2.76 2.73l-.58-1.56c-.59-1.56-3.94-5.65-4.35-6.32-.4-.68-3.84-2.58-4.58-.86-.74 1.72 1.83 13.62 1.83 13.62l-1.54 15.48c-1-2.33-.3-13.51-.2-15.54.08-2.02-2.67-12.34-2.67-12.34s-1.64-5.31-2.03-6.27c-.38-.95-1.68-3.12-5.18-2.16-2.54.7-1.45 8.05-1.45 8.05l.58 12.23c-.39 3.88-.58 13.18-.58 13.18s-1.9 2.99-2.95 2.2c-1.07-.8-3.23-11.9-4.38-15.73-1.15-3.84-2.5-12.13-4-15.43-.45-1-2.08-1.62-3.9-.16-1.82 1.46-.3 17.04-.27 21.51.03 4.48 2.28 13.25 2.28 13.25s-2.14 3.78-4.19 5.24c-2.04 1.47-4.59 4.4-3.7 7.52.89 3.1 1.35 16.3 3.36 20.53 2.02 4.23 11 15.14 12.2 18.06.4.98 5.1 5.47 8.81 10.67 7.27 10.2 15.77 23.88 15.77 24.1" stroke="#263238" stroke-linecap="round" stroke-linejoin="round"/><path d="M259.58 158.9s1.45 7.15 1.4 8.35c0 0-1.27 5.53-1.28 9.1a36.35 36.35 0 0 0-2.38 4.22c-.5 1.3-1.37 4.47-1 6.24" stroke="#263238" stroke-linecap="round" stroke-linejoin="round"/><path d="M256.94 169.47s3.55.03 3.32 1.52M259.7 176.36s-2.28-.99-3.08.34M272.82 153.24s-.17 5.49-1.62 5.05M284.34 156.07s-.42 3 .7 3.93M293.58 135.72l1.94 9.37c.36 1.8-1.8 10.95-1.75 13.33.04 2.38 1.06 5.79.92 7.4M299.88 193.22s-.51 4.95 1.01 7.06M269.25 203s-3.4 3.1-2.16 6.9M291.6 164.52c.04 2.18-1.24 4.72-1.37 7.73M280.76 162.58c.73 1.78-.85 5.66-1.1 7.11-.09 1.14.04 2.3.38 3.38M301.12 168.72c-.3 1.89-1.64 3.24-1.9 9.06M267.95 162.03c.98 1.06.32 6.15.58 6.98M286.25 132.7s3.34-2.44 6.22.44M274.74 127.1s.59-.98 3.4-.74c2.83.24 3.33 1.82 3.33 1.82" stroke="#263238" stroke-linecap="round" stroke-linejoin="round"/><path d="M266.5 143.72s-.94-1.4-3.44-.93c-2.5.46-3.6 3.98-3.6 3.98" fill="white"/><path d="M266.5 143.72s-.94-1.4-3.44-.93c-2.5.46-3.6 3.98-3.6 3.98M300.4 155.96s-2.08-3-4.58-1.72" stroke="#263238" stroke-linecap="round" stroke-linejoin="round"/><path opacity=".2" d="M211.8 133.94c3.5 2.7.55 19.33.55 19.33l.3 5.41 6.02-2.6 2.74 11.55s-.07 4.24 2.16 5.83c0 0 .54 9.5 0 16.44-.56 6.94-11.69 15.1-15.53 22.39-3.83 7.28-28.87 28.7-28.87 28.7l-21.2-10.06 15.33-61.7 13.73-17.59 8.14-20.24s1.4 13.22.58 22.13l16.05-19.59Z" fill="black" fill-opacity=".7"/><path d="M217.7 170.87c-.53 2.55.75 16.53.53 18.42-.23 1.88-11.38 14.56-11.94 15.52-.57.96-8.03 5.24-9.76 7.28-8.11 9.43-12.54 18.12-16.1 26.82-.68 1.68-1.33 3.37-1.98 5.05l-32.17-18.63c2.7-3.35 5.25-6.32 7.6-9.02 4.67-5.48 8.39-9.87 10.2-14a23.1 23.1 0 0 1 1.93-3.03c.72-1.03 1.37-1.87 1.37-1.87s-2.34-6.57-1.8-8.63c.55-2.06-.67-19-.67-19s-1.58-11.55-3.14-14.46a4.78 4.78 0 0 1-.5-2.46c.07-2.66 1.62-6.01 2.38-9.9 1.02-5.24.53-7.83 3.72-6.02 3.19 1.81 1.7 12.81 1.7 12.81l4.82 10.65c1.26-2.57 0-10.09-.07-11.86 0-.3 0-.78-.04-1.4-.1-3.07-.3-9.45-.05-11.96 0-.14 0-.27.05-.39.4-2.6 1.79-10.86 2.68-11.78 1.32-1.36 3.41-2.51 5.39.58 1.1 1.75.63 15.6.63 15.6s4.58-5.5 5.97-6.85c1.39-1.35 5.6-3.8 6.74-.96 1.12 2.85-3.04 11.65-3.04 11.65.87 2.04.98 7.69.98 7.69s1.97 7.05 3.18 6.98h.05c.35-.07.73-1.35 1.14-3.15 1-4.41 2.07-11.95 2.92-12.61l.58-.47a.43.43 0 0 1 .1-.09l.21-.19c2.07-1.83 6.43-5.9 6.43-5.9s.3-1.96 4.12-1.36c3.82.6-1.7 11.82-1.7 11.82a241.18 241.18 0 0 0-1.93 12.76c-.36 3.82-.15 14.09-.15 14.09s1.8-5.98 1.7-8.16c-.13-2.18 3.58-7.51 4.66-8.89 1.1-1.37 5.94-.89 4.6 1.75-1.36 2.64-.8 11-1.34 13.57Z" fill="white"/><path opacity=".4" d="M164.07 202.33a23.1 23.1 0 0 1 1.92-3.03s-1.9 5.24-2.09 8.03c-.12 1.84-4.98 5.03-10.05 9 4.7-5.48 8.4-9.86 10.22-14ZM165.99 199.3c.72-1.03 1.37-1.87 1.37-1.87s-2.34-6.56-1.8-8.63c.55-2.06-.66-19-.66-19s-1.59-11.54-3.15-14.46l3.64 6.34s-.36 5 .67 7.74c1.04 2.74 2.34 11.11 2.34 11.11s-1.53 7.04-1.01 9.57c.52 2.54 2.86 1.62 2.86 1.62s1.15 4.63-4.26 7.58ZM174.46 151.64c2.51 14.63-1.8 10.58-3.37 7.43-1.56-3.16-5.22-9.14-7.98-7.86-.77.36-1.42.95-1.86 1.68.08-2.66 1.62-6.02 2.38-9.9 1.02-5.25.53-7.84 3.72-6.03 3.19 1.81 1.7 12.82 1.7 12.82l4.82 10.64c1.27-2.57 0-10.08-.07-11.86 0-.3 0-.78-.04-1.4.19 1.34.42 2.84.7 4.48ZM180.6 137.19s-2.7-3.53-5.06-3.35a2.07 2.07 0 0 0-1.82 1.34c0-.14 0-.27.04-.38.4-2.6 1.8-10.87 2.68-11.79 1.32-1.36 3.42-2.5 5.4.59 1.1 1.75.62 15.6.62 15.6s4.58-5.5 5.97-6.85c1.4-1.35 5.61-3.8 6.74-.96 1.13 2.85-3.03 11.65-3.03 11.65.87 2.04.97 7.68.97 7.68s1.97 7.05 3.18 6.99c-2.66 5-4.44-6.05-4.44-6.05.4-2.28-1.02-7.24-.88-8.54.14-1.3-2.45-5.92-6.82-4.66-4.37 1.26-1.22 18.47-1.22 18.47a9.6 9.6 0 0 0-1.46 4.56c-1.34-1.66 0-6.4 0-6.4-1.2-4.55-.87-17.9-.87-17.9ZM200.96 141.45c-1.86 1.96-1.6 6.89-3.5 13.08 1-4.41 2.07-11.95 2.92-12.61l.58-.47ZM217.7 170.87c-.53 2.55.75 16.53.53 18.42-.23 1.88-11.38 14.56-11.95 15.52-.56.96-8.02 5.24-9.75 7.28-8.11 9.43-12.54 18.12-16.1 26.82a114.6 114.6 0 0 1 4.85-13.25c3.84-8.6 5.4-10.14 7.7-12.6 2.3-2.45 2.05-7.68 2.05-7.68 1.7-.4 3.44-.6 5.2-.6 2.91 0 11.56-12.3 14.53-14.45 2.97-2.16 3.5-2.16 0-6.9-3.5-4.76-2.51.75-3.56.57-1.05-.18-1.63 2.12-1.63 2.12-.36-4.85-3.5-10.49-4.16-11.9-.66-1.4 1.6-9.67 1.13-11.97-.47-2.3 2.01-16.3 2.01-16.3s-.3-5.38-5.2-5.4a3.21 3.21 0 0 0-2.08.63c2.06-1.83 6.42-5.91 6.42-5.91s.31-1.95 4.13-1.35c3.81.6-1.7 11.82-1.7 11.82a241.18 241.18 0 0 0-1.94 12.75c-.35 3.83-.14 14.1-.14 14.1s1.8-5.98 1.69-8.16c-.12-2.18 3.58-7.51 4.67-8.89 1.09-1.37 5.93-.89 4.58 1.75-1.34 2.64-.75 11.01-1.28 13.58Z" fill="white"/><path d="M178.45 244.02c3.97-10.45 8.4-20.64 18.08-31.9 1.75-2.01 9.19-6.3 9.75-7.28.57-1 11.73-13.64 11.94-15.52.22-1.88-1.05-15.87-.52-18.42.53-2.56-.09-10.97 1.26-13.59 1.34-2.62-3.51-3.1-4.6-1.74-1.07 1.35-4.76 6.73-4.66 8.88.1 2.16-1.7 8.16-1.7 8.16s-.2-10.27.15-14.1c0 0 1.17-9.18 1.94-12.75 0 0 5.5-11.22 1.7-11.82-3.81-.6-4.13 1.35-4.13 1.35s-6.08 5.7-7.28 6.63c-1.2.93-2.85 15.5-4.06 15.77-1.2.27-3.23-7-3.23-7s-.1-5.64-.97-7.68c0 0 4.15-8.77 3.03-11.64-1.12-2.87-5.34-.39-6.74.95-1.4 1.34-5.97 6.86-5.97 6.86s.48-13.87-.63-15.6c-1.97-3.11-4.09-1.96-5.39-.59-.89.92-2.28 9.19-2.67 11.78-.4 2.6 0 11.97.04 13.75.04 1.78 1.33 9.29.06 11.86l-4.82-10.64s1.5-11.02-1.7-12.82c-3.2-1.8-2.7.8-3.71 6.03-1.02 5.22-3.44 9.47-1.88 12.38 1.55 2.92 3.14 14.45 3.14 14.45s1.2 16.95.67 19.01c-.53 2.06 1.81 8.63 1.81 8.63s-2.7 3.55-3.29 4.9c-2.72 6.17-9.6 12.91-17.8 23.06" stroke="#263238" stroke-linecap="round" stroke-linejoin="round"/><path d="M182.46 139.21a5.7 5.7 0 0 0-.98 3.4c0 2.21 1.46 14.32 1.46 14.32s-1.06 1.25-1.12 2.33M208.02 172.58c.16 2.04.69 4.04 1.56 5.9 1.37 2.7.92 4.18.45 5.77a20.5 20.5 0 0 0-.5 4.25M174.38 158.01s1.02 3.22-.87 4.74M196.34 157.69s.2 1.26-1.6 1.38M208.39 143.13s-4.5-4.9-8-1.21" stroke="#263238" stroke-linecap="round" stroke-linejoin="round"/><path d="M190.16 140.38s-2.07-2.62-3.87-2.46c-1.8.16-4.23 1.25-4.5 2.69M210.42 182.68c.73 1.03 1.26 2.19 1.56 3.41M198.74 162.8c-1.4 2.58-.73 6.98-1.25 8.19M183.95 158.49c.32 1.49-.71 3.92-.87 5.7-.16 1.8 1.31 4.56 1.04 7.07M174.46 164.6s-1.22 2.8-1.16 4.65c.05 1.85.7 5.91.7 5.91M165.49 164.46s-.45 2.91.58 4.96 2.03 6.4 2.03 6.4M167.36 197.42a2.78 2.78 0 0 0 2.03-2.38M196.73 206.3s1.11 4.12-1.02 6.77M161.28 152.4s3.14-3.06 5.52-.48M173.76 134.8s2.34-2.44 5.07.17" stroke="#263238" stroke-linecap="round" stroke-linejoin="round"/></svg>