<svg width="426" height="320" fill="none" xmlns="http://www.w3.org/2000/svg"><path d="M366.84 151.85c-3.56-17.43-9.8-34.43-17.22-50.07-12.79-26.97-33.75-49.36-60.56-62.66C223.28 6.49 175.8 20.09 150.03 46.6c-25.78 26.5-18.32 72.05-46.12 91.76-27.81 19.71-47.48 28.55-48.84 64.57-1.35 36.03 16.28 63.22 44.77 72.06 28.48 8.83 71.21 37.38 156.67 21.07 85.46-16.32 106.48-61.86 111.9-94.49 2.72-16.41 1.78-33.25-1.57-49.72Z" fill="#CBCBCB"/><path opacity=".7" d="M366.84 151.85c-3.56-17.43-9.8-34.43-17.22-50.07-12.79-26.97-33.75-49.36-60.56-62.66C223.28 6.49 175.8 20.09 150.03 46.6c-25.78 26.5-18.32 72.05-46.12 91.76-27.81 19.71-47.48 28.55-48.84 64.57-1.35 36.03 16.28 63.22 44.77 72.06 28.48 8.83 71.21 37.38 156.67 21.07 85.46-16.32 106.48-61.86 111.9-94.49 2.72-16.41 1.78-33.25-1.57-49.72Z" fill="white"/><path d="M166.52 52.39h-6.15v27.29h6.15v-27.3Z" fill="#C9C9C9" stroke="#263238" stroke-linecap="round" stroke-linejoin="round"/><path d="M166.52 56.5h-6.15v2.66h6.15v-2.67ZM166.52 73.43h-6.15v2.66h6.15v-2.66Z" fill="white" stroke="#263238" stroke-linecap="round" stroke-linejoin="round"/><path d="M173.69 52.39h-8.6v27.29h8.6v-27.3Z" fill="#878787" stroke="#263238" stroke-linecap="round" stroke-linejoin="round"/><path d="M173.08 52.39h-6.15v27.29h6.15v-27.3Z" fill="#C9C9C9" stroke="#263238" stroke-linecap="round" stroke-linejoin="round"/><path d="M173.08 56.5h-6.15v2.66h6.15v-2.67ZM173.08 73.43h-6.15v2.66h6.15v-2.66Z" fill="white" stroke="#263238" stroke-linecap="round" stroke-linejoin="round"/><path d="M180.24 52.39h-8.6v27.29h8.6v-27.3Z" fill="#878787" stroke="#263238" stroke-linecap="round" stroke-linejoin="round"/><path d="M179.63 52.39h-6.14v27.29h6.14v-27.3Z" fill="#C9C9C9" stroke="#263238" stroke-linecap="round" stroke-linejoin="round"/><path d="M179.63 56.5h-6.14v2.66h6.14v-2.67ZM179.63 73.43h-6.14v2.66h6.14v-2.66Z" fill="white" stroke="#263238" stroke-linecap="round" stroke-linejoin="round"/><path d="M186.8 52.39h-8.6v27.29h8.6v-27.3Z" fill="#C9C9C9" stroke="#263238" stroke-linecap="round" stroke-linejoin="round"/><path d="M192.4 79.96h14.43l3.84-3.48H192.4v3.48Z" fill="white" stroke="#263238" stroke-linecap="round" stroke-linejoin="round"/><path d="m209.03 80.13-.46-.8-16.47-.02.47.82h16.46Z" fill="white" stroke="#263238" stroke-linecap="round" stroke-linejoin="round"/><path d="m184.04 52.96-5.32 3.08 13.63 23.62 5.32-3.08-13.63-23.62Z" fill="#C9C9C9" stroke="#263238" stroke-linecap="round" stroke-linejoin="round"/><path d="m186.1 56.5-5.33 3.08 1.33 2.31 5.32-3.08-1.33-2.3ZM194.55 71.16l-5.31 3.08 1.33 2.3 5.31-3.08-1.33-2.3Z" fill="white" stroke="#263238" stroke-linecap="round" stroke-linejoin="round"/><path d="m210.57 76.72-13.04-.04-13.63-23.63 13.04.04 13.63 23.63Z" fill="#C9C9C9" stroke="#263238" stroke-linecap="round" stroke-linejoin="round"/><path d="M217.68 66.14s-2.37-.85-3.05-4.59c-.68-3.74-1.87-9-.51-10.2 1.35-1.18 3.9-1.86 4.24.51.34 2.38-.17 6.97.34 8 .5 1.01 2.2.33 2.2-1.7 0-3.37-1.36-6.8-.87-10.2.67-4.7 5.42-5.22 5.93 0 .29 2.88.37 5.82.37 8.72 0 1.19 2.03 1.87 1.86-1.02-.12-2.04 1.36-4.42 3.4-3.74 2.03.68.33 9.68-.35 11.21-.67 1.53-4.91 1.82-4.91 1.82v3.9l-5.09.18-.17-3.91c-1.03.6-2.2.95-3.39 1.02v0Z" fill="#CBCBCB" stroke="#263238" stroke-linecap="round" stroke-linejoin="round"/><path d="m222.26 58.69.1 1.36M222.6 45.5s-1.12.78-1.03 3.1c.05 1.42.32 5.34.53 8.2M224.5 53.52l.19 5.7M227 62.91c-.4.06-.8.1-1.2.1M230.53 53.35c-.39.75-.6 1.57-.6 2.42 0 1.36.09 5.17-.77 6.2-.22.23-.47.42-.76.55M215.81 61a5.5 5.5 0 0 0 1.42 2.72 2.5 2.5 0 0 0 3 .08M215.65 51.8s-1.71 0-1.12 3.01c.26 1.28.5 2.84.8 4.31M222.1 63.26l.35 3.7" stroke="#263238" stroke-linecap="round" stroke-linejoin="round"/><path d="m230.9 67.33-.61 5.07-.42 3.45-.5 4.02h-12.2l-.48-4.02-.42-3.45-.62-5.07h15.25Z" fill="white" stroke="#263238" stroke-linecap="round" stroke-linejoin="round"/><path d="m230.29 72.4-.42 3.45h-13.18l-.42-3.45h14.02Z" fill="#CBCBCB" stroke="#263238" stroke-linecap="round" stroke-linejoin="round"/><path d="M237.6 79.87h-78.3v5.2h78.3v-5.2Z" fill="white" stroke="#263238" stroke-linecap="round" stroke-linejoin="round"/><path d="M237.6 79.87h-18.05v5.2h18.06v-5.2Z" fill="white" stroke="#263238" stroke-linecap="round" stroke-linejoin="round"/><path d="M217.8 85.09c8.38 3.1 6.87 8.96 6.87 8.96h7.94v-8.96H217.8Z" fill="#919191" stroke="#263238" stroke-linecap="round" stroke-linejoin="round"/><path d="M220.47 85.09c8.39 3.1 6.88 8.96 6.88 8.96h7.94v-8.96h-14.82Z" fill="white" stroke="#263238" stroke-linecap="round" stroke-linejoin="round"/><path d="M164.04 85.09c8.4 3.1 6.88 8.96 6.88 8.96h7.94v-8.96h-14.82Z" fill="#919191" stroke="#263238" stroke-linecap="round" stroke-linejoin="round"/><path d="M166.72 85.09c8.39 3.1 6.87 8.96 6.87 8.96h7.95v-8.96h-14.82Z" fill="white" stroke="#263238" stroke-linecap="round" stroke-linejoin="round"/><path d="M346.74 53.36H276.5v97.72h70.24V53.36Z" fill="#919191" stroke="#263238" stroke-linecap="round" stroke-linejoin="round"/><path d="M343.7 57.6h-64.14v89.24h64.14V57.6Z" fill="#CBCBCB"/><path opacity=".5" d="M343.7 57.6h-64.14v89.24h64.14V57.6Z" fill="white"/><path d="M293.65 140.06a26.48 26.48 0 0 1-6.41 6.8h56.45V57.6h-10.4l-1.36.43c-10.17 3.21-20.68 12.52-26.64 29.43" stroke="#263238" stroke-linecap="round" stroke-linejoin="round"/><path d="M304.3 90.43a96.86 96.86 0 0 0-3.9 24.8c-.37 10.1-2.51 17.35-5.38 22.56M337.42 80.25c-9.32 5.44-20.18 14.57-24.24 28.58-2.18 7.48-.13 14.22 3.9 20M319.27 131.64c5.6 6.56 13.56 11.73 20.01 15.2h4.42V76.95c-1.27.6-2.6 1.26-4 2.04M290.22 80.87c4.9-10.03 5.42-18 4.86-23.27h-15.51v40.83c2.3-3.27 5.1-7.64 8.49-13.5.21-.36.4-.68.6-1.06M296.3 119.51c-.76 4.94-3.02 8.53-5.7 8.53-3.29 0-5.96-5.44-5.96-12.16 0-6.73 2.67-12.17 5.96-12.17 3.3 0 5.96 5.44 5.96 12.17M299.12 90.9c0 2.6-1.14 4.7-2.56 4.7-1.41 0-2.55-2.1-2.55-4.7 0-2.59 1.14-4.7 2.56-4.7 1.4 0 2.55 2.1 2.55 4.7Z" stroke="#263238" stroke-linecap="round" stroke-linejoin="round"/><path d="M331.66 110.74c2.47 1.18 4.07 3.23 4.07 5.56 0 3.65-4 6.62-8.94 6.62-4.95 0-8.94-2.97-8.94-6.62s4-6.62 8.94-6.62c.78 0 1.57.08 2.34.23" stroke="#263238" stroke-linecap="round" stroke-linejoin="round"/><path d="M330.56 116.3c0 1.53-1.68 2.78-3.75 2.78-2.08 0-3.75-1.25-3.75-2.78 0-1.53 1.68-2.78 3.75-2.78 2.07 0 3.75 1.25 3.75 2.78ZM336.6 99.44c0 2.12-2.09 3.84-4.68 3.84s-4.69-1.72-4.69-3.84 2.1-3.84 4.7-3.84c2.58 0 4.68 1.72 4.68 3.84ZM302.74 78.1c1.77 0 3.2-3.54 3.2-7.9 0-4.37-1.43-7.9-3.2-7.9-1.76 0-3.2 3.53-3.2 7.9 0 4.36 1.44 7.9 3.2 7.9ZM311.48 138.07a4.49 4.49 0 0 1-7.64 3.18 4.49 4.49 0 1 1 7.64-3.18ZM332.35 71.47a2.79 2.79 0 0 1-3.31 2.74 2.78 2.78 0 1 1 3.3-2.73ZM314.88 91.11a1.5 1.5 0 0 1-.91 1.39 1.5 1.5 0 0 1-1.4-2.62 1.5 1.5 0 0 1 2.31 1.23v0Z" stroke="#263238" stroke-linecap="round" stroke-linejoin="round"/><path d="M343.7 57.6h-64.14v89.24h64.14V57.6Z" stroke="#263238" stroke-linecap="round" stroke-linejoin="round"/><path d="M238.87 184.85h-17.43v6.57h17.43v-6.57Z" fill="#263238" stroke="#263238" stroke-linecap="round" stroke-linejoin="round"/><path d="M262.25 185.84H192.9l3.28-53.88h69.36l-3.3 53.88Z" fill="#919191" stroke="#263238" stroke-linecap="round" stroke-linejoin="round"/><path d="M260.26 185.84H190.9l3.28-53.88h69.35l-3.28 53.88Z" fill="#263238" stroke="#263238" stroke-linecap="round" stroke-linejoin="round"/><path d="M256.59 182.84h-61.64l2.91-47.88h61.65l-2.92 47.88Z" fill="white" stroke="#263238" stroke-linecap="round" stroke-linejoin="round"/><path d="M238.66 175.7h-41.88l2.25-36.9h41.88l-2.25 36.9Z" fill="#919191" stroke="#263238" stroke-linecap="round" stroke-linejoin="round"/><path d="M213.3 159.85s-8.72 3.46-8.77 4.4c-.06.93-1.77 11.46-1.77 11.46h25.94l-2.18-12.13-9.6-4-3.61.27Z" fill="white" stroke="#263238" stroke-linecap="round" stroke-linejoin="round"/><path d="M213.56 157.72c-.65.17-1.26.5-1.78.93-.68.68-1.5 2.93-1.5 2.93l-.04 2.66 3.44-1.86 3.5-.23 3.26 3.07.42-4.67s-.5-2.66-1.56-2.8c-1.06-.13-5.74-.03-5.74-.03Z" fill="white" stroke="#263238" stroke-linecap="round" stroke-linejoin="round"/><path d="m213.45 155.19-.14 4.66 2.05 3.33 3.4-3.46.53-4.26-5.84-.27Z" fill="white" stroke="#263238" stroke-linecap="round" stroke-linejoin="round"/><path d="M221.84 149.74c-.25 3.9-2.84 8.64-5.68 8.64s-4.86-4.75-4.62-8.64c.24-3.89 2.71-7.08 5.58-7.08 2.86 0 4.95 3.18 4.72 7.08Z" fill="white" stroke="#263238" stroke-linecap="round" stroke-linejoin="round"/><path d="M211.5 150.26s-.92-2.4-1.3-.53c-.38 1.86 1.49 3.86 1.49 3.86l-.2-3.33ZM221.84 149.74s2.24-.95 1.58 1.05a3.94 3.94 0 0 1-2.27 2.53l.69-3.58ZM215.88 150.25a1.73 1.73 0 0 0-1.75-1.86 2.03 2.03 0 0 0-1.97 1.87 1.74 1.74 0 0 0 1.75 1.87 2.04 2.04 0 0 0 1.97-1.88v0Z" fill="white" stroke="#263238" stroke-linecap="round" stroke-linejoin="round"/><path d="m220.4 150.26 2.03-.53" stroke="#263238" stroke-linecap="round" stroke-linejoin="round"/><path d="M220.4 150.26a1.73 1.73 0 0 0-1.74-1.87 2.03 2.03 0 0 0-1.98 1.87 1.74 1.74 0 0 0 1.75 1.87 2.04 2.04 0 0 0 1.97-1.87v0Z" fill="white" stroke="#263238" stroke-linecap="round" stroke-linejoin="round"/><path d="M216.66 141.86s-2.04-1.06-3.57-.4c-1.52.67-2.65 4.27-2.57 5.2.24 1.22.56 2.42.97 3.6l1.62-4.67 4.23-1.86-.69-1.87Z" fill="#263238" stroke="#263238" stroke-linecap="round" stroke-linejoin="round"/><path d="M214.6 142.8s3.36-2.67 6.07-1.36a4.08 4.08 0 0 1 2.4 4.4c-.05.68-.1 3.72-.1 3.72l-1.61.27-.8-2.5c-.91-.37-1.8-.79-2.67-1.27 0 0-3.59-.47-3.28-3.26Z" fill="#263238" stroke="#263238" stroke-linecap="round" stroke-linejoin="round"/><path d="m215.88 150.26-.23 3.86h.92" fill="white"/><path d="m215.88 150.26-.23 3.86h.92M215.16 155.59h2M215.36 163.18l-.74 12.12M226.5 163.58s-2.77 6.26-2.85 7.6c-.08 1.33-.4 4.26-.4 4.26M204.53 164.25l3.12 5.43c.36.64-.08 5.73-.08 5.73" stroke="#263238" stroke-linecap="round" stroke-linejoin="round"/><path d="m228.35 168.11.92-4.13 1.56-1.6 1.47-2.4h.67l-.82 2.54 2.06-1.2 1.33-2.13.78.4-1.9 4.93-3.01 1.46-.53 2-2.53.13Z" fill="white" stroke="#263238" stroke-linecap="round" stroke-linejoin="round"/><path d="m230.93 175.7.25-8.25-3.02-.54-2.39 8.8h5.16ZM238.47 178.77H196.6l.2-3.06h41.87l-.19 3.06Z" fill="white" stroke="#263238" stroke-linecap="round" stroke-linejoin="round"/><path d="M198.3 176.9h38.42" stroke="#263238" stroke-linecap="round" stroke-linejoin="round"/><path d="M256.66 148.65h-14.1l.6-9.72h14.1l-.6 9.72Z" fill="#CBCBCB" stroke="#263238" stroke-linecap="round" stroke-linejoin="round"/><path d="M256.66 148.65h-14.1l.1-1.6h14.1l-.1 1.6ZM252.1 143.22l-3.66-2.2-.26 4.4 3.93-2.2Z" fill="white" stroke="#263238" stroke-linecap="round" stroke-linejoin="round"/><path d="M255.74 163.7h-14.1l.6-9.71h14.1l-.6 9.72Z" fill="#CBCBCB" stroke="#263238" stroke-linecap="round" stroke-linejoin="round"/><path d="M255.74 163.7h-14.1l.11-1.59h14.09l-.1 1.6ZM251.2 158.28l-3.67-2.2-.27 4.4 3.93-2.2Z" fill="white" stroke="#263238" stroke-linecap="round" stroke-linejoin="round"/><path d="M254.82 178.77h-14.09l.6-9.73h14.09l-.6 9.73Z" fill="#CBCBCB" stroke="#263238" stroke-linecap="round" stroke-linejoin="round"/><path d="M254.82 178.77h-14.09l.1-1.6h14.1l-.11 1.6ZM250.27 173.34l-3.66-2.2-.27 4.4 3.93-2.2Z" fill="white" stroke="#263238" stroke-linecap="round" stroke-linejoin="round"/><path d="M242.6 150.26h13.7M242.5 151.86h13.7M241.68 165.45h13.69M241.58 167.04h13.7" stroke="#263238" stroke-linecap="round" stroke-linejoin="round"/><path d="M235.6 191.42h-10.29a3.89 3.89 0 0 1 3.87-3.88h2.54a3.87 3.87 0 0 1 3.87 3.88h.02Z" fill="white" stroke="#263238" stroke-linecap="round" stroke-linejoin="round"/><path d="M220.4 189.3h-50.33v2.12h50.34v-2.11Z" fill="#919191" stroke="#263238" stroke-linecap="round" stroke-linejoin="round"/><path d="M220.4 189.3h-12.66v2.12h12.65v-2.11Z" fill="white" stroke="#263238" stroke-linecap="round" stroke-linejoin="round"/><path d="M149.44 87.8V47.65M149.44 288.82V91.81" stroke="#263238" stroke-linecap="round" stroke-linejoin="round"/><path d="m240.96 205.52 6.1 82.47a1.19 1.19 0 0 0 2.37-.1l-.92-82.37h-7.55Z" fill="#919191" stroke="#263238" stroke-linecap="round" stroke-linejoin="round"/><path d="m245.56 205.52 3.22 83.42a1.17 1.17 0 0 0 .63-1.05l-.9-82.37h-2.95Z" fill="white" stroke="#263238" stroke-linecap="round" stroke-linejoin="round"/><path d="m279.32 205.52 6.1 82.47a1.2 1.2 0 0 0 1.24 1.06 1.18 1.18 0 0 0 1.14-1.16l-.92-82.37h-7.56Z" fill="#919191" stroke="#263238" stroke-linecap="round" stroke-linejoin="round"/><path d="m283.57 205.52 3.76 83.3a1.17 1.17 0 0 0 .44-.93l-.89-82.37h-3.31Z" fill="white" stroke="#263238" stroke-linecap="round" stroke-linejoin="round"/><path d="m178.19 206.41-6.1 81.57a1.18 1.18 0 0 1-1.19 1.1v0a1.16 1.16 0 0 1-.85-.33 1.17 1.17 0 0 1-.36-.85l.9-81.7 7.6.22ZM139.85 206.41l-6.1 81.57a1.18 1.18 0 0 1-1.18 1.1v0a1.18 1.18 0 0 1-1.18-1.2l.9-81.7 7.56.23Z" fill="#263238" stroke="#263238" stroke-linecap="round" stroke-linejoin="round"/><path d="M289.13 193.34H129.99v12.84h159.13v-12.84Z" fill="#919191" stroke="#263238" stroke-linecap="round" stroke-linejoin="round"/><path d="M289.13 193.34h-45.6v12.84h45.6v-12.84Z" fill="white" stroke="#263238" stroke-linecap="round" stroke-linejoin="round"/><path d="M289.13 195.38H129.99v3.54h159.13v-3.54Z" fill="#263238" stroke="#263238" stroke-linecap="round" stroke-linejoin="round"/><path d="M291.42 191.5H127.7v4.29h163.72v-4.3Z" fill="#919191" stroke="#263238" stroke-linecap="round" stroke-linejoin="round"/><path d="M291.41 191.5h-44.96v4.29h44.96v-4.3ZM243.14 111.85h-22.1a4.34 4.34 0 0 0-4.34 4.35v8.16a4.34 4.34 0 0 0 4.34 4.35h11.58l-4.34 12.13 8.3-12.13h6.56a4.33 4.33 0 0 0 4.34-4.35v-8.16a4.35 4.35 0 0 0-4.34-4.35Z" fill="white" stroke="#263238" stroke-linecap="round" stroke-linejoin="round"/><path d="M226.17 122.14a1.58 1.58 0 1 0 0-3.17 1.58 1.58 0 0 0 0 3.17ZM232.1 122.14a1.58 1.58 0 1 0-.01-3.17 1.58 1.58 0 0 0 0 3.17ZM239.59 120.55a1.59 1.59 0 0 0-1.9-1.55 1.57 1.57 0 0 0-1.23 1.25 1.59 1.59 0 0 0 2.67 1.42 1.58 1.58 0 0 0 .46-1.12Z" fill="#263238"/><path d="M348.07 289.26h18.31M59.14 289.26h279.44" stroke="#263238" stroke-linecap="round" stroke-linejoin="round"/><path d="M166.74 169.14c-1.99-3.4-7.84-16.48-7.84-16.48.18-1.4.47-2.78.86-4.14.48-1.36 1.7-5.48 1.45-6.33-.24-.86-3.76-2.44-4.12-2.56-.36-.12.48-2.19-.86-2.68-1.33-.49-1.82.25-1.82.25l-.5 3.4-1.56 2.44c-.65-.5-1.33-.94-2.04-1.36-1.1-.6-3.64-.85-3.76.13-.13.97 2.03 1.82 2.78 2.43.76.61 1.7 3.53 2.56 4.38.78.85 1.5 1.75 2.19 2.68l.48 1.58s1.66 16.03 1.86 20.02c.2 4 .8 14.55 1.99 16.14 1.2 1.6 1.4 2.6 4.75 1.4 3.35-1.2 3.97-2.8 4.74-6.38.78-3.59.82-11.54-1.16-14.92Z" fill="white" stroke="#263238" stroke-linecap="round" stroke-linejoin="round"/><path d="M167.93 184.08c.8-3.58.8-11.56-1.2-14.96a38.9 38.9 0 0 1-.77-1.42c-4.5-1.31-8.77.83-8.77.83l-1.09.47c.15 1.67.25 3.06.3 3.91.2 3.98.79 14.55 1.98 16.14 1.2 1.59 1.4 2.6 4.75 1.4 3.35-1.2 4-2.78 4.8-6.37Z" fill="#CBCBCB" stroke="#263238" stroke-linecap="round" stroke-linejoin="round"/><path d="M152.24 115.25c.49 1.8.76 3.66.81 5.53 0 2.65-.81 4.3.41 5.1 1.23.82 2.25.83 2.04 2.47a4.4 4.4 0 0 1-1.03 2.45s-.4 8.39-.8 9.21c-.42.83-5.73-.2-6.95-.41-1.23-.21-4.7 1.43-6.95-3.07s-.4-11.25 3.68-14.73a99.9 99.9 0 0 1 8.79-6.55v0Z" fill="white" stroke="#263238" stroke-linecap="round" stroke-linejoin="round"/><path d="M153.05 120.74s-1.1-.83-1.69.63M152.06 124.13a5 5 0 0 0 .15 2.47M154.1 133.74a1.35 1.35 0 0 1-1.75-1.02" stroke="#263238" stroke-linecap="round" stroke-linejoin="round"/><path d="M156.4 172.21s-.67 3.11-1.27 4.76c-.6 1.64-11.43 4.66-16.15 5.29-3.1.39-6.23.6-9.35.62l.3 8.6s9.12.19 9.77 0c.64-.18 16-7.07 16-7.07l6.64-.87s2.79-.68 2.9-2.85c.1-2.16-2.36-8.33-3.47-9.29-1.12-.96-3.48-3.5-4.9-1.94-1.42 1.57-.46 2.75-.46 2.75Z" fill="white" stroke="#263238" stroke-linecap="round" stroke-linejoin="round"/><path d="M136.05 187.66c0-3.72.95-3.81 2.04-5.29-2.8.32-5.62.48-8.44.5l-.23 7.9s5 .47 8.05.68c-.26.4-1.42-1.4-1.42-3.79Z" fill="#CBCBCB" stroke="#263238" stroke-linecap="round" stroke-linejoin="round"/><path d="M165.53 204.38a31.81 31.81 0 0 0-13.33-8.92l-11.91 5.09a27.32 27.32 0 0 0-3.65-6.36l-2.23-2.72 1.43-7.8s8.58-5.89 9.68-8.43l.04-.09c1.72 2.67 9.2 14.24 10.6 15.36 1.59 1.28 6.35 1.43 8.41-.48 2.06-1.9 3.02-3.18 2.55-6.04 0 0-3.18-6.84-4.93-9.87-1.75-3.02-5.55-13.84-7.46-17.18-1.35-2.4-1.92-4.08-2.88-5.21a18.93 18.93 0 0 0-2.35-3.22c-1.9-2.04-7.15-2.55-8.26-3.03-1.12-.47-1.27-.63-7.62-2.54-6.35-1.9-13.5-3.02-18.58.95 0 0-6.82 8.12-9.5 21.48-2.67 13.37-2.86 26.9-3.17 29.28-.3 2.38-3.02 14-3.8 20.68-.8 6.68 6.16 13.4 10.44 15.47 4.29 2.08 22.7 2.39 33.5 0 10.8-2.38 27.94-13.2 27.94-13.2s.64-6.7-4.92-13.22Z" fill="#CBCBCB" stroke="#263238" stroke-linecap="round" stroke-linejoin="round"/><path d="m137.46 174.98-2.18-.07M136.64 171.51a65.18 65.18 0 0 1 8.88 3.75l-5.59-.19" stroke="#263238" stroke-linecap="round" stroke-linejoin="round"/><path d="M166.13 175.53c.63.98 1.02 2.1 1.13 3.27 0 1.5.25 3.51-.37 2.89-.63-.63-.88-2.77-.88-2.77l.12-3.4Z" fill="white" stroke="#263238" stroke-linecap="round" stroke-linejoin="round"/><path d="M162.38 173.77s2.34-1.27 3.39.26c1.04 1.54.76 4.6 0 6.12-.77 1.52-1.64.07-1.53-1.28.1-1.34-1.86-5.1-1.86-5.1Z" fill="white" stroke="#263238" stroke-linecap="round" stroke-linejoin="round"/><path d="M161.5 172.14s2.35-1.27 3.39.26c1.03 1.54.76 4.6 0 6.12-.76 1.52-1.65.07-1.54-1.28.11-1.34-1.85-5.1-1.85-5.1Z" fill="white" stroke="#263238" stroke-linecap="round" stroke-linejoin="round"/><path d="M160.42 170.38s2.35-1.28 3.39.26c1.03 1.54.76 4.6 0 6.12-.77 1.51-1.64.07-1.54-1.28.11-1.35-1.85-5.1-1.85-5.1Z" fill="white" stroke="#263238" stroke-linecap="round" stroke-linejoin="round"/><path d="M154.46 108.87c.04 2.44-.59 4.85-1.82 6.96-3.47 5.32-6.73 4.7-8.13 9-1.4 4.3-3.5 8.77-1.27 11.26 2.24 2.49 4.07 1.02 4.07 1.02s1.43 3.68-2.24 7.37c-3.68 3.68-10 2.25-11.64 1.64-1.03-.4-2-.95-2.86-1.64 0 0-1.02 2.87-6.1 2.87s-10.85-3.48-10.85-9.83 3.46-10.64 4.28-13.1c.82-2.46-1.43-10.03 2.04-14.73 3.47-4.7 8.82-8.16 12.89-8.16 4.06 0 12 2.24 12.04 2.25.54.3 3.97-1.1 4.9-1.04 3.41.19 4.65 3 4.7 6.13Z" fill="#263238" stroke="#263238" stroke-linecap="round" stroke-linejoin="round"/><path d="M141.2 137.98c.75.1 1.5.1 2.24 0M151.52 112.44c-.32 1.82-1 3.56-1.98 5.13-3.17 5-6.78 6.8-11.1 11.55-2.77 3.08-2.25 6.15 0 7.76M151.58 107.13c.13.75.2 1.5.2 2.27" stroke="#919191" stroke-linecap="round" stroke-linejoin="round"/><path d="M147.31 111.9s-.68 7.03-3.62 11.11c-2.94 4.09-8.82 6.12-8.6 10.44" stroke="#919191" stroke-linecap="round" stroke-linejoin="round"/><path d="M174.65 229.66s4.23 21.79 7.85 32.38c3.62 10.59 7.24 20.27 8.14 21.18.9.91 3.32 4.24 3.32 4.24a6.97 6.97 0 0 1-3.93 1.52c-2.11 0-4.82-2.72-7.25-4.25-2.42-1.52-2.7-2.42-7.54-4.23-4.84-1.82-.9-6.66.3-9.08.7-1.31 1.11-2.76 1.2-4.24a47.97 47.97 0 0 0-9.96-18.46c-7.53-8.47-9.04-28.11-9.04-28.11l14.5-5.44 2.4 14.49Z" fill="white" stroke="#263238" stroke-linecap="round" stroke-linejoin="round"/><path d="m190.04 282.14-.87.17s-5.14-6.96-9.06-9.38a8.52 8.52 0 0 0-4.53-1.5c-1.21 2.41-5.13 7.25-.3 9.07 4.82 1.81 5.13 2.72 7.54 4.23 2.42 1.52 5.14 4.24 7.25 4.24a6.97 6.97 0 0 0 3.93-1.51s-2.42-3.33-3.32-4.24c-.26-.33-.47-.7-.64-1.08v0Z" fill="#CBCBCB" stroke="#263238" stroke-linecap="round" stroke-linejoin="round"/><path d="M187.6 288.11c-2.38-1.65-4.54-5.32-8.42-7.61-3.54-2.08-5.36-2.16-6.1-2a3.3 3.3 0 0 0 2.2 2c4.84 1.81 5.14 2.72 7.55 4.23 1.53.98 3.21 2.5 4.78 3.38ZM190.04 288.97a3.38 3.38 0 0 1 0 0v0Z" fill="#CBCBCB" stroke="#263238" stroke-linecap="round" stroke-linejoin="round"/><path d="M147.73 196.82s14.52-5.16 15.87-1.76c1.36 3.4 7.57 16.08 5.3 21.29-2.26 5.2-18.18-14.96-20.45-15.4-2.26-.43-.98-2.61-.72-4.13Z" fill="white" stroke="#263238" stroke-linecap="round" stroke-linejoin="round"/><path d="M161.96 203.46s16.5-1.36 19.66 1.59c3.17 2.95-7.68 38.29-13.56 49.39-9.22 17.36-6.43 21.9-6.43 21.9s.68 2.72 5.2 7.03c4.53 4.31 5.88 4.99 4.3 5.67-1.6.68-8.37 0-9.05-.46-.67-.45-5.65-4.53-10.17-5.89-4.52-1.36-3.84-2.27-1.81-6.34 2.03-4.08 1.81-.68 4.07-7.7 2.7-8.66 4.85-17.48 6.4-26.41 1.2-7.28 3.03-15.28 2.52-22.68l-1.13-16.1Z" fill="white" stroke="#263238" stroke-linecap="round" stroke-linejoin="round"/><path d="M174.04 214.52a21.96 21.96 0 0 0-8.51-10.14c-7.22-4.61-13.33-8.92-13.33-8.92l-11.91 5.09s2.9 4.93-12.02 7.43c-11.5 1.92-22.04-.86-27.73-4.22-.8 3.95-1.62 8.34-2.03 11.56-.8 6.68 6.19 13.36 10.48 15.44 4.28 2.07 38.82 6.36 48.12.37 16.93-10.86 16.93-16.6 16.93-16.6Z" fill="#263238" stroke="#263238" stroke-linecap="round" stroke-linejoin="round"/><path d="M138.94 204.3c-1.6 1.3-4.7 2.71-10.67 3.69-11.5 1.91-22.04-.87-27.73-4.22l-.6 3.1c3.9 2.34 12.08 6.33 21.32 5.2 11.02-1.36 15.92-4.38 17.68-7.78Z" fill="#CBCBCB" stroke="#263238" stroke-linecap="round" stroke-linejoin="round"/><path d="M130.13 218.85c-.53.68-1.07 1.36-1.63 2.04M138.44 205.95a103.45 103.45 0 0 1-6.97 11.1M133.47 210.25s-4.07 5.44-8.36 8.62" stroke="white" stroke-linecap="round" stroke-linejoin="round"/><path d="M166.83 283.36c-4.52-4.3-5.2-7.01-5.2-7.01a1.47 1.47 0 0 1-.35-.5c-.3.31-1.23.92-3.49.05-1.96-.76-3.82-2.04-5.78-2.9-.47.83-.92 1.35-1.91 3.35-2.03 4.07-2.71 4.98 1.81 6.34 4.53 1.36 9.5 5.44 10.17 5.9.68.44 7.46 1.13 9.04.45 1.59-.68.24-1.38-4.29-5.68Z" fill="#CBCBCB" stroke="#263238" stroke-linecap="round" stroke-linejoin="round"/><path d="m171 216.83 7.69-4.76" stroke="#263238" stroke-linecap="round" stroke-linejoin="round"/><path d="M79.12 173.75s24.5-3.08 40.15 1.36l2.38 59.68H84.92s2.36-32.06-5.8-61.04Z" fill="#919191" stroke="#263238" stroke-linecap="round" stroke-linejoin="round"/><path d="M119.27 175.1c-15.66-4.43-40.15-1.35-40.15-1.35a165.73 165.73 0 0 1 5.2 29.51 146.86 146.86 0 0 1 37.13 26.51l-2.18-54.66Z" fill="#757575" stroke="#263238" stroke-linecap="round" stroke-linejoin="round"/><path d="M165.46 290.62a1.35 1.35 0 0 1-1.27-.88c-5.43-14.66-6.78-52.7-6.87-54.31a1.36 1.36 0 0 1 1.31-1.41 1.36 1.36 0 0 1 1.4 1.31c0 .4 1.42 39.21 6.7 53.45a1.36 1.36 0 0 1-1.27 1.84ZM135.93 290.62a1.36 1.36 0 0 1-1.27-.88c-5.43-14.66-6.78-52.7-6.87-54.31a1.37 1.37 0 0 1 1.3-1.41 1.36 1.36 0 0 1 1.4 1.31c0 .4 1.42 39.21 6.71 53.45a1.36 1.36 0 0 1-1.27 1.84v0Z" fill="white" stroke="#263238" stroke-linecap="round" stroke-linejoin="round"/><path d="M165.1 234.77H84.27v-2.72h78.13a2.71 2.71 0 0 1 2.71 2.72h-.01Z" fill="#919191" stroke="#263238" stroke-linecap="round" stroke-linejoin="round"/><path d="M165.09 234.1H84.27v2.7h80.82v-2.7Z" fill="white" stroke="#263238" stroke-linecap="round" stroke-linejoin="round"/><path d="M118.66 290.62a1.34 1.34 0 0 1-1.34-1.03c-.05-.2-.05-.4-.01-.6 7.67-36.43.68-113.01.58-113.78a1.36 1.36 0 1 1 2.71-.25c.08.77 7.13 77.76-.63 114.58a1.36 1.36 0 0 1-1.3 1.08ZM76.61 289.63a1.35 1.35 0 0 1-1.3-1.73c17.63-62.74 2.66-113.26 2.51-113.76a1.36 1.36 0 0 1 2.6-.8c.15.52 15.37 51.75-2.5 115.3a1.36 1.36 0 0 1-1.3.99v0Z" fill="white" stroke="#263238" stroke-linecap="round" stroke-linejoin="round"/><path d="M324.59 177.55s-8.34-4.65-8.95 5.88c-.62 10.52-2.16 78.9-2.16 78.9" stroke="#263238" stroke-width="2" stroke-linecap="round" stroke-linejoin="round"/><path d="M311.31 184.35s6.78 15.16 3.71 77.06" stroke="#263238" stroke-width="2" stroke-linecap="round" stroke-linejoin="round"/><path d="M317.99 179.67s-3.2 2.04-5-.3c-1.82-2.34 1.22-6.64-1.46-8.47-2.67-1.84-7.3.96-7.3.96s3.55 1.05 3.44 3c-.12 1.95-1.83 2.69-2.04 1.84-.2-.85-1.93-5.15-4.82-3.36a7.16 7.16 0 0 0-3.34 4.55s6.74-.72 7.15 1.82c.4 2.53-2.76-.44-5.55-.6-2.78-.17-5.31.24-5.13 1.92.06 1.5-.03 2.99-.26 4.46a8.28 8.28 0 0 1 5.42-1.91c3.06.18 2.94 2.13.16 1.97-2.78-.17-5.16 2.48-5.16 2.48s2.53 4.35 5.75 6.5c3.23 2.14 4.39 1.36 4.75-.28.37-1.64-.49-5.9 1.46-5.79 1.95.12-3.22 7.36-.74 7.79 2.48.42 4.48-.3 5.13-1.94l.68-1.63s-.87-4.25-.49-5.9c.38-1.66.84.04 1.28 2.04.44 1.99.72 6.75 1.57 6.52.84-.24 3.56-3.7 4.2-5.07.64-1.37-3.58-5.52-3.53-6.36.05-.83 3.3.76 3.81 1.63.37.66.7 1.34 1 2.04 0 0 2.03-1.28 1.98-5.2-.06-3.9-2.96-2.71-2.96-2.71Z" fill="#CBCBCB"/><path opacity=".3" d="M317.99 179.67s-3.2 2.04-5-.3c-1.82-2.34 1.22-6.64-1.46-8.47-2.67-1.84-7.3.96-7.3.96s3.55 1.05 3.44 3c-.12 1.95-1.83 2.69-2.04 1.84-.2-.85-1.93-5.15-4.82-3.36a7.16 7.16 0 0 0-3.34 4.55s6.74-.72 7.15 1.82c.4 2.53-2.76-.44-5.55-.6-2.78-.17-5.31.24-5.13 1.92.06 1.5-.03 2.99-.26 4.46a8.28 8.28 0 0 1 5.42-1.91c3.06.18 2.94 2.13.16 1.97-2.78-.17-5.16 2.48-5.16 2.48s2.53 4.35 5.75 6.5c3.23 2.14 4.39 1.36 4.75-.28.37-1.64-.49-5.9 1.46-5.79 1.95.12-3.22 7.36-.74 7.79 2.48.42 4.48-.3 5.13-1.94l.68-1.63s-.87-4.25-.49-5.9c.38-1.66.84.04 1.28 2.04.44 1.99.72 6.75 1.57 6.52.84-.24 3.56-3.7 4.2-5.07.64-1.37-3.58-5.52-3.53-6.36.05-.83 3.3.76 3.81 1.63.37.66.7 1.34 1 2.04 0 0 2.03-1.28 1.98-5.2-.06-3.9-2.96-2.71-2.96-2.71Z" fill="#263238"/><path d="M301.82 188.85c2.08-2.58 5.14-6.06 7.71-7.73M299.41 191.98s.53-.74 1.4-1.85M310.89 181.76s3.1 4.38 3.66 8.89M307.38 184.35s.87-.5.54 5.06M309.65 179.14s1.77-1.57.83-4.7M307.26 181.83l-1.26-2.31M304.6 184.19s-4-3.03-6.5-3.18" stroke="#263238" stroke-linecap="round" stroke-linejoin="round"/><path d="M329.36 171.4s-.13 4.6-3.71 4.83c-3.58.22-5.8-5.76-9.46-4.32-3.66 1.44-4.01 8-4.01 8s3.47-2.87 5.34-1.42c1.87 1.44 1.44 3.66.43 3.31-1.01-.35-6.45-1.57-6.64 2.55a8.74 8.74 0 0 0 2.27 6.46s3.88-7.25 6.7-5.94c2.82 1.32-2.33 2.48-4.4 5.16-2.05 2.67-3.38 5.5-1.56 6.47 1.53.95 2.97 2.05 4.27 3.3 0 0-.48-3.8 1.78-6.74 2.27-2.94 4.13-1.5 2.08 1.17-2.06 2.68-1.04 6.89-1.04 6.89s6.06.41 10.4-1.36c4.34-1.77 4.37-3.46 2.97-4.96s-6.22-3.53-4.78-5.44c1.43-1.91 5.15 8.24 7.27 6.04 2.13-2.2 2.76-4.7 1.57-6.47l-1.2-1.77s-4.82-2.03-6.22-3.53c-1.4-1.5.62-.8 2.9.1 2.29.92 7.23 3.89 7.58 2.88.36-1.02-1.26-6.12-2.19-7.67-.92-1.55-7.96-.17-8.76-.79-.8-.62 3-2.8 4.22-2.72.91.08 1.82.2 2.71.38 0 0 .11-2.91-3.84-5.53-3.94-2.62-4.68 1.13-4.68 1.13Z" fill="#CBCBCB"/><path opacity=".2" d="M329.36 171.4s-.13 4.6-3.71 4.83c-3.58.22-5.8-5.76-9.46-4.32-3.66 1.44-4.01 8-4.01 8s3.47-2.87 5.34-1.42c1.87 1.44 1.44 3.66.43 3.31-1.01-.35-6.45-1.57-6.64 2.55a8.74 8.74 0 0 0 2.27 6.46s3.88-7.25 6.7-5.94c2.82 1.32-2.33 2.48-4.4 5.16-2.05 2.67-3.38 5.5-1.56 6.47 1.53.95 2.97 2.05 4.27 3.3 0 0-.48-3.8 1.78-6.74 2.27-2.94 4.13-1.5 2.08 1.17-2.06 2.68-1.04 6.89-1.04 6.89s6.06.41 10.4-1.36c4.34-1.77 4.37-3.46 2.97-4.96s-6.22-3.53-4.78-5.44c1.43-1.91 5.15 8.24 7.27 6.04 2.13-2.2 2.76-4.7 1.57-6.47l-1.2-1.77s-4.82-2.03-6.22-3.53c-1.4-1.5.62-.8 2.9.1 2.29.92 7.23 3.89 7.58 2.88.36-1.02-1.26-6.12-2.19-7.67-.92-1.55-7.96-.17-8.76-.79-.8-.62 3-2.8 4.22-2.72.91.08 1.82.2 2.71.38 0 0 .11-2.91-3.84-5.53-3.94-2.62-4.68 1.13-4.68 1.13Z" fill="#263238"/><path d="M327.51 193.89c-1.14-3.87-2.56-9.3-2.46-13M329 198.45s-.38-1.05-.9-2.67M326.61 179.96s6.48-.12 11.37 2.38M326.81 185.26s.09-1.22 5.43 2.91M323.18 179.44s-.37-2.84-4.13-4.04M324.2 183.64l-3.16-.3M324.75 187.91s-5.75 1.95-7.6 4.37" stroke="#263238" stroke-linecap="round" stroke-linejoin="round"/><path d="M290.94 202s18.21 12.06 17.9 58.8" stroke="#263238" stroke-width="2" stroke-linecap="round" stroke-linejoin="round"/><path d="M313.4 198.8s-.58 5.3-4.75 5.21c-4.16-.08-6.1-7.19-10.5-5.87-4.4 1.32-5.39 8.84-5.39 8.84s4.29-2.98 6.3-1.13c2.03 1.85 1.32 4.37.18 3.87-1.13-.5-7.3-2.43-7.9 2.3a10.08 10.08 0 0 0 2.04 7.67s5.15-8 8.28-6.2c3.13 1.79-2.92 2.62-5.55 5.52-2.63 2.9-4.41 6.02-2.42 7.31a30.65 30.65 0 0 1 4.63 4.22s-.21-4.42 2.67-7.6c2.9-3.2 4.92-1.37 2.29 1.55-2.63 2.91-1.84 7.84-1.84 7.84s6.96 1.06 12.13-.58c5.18-1.63 5.36-3.57 3.9-5.43-1.48-1.86-6.86-4.67-5.02-6.7 1.84-2.02 5.17 10.01 7.83 7.67 2.66-2.35 3.62-5.15 2.41-7.31l-1.2-2.17s-5.38-2.79-6.86-4.66c-1.47-1.87.79-.86 3.34.4 2.55 1.27 7.98 5.16 8.48 4.03s-.89-7.16-1.8-9.06c-.92-1.9-9.17-.95-10.04-1.74-.87-.79 3.73-2.94 5.12-2.72 1.04.18 2.06.4 3.08.68 0 0 .39-3.34-3.92-6.74-4.3-3.4-5.5.8-5.5.8Z" fill="#CBCBCB"/><path opacity=".3" d="M313.4 198.8s-.58 5.3-4.75 5.21c-4.16-.08-6.1-7.19-10.5-5.87-4.4 1.32-5.39 8.84-5.39 8.84s4.29-2.98 6.3-1.13c2.03 1.85 1.32 4.37.18 3.87-1.13-.5-7.3-2.43-7.9 2.3a10.08 10.08 0 0 0 2.04 7.67s5.15-8 8.28-6.2c3.13 1.79-2.92 2.62-5.55 5.52-2.63 2.9-4.41 6.02-2.42 7.31a30.65 30.65 0 0 1 4.63 4.22s-.21-4.42 2.67-7.6c2.9-3.2 4.92-1.37 2.29 1.55-2.63 2.91-1.84 7.84-1.84 7.84s6.96 1.06 12.13-.58c5.18-1.63 5.36-3.57 3.9-5.43-1.48-1.86-6.86-4.67-5.02-6.7 1.84-2.02 5.17 10.01 7.83 7.67 2.66-2.35 3.62-5.15 2.41-7.31l-1.2-2.17s-5.38-2.79-6.86-4.66c-1.47-1.87.79-.86 3.34.4 2.55 1.27 7.98 5.16 8.48 4.03s-.89-7.16-1.8-9.06c-.92-1.9-9.17-.95-10.04-1.74-.87-.79 3.73-2.94 5.12-2.72 1.04.18 2.06.4 3.08.68 0 0 .39-3.34-3.92-6.74-4.3-3.4-5.5.8-5.5.8Z" fill="#263238"/><path d="M309.15 224.57c-.97-4.54-2.07-10.96-1.62-15.24M310.44 229.97s-.34-1.24-.8-3.16M309.41 208.41s7.46.48 12.89 3.82M309.16 214.49s.21-1.4 5.99 3.87M305.51 207.49s-.15-3.32-4.38-5.06M306.3 212.44l-3.62-.66M306.54 217.41s-6.84 1.72-9.2 4.32" stroke="#263238" stroke-linecap="round" stroke-linejoin="round"/><path d="M298.04 238.82s11.73 8.97 12.96 22.28l-2.46-44.57M326.44 232.32C311 229.53 311 261.1 311 261.1" stroke="#263238" stroke-width="2" stroke-linecap="round" stroke-linejoin="round"/><path d="M312.86 260.8s-8.96-65.3 16.95-65.3" stroke="#263238" stroke-width="2" stroke-linecap="round" stroke-linejoin="round"/><path d="M320.56 230.44c-2.1-2.38-6.6-2.38-9.22 3.7-2.63 6.08-.27 5.02-.27 5.02s5-1.59 8.18-2.64c3.16-1.05 7.37-3.7 7.64-2.11.26 1.58-2.11 3.16-5.01 3.7-2.9.52-10.54 2.64-9.76 4.25.8 1.61 2.64 6.34 2.64 6.34a66.37 66.37 0 0 1 7.12-5.28c3.43-2.11 5.54-1.33 3.7 1.05-1.85 2.38-7.13 5.02-6.07 8.2 1.06 3.17 7.38 7.12 7.38 7.12s.8-6.6 2.64-8.71c1.84-2.11 1.84.26 1.31 3.96a42.94 42.94 0 0 0-.53 4.76l7.38 2.64c1.21-1.84 2.53-3.6 3.96-5.28l1.35-1.36s-5.8-5.01-6.06-8.15c-.26-3.14 3.95 0 5.27.53 1.32.53 3.43 4.22 3.43 4.22s1.32-6.07 1.58-8.19l.27-2.11s-5.54-2.11-7.65-2.11c-2.11 0-3.16 1.58-3.16-.53 0-2.1 2.1-3.44 4.48-3.17 2.15.36 4.26.89 6.33 1.58 0 0 1.58-1.32 1.05-5.28s-1.85-3.96-5-2.9c-3.17 1.05-5.28 3.43-7.66 3.43-2.37 0-1.05-2.9.53-3.7a86.83 86.83 0 0 1 6.33-2.64c.8-.27-4.22-3.96-6.86-4.5-2.64-.52-6.05 1.37-5.8 3.97.5 5.51-7.41 6.6-9.52 4.2Z" fill="#CBCBCB"/><path d="M337.53 257.65c.08.79.14 1.58.16 2.38M332.23 238.68c2.33 5.23 4 10.73 4.99 16.37M331.28 236.56a65.73 65.73 0 0 0-2.28-4.53 7.76 7.76 0 0 0 3.42-3.17 8.83 8.83 0 0 1 2.64-3.18M319.77 241s9.5-3.96 9.5-3.18M334.5 235.99s4.22-2.11 7.91-2.11M332.95 242.36a36.5 36.5 0 0 0-5.01 5.02 22.88 22.88 0 0 0-3.69 6.07M335.86 243.4s5.54-1.6 8.44 1.04" stroke="#263238" stroke-linecap="round" stroke-linejoin="round"/><path d="M345.88 207.7c-2.87-1.7-6.04-1.75-7.6-3.54-1.56-1.8 1.5-2.72 3.13-2.04 1.63.68 5.43 2.63 6.14 3.05.71.42.22-5.78-1.1-8.16-1.34-2.37-4.98-3.7-6.79-1.78-3.83 4.03-9.81-1.26-9.4-4.41.4-3.16-2.54-6.55-8.82-4.57-6.3 1.99-3.96 3.1-3.96 3.1s4.48 2.75 7.35 4.45c2.88 1.7 7.63 3.16 6.6 4.4-1.02 1.23-3.77.48-6.07-1.36-2.3-1.84-8.9-6.25-9.57-4.61-.68 1.64-3.06 6.15-3.06 6.15 2.93.45 5.81 1.1 8.65 1.92 3.84 1.21 4.63 3.33 1.63 3.5-3 .15-8.45-2.1-10.17.77-1.73 2.88-.54 10.26-.54 10.26s5.5-3.73 8.3-3.72c2.8 0 1 1.57-2.13 3.6a42.33 42.33 0 0 0-3.93 2.72l2.85 7.32c2.18-.3 4.38-.46 6.58-.48l1.85.14s0-7.68 2.2-9.96c2.2-2.28 2.6 2.99 3.06 4.34.47 1.34-.94 5.36-.94 5.36s5.43-2.99 7.2-4.18l1.78-1.18s-2.04-5.58-3.43-7.17c-1.39-1.59-3.26-1.36-1.67-2.72 1.58-1.36 3.97-.68 5.33 1.32a40.82 40.82 0 0 1 2.95 5.83s2.03.33 4.67-2.67 1.78-3.99-1.1-5.69Zm-24.94 8.45c-2.1-1.06 2.9-3.18 2.9-3.18 1.85-.25-.8 4.24-2.9 3.18Zm3.55-9.86c-.9-.45 1.8-1.36 1.8-1.36 3.89.72-.9 1.8-1.8 1.36Z" fill="#CBCBCB"/><path d="M320.87 221.53a38.9 38.9 0 0 1-1.69 1.69M331.69 205.09a69.7 69.7 0 0 1-9.08 14.48M332.67 202.98a62.96 62.96 0 0 0 1.91-4.7 7.8 7.8 0 0 0 4.64.51 8.74 8.74 0 0 1 4.12-.08M330.38 202.29c.6-.53-8.61-5.1-8.61-5.1M335.22 205.06s4.36 1.81 6.79 4.6M329.41 208.03c-2.33-.4-4.7-.57-7.06-.5-2.39.02-4.75.42-7 1.18M330.52 210.91s4.82 3.15 4.75 7.08" stroke="#263238" stroke-linecap="round" stroke-linejoin="round"/><path d="M304.91 244.3c-2.3-1.36-4.86-1.4-6.1-2.84-1.24-1.45 1.2-2.18 2.52-1.64a68.4 68.4 0 0 1 4.94 2.46c.58.34.18-4.66-.9-6.54-1.07-1.89-4-2.98-5.45-1.44-3.1 3.25-7.9-1.02-7.57-3.55.33-2.54-2.04-5.27-7.12-3.67-5.08 1.6-3.18 2.49-3.18 2.49s3.6 2.21 5.91 3.58c2.32 1.36 6.14 2.55 5.31 3.54-.82 1-3.03.4-4.88-1.1-1.85-1.48-7.16-5.02-7.7-3.7a97.37 97.37 0 0 1-2.46 4.94c2.35.37 4.68.88 6.96 1.55 3.09.97 3.72 2.67 1.3 2.8-2.41.13-6.78-1.68-8.14.63-1.35 2.32-.43 8.26-.43 8.26s4.42-3 6.67-3c2.26.01.82 1.27-1.7 2.9a33.8 33.8 0 0 0-3.16 2.2l2.29 5.88c1.75-.24 3.52-.36 5.29-.38l1.5.1s0-6.17 1.77-8c1.77-1.84 2.08 2.4 2.45 3.48.37 1.1-.75 4.32-.75 4.32s4.38-2.4 5.8-3.36l1.42-.96s-1.64-4.48-2.75-5.77c-1.11-1.28-2.63-1.08-1.36-2.2 1.28-1.11 3.2-.53 4.29 1.06.91 1.5 1.71 3.06 2.38 4.69 0 0 1.63.26 3.76-2.15 2.12-2.4 1.4-3.21-.9-4.58Zm-20.07 6.8c-1.7-.86 2.33-2.56 2.33-2.56 1.49-.2-.64 3.42-2.33 2.56Zm2.87-7.93c-.73-.37 1.44-1.09 1.44-1.09 3.13.6-.73 1.45-1.44 1.09Z" fill="#CBCBCB"/><path d="M284.8 255.44c-.44.46-.9.91-1.36 1.36M293.5 242.2a56.08 56.08 0 0 1-7.3 11.66M294.29 240.5a53.19 53.19 0 0 0 1.54-3.78c1.17.52 2.47.66 3.73.42a7 7 0 0 1 3.3-.07M285.51 235.84s7.41 3.7 6.93 4.08M296.34 242.18s3.5 1.46 5.43 3.7M291.66 244.57a29.17 29.17 0 0 0-5.68-.4c-1.92.02-3.82.34-5.63.96M292.56 246.9s3.88 2.53 3.8 5.68" stroke="#263238" stroke-linecap="round" stroke-linejoin="round"/><path d="M295.5 200.67s-2.9 2.12-4.75 0c-1.84-2.11.8-6.34-1.84-7.92-2.64-1.59-6.85 1.31-6.85 1.31s3.42.8 3.42 2.65c0 1.85-1.58 2.64-1.84 1.85-.27-.8-2.11-4.76-4.75-2.9a6.78 6.78 0 0 0-2.9 4.48s6.32-1.05 6.85 1.33c.53 2.38-2.63-.27-5.27-.27-2.63 0-5 .53-4.74 2.12.14 1.4.14 2.82 0 4.22a7.83 7.83 0 0 1 5-2.11c2.9 0 2.9 1.85.27 1.85s-4.74 2.64-4.74 2.64 2.63 3.97 5.8 5.81c3.15 1.85 4.21 1.06 4.48-.53.26-1.58-.8-5.54 1.05-5.54 1.84 0-2.63 7.13-.26 7.4 2.36.26 4.21-.54 4.74-2.12l.53-1.59s-1.06-3.96-.8-5.54c.27-1.59.8 0 1.32 1.85.53 1.85 1.06 6.33 1.85 6.07.8-.25 3.17-3.7 3.7-5.02.52-1.32-3.7-5.02-3.7-5.81 0-.8 3.17.53 3.7 1.32.52.79 1.05 1.85 1.05 1.85s1.84-1.32 1.58-5.02c-.27-3.7-2.9-2.38-2.9-2.38Z" fill="#CBCBCB"/><path d="M280.73 210.25c1.82-2.54 4.53-6.01 6.86-7.73M278.63 213.35s.46-.73 1.22-1.83M288.9 203.05s3.18 3.96 3.96 8.2M285.75 205.7s.78-.54.78 4.75M287.6 200.67s1.57-1.58.52-4.5M285.48 203.31l-1.31-2.1M283.1 205.7s-3.95-2.65-6.32-2.65" stroke="#263238" stroke-linecap="round" stroke-linejoin="round"/><path d="M322.12 259.86h-20.38v29.4h20.38v-29.4Z" fill="#263238" stroke="#263238" stroke-width="2" stroke-linecap="round" stroke-linejoin="round"/></svg>